<svg width="130" height="54" viewBox="0 0 130 54" fill="none" xmlns="http://www.w3.org/2000/svg">
<g clip-path="url(#clip0_1144_607)" filter="url(#filter0_d_1144_607)">
<path d="M112.275 19.6814L111.29 25.4043L109.204 20.797L104.591 18.7076L110.32 17.7268L111.301 12L113.395 16.6073L118 18.6967L112.275 19.6814Z" fill="#B5C9FF"/>
</g>
<g clip-path="url(#clip1_1144_607)">
<path d="M42.0151 49.5319V50.1981H40.0205V51.4172H41.7721V52.0456H40.0187V54H39.3333V49.5319H42.0151Z" fill="#82C8F4"/>
<path d="M46.4848 49.5319V54H45.5908V49.5319H46.4848Z" fill="#82C8F4"/>
<path d="M53.6363 49.5319V54H52.8431L50.788 50.7117V54H50.0605V49.5319H50.8682L52.8903 52.8265V49.5319H53.6363Z" fill="#82C8F4"/>
<path d="M59.3439 49.5319L60.7878 54H60.0877L59.7377 52.8156H58.2569L57.8894 54H57.212L58.6437 49.5319H59.3439ZM59.5539 52.2266L58.9973 50.3466L58.4145 52.2266H59.5539Z" fill="#82C8F4"/>
<path d="M67.9393 49.5319V54H67.1444L65.0906 50.7117V54H64.3635V49.5319H65.1707L67.1917 52.8265V49.5319H67.9393Z" fill="#82C8F4"/>
<path d="M75.0908 52.273C75.0743 52.7475 74.8885 53.1968 74.5721 53.5271C74.2438 53.8488 73.8113 54.0181 73.3681 53.9985C73.1161 54.0096 72.8648 53.9606 72.6324 53.855C72.3999 53.7493 72.1919 53.5897 72.0233 53.3874C71.6712 52.9341 71.4906 52.3543 71.5177 51.7637C71.5128 51.3802 71.5868 51.0003 71.7344 50.6514C71.8553 50.3898 72.0274 50.1596 72.2389 49.9767C72.4503 49.7937 72.6961 49.6624 72.9591 49.5918C73.2222 49.5212 73.4964 49.5129 73.7627 49.5676C74.029 49.6223 74.2811 49.7386 74.5017 49.9085C74.6579 50.0386 74.7877 50.2017 74.8832 50.3878C74.9788 50.5739 75.0381 50.7792 75.0574 50.9909H74.3684C74.3291 50.7539 74.2104 50.5407 74.035 50.3918C73.8416 50.2463 73.6107 50.1701 73.375 50.174C73.1393 50.178 72.9107 50.2618 72.7217 50.4137C72.5413 50.569 72.4063 50.777 72.3327 51.0128C72.2002 51.4421 72.1816 51.9028 72.279 52.3429C72.3214 52.5213 72.3889 52.6917 72.479 52.8481C72.5707 53.0039 72.6983 53.1312 72.8495 53.2176C73.014 53.3124 73.1983 53.3598 73.3848 53.3554C73.9738 53.3554 74.3109 52.9919 74.3961 52.265L75.0908 52.273Z" fill="#82C8F4"/>
<path d="M82.201 49.5319V50.1918H79.5209V51.3795H82.0081V52.0079H79.5209V53.3276H82.2424V54H78.6666V49.5319H82.201Z" fill="#82C8F4"/>
<path d="M18.5261 30.1689V38.3982C18.5261 43.3411 21.0139 45.8126 25.9896 45.8126C26.4668 45.8068 26.9427 45.7619 27.4126 45.6785C27.8542 45.6085 28.2911 45.5113 28.7208 45.3873C28.9231 45.322 29.1087 45.2132 29.2647 45.0684C29.4207 44.9237 29.5435 44.7465 29.6243 44.5493C29.7982 44.114 29.8834 43.6481 29.8747 43.1791C29.8747 42.5087 29.7704 42.0646 29.5659 41.8446C29.468 41.7405 29.3471 41.6611 29.213 41.6127C29.0789 41.5643 28.9353 41.5483 28.7939 41.5659C28.4967 41.5986 28.2019 41.6504 27.9113 41.721C27.5313 41.8018 27.1437 41.8404 26.7553 41.8362C25.5507 41.8362 24.6793 41.5275 24.1409 40.9102C23.6026 40.2928 23.3328 39.3661 23.3314 38.1301V30.1689H27.4105C28.6916 30.1689 29.3322 29.5641 29.3322 28.3546C29.3322 27.145 28.6916 26.5403 27.4105 26.5403H23.3335V23.0248C23.3335 21.4144 22.551 20.6036 20.9861 20.5924C20.6631 20.5913 20.3431 20.6543 20.0444 20.7778C19.7457 20.9013 19.4743 21.0828 19.2457 21.312C19.0171 21.5411 18.8358 21.8133 18.7123 22.113C18.5888 22.4127 18.5256 22.734 18.5261 23.0583V26.5361V30.1689ZM58.4975 45.756C56.8547 45.756 56.034 44.932 56.0354 43.2839V28.6814C56.0354 27.0584 56.8172 26.247 58.3807 26.247C59.9442 26.247 60.7266 27.0584 60.728 28.6814C61.6502 26.469 63.6157 26.1024 66.6516 26.1674C67.7888 26.1967 68.5295 27.3175 68.5295 28.1681C68.5295 29.5509 67.9619 30.1857 66.4993 30.3386L65.6543 30.4161C62.5022 30.7262 60.9262 32.3477 60.9262 35.2808V43.2755C60.9262 44.9292 60.1166 45.756 58.4975 45.756ZM43.1908 27.659C43.3435 27.4657 43.4412 27.2345 43.4735 26.99C43.5058 26.7454 43.4716 26.4966 43.3744 26.27C42.4543 24.1184 41.5466 21.7657 40.5201 19.7188C40.1028 18.8808 39.4768 19.0253 39.0345 19.7481C38.1999 21.0973 37.2964 22.4172 36.635 23.8502C32.9252 31.8847 31.4479 34.6816 32.0634 43.4368C32.0906 43.8118 32.2345 50.56 32.6477 53.405C32.7332 53.9937 33.6909 54.2535 33.8245 53.6774C35.8233 45.5465 38.1832 42.3746 40.2467 39.4122C42.9008 35.6181 47.3868 31.8994 48.2798 31.5223C45.9033 34.4155 43.629 37.3277 42.0704 40.7153C41.9979 40.8722 41.9585 41.0425 41.9545 41.2154C41.9505 41.3882 41.9822 41.5601 42.0474 41.7202C42.1126 41.8802 42.21 42.0251 42.3335 42.1456C42.457 42.2662 42.604 42.3598 42.7652 42.4207L52.5342 46.1625C52.6485 46.208 52.7737 46.2177 52.8935 46.1902C53.0134 46.1628 53.122 46.0994 53.2052 46.0086C53.2884 45.9178 53.3422 45.8038 53.3595 45.6817C53.3768 45.5595 53.3568 45.4349 53.3021 45.3244L49.8301 37.9457C49.3982 37.0553 49.8802 36.1377 50.2892 35.2557C51.6412 32.3394 52.9794 29.4147 54.3036 26.4816C54.3675 26.3398 54.3891 26.1825 54.3659 26.0286C54.3428 25.8747 54.2757 25.7309 54.173 25.6144C54.0702 25.4979 53.936 25.4137 53.7867 25.3721C53.6373 25.3304 53.4792 25.333 53.3313 25.3796C45.9993 27.724 40.5222 32.2304 35.9339 38.1594C35.9339 38.1594 35.9172 38.1594 35.9235 38.1594C35.9297 38.1594 37.2088 34.9435 38.1999 33.6048C39.2598 32.1697 43.1908 27.659 43.1908 27.659ZM30.8804 37.2355C30.8804 36.4477 31.1245 34.8827 31.4083 33.7577C31.4297 33.675 31.4254 33.5877 31.396 33.5076C31.3665 33.4274 31.3134 33.3582 31.2437 33.3092C31.1741 33.2602 31.0911 33.2337 31.006 33.2334C30.9209 33.233 30.8378 33.2588 30.7677 33.3073C29.4254 34.2533 28.1966 35.3521 27.1059 36.5818C27.0564 36.6377 27.0228 36.7059 27.0084 36.7793C26.994 36.8526 26.9995 36.9285 27.0242 36.9991C27.0489 37.0696 27.0919 37.1322 27.1488 37.1804C27.2058 37.2286 27.2745 37.2607 27.3479 37.2732L30.2544 37.7739C30.3319 37.7864 30.4111 37.7818 30.4866 37.7604C30.562 37.739 30.632 37.7014 30.6916 37.6502C30.7511 37.599 30.7989 37.5353 30.8315 37.4637C30.8641 37.3921 30.8808 37.3142 30.8804 37.2355ZM96.2927 26.2553H95.8858C94.7591 26.2553 93.8473 27.3343 93.8473 28.6626V35.9952C93.8473 38.4527 92.1593 40.4451 90.079 40.4451C87.9988 40.4451 86.3129 38.4527 86.3129 35.9952V28.6626C86.3129 27.3322 85.399 26.2553 84.2722 26.2553H83.8654C82.7387 26.2553 81.8269 27.3343 81.8269 28.6626V36.1042C81.8269 40.5498 84.3724 44.2916 87.836 45.4082V52.2632C87.836 52.7011 88.0092 53.121 88.3176 53.4306C88.6259 53.7402 89.0441 53.9141 89.4802 53.9141H90.6778C91.1139 53.9141 91.5321 53.7402 91.8405 53.4306C92.1488 53.121 92.322 52.7011 92.322 52.2632V45.3601C95.794 44.168 98.3333 40.3864 98.3333 35.9009V28.6626C98.3333 27.3322 97.4194 26.2553 96.2927 26.2553ZM8.08936 45.8335C6.9282 45.8301 5.76944 45.7271 4.62575 45.5256C3.502 45.3391 2.41207 44.9861 1.39165 44.478C0.755955 44.1442 0.338652 43.7252 0.139737 43.221C-0.0517647 42.7414 -0.0584595 42.2074 0.120958 41.7231C0.287529 41.2475 0.630655 40.8549 1.07867 40.6274C1.5377 40.3843 2.07185 40.3906 2.68529 40.6462C3.6195 41.046 4.59009 41.354 5.58346 41.5659C6.42343 41.7429 7.27909 41.8342 8.13735 41.8383C9.20982 41.8383 10.0013 41.6651 10.5118 41.3187C10.7445 41.1765 10.9365 40.9761 11.0689 40.737C11.2013 40.4979 11.2696 40.2284 11.2671 39.9548C11.2671 39.0582 10.6168 38.4946 9.31624 38.2641L5.29552 37.533C3.6889 37.2536 2.46412 36.6775 1.62116 35.8046C0.778211 34.9316 0.360908 33.7919 0.369254 32.3854C0.336563 31.194 0.711384 30.0272 1.43129 29.0795C2.20733 28.1123 3.22557 27.3697 4.38162 26.9279C5.75814 26.3931 7.22501 26.132 8.70071 26.159C10.9458 26.159 12.9363 26.5947 14.6723 27.4663C15.2593 27.7456 15.6231 28.1423 15.7636 28.6563C15.9038 29.1525 15.8699 29.6821 15.6676 30.1563C15.4755 30.6283 15.1228 31.0166 14.6723 31.252C14.2133 31.4951 13.6645 31.4755 13.0261 31.1934C12.2886 30.8463 11.5201 30.5699 10.7309 30.3679C10.0921 30.2067 9.43653 30.1224 8.77791 30.1165C7.63033 30.1165 6.80129 30.3023 6.29079 30.6738C6.0567 30.8251 5.86401 31.0328 5.73027 31.2779C5.59652 31.5231 5.52597 31.7979 5.52504 32.0775C5.52504 32.9742 6.12456 33.5377 7.32361 33.7682L11.3422 34.4973C13.0003 34.7766 14.2634 35.3353 15.1314 36.1733C15.9993 37.0113 16.4333 38.1447 16.4333 39.5735C16.4333 41.5471 15.6683 43.0834 14.1382 44.1826C12.6081 45.2818 10.5918 45.8321 8.08936 45.8335ZM76.9444 41.6288C77.5578 41.8613 78.574 41.4633 79.2813 41.9347C80.0575 42.4521 79.9803 43.6002 79.7424 44.1407C79.2124 45.3328 78.044 45.7518 76.7504 45.7435C75.235 45.7324 73.759 45.2582 72.5189 44.3838C70.4637 42.6009 70.689 40.0386 70.6515 38.9367V23.3244C70.6515 21.5478 71.5243 20.6595 73.27 20.6595C74.9935 20.6595 75.8552 21.5478 75.8552 23.3244V38.7209C75.8531 40.5855 76.0013 41.2705 76.9423 41.6288H76.9444Z" fill="url(#paint0_linear_1144_607)"/>
</g>
<defs>
<filter id="filter0_d_1144_607" x="92.5909" y="0" width="37.4091" height="37.4042" filterUnits="userSpaceOnUse" color-interpolation-filters="sRGB">
<feFlood flood-opacity="0" result="BackgroundImageFix"/>
<feColorMatrix in="SourceAlpha" type="matrix" values="0 0 0 0 0 0 0 0 0 0 0 0 0 0 0 0 0 0 127 0" result="hardAlpha"/>
<feOffset/>
<feGaussianBlur stdDeviation="6"/>
<feColorMatrix type="matrix" values="0 0 0 0 0.709804 0 0 0 0 0.788235 0 0 0 0 1 0 0 0 0.6 0"/>
<feBlend mode="normal" in2="BackgroundImageFix" result="effect1_dropShadow_1144_607"/>
<feBlend mode="normal" in="SourceGraphic" in2="effect1_dropShadow_1144_607" result="shape"/>
</filter>
<linearGradient id="paint0_linear_1144_607" x1="4.68626" y1="52.3114" x2="94.0217" y2="26.1905" gradientUnits="userSpaceOnUse">
<stop stop-color="#314797"/>
<stop offset="1" stop-color="#5CEFF9"/>
</linearGradient>
<clipPath id="clip0_1144_607">
<rect width="13.4091" height="13.4043" fill="white" transform="translate(104.591 12)"/>
</clipPath>
<clipPath id="clip1_1144_607">
<rect width="98.3333" height="34.8511" fill="white" transform="translate(0 19.1489)"/>
</clipPath>
</defs>
</svg>
