<svg width="28" height="20" viewBox="0 0 28 20" fill="none" xmlns="http://www.w3.org/2000/svg">
<path d="M25.2816 0H2.68824C2.14159 0 2.04516 0.648118 2.48354 0.974683L13.9849 9.5423L25.4858 0.975014C25.9244 0.6483 25.8285 0 25.2816 0Z" fill="#C1C8DA"/>
<path d="M14.8306 12.0943C14.589 12.2885 14.2869 12.3717 13.9849 12.3717C13.6828 12.3717 13.3808 12.2885 13.1392 12.0943L0.133452 2.40181C0.0783511 2.36075 0 2.40007 0 2.46879V18.2609C0 19.6201 1.2082 20 2.68824 20H25.3118C26.7918 20 28 19.6201 28 18.2609V2.46879C28 2.40002 27.9216 2.36063 27.8664 2.40167L14.8306 12.0943Z" fill="#C1C8DA"/>
</svg>
