<svg width="30" height="30" viewBox="0 0 30 30" fill="none" xmlns="http://www.w3.org/2000/svg">
<path d="M28.2625 0H1.6625C0.83125 0 0 0.833333 0 1.66667V28.3333C0 29.1667 0.83125 30 1.6625 30H28.2625C29.0938 30 29.925 29.1667 29.925 28.3333L30 1.66667C30 0.833333 29.0938 0 28.2625 0ZM9 25.5H4.5V12H9V25.5ZM6.75 9.45C5.25 9.45 4.05 8.25 4.05 6.75C4.05 5.25 5.25 4.05 6.75 4.05C8.25 4.05 9.45 5.25 9.45 6.75C9.45 8.25 8.25 9.45 6.75 9.45ZM25.5 25.5H21V17.55C21 16.3501 19.95 15.3 18.75 15.3C17.55 15.3 16.5 16.3501 16.5 17.55V25.5H12V12H16.5V13.8C17.25 12.6 18.9 11.7 20.25 11.7C23.1 11.7 25.5 14.1 25.5 16.95V25.5Z" fill="#C1C8DA"/>
</svg>
