<svg width="58" height="59" viewBox="0 0 58 59" fill="none" xmlns="http://www.w3.org/2000/svg">
<path d="M35.7486 20.6677C35.2934 20.3608 35.0205 19.8478 35.0205 19.2988V16.2397C35.0205 7.45549 31.2899 2.14967 29.7296 0.315224C29.5613 0.115719 29.314 0.00200161 29.0536 6.56509e-06C28.7922 -0.000990957 28.5448 0.111729 28.3736 0.309238C26.7872 2.13969 22.9815 7.44751 22.9815 16.2397V19.2987C22.9815 19.8482 22.7077 20.3616 22.2514 20.6677C20.8443 21.6133 20 23.1944 20 24.8862V29.5855C20 29.8638 20.1542 30.1212 20.4006 30.2539C20.648 30.3855 20.9474 30.3706 21.1798 30.215L23.5513 28.6419C24.2173 28.201 24.9985 27.9645 25.7987 27.9645C26.7617 27.9645 27.5423 28.7452 27.5423 29.7082V30.2419C27.5423 30.6608 27.8828 31 28.3025 31H29.6985C30.1182 31 30.4587 30.6608 30.4587 30.2419V29.7072C30.4587 28.7447 31.2389 27.9645 32.2013 27.9645C33.0015 27.9645 33.7837 28.199 34.4507 28.6429L36.8202 30.215C37.0526 30.3706 37.352 30.3855 37.5994 30.2539C37.8458 30.1212 38 29.8638 38 29.5855V24.8862C38 23.1964 37.1547 21.6153 35.7486 20.6677ZM29.0015 14.0082C27.5533 14.0082 26.3776 12.8381 26.3776 11.3957C26.3776 9.95228 27.5533 8.78319 29.0015 8.78319C30.4487 8.78319 31.6244 9.95228 31.6244 11.3957C31.6244 12.8381 30.4487 14.0082 29.0015 14.0082Z" fill="#3C61E2"/>
<path d="M1.216 56H3.504V44.8H1.216V56ZM12.2551 56.192C14.9271 56.192 17.0071 54.544 17.6631 52.16H15.2151C14.6871 53.312 13.6151 54.016 12.2391 54.016C10.1751 54.016 8.76713 52.496 8.76713 50.4C8.76713 48.304 10.1751 46.784 12.2391 46.784C13.6151 46.784 14.6871 47.488 15.2151 48.64H17.6631C17.0071 46.256 14.9271 44.608 12.2551 44.608C8.91113 44.608 6.46313 47.104 6.46313 50.4C6.46313 53.696 8.91113 56.192 12.2551 56.192ZM25.7925 44.608C22.4965 44.608 19.9685 47.104 19.9685 50.4C19.9685 53.696 22.4965 56.192 25.7925 56.192C29.0885 56.192 31.6325 53.696 31.6325 50.4C31.6325 47.104 29.0885 44.608 25.7925 44.608ZM25.7925 46.784C27.8085 46.784 29.3125 48.304 29.3125 50.4C29.3125 52.496 27.8085 54.016 25.7925 54.016C23.7765 54.016 22.2725 52.496 22.2725 50.4C22.2725 48.304 23.7765 46.784 25.7925 46.784ZM38.5815 44.8H34.5335V56H38.5815C41.8455 56 44.3095 53.6 44.3095 50.4C44.3095 47.184 41.8455 44.8 38.5815 44.8ZM38.5815 53.824H36.8215V46.976H38.5815C40.5975 46.976 42.0215 48.384 42.0215 50.4C42.0215 52.416 40.5975 53.824 38.5815 53.824ZM54.6516 56H57.0836L52.8916 44.8H49.9956L45.8036 56H48.2196L49.1796 53.36H53.7076L54.6516 56ZM49.9636 51.184L51.4356 47.12L52.9076 51.184H49.9636Z" fill="#2D344D"/>
</svg>
