<svg width="316" height="282" viewBox="0 0 316 282" fill="none" xmlns="http://www.w3.org/2000/svg">
<path d="M220.119 85.3623C254.724 134.637 225.534 151.607 211.802 190.74C198.07 229.872 188.614 242.009 152.115 251.318C115.62 260.625 73.8376 245.113 66.5516 200.282C59.2656 155.451 33.7064 142.119 32.7021 111.768C31.6978 81.4166 50.655 58.987 88.6589 59.6854C126.663 60.3837 177.453 24.6059 220.119 85.3623Z" fill="url(#paint0_linear)"/>
<path d="M153.391 103.37L171.453 188.365L297.551 161.567L279.488 76.5723L153.391 103.37Z" fill="#C8D3F6"/>
<path d="M280.122 77.5125C280.154 77.5241 279.83 78.0192 279.184 78.9023C278.471 79.8694 277.503 81.1405 276.334 82.7171C273.732 86.099 270.096 90.836 265.648 96.666C256.468 108.458 243.898 124.607 229.963 142.478L229.663 142.855L229.24 142.629C228.923 142.46 228.552 142.289 228.204 142.108C207.725 131.769 189.193 122.426 175.643 115.6C169.033 112.203 163.64 109.428 159.78 107.446C157.994 106.507 156.578 105.739 155.499 105.184C154.538 104.654 154.031 104.361 154.043 104.329C154.054 104.298 154.606 104.516 155.612 104.973C156.724 105.486 158.185 106.18 159.995 107.055C163.899 108.963 169.339 111.61 176.016 114.871C189.612 121.622 208.179 130.869 228.725 141.071C229.074 141.252 229.445 141.423 229.762 141.593L229.039 141.745C243.069 123.962 255.744 107.87 265.008 96.1445C269.593 90.4361 273.313 85.7658 275.988 82.4289C277.253 80.887 278.251 79.6811 279.027 78.7372C279.694 77.8975 280.08 77.4792 280.122 77.5125Z" fill="#557BFF"/>
<path d="M172.073 189.281C171.788 189.124 178.799 175.46 187.727 158.761C196.655 142.062 204.121 128.636 204.406 128.794C204.691 128.952 197.68 142.615 188.752 159.315C179.834 176.035 172.359 189.439 172.073 189.281Z" fill="#557BFF"/>
<path d="M246.089 118.823C246.289 118.571 258.134 128.149 272.507 140.198C286.89 152.269 298.382 162.223 298.182 162.475C297.982 162.727 286.137 153.149 271.764 141.1C257.369 129.061 245.889 119.075 246.089 118.823Z" fill="#557BFF"/>
<path d="M38.3382 68.9543L1.14062 171.154L152.757 226.338L189.955 124.138L38.3382 68.9543Z" fill="#3C61E2"/>
<path d="M151.195 227.545L151.151 227.524L0.615234 169.315L0.636926 169.271L39.8553 67.7637L39.8987 67.7854L190.435 125.994L190.413 126.038L151.195 227.545ZM0.745451 169.25L151.13 227.393L190.304 126.059L39.9204 67.8939L0.745451 169.25Z" fill="#263238"/>
<path d="M190.391 127.426C190.412 127.469 189.74 127.752 188.459 128.229C187.048 128.75 185.182 129.423 182.86 130.269C177.824 132.049 170.771 134.523 162.133 137.562C144.444 143.639 120.201 151.951 93.3757 161.153L92.8115 161.349L92.5076 160.828C92.2689 160.437 92.0301 160.003 91.7697 159.569C77.3802 134.74 64.3581 112.255 54.8302 95.8257C50.229 87.7302 46.4743 81.1324 43.7831 76.4227C42.5677 74.2089 41.591 72.4509 40.8531 71.1053C40.202 69.8899 39.8764 69.2388 39.9199 69.1954C39.9633 69.1737 40.3756 69.7814 41.1135 70.9534C41.9166 72.2556 42.98 73.9702 44.2823 76.1188C47.0603 80.7851 50.967 87.2962 55.7417 95.2831C65.3564 111.669 78.5088 134.067 93.0502 158.809C93.3106 159.244 93.5494 159.678 93.7881 160.068L92.92 159.743C119.811 150.692 144.075 142.532 161.829 136.563C170.532 133.698 177.629 131.376 182.708 129.705C185.073 128.967 186.962 128.359 188.416 127.904C189.696 127.578 190.391 127.383 190.391 127.426Z" fill="#A6BAFF"/>
<path d="M0.679432 170.682C0.484099 170.334 17.1741 160.806 37.9662 149.412C58.7582 138.018 75.7521 129.054 75.9474 129.423C76.1428 129.77 59.4527 139.298 38.6607 150.714C17.8904 162.087 0.874764 171.029 0.679432 170.682Z" fill="#A6BAFF"/>
<path d="M126.472 147.481C126.862 147.373 132.701 165.495 139.516 187.959C146.331 210.444 151.561 228.761 151.17 228.87C150.78 228.978 144.942 210.856 138.127 188.393C131.29 165.908 126.081 147.59 126.472 147.481Z" fill="#A6BAFF"/>
<path d="M174.051 31.1485L123.89 31.1791L124.106 68.4479L124.157 76.2929L133.892 68.4072L174.051 68.4071V31.1485Z" fill="#3C61E2"/>
<path d="M156.528 46.6572L148.061 55.3576C147.434 56.0021 146.416 56.0021 145.789 55.3576L141.418 50.8657C140.79 50.2213 140.79 49.176 141.418 48.5314C142.045 47.8867 143.062 47.8867 143.689 48.5312L146.925 51.8561L154.256 44.3227C154.884 43.678 155.901 43.6785 156.528 44.3227C157.155 44.9673 157.155 46.0122 156.528 46.6572Z" fill="white"/>
<defs>
<linearGradient id="paint0_linear" x1="148.258" y1="136.738" x2="218.335" y2="65.1683" gradientUnits="userSpaceOnUse">
<stop stop-color="#F2F5FD"/>
<stop offset="1" stop-color="#F2F5FD"/>
</linearGradient>
</defs>
</svg>
