<svg width="29" height="28" viewBox="0 0 29 28" fill="none" xmlns="http://www.w3.org/2000/svg">
<path d="M10.5729 21.4407V27.087C10.5729 27.4814 10.8243 27.8308 11.1964 27.955C11.2895 27.9854 11.3849 28 11.4792 28C11.7619 28 12.035 27.8661 12.209 27.6275L15.4872 23.1329L10.5729 21.4407Z" fill="#C1C8DA"/>
<path d="M28.6193 0.169325C28.3414 -0.0291094 27.9765 -0.0558919 27.6744 0.103586L0.48701 14.4079C0.165595 14.5771 -0.0241128 14.9228 0.0024704 15.2868C0.030262 15.652 0.27072 15.9637 0.612677 16.0818L8.17078 18.6846L24.2669 4.81852L11.8115 19.9372L24.4784 24.2991C24.5726 24.3308 24.6717 24.3478 24.7708 24.3478C24.9351 24.3478 25.0983 24.3028 25.2421 24.2151C25.4716 24.0739 25.6275 23.8365 25.6674 23.5699L28.9903 1.04828C29.0398 0.70741 28.8972 0.368976 28.6193 0.169325Z" fill="#C1C8DA"/>
</svg>
