<?xml version="1.0" encoding="utf-8"?>
<svg xmlns="http://www.w3.org/2000/svg" viewBox="0 0 160 26" fill="none">
<g clip-path="url(#clip0_409_5755)">
<path d="M150.563 24.1516C148.904 24.1516 147.476 23.788 146.281 23.0675C145.086 22.3471 144.24 21.3506 143.748 20.0848C143.25 18.819 143.174 17.3983 143.523 15.8227C143.871 14.227 144.581 12.8063 145.64 11.5472C146.705 10.2881 147.989 9.30511 149.498 8.58468C151.007 7.86424 152.605 7.50065 154.291 7.50065C155.555 7.50065 156.668 7.71611 157.624 8.14029C158.58 8.56448 159.379 9.20412 160.014 10.0592L156.053 13.2709C155.766 12.8534 155.398 12.5505 154.94 12.3552C154.483 12.1599 153.936 12.0589 153.294 12.0589C152.564 12.0589 151.881 12.2138 151.246 12.5303C150.611 12.8467 150.071 13.2844 149.627 13.8432C149.184 14.4021 148.883 15.0484 148.719 15.7958C148.555 16.5364 148.576 17.1963 148.767 17.7619C148.965 18.3274 149.313 18.7786 149.819 19.1017C150.324 19.4317 150.932 19.5933 151.642 19.5933C152.304 19.5933 152.926 19.4788 153.492 19.2499C154.066 19.0209 154.585 18.6978 155.049 18.2803L157.569 21.492C156.538 22.3673 155.439 23.0271 154.278 23.4782C153.117 23.9226 151.881 24.1516 150.577 24.1516M141.344 5.66925C140.545 5.66925 139.945 5.39993 139.542 4.86802C139.139 4.32937 139.023 3.68299 139.187 2.91542C139.357 2.12765 139.767 1.47454 140.402 0.949364C141.037 0.424184 141.754 0.161594 142.553 0.161594C143.352 0.161594 143.946 0.424184 144.342 0.949364C144.738 1.47454 144.847 2.12765 144.677 2.91542C144.506 3.68299 144.11 4.32937 143.482 4.86802C142.853 5.40666 142.143 5.66925 141.344 5.66925ZM134.809 23.788L138.306 7.86424H143.393L139.897 23.788H134.809ZM123.378 12.1195L124.314 7.8575H136.715L135.779 12.1195H123.385H123.378ZM124.471 23.788L129.415 1.27255H134.502L129.558 23.788H124.471ZM113.388 24.1785C112.432 24.1785 111.524 24.0573 110.657 23.8149C109.79 23.5725 109.011 23.2291 108.321 22.7847C107.632 22.3336 107.079 21.8152 106.655 21.2294L110.179 18.3476C110.589 18.9132 111.121 19.3576 111.784 19.6741C112.446 19.9905 113.211 20.1454 114.071 20.1454C114.672 20.1454 115.15 20.0578 115.505 19.8828C115.867 19.7077 116.079 19.4653 116.147 19.1623C116.236 18.7718 116.106 18.4688 115.765 18.2601C115.423 18.0514 114.972 17.8696 114.406 17.7013C113.846 17.5397 113.252 17.3579 112.63 17.1626C112.009 16.9674 111.435 16.6913 110.916 16.3412C110.397 15.9911 110.015 15.5063 109.776 14.8801C109.537 14.2607 109.523 13.4662 109.728 12.5033C109.953 11.4732 110.418 10.5844 111.114 9.8303C111.811 9.07619 112.699 8.48368 113.764 8.04603C114.829 7.60838 116.024 7.39292 117.328 7.39292C118.701 7.39292 119.916 7.62858 120.982 8.09989C122.04 8.57121 122.839 9.26472 123.365 10.1804L119.841 13.0622C119.459 12.4697 118.981 12.0589 118.4 11.8166C117.82 11.5742 117.233 11.453 116.639 11.453C116.045 11.453 115.614 11.5338 115.287 11.6954C114.966 11.857 114.768 12.0926 114.699 12.4023C114.631 12.7323 114.761 12.9948 115.089 13.1901C115.423 13.3854 115.874 13.5604 116.434 13.7153C117.001 13.8701 117.588 14.0519 118.209 14.2741C118.824 14.4963 119.391 14.7858 119.91 15.1562C120.428 15.5265 120.804 16.0247 121.043 16.6442C121.282 17.2703 121.289 18.0783 121.07 19.0883C120.729 20.6369 119.869 21.8758 118.482 22.7915C117.096 23.7072 115.396 24.165 113.375 24.165L113.388 24.1785ZM99.6492 23.788L100.592 19.4923L102.203 15.6275L102.285 11.7627L103.139 7.86424H108.123L104.627 23.788H99.6423H99.6492ZM97.1499 19.5933C98.2357 19.5933 99.1917 19.2364 100.011 18.5294C100.831 17.8157 101.363 16.9202 101.602 15.8227C101.766 15.0821 101.759 14.4223 101.582 13.8567C101.404 13.2911 101.083 12.8467 100.612 12.5303C100.141 12.2138 99.5468 12.0589 98.8366 12.0589C98.1264 12.0589 97.4709 12.2138 96.8563 12.5303C96.2417 12.8467 95.7159 13.2911 95.2721 13.8567C94.8282 14.4223 94.5209 15.0821 94.357 15.8227C94.2 16.5432 94.2136 17.1896 94.398 17.7551C94.5824 18.3207 94.917 18.7718 95.4018 19.095C95.8866 19.4249 96.4671 19.5865 97.1568 19.5865L97.1499 19.5933ZM95.1287 24.1179C93.6469 24.1179 92.3972 23.7543 91.3934 23.0339C90.3896 22.3134 89.6863 21.3304 89.2834 20.0848C88.8805 18.8392 88.8532 17.4185 89.2083 15.8227C89.5566 14.227 90.2053 12.8063 91.1544 11.5607C92.1036 10.3151 93.2372 9.33205 94.5619 8.61161C95.8798 7.89117 97.2865 7.53432 98.7683 7.53432C99.854 7.53432 100.79 7.74304 101.575 8.15376C102.36 8.56448 102.947 9.14352 103.343 9.87743C103.739 10.6113 103.862 11.4462 103.726 12.3821L102.217 19.2633C101.944 20.206 101.459 21.0409 100.755 21.768C100.052 22.502 99.2122 23.0743 98.2357 23.485C97.2592 23.9024 96.2281 24.1112 95.1423 24.1112L95.1287 24.1179ZM69.3099 23.788L74.5133 0H79.6005L77.0193 11.7627L75.3395 15.6275L75.2576 19.4923L74.3152 23.788H69.2962H69.3099ZM78.6377 19.5933C79.3479 19.5933 80.0102 19.4317 80.6248 19.1017C81.2394 18.7718 81.7652 18.3274 82.1954 17.7619C82.6324 17.1963 82.926 16.5499 83.0831 15.8295C83.247 15.0888 83.2333 14.429 83.049 13.8634C82.8646 13.2978 82.53 12.8534 82.0588 12.537C81.5876 12.2205 80.9936 12.0657 80.2834 12.0657C79.5732 12.0657 78.9108 12.2205 78.2826 12.537C77.6612 12.8534 77.1354 13.2978 76.712 13.8634C76.2887 14.429 75.995 15.0888 75.8312 15.8295C75.6673 16.5701 75.6809 17.2299 75.8653 17.7955C76.0497 18.3611 76.3774 18.8055 76.8554 19.1219C77.3266 19.4384 77.9207 19.6 78.6309 19.6L78.6377 19.5933ZM78.5421 24.1179C77.4564 24.1179 76.5072 23.8957 75.6946 23.4446C74.882 23.0002 74.2742 22.3942 73.8645 21.6401C73.4548 20.886 73.3046 20.0376 73.4275 19.1017L74.9025 12.3821C75.1961 11.4395 75.7151 10.6046 76.4526 9.87743C77.19 9.14352 78.0573 8.57121 79.0542 8.15376C80.0512 7.73631 81.096 7.53432 82.1817 7.53432C83.7113 7.53432 84.9883 7.89117 86.0125 8.61161C87.0368 9.33205 87.7538 10.3151 88.1567 11.5607C88.5596 12.8063 88.5869 14.227 88.2318 15.8227C87.8836 17.4185 87.2349 18.8392 86.2857 20.0848C85.3365 21.3304 84.1893 22.3134 82.8441 23.0339C81.4989 23.7543 80.0649 24.1179 78.5353 24.1179H78.5421ZM61.6004 23.788L63.6422 14.4829C63.8197 13.6749 63.7105 13.0487 63.3076 12.5976C62.9047 12.1532 62.3379 11.9243 61.6073 11.9243C61.0951 11.9243 60.624 12.0253 60.1801 12.234C59.7362 12.4427 59.3538 12.7323 59.0397 13.1026C58.7256 13.4729 58.5071 13.9307 58.391 14.4761L55.5503 14.0789C55.8918 12.7255 56.4722 11.5607 57.2985 10.5911C58.1247 9.62157 59.0944 8.86747 60.2211 8.32882C61.3478 7.79691 62.5428 7.52758 63.8061 7.52758C65.0694 7.52758 66.0936 7.78344 66.9404 8.29515C67.7871 8.80687 68.3949 9.54077 68.7499 10.4901C69.105 11.4395 69.1392 12.5841 68.8455 13.9173L66.6809 23.7812H61.5936L61.6004 23.788ZM51.262 23.788L53.3037 14.4829C53.4813 13.6749 53.372 13.0487 52.9691 12.5976C52.5663 12.1532 52.0063 11.9243 51.2757 11.9243C50.7635 11.9243 50.2855 12.0253 49.8417 12.234C49.3978 12.4427 49.0154 12.7323 48.7013 13.1026C48.3872 13.4729 48.1687 13.9307 48.0526 14.4761L46.2771 13.621C46.5571 12.3552 47.0693 11.2644 47.8204 10.3622C48.5715 9.45324 49.4797 8.753 50.5382 8.26822C51.5966 7.77671 52.7301 7.53432 53.9251 7.53432C55.0519 7.53432 56.0147 7.78344 56.8 8.28842C57.5852 8.7934 58.1452 9.48691 58.4866 10.3891C58.8212 11.2846 58.8554 12.3552 58.5822 13.6008L56.3424 23.7947H51.2552L51.262 23.788ZM40.9236 23.788L44.4198 7.86424H49.5071L46.0108 23.788H40.9236ZM31.1109 19.5933C31.8416 19.5933 32.5176 19.4384 33.1458 19.1152C33.7672 18.7988 34.293 18.3476 34.7164 17.7753C35.1398 17.1963 35.4402 16.5364 35.6041 15.7891C35.768 15.0484 35.7543 14.3953 35.57 13.8365C35.3788 13.2776 35.051 12.84 34.5798 12.5235C34.1087 12.2071 33.5009 12.0522 32.7703 12.0522C32.0396 12.0522 31.3977 12.2071 30.7695 12.5235C30.1481 12.84 29.6155 13.2844 29.1784 13.8499C28.7414 14.4155 28.4409 15.0754 28.2839 15.816C28.1268 16.5364 28.1405 17.1896 28.318 17.7686C28.5024 18.3476 28.837 18.7988 29.3218 19.1085C29.8067 19.4249 30.4007 19.5865 31.1109 19.5865V19.5933ZM30.1139 24.1516C28.4546 24.1516 27.0343 23.788 25.8529 23.0541C24.6716 22.3202 23.8317 21.3237 23.34 20.0578C22.8415 18.792 22.7664 17.3713 23.1078 15.7958C23.4561 14.2203 24.1526 12.813 25.1974 11.5674C26.249 10.3218 27.5191 9.33205 29.0077 8.59814C30.4963 7.86424 32.0874 7.50065 33.7672 7.50065C35.4471 7.50065 36.8811 7.8575 38.0487 8.58468C39.2164 9.30511 40.0563 10.2949 40.5548 11.5472C41.0533 12.8063 41.1352 14.2203 40.787 15.7891C40.4387 17.3646 39.7422 18.7853 38.6906 20.0511C37.639 21.3169 36.3621 22.3202 34.8735 23.0473C33.3848 23.7812 31.7938 24.1448 30.1139 24.1448V24.1516ZM-7.37701e-06 25.6934L7.60018 9.7697H2.93627L6.49395 0.653109H12.4211L7.3407 23.788H3.12747L-0.00683594 25.6867L-7.37701e-06 25.6934ZM6.17984 23.7947L7.06072 19.7953H12.5782C13.5957 19.7953 14.4629 19.499 15.1662 18.9132C15.8696 18.3207 16.3203 17.6003 16.5046 16.7519C16.6344 16.1594 16.6139 15.6409 16.45 15.1764C16.2861 14.7185 15.9925 14.3549 15.5759 14.0923C15.1594 13.8297 14.6063 13.7018 13.9166 13.7018H8.39912L9.25269 9.80336H14.34C15.2072 9.80336 15.9515 9.5879 16.5729 9.16372C17.2011 8.73954 17.604 8.08643 17.7952 7.21113C17.9796 6.35603 17.8567 5.72312 17.4197 5.2922C16.9826 4.86802 16.3271 4.65256 15.4667 4.65256H10.3794L11.2603 0.653109H17.3445C18.8536 0.653109 20.0691 0.929165 21.0046 1.47454C21.9402 2.01992 22.582 2.75383 22.9303 3.66953C23.2854 4.58523 23.34 5.60192 23.0942 6.71961C22.7801 8.14029 22.0494 9.33878 20.909 10.3218C19.7618 11.3048 18.2391 11.9849 16.3407 12.3552L16.8529 10.6181C18.7444 10.9884 20.1033 11.7425 20.9295 12.8804C21.7558 14.0183 21.9811 15.412 21.6192 17.0751C21.3392 18.3409 20.7725 19.4855 19.9189 20.5022C19.0653 21.5189 17.9796 22.3202 16.6685 22.9127C15.3506 23.5052 13.862 23.7947 12.2026 23.7947H6.18667H6.17984Z" fill="#010101"/>
</g>
<defs>
<clipPath id="clip0_409_5755">
<rect width="160" height="25.6934" fill="white"/>
</clipPath>
</defs>
</svg>