<svg width="64" height="108" viewBox="0 0 64 108" fill="none" xmlns="http://www.w3.org/2000/svg">
<g clip-path="url(#clip0_2_1000)">
<path d="M20.9001 108C21.7001 108 22.5001 107.6 22.9001 106.9C23.7001 105.8 23.4001 104.2 22.3001 103.4C21.0001 102.5 15.5001 99.4 10.7001 96.8C26.6001 95.5 39.9001 88.5 49.2001 76.6C66.1001 55 66.5001 23.1 61.8001 2.4C61.5001 1.1 60.1001 0.199997 58.8001 0.499997C57.5001 0.799997 56.6001 2.2 56.9001 3.5C61.4001 23.1 61.1001 53.3 45.3001 73.5C36.3001 85 23.8001 91.2 8.10006 91.9L9.90006 89.6C11.3001 87.9 12.6001 86.2 14.0001 84.5C14.7001 83.6 15.5001 82.6 16.3001 81.6C17.2001 80.5 17.0001 79 15.9001 78.1C14.8001 77.2 13.3001 77.4 12.4001 78.5C12.4001 78.5 12.4001 78.6 12.3001 78.6L5.90006 86.5C5.40006 87 5.00006 87.6 4.50006 88.2C3.00006 90 1.40006 91.8 0.10006 93.8C0.10006 93.9 6.10352e-05 93.9 6.10352e-05 94C-0.099939 94.3 -0.199942 94.5 -0.299942 94.8V95.4C-0.299942 95.6 -0.199937 95.8 -0.0999374 96C6.25625e-05 96.1 5.95078e-05 96.3 0.10006 96.4C0.20006 96.6 0.400056 96.8 0.600056 97C0.700056 97.1 0.900056 97.2 1.10006 97.3C1.20006 97.3 1.20006 97.4 1.30006 97.4C2.50006 98 17.3001 106 19.4001 107.4C19.9001 107.9 20.4001 108 20.9001 108Z" fill="#C9C9C9"/>
</g>
<defs>
<clipPath id="clip0_2_1000">
<rect width="64" height="108" fill="white" transform="matrix(-1 0 0 1 64 0)"/>
</clipPath>
</defs>
</svg>
