<svg xmlns="http://www.w3.org/2000/svg" width="986" height="16" viewBox="0 0 986 16" fill="none">
<path d="M24.2071 8.70711C24.5976 8.31658 24.5976 7.68342 24.2071 7.29289L17.8431 0.928932C17.4526 0.538408 16.8195 0.538408 16.4289 0.928932C16.0384 1.31946 16.0384 1.95262 16.4289 2.34315L22.0858 8L16.4289 13.6569C16.0384 14.0474 16.0384 14.6805 16.4289 15.0711C16.8195 15.4616 17.4526 15.4616 17.8431 15.0711L24.2071 8.70711ZM504.707 8.70711C505.098 8.31658 505.098 7.68342 504.707 7.29289L498.343 0.928932C497.953 0.538408 497.319 0.538408 496.929 0.928932C496.538 1.31946 496.538 1.95262 496.929 2.34315L502.586 8L496.929 13.6569C496.538 14.0474 496.538 14.6805 496.929 15.0711C497.319 15.4616 497.953 15.4616 498.343 15.0711L504.707 8.70711ZM985.207 8.70711C985.598 8.31658 985.598 7.68342 985.207 7.29289L978.843 0.928932C978.453 0.538408 977.819 0.538408 977.429 0.928932C977.038 1.31946 977.038 1.95262 977.429 2.34315L983.086 8L977.429 13.6569C977.038 14.0474 977.038 14.6805 977.429 15.0711C977.819 15.4616 978.453 15.4616 978.843 15.0711L985.207 8.70711ZM0 9H23.5V7H0V9ZM480.5 9H504V7H480.5V9ZM961 9H984.5V7H961V9Z" fill="#F13574"/>
</svg>