<svg width="18" height="18" viewBox="0 0 18 18" fill="none" xmlns="http://www.w3.org/2000/svg">
<path d="M16.7063 10.7087C17.0968 10.3182 17.0968 9.685 16.7063 9.29447L10.3423 2.93047C9.95182 2.53994 9.31866 2.53994 8.92813 2.93046C8.53761 3.32098 8.5376 3.95415 8.92812 4.34467L14.5849 10.0016L8.92804 15.6584C8.53752 16.0489 8.53751 16.6821 8.92803 17.0726C9.31856 17.4631 9.95172 17.4631 10.3422 17.0726L16.7063 10.7087ZM499.555 10.1722C499.944 9.78051 499.942 9.14735 499.55 8.75803L493.167 2.41371C492.775 2.02439 492.142 2.02634 491.753 2.41807C491.363 2.80979 491.365 3.44296 491.757 3.83228L497.431 9.47167L491.792 15.1459C491.403 15.5377 491.405 16.1708 491.796 16.5601C492.188 16.9495 492.821 16.9475 493.21 16.5558L499.555 10.1722ZM974.686 8.70804C975.075 8.31632 975.073 7.68315 974.682 7.29383L968.298 0.949515C967.906 0.560197 967.273 0.562148 966.884 0.953873C966.495 1.3456 966.497 1.97876 966.888 2.36808L972.563 8.00748L966.923 13.6817C966.534 14.0735 966.536 14.7066 966.927 15.0959C967.319 15.4853 967.952 15.4833 968.342 15.0916L974.686 8.70804ZM-6.99327e-06 11.0015L15.9991 11.0016L15.9992 9.00158L6.99327e-06 9.00146L-6.99327e-06 11.0015ZM475.611 10.5389L498.849 10.4673L498.842 8.46732L475.605 8.53893L475.611 10.5389ZM950.742 9.07472L973.98 9.00311L973.974 7.00312L950.736 7.07473L950.742 9.07472Z" fill="#F13574"/>
</svg>
