<svg width="40" height="40" viewBox="0 0 40 40" fill="none" xmlns="http://www.w3.org/2000/svg">
<circle cx="20" cy="20" r="19.25" fill="white" fill-opacity="0.8" stroke="#3C61E2" stroke-width="1.5"/>
<mask id="path-2-inside-1_252_7295" fill="white">
<path fill-rule="evenodd" clip-rule="evenodd" d="M21.5213 12.4106L27.599 18.6957C27.9719 19.0814 27.9719 19.7067 27.599 20.0924L21.5213 26.3775C21.1484 26.7632 20.5437 26.7632 20.1708 26.3775C19.7978 25.9918 19.7978 25.3665 20.1708 24.9808L24.6181 20.3817H12.1211V18.4065H24.6181L20.1708 13.8073C19.7978 13.4216 19.7978 12.7963 20.1708 12.4106C20.5437 12.0249 21.1484 12.0249 21.5213 12.4106Z"/>
</mask>
<path fill-rule="evenodd" clip-rule="evenodd" d="M21.5213 12.4106L27.599 18.6957C27.9719 19.0814 27.9719 19.7067 27.599 20.0924L21.5213 26.3775C21.1484 26.7632 20.5437 26.7632 20.1708 26.3775C19.7978 25.9918 19.7978 25.3665 20.1708 24.9808L24.6181 20.3817H12.1211V18.4065H24.6181L20.1708 13.8073C19.7978 13.4216 19.7978 12.7963 20.1708 12.4106C20.5437 12.0249 21.1484 12.0249 21.5213 12.4106Z" fill="#3C61E2"/>
<path d="M27.599 18.6957L29.0367 17.3054L29.0367 17.3054L27.599 18.6957ZM21.5213 12.4106L20.0836 13.8009L20.0836 13.8009L21.5213 12.4106ZM27.599 20.0924L29.0367 21.4827H29.0367L27.599 20.0924ZM21.5213 26.3775L20.0836 24.9872L20.0836 24.9872L21.5213 26.3775ZM20.1708 24.9808L18.733 23.5906L18.733 23.5906L20.1708 24.9808ZM24.6181 20.3817L26.0558 21.772L29.3342 18.3817H24.6181V20.3817ZM12.1211 20.3817H10.1211V22.3817H12.1211V20.3817ZM12.1211 18.4065V16.4065H10.1211V18.4065H12.1211ZM24.6181 18.4065V20.4065H29.3342L26.0558 17.0162L24.6181 18.4065ZM20.1708 13.8073L18.733 15.1976L18.733 15.1976L20.1708 13.8073ZM29.0367 17.3054L22.9591 11.0203L20.0836 13.8009L26.1612 20.086L29.0367 17.3054ZM29.0367 21.4827C30.1593 20.3217 30.1593 18.4664 29.0367 17.3054L26.1612 20.086C25.7845 19.6964 25.7845 19.0917 26.1612 18.7021L29.0367 21.4827ZM22.9591 27.7678L29.0367 21.4827L26.1612 18.7021L20.0836 24.9872L22.9591 27.7678ZM18.733 27.7678C19.8921 28.9665 21.8 28.9665 22.9591 27.7678L20.0836 24.9872C20.4968 24.56 21.1953 24.56 21.6085 24.9872L18.733 27.7678ZM18.733 23.5906C17.6104 24.7515 17.6104 26.6069 18.733 27.7678L21.6085 24.9872C21.9852 25.3768 21.9852 25.9815 21.6085 26.3711L18.733 23.5906ZM23.1803 18.9914L18.733 23.5906L21.6085 26.3711L26.0558 21.772L23.1803 18.9914ZM12.1211 22.3817H24.6181V18.3817H12.1211V22.3817ZM10.1211 18.4065V20.3817H14.1211V18.4065H10.1211ZM24.6181 16.4065H12.1211V20.4065H24.6181V16.4065ZM18.733 15.1976L23.1803 19.7967L26.0558 17.0162L21.6085 12.417L18.733 15.1976ZM18.733 11.0203C17.6104 12.1813 17.6104 14.0366 18.733 15.1976L21.6085 12.417C21.9852 12.8066 21.9852 13.4113 21.6085 13.8009L18.733 11.0203ZM22.9591 11.0203C21.8 9.82168 19.8921 9.82168 18.733 11.0203L21.6085 13.8009C21.1953 14.2282 20.4968 14.2282 20.0836 13.8009L22.9591 11.0203Z" fill="#3C61E2" mask="url(#path-2-inside-1_252_7295)"/>
</svg>
