<svg id="Ñëîé_1" data-name="Ñëîé 1" xmlns="http://www.w3.org/2000/svg" viewBox="0 0 71.63 174.85"><defs><style>.cls-1{fill:#e4141a}.cls-2{fill:#d4ecff}.cls-3{fill:#173d7a}.cls-4{fill:#ffc2b0}.cls-5{fill:#fff}.cls-6{fill:#ea9c92}.cls-7{fill:#b7161b}.cls-8{fill:#5793ce}.cls-9{fill:#396caa}</style></defs><path class="cls-1" d="M119.05 500.61s3.75-1.89 6 .93 5.59 9.46 5.7 13.95-3.56 4.19-5.73 3.13-8.52-10.27-8.91-12.08.46-4.24 1.07-4.72 1.87-1.21 1.87-1.21z" transform="translate(-76.16 -344.43)"/><path class="cls-2" d="M118.23 499.71l-.17 3.89a2.2 2.2 0 0 0 1.09 2 4.4 4.4 0 0 0 2.9.45c2.82-.46 3.07-1.26 3.27-5.15s-7.09-1.19-7.09-1.19z" transform="translate(-76.16 -344.43)"/><path class="cls-1" d="M132.77 493.15s3.75-1.9 6 .92 5.6 9.46 5.7 13.95-3.55 4.19-5.73 3.13-8.52-10.27-8.9-12.08.45-4.24 1.06-4.72 1.87-1.2 1.87-1.2z" transform="translate(-76.16 -344.43)"/><path class="cls-2" d="M132 492.24l-.17 3.89a2.2 2.2 0 0 0 1.1 2 4.35 4.35 0 0 0 2.89.45c2.83-.46 3.08-1.26 3.28-5.15s-7.1-1.19-7.1-1.19z" transform="translate(-76.16 -344.43)"/><path class="cls-3" d="M98.5 420.92c1.11-18.05 19.55 2.66 19.55 2.66L130.68 436 142 448.44a11.2 11.2 0 0 1 2.83 9l-4.6 35a3.45 3.45 0 0 1-3.45 3 11.19 11.19 0 0 1-1.7-.15 4.27 4.27 0 0 1-3.8-4.54l.84-32.75-23.88-14.39S97.39 439 98.5 420.92z" transform="translate(-76.16 -344.43)"/><path class="cls-3" d="M84.77 427.8c1.11-18.06 19.56 2.66 19.56 2.66L117 442.83l11.37 12.49a11.2 11.2 0 0 1 2.82 9l-4.6 35a3.43 3.43 0 0 1-3.45 3 11.3 11.3 0 0 1-1.7-.15 4.28 4.28 0 0 1-3.8-4.54l.82-31.81-23.9-15.32s-10.9-4.64-9.79-22.7z" transform="translate(-76.16 -344.43)"/><path class="cls-1" d="M95.68 369.84C81.7 375.64 82 383.9 82 383.9s2.74 30.31 1.8 50.55c-.39 8.46 45 9.1 38.2-13.47-8-26.61-5-48.16-8.72-51.41s-13.98-1.23-17.6.27z" transform="translate(-76.16 -344.43)"/><path class="cls-4" d="M91.19 377.17c.73 2.84 4.45 4.33 8.3 3.34s6.4-4.1 5.66-6.94-4.45-4.34-8.3-3.34-6.4 4.1-5.66 6.94z" transform="translate(-76.16 -344.43)"/><path class="cls-5" d="M93.92 380.9a5.06 5.06 0 0 1-2.14-8.32 9.81 9.81 0 0 1 10.64-2.74 5.05 5.05 0 0 1 2.14 8.31 9.29 9.29 0 0 1-4.9 3 10.26 10.26 0 0 1-2.55.33 8.58 8.58 0 0 1-3.19-.58zm3.09-10a7.93 7.93 0 0 0-4.2 2.55 4 4 0 0 0-1 3.57 4.06 4.06 0 0 0 2.59 2.66 8.5 8.5 0 0 0 9.11-2.35 3.73 3.73 0 0 0-1.61-6.23 7.15 7.15 0 0 0-2.69-.49 8.63 8.63 0 0 0-2.21.27z" transform="translate(-76.16 -344.43)"/><path class="cls-4" d="M101.29 369.21a34.67 34.67 0 0 0 .12 5c.08 1.39-4.8 2.69-6.06 1.43s-.76-2.57-1.06-7.31 7 .88 7 .88z" transform="translate(-76.16 -344.43)"/><path class="cls-6" d="M94.29 368.32s1.2 4.4 7.12 6.08l-.09-4z" transform="translate(-76.16 -344.43)"/><path class="cls-4" d="M90.54 357.15a10.76 10.76 0 1 0 13.12-7.73 10.76 10.76 0 0 0-13.12 7.73z" transform="translate(-76.16 -344.43)"/><path class="cls-6" d="M98.49 360.24s5.92 2.54 10 2.57 3.2-3.41 3.2-3.41l-12.18-1.76z" transform="translate(-76.16 -344.43)"/><path class="cls-2" d="M109.74 360.91s-5.16-2.19-9.69-1.28a4.83 4.83 0 0 0-2.74 1.63 1.64 1.64 0 0 1-.83.6c-.8.18-2.11-3.15-3.67-3.23s-2.61 1-1.33 3.08.85 4.34.26 4.67-7.88-4.76-2.37-15.67 20.55-4.74 22.73-2.52c0 0 2.29 2 4.16.22 0 0 2.09 15.66-6.52 12.5z" transform="translate(-76.16 -344.43)"/><path class="cls-4" d="M89.82 406v8.19a3.35 3.35 0 0 0 1.09 2.47L107.74 432l-1.92 3-23.17-15.2a4.49 4.49 0 0 1-1.84-3.18l-1.59-15.2z" transform="translate(-76.16 -344.43)"/><path class="cls-1" d="M83.16 379.81s-5.1 7.67-7 27.88c0 0 8.72 2.82 13.66 1.21s-6.66-29.09-6.66-29.09z" transform="translate(-76.16 -344.43)"/><path class="cls-7" d="M90.76 389.51s2 10.7 2.11 15.72a3.21 3.21 0 0 1-2.11 3.1z" transform="translate(-76.16 -344.43)"/><path class="cls-8" d="M95.12 442.68l3.72-.49 24-13.85a3.32 3.32 0 0 1 3 .12l17 9.81 2.25-.29v2.24a.89.89 0 0 1-.52.78l-27.2 15.71a3.33 3.33 0 0 1-3-.13l-18.51-10.69a1.22 1.22 0 0 1-.74-1z" transform="translate(-76.16 -344.43)"/><path class="cls-9" d="M113.15 433.93l1.71-1h18.75l9.24 5.33 2.25-.29v2.24a.89.89 0 0 1-.52.78l-27.2 15.71a2.84 2.84 0 0 1-1.55.29z" transform="translate(-76.16 -344.43)"/><path class="cls-8" d="M144.1 438.11l1-.13v2.24a.89.89 0 0 1-.52.78l-.48.28zm-27 18.73a3.54 3.54 0 0 1-2.55-.16v-3.81h2.55z" transform="translate(-76.16 -344.43)"/><path class="cls-5" d="M117.38 454.47l27.2-15.7c.77-.45.67-1.22-.22-1.74l-18.52-10.69a3.35 3.35 0 0 0-3-.12l-27.2 15.7c-.77.45-.67 1.22.22 1.74l18.52 10.69a3.32 3.32 0 0 0 3 .12z" transform="translate(-76.16 -344.43)"/><path class="cls-2" d="M117.84 452.09L140.46 439c.64-.37.56-1-.18-1.44l-9.93-5.56a2.75 2.75 0 0 0-2.49-.1L105.24 445c-.64.37-.56 1 .18 1.44l9.92 5.58a2.8 2.8 0 0 0 2.5.07z" transform="translate(-76.16 -344.43)"/><path class="cls-4" d="M124.79 425.83l.28 1.88a13.88 13.88 0 0 1-.12 4.81l-.34 1.65a2.3 2.3 0 0 1-1.86 1.83 1.28 1.28 0 0 1-1.5-1.12l-.45-4s-1 1.34-1.52 1.34.55-4 1.67-6.29 3.84-.1 3.84-.1z" transform="translate(-76.16 -344.43)"/><path class="cls-4" d="M115.57 396l2.92 5.78a11.17 11.17 0 0 1 1.19 4.38l1.32 19.76 3.84-.09 1.74-22.19a7.84 7.84 0 0 0-.1-2.05l-2-11.25z" transform="translate(-76.16 -344.43)"/><path class="cls-3" d="M118.3 456l2.28-3 24-13.88a3.32 3.32 0 0 0 1.39-2.67v-19.63l1.38-1.8-1.29-.75a.87.87 0 0 0-.94.05l-27.19 15.74a3.36 3.36 0 0 0-1.39 2.66v21.39a1.22 1.22 0 0 0 .51 1.14z" transform="translate(-76.16 -344.43)"/><path class="cls-9" d="M134.89 444.72l1.7-1 9.35-16.24v-10.66l1.38-1.8-1.29-.75a.87.87 0 0 0-.94.05l-27.19 15.74a2.78 2.78 0 0 0-1 1.2z" transform="translate(-76.16 -344.43)"/><path class="cls-8" d="M146.7 415.82l.61-.8-1.29-.75a.87.87 0 0 0-.94.05l-.48.28z" transform="translate(-76.16 -344.43)"/><path d="M117.65 430.23a3.51 3.51 0 0 0-1.14 2.29l2.66 1.54 1.27-2.21z" transform="translate(-76.16 -344.43)" fill="#274f89"/><path class="cls-8" d="M119.19 430.81l27.18-15.74c.77-.44 1.39 0 1.39 1.05v21.39a3.33 3.33 0 0 1-1.39 2.66l-27.18 15.74c-.77.44-1.4 0-1.4-1.05v-21.39a3.33 3.33 0 0 1 1.4-2.66z" transform="translate(-76.16 -344.43)"/><path class="cls-4" d="M105.82 435l.44.9a6.07 6.07 0 0 0 2.27 2.52l2.7 1.66a2.71 2.71 0 0 0 2.76.07l.09-.06a1.62 1.62 0 0 0 .23-2.49l-2.82-2.9s1.58 1.21 2 .72-1.54-2.11-3-2.16a5.62 5.62 0 0 1-2.81-1.19z" transform="translate(-76.16 -344.43)"/><path class="cls-1" d="M113 369.53s10.34 11.25 14.51 21.58A21.08 21.08 0 0 1 115.3 400c-8.66 2.48-2.3-30.47-2.3-30.47z" transform="translate(-76.16 -344.43)"/><path class="cls-7" d="M117.25 399.31l-1.68-16.19 4 15.17a21.58 21.58 0 0 1-2.32 1.02z" transform="translate(-76.16 -344.43)"/><path class="cls-5" d="M105.23 367.26l2.78-.77a6.72 6.72 0 0 1-3.26 2.62c-1.94.54-2.24-1.1-2.24-1.1zm-14.84-4.45a1.55 1.55 0 1 0 1.54-1.55 1.55 1.55 0 0 0-1.54 1.55z" transform="translate(-76.16 -344.43)"/></svg>