<svg id="Ñëîé_1" data-name="Ñëîé 1" xmlns="http://www.w3.org/2000/svg" viewBox="0 0 72.8 169.71"><defs><style>.cls-1{fill:#e4141a}.cls-3{fill:#d4ecff}.cls-4{fill:#ffc2b0}.cls-5{fill:#5793ce}.cls-6{fill:#fff}.cls-7{fill:#ea9c92}.cls-8{fill:#396caa}</style></defs><path class="cls-1" d="M514.21 79.23s-.54 11.15-1.39 18.65-18.9-5.76-18.9-5.76v-8.53z" transform="translate(-464.08 -65.75)"/><path d="M504.6 218c-.27.68-5 6.37-9.63 7.79a10.87 10.87 0 0 1-4.29.6 1.43 1.43 0 0 1-1.16-1.89 17.84 17.84 0 0 1 9-9.89c7.91-3.94 6.08 3.39 6.08 3.39zm1.56 2.18a38.27 38.27 0 0 0-2.31 7.59c-.33 2.11.83 4.85 1.78 6.66a2 2 0 0 0 3 .53 11.26 11.26 0 0 0 3.8-7.26c.54-5.83 0-6.85 0-6.85z" transform="translate(-464.08 -65.75)" fill="#173d7a"/><path class="cls-3" d="M517.42 149.72a110.9 110.9 0 0 1 0 15.49c-.61 8.13-2.79 46.17-3.2 55.32 0 0 .21 2.77-5.16 2.16s-4.93-3.68-4.93-3.68-7.53-.11-7.77-4.54-7.71-53-7.71-70.49z" transform="translate(-464.08 -65.75)"/><path class="cls-4" d="M485.86 111.7l-3.69 5.72-12.68 15.32a2.82 2.82 0 0 0 2 1.79c1.23.29 11.9-9.89 16.51-14.35a3.55 3.55 0 0 0 .49-4.5z" transform="translate(-464.08 -65.75)"/><path class="cls-5" d="M493.06 88.24s-5.86-.15-7.9 8.32-3.64 19.08-1.86 20c5.32 2.65 8.69-.45 8.69-.45z" transform="translate(-464.08 -65.75)"/><path class="cls-5" d="M491.31 88.6a4.76 4.76 0 0 1 3.16-.17c5 1.43 23.77 6.94 26.87 9.59 3.57 3-5.37 20.23-5.24 25.86s.77 12.27 1.26 18.39 1.18 9.48-3.83 12.08-13.56 2.72-20-2.15-5.23-8.22-5-11.76 2.45-18.85 2.26-23.19a16.39 16.39 0 0 1-3.93-4.51c-1.67-2.85 1.28-8.09 2.51-11.49s-.69-7.3-.31-10.07a3.16 3.16 0 0 1 2.25-2.58z" transform="translate(-464.08 -65.75)"/><path class="cls-6" d="M505.66 100.17l-2.14 2.45a1.45 1.45 0 0 0-.34 1.15l1.87 13a1.41 1.41 0 0 1-.26 1l-4.56 6.32a.43.43 0 0 1-.75-.11l-2.8-8a1.44 1.44 0 0 1 0-.94l4.21-12a1.53 1.53 0 0 0 0-.82l-.75-3.13z" transform="translate(-464.08 -65.75)"/><path class="cls-6" d="M497.31 94.46c-.4 3.09 2.44 6 6.34 6.5s7.37-1.6 7.77-4.7-2.44-6-6.34-6.5-7.38 1.6-7.77 4.7z" transform="translate(-464.08 -65.75)"/><path class="cls-4" d="M499.32 94.71c-.28 2.21 1.75 4.3 4.53 4.65s5.27-1.14 5.56-3.36-1.75-4.29-4.53-4.64-5.28 1.14-5.56 3.35z" transform="translate(-464.08 -65.75)"/><path class="cls-4" d="M502.09 87.45s3.39-2.78 4.05-1.37 1.22 7.47 1.22 7.47l-6.73 1.81 1-6.14s-1.33-1.14.46-1.77z" transform="translate(-464.08 -65.75)"/><circle class="cls-4" cx="501.6" cy="80.22" r="10.05" transform="rotate(-72.62 224.817 363.11)"/><path class="cls-7" d="M506.61 87.84c.06.31.12.65.18 1-.68 3.49-5.91 5-5.91 5l.77-4.65s-.64-.54-.46-1.08c2.07-.62 4.68-1.2 5.42-.27z" transform="translate(-464.08 -65.75)"/><circle class="cls-4" cx="501.6" cy="80.22" r="10.05" transform="rotate(-72.62 224.817 363.11)"/><path class="cls-4" d="M62.29 57.01l-1.13 26.9-3.93.41-2.56-24.22 7.62-3.09z"/><path class="cls-8" d="M513.44 120.52c.22-.94 1.94-1.71 2.2-2.93a110.13 110.13 0 0 0 1.68-15.5l1.09 12.62c-1.26 3.74-2.35 7.18-2.31 9.17.08 3.3.33 7 .62 10.65s-4.58-8.27-3.28-14.01z" transform="translate(-464.08 -65.75)"/><path class="cls-5" d="M520.59 97.47s3.14 1.2 4.92 10.86 3.11 19.33-.06 20.57-5.83 2.19-6.76-.39-1.51-15-1.63-19.51-.28-10.65 3.53-11.53z" transform="translate(-464.08 -65.75)"/><path class="cls-4" d="M470.43 131.62a8.32 8.32 0 0 0-2.94 2 18.79 18.79 0 0 0-2 2.69c-1 1.46-1.81 4.62-1.21 5s4-5.29 4.56-4 0 2.55.7 2.57 3.17-5.72 5.1-7.49-4.21-.77-4.21-.77z" transform="translate(-464.08 -65.75)"/><path class="cls-8" d="M504.13 219a16.12 16.12 0 0 1-2.15-.23l-1.48-59.13zm5.69-31.93l2.09-2.74 22-12.73a3.09 3.09 0 0 0 1.27-2.45v-18l1.27-1.65-1.19-.69a.8.8 0 0 0-.86 0l-24.94 14.44a3 3 0 0 0-1.28 2.44v19.62a1.1 1.1 0 0 0 .46 1z" transform="translate(-464.08 -65.75)"/><path class="cls-8" d="M525 176.74l1.56-.91 8.58-14.9v-9.79l1.27-1.65-1.19-.69a.8.8 0 0 0-.86 0l-24.94 14.44a2.52 2.52 0 0 0-.94 1.1z" transform="translate(-464.08 -65.75)"/><path class="cls-8" d="M535.88 150.22l.56-.73-1.19-.69a.8.8 0 0 0-.86 0l-.44.25zm-26.66 13.23a3.21 3.21 0 0 0-1 2.1l2.44 1.4 1.17-2z" transform="translate(-464.08 -65.75)"/><path class="cls-3" d="M510.64 164l24.93-14.43c.71-.41 1.28 0 1.28 1v19.62a3 3 0 0 1-1.27 2.44L510.66 187c-.7.41-1.28 0-1.28-1v-19.62a3.07 3.07 0 0 1 1.26-2.38z" transform="translate(-464.08 -65.75)"/><path class="cls-6" d="M510.26 163.75l24.94-14.44a.75.75 0 0 1 1 .09.94.94 0 0 0-.64.14L510.64 164a3.07 3.07 0 0 0-1.28 2.45v19.62a1.29 1.29 0 0 0 .27.87c-.38-.08-.64-.47-.64-1.1v-19.62a3 3 0 0 1 1.27-2.47z" transform="translate(-464.08 -65.75)"/><path class="cls-6" d="M51.68 112.29l1.19-.68V101.4l-1.19.69v10.2zm2.78-1.6l1.18-.69V99.8l-1.18.69v10.2zm2.77-1.6l1.19-.69V98.2l-1.19.68v10.21z"/><path class="cls-4" d="M525.21 149.44s1 6.28.88 8.29-1.23 5.33-2.05 5.26 0-8.09-1.46-7.29-1.58 2.17-2.23 1.68 1.13-7.33.65-10.3 4.21 2.36 4.21 2.36z" transform="translate(-464.08 -65.75)"/><path class="cls-7" d="M497.74 81.1c-5 1.79-6 .7-6.07.64-.05-.31-.08-.61-.1-.93a10.05 10.05 0 0 1 .33-3.21l13.1-1.76a14.24 14.24 0 0 1-7.26 5.26z" transform="translate(-464.08 -65.75)"/><path class="cls-1" d="M491.21 70.8c1.18-1 5.47-6 13.15-4.87 4.8.75 8.85 4 9.75 11.49a17.17 17.17 0 0 1-4.65 13.66 4 4 0 0 1-.54-.28c-1.93-1.26-2.13-2-2.13-2l-.43-3.8a1.06 1.06 0 0 1 1-1 2 2 0 0 0 1.41-.86c1.1-1.44.59-3.69-1.62-3.78a1.69 1.69 0 0 1-1.76-1.25.91.91 0 0 0-1.18-.62c-2.51.91-8.69 2.87-12.67 1.74-5.14-1.47-1.54-7.41-.33-8.43z" transform="translate(-464.08 -65.75)"/><path class="cls-6" d="M496.93 85.64l-3.07-.85a7.44 7.44 0 0 0 3.61 2.9c2.14.59 2.48-1.22 2.48-1.22z" transform="translate(-464.08 -65.75)"/><path class="cls-8" d="M55.9 91.44l2.62-1.5-.98 1.6-1.32.49-.32-.59z"/><path class="cls-6" d="M507.47 83.36a1 1 0 1 0 1-1 1 1 0 0 0-1 1z" transform="translate(-464.08 -65.75)"/></svg>