<svg fill="none" height="121" width="239" xmlns="http://www.w3.org/2000/svg"><path d="M84.292 29.431v80.535h-70.29V119H191.5V60.209h-2.769V30.433h-3.234V10.76h-6.255V0h-.879v10.76h-1.939V2.165h-.88v8.595h-9.899v11.7h-1.795v7.973h-5.028V60.21h-1.944v49.757h-40.482l3.951-87.954z" fill="#ecf2f8"/><path d="M16.429 93.823l-2.824 19.039H0V121h238.47v-5.62l.229-32.395h-12.904v32.395h-3.484V54.618h-2.474v.841l-4.566-1.125v-1.587h-2.478v.98l-4.566-1.125v-1.8h-2.479v1.19l-4.566-1.126V49.22h-2.478v1.035l-4.566-1.125v-1.592h-2.479v61.874h-3.345V89.55H167.7v27.304h-5.123v-7.067h.925v-.692h-.925v-8.649h.925v-.692h-.925V91.11h.925v-.696h-.925v-8.645h.925v-.696h-.925v-8.645h.925v-.696h-.925v-8.645h.925v-.692h-.925v-8.952h1.581v-.692h.804v-1.899h-3.718v-2.111h.489v-.606h-8.171v.606h.489v2.111h-15.009v1.9h.803v.69h1.581v8.953h-.921v.692h.921v8.645h-.921v.696h.921v8.645h-.921v.696h.921v8.645h-.921v.696h.921v8.644h-.921v.692h.921v8.649h-.921v.317h-5.096V79.07h.795v-1.61h-5.244v-4.363h-2.51v4.363h-2.281v-4.363h-2.285v4.363h-4.436v-4.363h-13.586v4.363h-3.174v1.61h1.804v21.892l-11.18 4.987V83.396H83.239V60.442h.695V58.71h-1.517v-2.215H70.374v-3.369h-4.597l-.687-2.197h-1.136V47h-.508v3.929h-2.11v5.566H59.59v2.215h-1.518v1.732h.696v35.28h-7.601v14.355H37.818V78.025h.8v-1.429H26.926v-5.04h-.341v5.04h-1.94v-6.153H24.3v6.153h-2.806v1.43h.719v15.797z" fill="#dae9f8"/></svg>