<svg fill="none" height="730" width="277" xmlns="http://www.w3.org/2000/svg"><linearGradient id="a" gradientUnits="userSpaceOnUse" x1="405.293" x2="562.682" y1="389.36" y2="616.527"><stop offset="0" stop-color="#f2f5fd"/><stop offset="1" stop-color="#f2f5fd"/></linearGradient><path d="M476.019 581.33c33.628-51.271 83.529-75.107 141.993-84.782 58.464-9.676 104.706-24.831 121.119-89.255 16.414-64.419-33.009-155.45-138.419-142.819-100.481 12.04-143.676-56.198-179.752-102.624-43.777-56.336-113.095-60.5-169.622-24.671-56.528 35.83-56.364 87.29-53.893 165.888 2.47 78.598-22.286 97.733-55.694 134.085-40.917 44.518-54.792 137.758 54.016 146.573 142.082 11.505 182.49 146.675 280.252-2.395z" fill="url(#a)"/></svg>