<svg fill="none" height="341" width="377" xmlns="http://www.w3.org/2000/svg"><linearGradient id="a" gradientUnits="userSpaceOnUse" x1="-13.707" x2="143.682" y1=".36" y2="227.527"><stop offset="0" stop-color="#f2f5fd"/><stop offset="1" stop-color="#f2f5fd"/></linearGradient><path d="M57.02 192.33c33.627-51.271 83.528-75.107 141.992-84.782 58.464-9.676 104.706-24.831 121.119-89.255 16.414-64.419-33.009-155.45-138.419-142.819C81.232-112.486 38.036-180.724 1.96-227.15c-43.777-56.336-113.095-60.5-169.622-24.671-56.528 35.83-56.364 87.29-53.893 165.888 2.47 78.598-22.286 97.734-55.694 134.085-40.917 44.518-54.792 137.758 54.016 146.573C-81.151 206.23-40.743 341.4 57.019 192.33z" fill="url(#a)"/></svg>