<svg fill="none" height="90" width="179" xmlns="http://www.w3.org/2000/svg"><path d="M12.268 65.391v10.828H1.396V90l173.633-.328v-55.78h-16.146v-8.53h-12.518v15.75h-11.204V4.36h-3.954V.753h-2.965V4.69h-3.954v23.955h-7.908V20.44h-7.576v-8.204l-12.192-8.2h-3.623v20.012h-8.896v8.534H74.54v-6.236H53.783v7.216H39.618v17.064h-7.25v4.921h-7.576V41.112h-7.25V65.39z" fill="#ecf2f8"/><path d="M178.906 46.442v43.312H-.001v-4.676h8.896V72.774h12.109v-9.352h5.93v3.938h10.132V58.5h10.131V43.982h3.46v-2.46h8.896v2.46h3.953v14.52h9.885V51.61H93.9v-8.121h29.9v19.687h27.182v-6.398h6.919V46.442h8.402v-4.184h4.201v4.184z" fill="#dae9f8"/></svg>