<svg width="16" height="10" viewBox="0 0 16 10" fill="none" xmlns="http://www.w3.org/2000/svg">
<path d="M8 0.500002C8.09552 0.499877 8.19013 0.51922 8.27838 0.55692C8.36663 0.59462 8.44679 0.649934 8.51425 0.719682L15.787 8.21966C15.8545 8.2893 15.9081 8.37198 15.9446 8.46297C15.9812 8.55396 16 8.65149 16 8.74998C16 8.9489 15.9234 9.13966 15.787 9.28032C15.6506 9.42097 15.4656 9.5 15.2727 9.5C15.0799 9.5 14.8949 9.42099 14.7585 9.28034L8 2.31069L1.24152 9.28034C1.10513 9.42099 0.920142 9.50001 0.727257 9.5C0.534371 9.5 0.349388 9.42097 0.213001 9.28032C0.0766134 9.13966 -5.77023e-06 8.9489 -6.55687e-08 8.74998C3.73174e-06 8.55107 0.0766305 8.36031 0.213024 8.21966L7.48575 0.719681C7.55321 0.649933 7.63336 0.59462 7.72162 0.55692C7.80987 0.51922 7.90447 0.499877 8 0.500002Z" fill="#3C61E2"/>
</svg>
