<svg width="18" height="18" viewBox="0 0 18 18" fill="none" xmlns="http://www.w3.org/2000/svg">
<path d="M2.24516 2.24695C2.5741 1.91801 3.10762 1.91801 3.43656 2.24695L8.71488 7.52527L13.9942 2.24695C14.3231 1.91812 14.8567 1.91812 15.1856 2.24695C15.5145 2.57587 15.5144 3.10941 15.1856 3.43836L9.90629 8.71668L15.1856 13.995C15.5145 14.3239 15.5144 14.8575 15.1856 15.1864C14.8566 15.5153 14.3231 15.5153 13.9942 15.1864L8.71586 9.90808L3.43656 15.1874C3.10761 15.5162 2.57407 15.5163 2.24516 15.1874C1.91633 14.8585 1.91633 14.3249 2.24516 13.996L7.52445 8.71668L2.24516 3.43738C1.91681 3.10854 1.91677 2.57577 2.24516 2.24695Z" fill="#2D344D"/>
</svg>
