<svg xmlns="http://www.w3.org/2000/svg" viewBox="0 0 260.77 250.88"><linearGradient id="a" gradientUnits="userSpaceOnUse" x1="55.611" y1="-32.747" x2="288.732" y2="237.975"><stop offset="0" stop-color="#aab6dc" stop-opacity=".4"/><stop offset="1" stop-color="#aab6dc" stop-opacity=".1"/></linearGradient><path d="M94.8 5.9c0 3.26-2.64 5.9-5.9 5.9-3.26 0-5.9-2.64-5.9-5.9C83 2.64 85.64 0 88.9 0c3.25 0 5.9 2.64 5.9 5.9z" fill="url(#a)"/><linearGradient id="b" gradientUnits="userSpaceOnUse" x1="79.437" y1="-53.264" x2="312.559" y2="217.458"><stop offset="0" stop-color="#aab6dc" stop-opacity=".4"/><stop offset="1" stop-color="#aab6dc" stop-opacity=".1"/></linearGradient><path d="M136.29 5.9c0 3.26-2.64 5.9-5.9 5.9-3.26 0-5.9-2.64-5.9-5.9 0-3.26 2.64-5.9 5.9-5.9 3.26 0 5.9 2.64 5.9 5.9z" fill="url(#b)"/><linearGradient id="c" gradientUnits="userSpaceOnUse" x1="103.264" y1="-73.782" x2="336.386" y2="196.94"><stop offset="0" stop-color="#aab6dc" stop-opacity=".4"/><stop offset="1" stop-color="#aab6dc" stop-opacity=".1"/></linearGradient><path d="M177.79 5.9c0 3.26-2.64 5.9-5.9 5.9-3.26 0-5.9-2.64-5.9-5.9 0-3.26 2.64-5.9 5.9-5.9 3.25 0 5.9 2.64 5.9 5.9z" fill="url(#c)"/><linearGradient id="d" gradientUnits="userSpaceOnUse" x1="127.091" y1="-94.299" x2="360.213" y2="176.423"><stop offset="0" stop-color="#aab6dc" stop-opacity=".4"/><stop offset="1" stop-color="#aab6dc" stop-opacity=".1"/></linearGradient><path d="M219.28 5.9c0 3.26-2.64 5.9-5.9 5.9-3.26 0-5.9-2.64-5.9-5.9 0-3.26 2.64-5.9 5.9-5.9 3.26 0 5.9 2.64 5.9 5.9z" fill="url(#d)"/><linearGradient id="e" gradientUnits="userSpaceOnUse" x1="150.917" y1="-114.817" x2="384.039" y2="155.905"><stop offset="0" stop-color="#aab6dc" stop-opacity=".4"/><stop offset="1" stop-color="#aab6dc" stop-opacity=".1"/></linearGradient><path d="M260.77 5.9c0 3.26-2.64 5.9-5.9 5.9-3.26 0-5.9-2.64-5.9-5.9 0-3.26 2.64-5.9 5.9-5.9 3.26 0 5.9 2.64 5.9 5.9z" fill="url(#e)"/><linearGradient id="f" gradientUnits="userSpaceOnUse" x1="31.784" y1="-12.229" x2="264.906" y2="258.493"><stop offset="0" stop-color="#aab6dc" stop-opacity=".4"/><stop offset="1" stop-color="#aab6dc" stop-opacity=".1"/></linearGradient><path d="M53.3 5.9c0 3.26-2.64 5.9-5.9 5.9s-5.9-2.64-5.9-5.9c0-3.26 2.64-5.9 5.9-5.9s5.9 2.64 5.9 5.9z" fill="url(#f)"/><linearGradient id="g" gradientUnits="userSpaceOnUse" x1="7.957" y1="8.288" x2="241.079" y2="279.01"><stop offset="0" stop-color="#aab6dc" stop-opacity=".4"/><stop offset="1" stop-color="#aab6dc" stop-opacity=".1"/></linearGradient><path d="M11.81 5.9c0 3.26-2.64 5.9-5.9 5.9A5.894 5.894 0 0 1 0 5.9C0 2.64 2.64 0 5.9 0c3.26 0 5.91 2.64 5.91 5.9z" fill="url(#g)"/><linearGradient id="h" gradientUnits="userSpaceOnUse" x1="31.968" y1="-12.388" x2="265.09" y2="258.334"><stop offset="0" stop-color="#aab6dc" stop-opacity=".4"/><stop offset="1" stop-color="#aab6dc" stop-opacity=".1"/></linearGradient><circle cx="88.89" cy="53.72" r="5.9" fill="url(#h)"/><linearGradient id="i" gradientUnits="userSpaceOnUse" x1="55.795" y1="-32.905" x2="288.917" y2="237.817"><stop offset="0" stop-color="#aab6dc" stop-opacity=".4"/><stop offset="1" stop-color="#aab6dc" stop-opacity=".1"/></linearGradient><circle cx="130.39" cy="53.72" r="5.9" fill="url(#i)"/><linearGradient id="j" gradientUnits="userSpaceOnUse" x1="79.622" y1="-53.423" x2="312.743" y2="217.299"><stop offset="0" stop-color="#aab6dc" stop-opacity=".4"/><stop offset="1" stop-color="#aab6dc" stop-opacity=".1"/></linearGradient><circle cx="171.88" cy="53.72" r="5.9" fill="url(#j)"/><linearGradient id="k" gradientUnits="userSpaceOnUse" x1="103.448" y1="-73.94" x2="336.57" y2="196.782"><stop offset="0" stop-color="#aab6dc" stop-opacity=".4"/><stop offset="1" stop-color="#aab6dc" stop-opacity=".1"/></linearGradient><circle cx="213.38" cy="53.72" r="5.9" fill="url(#k)"/><linearGradient id="l" gradientUnits="userSpaceOnUse" x1="127.275" y1="-94.458" x2="360.397" y2="176.264"><stop offset="0" stop-color="#aab6dc" stop-opacity=".4"/><stop offset="1" stop-color="#aab6dc" stop-opacity=".1"/></linearGradient><circle cx="254.87" cy="53.72" r="5.9" fill="url(#l)"/><linearGradient id="m" gradientUnits="userSpaceOnUse" x1="8.141" y1="8.13" x2="241.263" y2="278.852"><stop offset="0" stop-color="#aab6dc" stop-opacity=".4"/><stop offset="1" stop-color="#aab6dc" stop-opacity=".1"/></linearGradient><circle cx="47.4" cy="53.72" r="5.9" fill="url(#m)"/><linearGradient id="n" gradientUnits="userSpaceOnUse" x1="-15.685" y1="28.647" x2="217.436" y2="299.369"><stop offset="0" stop-color="#aab6dc" stop-opacity=".4"/><stop offset="1" stop-color="#aab6dc" stop-opacity=".1"/></linearGradient><circle cx="5.9" cy="53.72" r="5.9" fill="url(#n)"/><linearGradient id="o" gradientUnits="userSpaceOnUse" x1="8.326" y1="7.971" x2="241.447" y2="278.693"><stop offset="0" stop-color="#aab6dc" stop-opacity=".4"/><stop offset="1" stop-color="#aab6dc" stop-opacity=".1"/></linearGradient><circle cx="88.89" cy="101.53" r="5.9" fill="url(#o)"/><linearGradient id="p" gradientUnits="userSpaceOnUse" x1="32.152" y1="-12.547" x2="265.274" y2="258.175"><stop offset="0" stop-color="#aab6dc" stop-opacity=".4"/><stop offset="1" stop-color="#aab6dc" stop-opacity=".1"/></linearGradient><circle cx="130.39" cy="101.53" r="5.9" fill="url(#p)"/><linearGradient id="q" gradientUnits="userSpaceOnUse" x1="55.979" y1="-33.064" x2="289.101" y2="237.658"><stop offset="0" stop-color="#aab6dc" stop-opacity=".4"/><stop offset="1" stop-color="#aab6dc" stop-opacity=".1"/></linearGradient><circle cx="171.88" cy="101.53" r="5.9" fill="url(#q)"/><linearGradient id="r" gradientUnits="userSpaceOnUse" x1="79.806" y1="-53.582" x2="312.928" y2="217.14"><stop offset="0" stop-color="#aab6dc" stop-opacity=".4"/><stop offset="1" stop-color="#aab6dc" stop-opacity=".1"/></linearGradient><circle cx="213.38" cy="101.53" r="5.9" fill="url(#r)"/><linearGradient id="s" gradientUnits="userSpaceOnUse" x1="103.633" y1="-74.099" x2="336.754" y2="196.623"><stop offset="0" stop-color="#aab6dc" stop-opacity=".4"/><stop offset="1" stop-color="#aab6dc" stop-opacity=".1"/></linearGradient><circle cx="254.87" cy="101.53" r="5.9" fill="url(#s)"/><linearGradient id="t" gradientUnits="userSpaceOnUse" x1="-15.501" y1="28.488" x2="217.621" y2="299.21"><stop offset="0" stop-color="#aab6dc" stop-opacity=".4"/><stop offset="1" stop-color="#aab6dc" stop-opacity=".1"/></linearGradient><circle cx="47.4" cy="101.53" r="5.9" fill="url(#t)"/><linearGradient id="u" gradientUnits="userSpaceOnUse" x1="-39.328" y1="49.006" x2="193.794" y2="319.728"><stop offset="0" stop-color="#aab6dc" stop-opacity=".4"/><stop offset="1" stop-color="#aab6dc" stop-opacity=".1"/></linearGradient><circle cx="5.9" cy="101.53" r="5.9" fill="url(#u)"/><linearGradient id="v" gradientUnits="userSpaceOnUse" x1="-15.317" y1="28.33" x2="217.805" y2="299.052"><stop offset="0" stop-color="#aab6dc" stop-opacity=".4"/><stop offset="1" stop-color="#aab6dc" stop-opacity=".1"/></linearGradient><path d="M94.8 149.35c0 3.26-2.64 5.9-5.9 5.9-3.26 0-5.9-2.64-5.9-5.9 0-3.26 2.64-5.9 5.9-5.9 3.25-.01 5.9 2.64 5.9 5.9z" fill="url(#v)"/><linearGradient id="w" gradientUnits="userSpaceOnUse" x1="8.51" y1="7.812" x2="241.632" y2="278.534"><stop offset="0" stop-color="#aab6dc" stop-opacity=".4"/><stop offset="1" stop-color="#aab6dc" stop-opacity=".1"/></linearGradient><path d="M136.29 149.35c0 3.26-2.64 5.9-5.9 5.9-3.26 0-5.9-2.64-5.9-5.9 0-3.26 2.64-5.9 5.9-5.9 3.26-.01 5.9 2.64 5.9 5.9z" fill="url(#w)"/><linearGradient id="x" gradientUnits="userSpaceOnUse" x1="32.337" y1="-12.705" x2="265.458" y2="258.017"><stop offset="0" stop-color="#aab6dc" stop-opacity=".4"/><stop offset="1" stop-color="#aab6dc" stop-opacity=".1"/></linearGradient><path d="M177.79 149.35c0 3.26-2.64 5.9-5.9 5.9-3.26 0-5.9-2.64-5.9-5.9 0-3.26 2.64-5.9 5.9-5.9 3.25-.01 5.9 2.64 5.9 5.9z" fill="url(#x)"/><linearGradient id="y" gradientUnits="userSpaceOnUse" x1="56.163" y1="-33.223" x2="289.285" y2="237.499"><stop offset="0" stop-color="#aab6dc" stop-opacity=".4"/><stop offset="1" stop-color="#aab6dc" stop-opacity=".1"/></linearGradient><path d="M219.28 149.35c0 3.26-2.64 5.9-5.9 5.9-3.26 0-5.9-2.64-5.9-5.9 0-3.26 2.64-5.9 5.9-5.9 3.26-.01 5.9 2.64 5.9 5.9z" fill="url(#y)"/><linearGradient id="z" gradientUnits="userSpaceOnUse" x1="79.99" y1="-53.74" x2="313.112" y2="216.982"><stop offset="0" stop-color="#aab6dc" stop-opacity=".4"/><stop offset="1" stop-color="#aab6dc" stop-opacity=".1"/></linearGradient><path d="M260.77 149.35c0 3.26-2.64 5.9-5.9 5.9-3.26 0-5.9-2.64-5.9-5.9 0-3.26 2.64-5.9 5.9-5.9 3.26-.01 5.9 2.64 5.9 5.9z" fill="url(#z)"/><linearGradient id="A" gradientUnits="userSpaceOnUse" x1="-39.144" y1="48.847" x2="193.978" y2="319.569"><stop offset="0" stop-color="#aab6dc" stop-opacity=".4"/><stop offset="1" stop-color="#aab6dc" stop-opacity=".1"/></linearGradient><path d="M53.3 149.35c0 3.26-2.64 5.9-5.9 5.9s-5.9-2.64-5.9-5.9c0-3.26 2.64-5.9 5.9-5.9s5.9 2.64 5.9 5.9z" fill="url(#A)"/><linearGradient id="B" gradientUnits="userSpaceOnUse" x1="-62.97" y1="69.365" x2="170.151" y2="340.087"><stop offset="0" stop-color="#aab6dc" stop-opacity=".4"/><stop offset="1" stop-color="#aab6dc" stop-opacity=".1"/></linearGradient><path d="M11.81 149.35c0 3.26-2.64 5.9-5.9 5.9-3.26 0-5.9-2.64-5.9-5.9 0-3.26 2.64-5.9 5.9-5.9 3.25-.01 5.9 2.64 5.9 5.9z" fill="url(#B)"/><linearGradient id="C" gradientUnits="userSpaceOnUse" x1="-38.959" y1="48.688" x2="194.162" y2="319.411"><stop offset="0" stop-color="#aab6dc" stop-opacity=".4"/><stop offset="1" stop-color="#aab6dc" stop-opacity=".1"/></linearGradient><circle cx="88.89" cy="197.16" r="5.9" fill="url(#C)"/><linearGradient id="D" gradientUnits="userSpaceOnUse" x1="-15.133" y1="28.171" x2="217.989" y2="298.893"><stop offset="0" stop-color="#aab6dc" stop-opacity=".4"/><stop offset="1" stop-color="#aab6dc" stop-opacity=".1"/></linearGradient><circle cx="130.39" cy="197.16" r="5.9" fill="url(#D)"/><linearGradient id="E" gradientUnits="userSpaceOnUse" x1="8.694" y1="7.653" x2="241.816" y2="278.375"><stop offset="0" stop-color="#aab6dc" stop-opacity=".4"/><stop offset="1" stop-color="#aab6dc" stop-opacity=".1"/></linearGradient><circle cx="171.88" cy="197.16" r="5.9" fill="url(#E)"/><linearGradient id="F" gradientUnits="userSpaceOnUse" x1="32.521" y1="-12.864" x2="265.643" y2="257.858"><stop offset="0" stop-color="#aab6dc" stop-opacity=".4"/><stop offset="1" stop-color="#aab6dc" stop-opacity=".1"/></linearGradient><circle cx="213.38" cy="197.16" r="5.9" fill="url(#F)"/><linearGradient id="G" gradientUnits="userSpaceOnUse" x1="56.348" y1="-33.382" x2="289.469" y2="237.34"><stop offset="0" stop-color="#aab6dc" stop-opacity=".4"/><stop offset="1" stop-color="#aab6dc" stop-opacity=".1"/></linearGradient><circle cx="254.87" cy="197.16" r="5.9" fill="url(#G)"/><linearGradient id="H" gradientUnits="userSpaceOnUse" x1="-62.786" y1="69.206" x2="170.336" y2="339.928"><stop offset="0" stop-color="#aab6dc" stop-opacity=".4"/><stop offset="1" stop-color="#aab6dc" stop-opacity=".1"/></linearGradient><circle cx="47.4" cy="197.16" r="5.9" fill="url(#H)"/><linearGradient id="I" gradientUnits="userSpaceOnUse" x1="-86.613" y1="89.723" x2="146.509" y2="360.445"><stop offset="0" stop-color="#aab6dc" stop-opacity=".4"/><stop offset="1" stop-color="#aab6dc" stop-opacity=".1"/></linearGradient><circle cx="5.9" cy="197.16" r="5.9" fill="url(#I)"/><linearGradient id="J" gradientUnits="userSpaceOnUse" x1="-62.602" y1="69.047" x2="170.52" y2="339.769"><stop offset="0" stop-color="#aab6dc" stop-opacity=".4"/><stop offset="1" stop-color="#aab6dc" stop-opacity=".1"/></linearGradient><circle cx="88.89" cy="244.98" r="5.9" fill="url(#J)"/><linearGradient id="K" gradientUnits="userSpaceOnUse" x1="-38.775" y1="48.53" x2="194.347" y2="319.252"><stop offset="0" stop-color="#aab6dc" stop-opacity=".4"/><stop offset="1" stop-color="#aab6dc" stop-opacity=".1"/></linearGradient><circle cx="130.39" cy="244.98" r="5.9" fill="url(#K)"/><linearGradient id="L" gradientUnits="userSpaceOnUse" x1="-14.948" y1="28.012" x2="218.173" y2="298.734"><stop offset="0" stop-color="#aab6dc" stop-opacity=".4"/><stop offset="1" stop-color="#aab6dc" stop-opacity=".1"/></linearGradient><circle cx="171.88" cy="244.98" r="5.9" fill="url(#L)"/><linearGradient id="M" gradientUnits="userSpaceOnUse" x1="8.879" y1="7.495" x2="242" y2="278.217"><stop offset="0" stop-color="#aab6dc" stop-opacity=".4"/><stop offset="1" stop-color="#aab6dc" stop-opacity=".1"/></linearGradient><circle cx="213.38" cy="244.98" r="5.9" fill="url(#M)"/><linearGradient id="N" gradientUnits="userSpaceOnUse" x1="32.705" y1="-13.023" x2="265.827" y2="257.699"><stop offset="0" stop-color="#aab6dc" stop-opacity=".4"/><stop offset="1" stop-color="#aab6dc" stop-opacity=".1"/></linearGradient><circle cx="254.87" cy="244.98" r="5.9" fill="url(#N)"/><linearGradient id="O" gradientUnits="userSpaceOnUse" x1="-86.428" y1="89.565" x2="146.693" y2="360.287"><stop offset="0" stop-color="#aab6dc" stop-opacity=".4"/><stop offset="1" stop-color="#aab6dc" stop-opacity=".1"/></linearGradient><circle cx="47.4" cy="244.98" r="5.9" fill="url(#O)"/><linearGradient id="P" gradientUnits="userSpaceOnUse" x1="-110.255" y1="110.082" x2="122.867" y2="380.804"><stop offset="0" stop-color="#aab6dc" stop-opacity=".4"/><stop offset="1" stop-color="#aab6dc" stop-opacity=".1"/></linearGradient><circle cx="5.9" cy="244.98" r="5.9" fill="url(#P)"/></svg>