<svg id="Ñëîé_1" data-name="Ñëîé 1" xmlns="http://www.w3.org/2000/svg" viewBox="0 0 283.69 345.74"><defs><style>.cls-1{fill:#173d7a}.cls-2{fill:#396caa}.cls-3{fill:#274f89}.cls-4{fill:#d4ecff}.cls-5{fill:#fff}.cls-6{fill:#5793ce}.cls-7{fill:#e4141a}</style></defs><path class="cls-1" d="M250.9 645.76l162.63-80.09a6.31 6.31 0 0 0 3.5-4.06l.07-.29v-.08l1.35-5.92-4.91 2.85c-.06-.07-.12-.15-.19-.22L324 464.76c-4.13-4.3-11.21-5.95-15.81-3.69l-158.77 78.17-5.09-4.06-1.45 6.49c-.35 2.27.55 4.88 2.78 7.2l89.43 93.2c4.13 4.31 11.21 5.93 15.81 3.69z" transform="translate(-134.92 -301.04)"/><path class="cls-2" d="M250.9 645.76l162.63-80.09a6.31 6.31 0 0 0 3.5-4.06l.07-.29v-.08l1.35-5.92-4.91 2.85c-.06-.07-.12-.15-.19-.22l-61.29-63.89-92.46 30.58-16.66 121.76a12.14 12.14 0 0 0 7.96-.64z" transform="translate(-134.92 -301.04)"/><path class="cls-3" d="M239.32 630.89l-2.42 12.76c3.73 2.76 8.77 3.83 12.64 2.63l3.91-20.15z" transform="translate(-134.92 -301.04)"/><path class="cls-4" d="M147.87 531l162.64-80.1c4.6-2.26 11.67-.61 15.81 3.69l89.43 93.2c4.13 4.3 3.75 9.63-.85 11.89l-162.64 80.1c-4.6 2.27-11.68.61-15.81-3.69L147 542.88c-4.11-4.3-3.73-9.63.87-11.88z" transform="translate(-134.92 -301.04)"/><path class="cls-5" d="M251.88 641.33l162.64-80.1a6.19 6.19 0 0 0 3.66-5 6.51 6.51 0 0 1-3.28 3.42l-162.64 80.1c-4.6 2.27-11.68.61-15.81-3.69L147 542.88a8.84 8.84 0 0 1-2.81-6.9c-1 2.52-.22 5.7 2.43 8.46l89.43 93.2c4.15 4.3 11.23 5.96 15.83 3.69z" transform="translate(-134.92 -301.04)"/><path class="cls-5" d="M157 533l152.92-75.35c4.21-2.07 10.69-.56 14.47 3.38l82.42 85.9c3.78 3.93 3.43 8.81-.78 10.88l-152.96 75.32c-4.21 2.07-10.68.56-14.46-3.37l-82.43-85.9c-3.78-3.94-3.43-8.81.82-10.86z" transform="translate(-134.92 -301.04)"/><path class="cls-1" d="M157 533l152.92-75.35c4.21-2.07 10.69-.56 14.47 3.38l82.42 85.9c3.78 3.93 3.43 8.81-.78 10.88l-152.96 75.32c-4.21 2.07-10.68.56-14.46-3.37l-82.43-85.9c-3.78-3.94-3.43-8.81.82-10.86z" transform="translate(-134.92 -301.04)"/><path class="cls-6" d="M156.68 534.33L309.6 459c4.21-2.07 10.69-.56 14.47 3.38l82.42 85.9a8.16 8.16 0 0 1 2.59 6.21c.8-2.28.06-5.11-2.31-7.57L324.35 461c-3.78-3.94-10.26-5.45-14.47-3.38L157 533a5.69 5.69 0 0 0-3.37 4.68 5.89 5.89 0 0 1 3.05-3.35z" transform="translate(-134.92 -301.04)"/><path class="cls-1" d="M143.38 530.59l14.29-16.26 143.51-70.67c4.6-2.27 8.65-8.9 9-14.8l7.49-113.1 8.64-9.83-6.12-4.09c-1.37-1-3.27-1.13-5.44-.06l-162.63 80.1c-4.6 2.26-8.65 8.89-9 14.8L135 519.85c-.22 3.33.77 5.72 2.49 6.77z" transform="translate(-134.92 -301.04)"/><path class="cls-2" d="M243.27 472.18l10.19-5 60.17-89.94 4.08-61.46 8.64-9.83-6.12-4.09c-1.37-1-3.27-1.13-5.44-.06l-162.63 80.1a16.21 16.21 0 0 0-6.37 6.5z" transform="translate(-134.92 -301.04)"/><path class="cls-6" d="M322.51 310.29l3.84-4.36-6.12-4.09c-1.37-1-3.27-1.13-5.44-.06l-2.87 1.41z" transform="translate(-134.92 -301.04)"/><path class="cls-3" d="M150.66 382.79a20.1 20.1 0 0 0-7.43 12.75l13.65 9.13 8.19-12.24z" transform="translate(-134.92 -301.04)"/><path class="cls-4" d="M158.26 386l162.63-80.1c4.6-2.26 8 .69 7.63 6.6l-8.16 123.16c-.39 5.91-4.44 12.54-9 14.8l-162.63 80.1c-4.6 2.26-8-.69-7.62-6.6l8.15-123.16c.35-5.93 4.4-12.56 9-14.8z" transform="translate(-134.92 -301.04)"/><path class="cls-5" d="M143.3 525.44l8.16-123.17c.39-5.91 4.43-12.53 9-14.8l162.64-80.09a5.79 5.79 0 0 1 4-.62c-1.36-1.74-3.61-2.19-6.28-.88L158.26 386c-4.6 2.26-8.65 8.89-9 14.8l-8.15 123.16c-.27 4 1.19 6.6 3.57 7.21a8.35 8.35 0 0 1-1.38-5.73z" transform="translate(-134.92 -301.04)"/><path class="cls-6" d="M308.71 378.07l7.36-3.63c.59-.29 1 .09 1 .85l-.64 9.66a2.47 2.47 0 0 1-1.16 1.9l-7.36 3.63c-.59.29-1-.09-1-.85l.64-9.66a2.47 2.47 0 0 1 1.16-1.9zm-11.37 5.59l7.36-3.66c.59-.29 1 .09 1 .85l-.64 9.66a2.47 2.47 0 0 1-1.16 1.9l-7.36 3.62c-.59.29-1-.09-1-.84l.63-9.66a2.51 2.51 0 0 1 1.17-1.87zm-11.34 5.6l7.36-3.62c.59-.29 1 .09 1 .84l-.64 9.66a2.51 2.51 0 0 1-1.16 1.91l-7.36 3.62c-.59.29-1-.09-1-.85l.64-9.66a2.47 2.47 0 0 1 1.16-1.9zm-4.11 15.52l7.36-3.62c.59-.3 1 .08 1 .84l-.54 8.11a2.47 2.47 0 0 1-1.16 1.9l-7.35 3.63c-.6.29-1-.09-1-.85l.53-8.11a2.47 2.47 0 0 1 1.16-1.9zm-11.36 5.6l7.36-3.63c.59-.29 1 .09 1 .85l-.54 8.11a2.47 2.47 0 0 1-1.16 1.9l-7.36 3.62c-.59.29-1-.08-1-.84l.54-8.11a2.47 2.47 0 0 1 1.16-1.9zM259.16 416l7.36-3.62c.59-.29 1 .09 1 .85l-.53 8.11a2.49 2.49 0 0 1-1.16 1.9l-7.36 3.62c-.59.29-1-.09-1-.85l.53-8.11a2.47 2.47 0 0 1 1.16-1.9zm-11.36 5.57l7.36-3.62c.59-.3 1 .08 1 .84l-.54 8.11a2.47 2.47 0 0 1-1.16 1.9l-7.36 3.63c-.59.29-1-.09-1-.85l.54-8.11a2.47 2.47 0 0 1 1.16-1.9zm-11.36 5.6l7.36-3.63c.59-.29 1 .09 1 .85l-.53 8.11a2.47 2.47 0 0 1-1.16 1.9l-7.39 3.6c-.59.29-1-.08-1-.84l.54-8.11a2.47 2.47 0 0 1 1.18-1.88zm-11.37 5.59l7.36-3.62c.59-.29 1 .09 1 .85l-.54 8.11a2.46 2.46 0 0 1-1.16 1.9l-7.35 3.62c-.59.29-1-.09-1-.85l.53-8.11a2.47 2.47 0 0 1 1.16-1.9zm-11.36 5.6l7.36-3.63c.59-.29 1 .09 1 .85l-.54 8.11a2.47 2.47 0 0 1-1.16 1.9l-7.37 3.63c-.59.29-1-.09-1-.85l.54-8.11a2.47 2.47 0 0 1 1.17-1.9zM202.35 444l7.35-3.63c.59-.29 1 .09 1 .85l-.53 8.11a2.47 2.47 0 0 1-1.16 1.9l-7.36 3.62c-.59.29-1-.09-1-.84l.54-8.11a2.44 2.44 0 0 1 1.16-1.9zM191 449.55l7.36-3.62c.59-.29 1 .09 1 .85l-.54 8.1a2.51 2.51 0 0 1-1.16 1.91l-7.36 3.62c-.59.29-1-.09-1-.85l.53-8.11a2.47 2.47 0 0 1 1.17-1.9zm-11.38 5.6l7.36-3.63c.59-.29 1 .09 1 .85l-.54 8.11a2.47 2.47 0 0 1-1.16 1.9L178.9 466c-.59.29-1-.09-1-.85l.54-8.11a2.47 2.47 0 0 1 1.18-1.89zm95.78-35.27l7.36-3.62c.59-.29 1 .09 1 .85l-.54 8.1a2.51 2.51 0 0 1-1.16 1.91l-7.36 3.62c-.59.29-1-.09-1-.85l.54-8.11a2.47 2.47 0 0 1 1.16-1.9zm11.53-5.68l7.36-3.62c.59-.29 1 .09 1 .85l-.54 8.1a2.51 2.51 0 0 1-1.16 1.91l-7.36 3.62c-.59.29-1-.09-1-.85l.54-8.11a2.47 2.47 0 0 1 1.16-1.9zm11.55-5.69l15.85-7.8c.59-.29 1 .09 1 .84l-.54 8.11a2.48 2.48 0 0 1-1.16 1.91l-15.84 7.8c-.59.29-1-.09-1-.85l.53-8.11a2.47 2.47 0 0 1 1.16-1.9zm2.18 10.84l12.86-6.35c.59-.29 1 .09 1 .85L314 422a2.47 2.47 0 0 1-1.16 1.9l-12.86 6.33c-.59.29-1-.09-1-.84l.54-8.11a2.47 2.47 0 0 1 1.14-1.93zM264 425.48l7.36-3.63c.59-.29 1 .09 1 .85l-.53 8.11a2.45 2.45 0 0 1-1.17 1.9l-7.35 3.63c-.59.29-1-.09-1-.85l.53-8.11a2.47 2.47 0 0 1 1.16-1.9zm-11.33 5.6l7.36-3.63c.59-.29 1 .09 1 .85l-.54 8.11a2.47 2.47 0 0 1-1.16 1.9l-7.33 3.62c-.59.29-1-.09-1-.84l.54-8.11a2.47 2.47 0 0 1 1.13-1.9zm-11.36 5.59l7.35-3.62c.6-.29 1 .09 1 .84l-.53 8.11a2.51 2.51 0 0 1-1.16 1.91l-7.36 3.62c-.59.29-1-.09-1-.85l.54-8.11a2.47 2.47 0 0 1 1.16-1.9zm-11.37 5.6l7.36-3.63c.59-.29 1 .09 1 .85l-.54 8.11a2.47 2.47 0 0 1-1.16 1.9l-7.36 3.63c-.59.29-1-.09-1-.85l.53-8.11a2.47 2.47 0 0 1 1.17-1.9zm-11.36 5.59l7.36-3.62c.59-.29 1 .09 1 .85l-.54 8.11a2.47 2.47 0 0 1-1.16 1.9l-7.36 3.62c-.59.29-1-.09-1-.84l.54-8.11a2.51 2.51 0 0 1 1.16-1.91zm-11.37 5.6l7.36-3.62c.59-.29 1 .09 1 .84l-.53 8.11a2.47 2.47 0 0 1-1.16 1.9l-7.36 3.63c-.59.29-1-.09-1-.85l.53-8.11a2.47 2.47 0 0 1 1.16-1.9zm-11.36 5.6l7.36-3.63c.59-.29 1 .09 1 .85l-.54 8.11a2.47 2.47 0 0 1-1.16 1.9l-7.36 3.63c-.59.29-1-.09-1-.85l.54-8.11a2.47 2.47 0 0 1 1.16-1.9zm-11.36 5.59l7.36-3.62c.59-.29 1 .09 1 .85l-.53 8.11a2.47 2.47 0 0 1-1.16 1.9l-7.36 3.62c-.59.29-1-.09-1-.85l.54-8.11a2.5 2.5 0 0 1 1.15-1.9zm-11.37 5.6l7.36-3.62c.59-.29 1 .08 1 .84l-.54 8.11a2.47 2.47 0 0 1-1.16 1.9l-7.35 3.63c-.6.29-1-.09-1-.85l.53-8.11a2.47 2.47 0 0 1 1.16-1.9zm-20.2 9.95l16.08-7.91c.59-.29 1 .09 1 .85l-.54 8.11a2.47 2.47 0 0 1-1.16 1.9l-16.06 7.91c-.59.29-1-.09-1-.85l.54-8.11a2.47 2.47 0 0 1 1.14-1.9zm-1.63 24.61l13.56-6.68c.59-.29 1 .09 1 .85l-.54 8.11a2.47 2.47 0 0 1-1.16 1.9l-13.55 6.68c-.59.29-1-.09-1-.85l.53-8.11a2.47 2.47 0 0 1 1.16-1.9zm103.09-62.67l7.36-3.63c.59-.29 1 .09 1 .85l-.54 8.11a2.47 2.47 0 0 1-1.16 1.9l-7.38 3.63c-.59.29-1-.09-1-.84l.53-8.11a2.47 2.47 0 0 1 1.19-1.91zM266 436.4l7.36-3.62c.59-.3 1 .08 1 .84l-.54 8.11a2.47 2.47 0 0 1-1.16 1.9l-7.36 3.63c-.59.29-1-.09-1-.85l.54-8.11a2.47 2.47 0 0 1 1.16-1.9zm11.68-5.74L285 427c.59-.29 1 .09 1 .85l-.53 8.11a2.47 2.47 0 0 1-1.16 1.9l-7.31 3.66c-.59.29-1-.09-1-.85l.53-8.11a2.47 2.47 0 0 1 1.15-1.9zm11.64-5.73l7.36-3.63c.59-.29 1 .09 1 .85l-.54 8.11a2.47 2.47 0 0 1-1.16 1.9l-7.36 3.63c-.59.29-1-.09-1-.85l.53-8.11a2.47 2.47 0 0 1 1.17-1.9zM243 447.73l7.36-3.62c.59-.29 1 .09 1 .84l-.54 8.11a2.51 2.51 0 0 1-1.16 1.91l-7.36 3.62c-.59.29-1-.09-1-.85l.54-8.11a2.47 2.47 0 0 1 1.16-1.9zm-11.35 5.6l7.35-3.63c.59-.29 1 .09 1 .85l-.53 8.11a2.47 2.47 0 0 1-1.16 1.9l-7.36 3.63c-.59.29-1-.09-1-.85l.53-8.11a2.47 2.47 0 0 1 1.17-1.9zm-11.36 5.59l7.36-3.62c.59-.29 1 .09 1 .85l-.54 8.11a2.47 2.47 0 0 1-1.16 1.9l-7.36 3.62c-.59.29-1-.09-1-.84l.54-8.11a2.51 2.51 0 0 1 1.16-1.91zm-11.36 5.6l7.36-3.62c.59-.29 1 .09 1 .84l-.53 8.11a2.47 2.47 0 0 1-1.16 1.9l-7.36 3.63c-.59.29-1-.09-1-.85l.54-8.11a2.47 2.47 0 0 1 1.15-1.9zm-11.37 5.6l7.36-3.63c.59-.29 1 .09 1 .85l-.54 8.11a2.47 2.47 0 0 1-1.16 1.9l-7.37 3.65c-.6.29-1-.09-1-.85l.53-8.11a2.47 2.47 0 0 1 1.18-1.92zm-11.36 5.59l7.36-3.62c.59-.29 1 .09 1 .85l-.54 8.11a2.47 2.47 0 0 1-1.16 1.9l-7.36 3.62c-.59.29-1-.09-1-.85l.54-8.1a2.51 2.51 0 0 1 1.16-1.91zm-11.36 5.6l7.35-3.62c.59-.29 1 .09 1 .84l-.53 8.11a2.47 2.47 0 0 1-1.16 1.9l-7.36 3.63c-.59.29-1-.09-1-.85l.53-8.11a2.45 2.45 0 0 1 1.17-1.9zm-11.37 5.6l7.36-3.63c.59-.29 1 .09 1 .85l-.54 8.11a2.47 2.47 0 0 1-1.16 1.9l-7.36 3.62c-.59.3-1-.08-1-.84l.54-8.11a2.47 2.47 0 0 1 1.16-1.9zm-11.36 5.59l7.36-3.62c.59-.29 1 .09 1 .85l-.54 8.11a2.47 2.47 0 0 1-1.16 1.9l-7.36 3.62c-.59.29-1-.09-1-.85l.54-8.11a2.49 2.49 0 0 1 1.16-1.9zm118.5-46.5l7.36-3.62c.59-.29 1 .09 1 .85l-.53 8.11a2.47 2.47 0 0 1-1.16 1.9l-7.36 3.62c-.59.29-1-.09-1-.85l.53-8.1a2.51 2.51 0 0 1 1.16-1.91zm11.31-5.52l7.36-3.63c.59-.29 1 .09 1 .85l-.54 8.11a2.47 2.47 0 0 1-1.16 1.9l-7.36 3.62c-.59.29-1-.09-1-.84l.53-8.11a2.47 2.47 0 0 1 1.17-1.9zm11.31-5.57l7.36-3.63c.59-.29 1 .09 1 .85l-.54 8.11a2.47 2.47 0 0 1-1.16 1.9l-7.36 3.62c-.59.3-1-.08-1-.84l.54-8.11a2.47 2.47 0 0 1 1.16-1.9zm11.31-5.57l7.36-3.63c.59-.29 1 .09 1 .85l-.53 8.11a2.47 2.47 0 0 1-1.16 1.9l-7.36 3.63c-.59.29-1-.09-1-.85l.54-8.11a2.47 2.47 0 0 1 1.15-1.9zm-.86 12.93l7.36-3.62c.59-.29 1 .09 1 .84l-.18 2.69a2.5 2.5 0 0 1-1.16 1.9l-7.36 3.62c-.59.29-1-.09-1-.85l.18-2.68a2.47 2.47 0 0 1 1.16-1.9zm-14.75 7.27l7.35-3.63c.6-.29 1 .09 1 .85l-.17 2.68a2.47 2.47 0 0 1-1.16 1.9l-7.38 3.66c-.59.29-1-.09-1-.85l.18-2.68a2.47 2.47 0 0 1 1.18-1.93zm-11.26 5.54l7.35-3.62c.6-.29 1 .09 1 .85l-.17 2.68a2.47 2.47 0 0 1-1.16 1.9l-7.36 3.62c-.59.29-1-.09-1-.84l.18-2.69a2.49 2.49 0 0 1 1.16-1.9zm-11.26 5.55l7.35-3.62c.6-.3 1 .08 1 .84l-.17 2.68a2.47 2.47 0 0 1-1.16 1.9l-7.36 3.63c-.59.29-1-.09-1-.85l.18-2.68a2.44 2.44 0 0 1 1.16-1.9zm-11.26 5.54l7.35-3.62c.6-.29 1 .09 1 .85l-.17 2.68a2.47 2.47 0 0 1-1.16 1.9l-7.36 3.62c-.59.29-1-.08-1-.84l.18-2.68a2.48 2.48 0 0 1 1.16-1.91zm-62.87 30.96l7.36-3.62c.59-.29 1 .09 1 .85l-.18 2.68a2.47 2.47 0 0 1-1.16 1.9l-7.36 3.62c-.59.29-1-.09-1-.84l.18-2.69a2.5 2.5 0 0 1 1.16-1.9zM181 502.68l7.36-3.62c.59-.3 1 .08 1 .84l-.18 2.68a2.47 2.47 0 0 1-1.16 1.9l-7.36 3.63c-.59.29-1-.09-1-.85l.18-2.68a2.47 2.47 0 0 1 1.16-1.9zm-11.24 5.55l7.36-3.63c.59-.29 1 .09 1 .85l-.18 2.68a2.47 2.47 0 0 1-1.16 1.9l-7.36 3.62c-.59.29-1-.08-1-.84l.18-2.68a2.47 2.47 0 0 1 1.16-1.9zm-11.26 5.54l7.36-3.62c.59-.29 1 .08 1 .84l-.18 2.68a2.51 2.51 0 0 1-1.16 1.91l-7.36 3.62c-.59.29-1-.09-1-.85l.18-2.68a2.47 2.47 0 0 1 1.16-1.9zm100.75-62.13l7.36-3.62c.59-.29 1 .09 1 .84l-.54 8.11a2.47 2.47 0 0 1-1.16 1.9l-7.36 3.63c-.59.29-1-.09-1-.85l.54-8.11a2.47 2.47 0 0 1 1.16-1.9zm-11.36 5.6l7.36-3.63c.59-.29 1 .09 1 .85l-.53 8.11a2.47 2.47 0 0 1-1.16 1.9l-7.36 3.63c-.59.29-1-.09-1-.85l.54-8.11a2.47 2.47 0 0 1 1.15-1.9zm-11.37 5.59l7.36-3.62c.59-.29 1 .09 1 .85l-.53 8.11a2.48 2.48 0 0 1-1.17 1.9l-7.35 3.62c-.59.29-1-.09-1-.85l.53-8.11a2.49 2.49 0 0 1 1.16-1.9zm-11.36 5.6l7.36-3.62c.59-.29 1 .08 1 .84l-.54 8.11a2.47 2.47 0 0 1-1.16 1.9l-7.36 3.63c-.59.29-1-.09-1-.85l.54-8.11a2.47 2.47 0 0 1 1.16-1.9zM213.8 474l7.35-3.63c.6-.29 1 .09 1 .85l-.53 8.11a2.47 2.47 0 0 1-1.16 1.9l-7.36 3.62c-.59.3-1-.08-1-.84l.54-8.11a2.44 2.44 0 0 1 1.16-1.9zm-11.37 5.62l7.36-3.62c.59-.29 1 .09 1 .85l-.54 8.11a2.47 2.47 0 0 1-1.16 1.9l-7.36 3.62c-.59.29-1-.09-1-.85l.53-8.11a2.49 2.49 0 0 1 1.17-1.9zm-11.36 5.6l7.36-3.62c.59-.3 1 .08 1 .84l-.54 8.11a2.47 2.47 0 0 1-1.16 1.9l-7.36 3.63c-.59.29-1-.09-1-.85l.54-8.11a2.47 2.47 0 0 1 1.16-1.9zm-11.37 5.6l7.36-3.63c.59-.29 1 .09 1 .85l-.53 8.11a2.47 2.47 0 0 1-1.16 1.9l-7.37 3.62c-.59.3-1-.08-1-.84l.53-8.11a2.47 2.47 0 0 1 1.17-1.9zm-11.36 5.59l7.36-3.62c.59-.29 1 .09 1 .85l-.54 8.11a2.49 2.49 0 0 1-1.16 1.9l-7.36 3.62c-.59.29-1-.09-1-.85l.54-8.11a2.49 2.49 0 0 1 1.16-1.9zm125.13-97.33l21.67-10.68c.6-.29 1 .09 1 .85l-.53 8.11a2.47 2.47 0 0 1-1.16 1.9l-21.67 10.67c-.6.3-1-.08-1-.84l.53-8.11a2.47 2.47 0 0 1 1.16-1.9zm-139.6 68.75l21.67-10.67c.59-.29 1 .09 1 .85l-.54 8.1a2.51 2.51 0 0 1-1.16 1.91l-21.67 10.67c-.59.29-1-.09-1-.85l.53-8.11a2.48 2.48 0 0 1 1.17-1.9zm33.81-30.16l7.36-3.62c.59-.29 1 .09 1 .84l-.64 9.67a2.5 2.5 0 0 1-1.16 1.9l-7.36 3.62c-.59.29-1-.09-1-.85l.64-9.66a2.47 2.47 0 0 1 1.16-1.9zM270.21 397l11.77-5.8c.59-.29 1 .09 1 .85l-.63 9.66a2.47 2.47 0 0 1-1.16 1.9l-11.77 5.8c-.59.29-1-.09-1-.85l.64-9.66a2.47 2.47 0 0 1 1.15-1.9zm-71.58 35.28l11.77-5.8c.59-.29 1 .09 1 .85l-.64 9.66a2.47 2.47 0 0 1-1.16 1.9l-11.77 5.8c-.59.29-1-.09-1-.85l.64-9.66a2.47 2.47 0 0 1 1.16-1.9zm55.18-27.18l11.77-5.79c.59-.29 1 .09 1 .85l-.64 9.66a2.49 2.49 0 0 1-1.16 1.9L253 417.51c-.59.29-1-.09-1-.84l.64-9.67a2.49 2.49 0 0 1 1.17-1.9z" transform="translate(-134.92 -301.04)"/><path class="cls-6" d="M264.68 411.76L213.51 437c-.63.32-1.11 0-1.06-.71l.65-9.85a2.45 2.45 0 0 1 1.23-1.84l51.17-25.2zm-103.59 45.01l-8.2 4c-.48.23-.84-.08-.8-.7l.26-3.95a2 2 0 0 1 1-1.56l8.2-4c.49-.24.84.07.8.69l-.26 3.95a2 2 0 0 1-1 1.57zm11.46-5.64l-8.2 4c-.48.24-.84-.07-.8-.69l.26-4a2 2 0 0 1 .95-1.56l8.2-4c.48-.24.84.07.8.7l-.26 3.95a2 2 0 0 1-.95 1.6zm11.36-5.6l-8.19 4c-.49.24-.85-.08-.81-.7l.26-3.95a2.05 2.05 0 0 1 1-1.56l8.19-4c.49-.24.85.07.81.69l-.27 4a2 2 0 0 1-.99 1.52zm-11.82 12.58l-8.2 4c-.48.24-.84-.07-.8-.69l.26-3.95a2 2 0 0 1 1-1.56l8.2-4c.48-.24.84.07.8.7l-.26 3.95a2 2 0 0 1-1 1.55z" transform="translate(-134.92 -301.04)"/><path class="cls-4" d="M115.79 261.8L177 231.66l2.77 2.77-61.21 30.14-2.77-2.77zm6.38-21.19l42.73-21.04 2.77 2.76-42.73 21.05-2.77-2.77z"/><path class="cls-5" d="M133.99 243.82l36.96-18.21 2.77 2.77-36.96 18.2-2.77-2.76z"/><path class="cls-7" d="M109.74 255.76l18.48-9.1 2.77 2.76-18.48 9.1-2.77-2.76z"/><path class="cls-4" d="M208.36 245.06l18.48-9.1 2.77 2.77-18.48 9.1-2.77-2.77z"/><path class="cls-5" d="M202.02 238.49l18.48-9.1 2.77 2.77-18.48 9.1-2.77-2.77z"/><path class="cls-4" d="M50.4 242.43l18.49-9.11 2.77 2.77-18.49 9.1-2.77-2.76zm138.93-17.09l18.48-9.1 2.77 2.77-18.48 9.1-2.77-2.77z"/><path class="cls-7" d="M300.52 556.88a2.21 2.21 0 0 1 1-3.21 2.78 2.78 0 0 1 3.55 1 2.23 2.23 0 0 1-1 3.22 2.79 2.79 0 0 1-3.55-1.01z" transform="translate(-134.92 -301.04)"/><path class="cls-5" d="M292.56 560.8a2.21 2.21 0 0 1 1-3.21 2.8 2.8 0 0 1 3.55 1 2.24 2.24 0 0 1-1 3.22 2.79 2.79 0 0 1-3.55-1.01z" transform="translate(-134.92 -301.04)"/><path class="cls-4" d="M284.6 564.73a2.22 2.22 0 0 1 1-3.22 2.8 2.8 0 0 1 3.55 1 2.24 2.24 0 0 1-1 3.22 2.79 2.79 0 0 1-3.55-1z" transform="translate(-134.92 -301.04)"/><path class="cls-7" d="M276.63 568.65a2.23 2.23 0 0 1 1-3.22 2.8 2.8 0 0 1 3.55 1 2.24 2.24 0 0 1-1 3.22 2.81 2.81 0 0 1-3.55-1z" transform="translate(-134.92 -301.04)"/></svg>