<svg id="Ñëîé_1" data-name="Ñëîé 1" xmlns="http://www.w3.org/2000/svg" viewBox="0 0 70.77 51.71"><defs><style>.cls-1{fill:#396caa}.cls-2{fill:#5793ce}.cls-3{fill:#d4ecff}</style></defs><path class="cls-1" d="M1055.48 37.5V26.91h-23.75l-8.21-4.74a8.18 8.18 0 0 0-7.35.3l-7.66 4.42h-23.78v10.9a2.16 2.16 0 0 0 1.26 2l30.71 17.72c1.88 1.09 5.17.95 7.35-.3L1053.69 40a2.9 2.9 0 0 0 1.79-2.5z" transform="translate(-984.72 -6.48)"/><path class="cls-1" d="M1020.11 21.43a8.46 8.46 0 0 0-3.94 1l-7.66 4.42h-23.78v10.9a2.16 2.16 0 0 0 1.26 2l30.71 17.72a6.66 6.66 0 0 0 3.41.73z" transform="translate(-984.72 -6.48)"/><path class="cls-2" d="M987.42 26.87h-2.69v10.9a2.16 2.16 0 0 0 1.26 2l1.43.82zm29.75 30.82a8.36 8.36 0 0 0 5.87-.06V45.26h-5.87z" transform="translate(-984.72 -6.48)"/><path class="cls-3" d="M1016.7 46.61L986 28.88c-1.88-1.09-1.64-3 .53-4.24l29.65-17.12a8.15 8.15 0 0 1 7.35-.3l30.7 17.72c1.88 1.09 1.65 3-.53 4.25l-29.65 17.11a8.18 8.18 0 0 1-7.35.31z" transform="translate(-984.72 -6.48)"/><path d="M1053.69 27.1l-29.64 17.12c-2.18 1.25-5.47 1.39-7.35.3L986 26.8a2.89 2.89 0 0 1-.94-.84 2 2 0 0 0 .94 2.92l30.71 17.73a8.18 8.18 0 0 0 7.35-.31l29.64-17.11c1.69-1 2.21-2.34 1.47-3.41a4.18 4.18 0 0 1-1.48 1.32z" transform="translate(-984.72 -6.48)" fill="#fff"/><path class="cls-3" d="M1044.19 40.3a2.77 2.77 0 0 1-1.24 2.15c-.69.39-1.24.07-1.24-.72a2.74 2.74 0 0 1 1.24-2.15c.68-.39 1.24-.07 1.24.72zm3.99-2.3a2.73 2.73 0 0 1-1.24 2.14c-.69.4-1.24.08-1.24-.71a2.74 2.74 0 0 1 1.24-2.15c.68-.4 1.24-.07 1.24.72zm3.99-2.31a2.75 2.75 0 0 1-1.24 2.15c-.69.4-1.24.08-1.24-.72a2.71 2.71 0 0 1 1.24-2.14c.68-.4 1.24-.08 1.24.71z" transform="translate(-984.72 -6.48)"/><path class="cls-2" d="M1018.51 35.62l-14.37-8.3c-.88-.51-.77-1.4.25-2l13.87-8a3.82 3.82 0 0 1 3.44-.15l14.37 8.3c.88.51.77 1.4-.25 2l-13.87 8a3.82 3.82 0 0 1-3.44.15z" transform="translate(-984.72 -6.48)"/><path class="cls-3" d="M1019.89 28.67l-2-1.15c-.12-.07-.11-.19 0-.27l1.92-1.11a.54.54 0 0 1 .48 0l2 1.15c.12.07.1.19 0 .27l-1.92 1.11a.52.52 0 0 1-.48 0z" transform="translate(-984.72 -6.48)"/><path class="cls-1" d="M1004.14 27.32l.21-.14 13.87-8a3.84 3.84 0 0 1 3.44-.14l14.34 8.28c.81-.58.85-1.37 0-1.84l-14.37-8.3a3.82 3.82 0 0 0-3.44.15l-13.87 8c-.95.59-1.06 1.48-.18 1.99z" transform="translate(-984.72 -6.48)"/></svg>