<svg id="Ñëîé_1" data-name="Ñëîé 1" xmlns="http://www.w3.org/2000/svg" viewBox="0 0 93.81 58.4"><defs><style>.cls-4{fill:#5793ce}.cls-5{fill:#fff}</style></defs><path d="M800.06 21.25l-5-2.9 18.53-10.7a1 1 0 0 0 0-1.83L794.63-5.11a3.48 3.48 0 0 0-3.17 0l-18.53 10.7-5-2.91L786.43-8a14.62 14.62 0 0 1 13.23 0l18.93 10.91c3.65 2.11 3.65 5.54 0 7.64z" transform="translate(-727.51 9.59)" fill="#e4141a"/><path d="M808.17 22.53c0-2.69-1.63-5.81-3.65-7L771-3.83a2.35 2.35 0 0 0-2.37-.2L728.5 19.26l38.76 29.21 39.49-22.92a1.75 1.75 0 0 0 .35-.2 3.43 3.43 0 0 0 1.07-2.82z" transform="translate(-727.51 9.59)" fill="#d4ecff"/><path d="M767.26 48.47l39.49-22.92a1.75 1.75 0 0 0 .35-.2 3.43 3.43 0 0 0 1.07-2.82 9.07 9.07 0 0 0-1-3.89l-45 26z" transform="translate(-727.51 9.59)" fill="#173d7a"/><path class="cls-4" d="M764.74 48.37L731.16 29c-2-1.17-3.65-4.29-3.65-7 0-2.68 1.64-3.92 3.65-2.75l33.58 19.38c2 1.16 3.64 4.28 3.64 7 0 2.67-1.63 3.9-3.64 2.74z" transform="translate(-727.51 9.59)"/><path class="cls-5" d="M765.14 38.46l-33.57-19.39a2.33 2.33 0 0 0-2.42-.17 2.56 2.56 0 0 1 2 .36l33.58 19.38c2 1.16 3.64 4.28 3.64 7a3.27 3.27 0 0 1-1.23 2.93c1-.3 1.64-1.42 1.64-3.11.01-2.72-1.63-5.84-3.64-7z" transform="translate(-727.51 9.59)"/><path class="cls-5" d="M759.71 41.83l-4-2.33a1.74 1.74 0 0 1-.73-1.39c0-.53.33-.78.73-.55l4 2.33a1.75 1.75 0 0 1 .72 1.39c0 .54-.32.78-.72.55z" transform="translate(-727.51 9.59)"/><path class="cls-4" d="M764.26 14.27c1.22-.72 1.21-1.86 0-2.56a4.9 4.9 0 0 0-4.43 0 1.35 1.35 0 0 0 0 2.56 4.92 4.92 0 0 0 4.43 0z" transform="translate(-727.51 9.59)"/><path class="cls-5" d="M771 18.08a1.35 1.35 0 0 0 0-2.56 4.9 4.9 0 0 0-4.43.05 1.35 1.35 0 0 0 0 2.56 4.92 4.92 0 0 0 4.43-.05zm6.78 3.81a1.35 1.35 0 0 0 0-2.56 4.9 4.9 0 0 0-4.43.05 1.35 1.35 0 0 0 0 2.56 4.92 4.92 0 0 0 4.43-.05z" transform="translate(-727.51 9.59)"/></svg>