<svg id="Ñëîé_1" data-name="Ñëîé 1" xmlns="http://www.w3.org/2000/svg" viewBox="0 0 100.69 181.28"><defs><style>.cls-1{fill:#396caa}.cls-2,.cls-7{fill:#d4ecff}.cls-3{fill:#5793ce}.cls-5{fill:#173d7a}.cls-6{fill:#fff}.cls-7{opacity:.4}</style></defs><path class="cls-1" d="M800.24 235.6V112.34l49-12.82 9-5.22c2.07-1.19 5.69-1 8.08.34l8.42 4.86h26.14l-7.74 119a2.32 2.32 0 0 1-1.39 2.16l-48.9 36.9c-2.07 1.2-5.69 1-8.08-.33l-32.59-18.82c-1.35-.81-2.02-1.85-1.94-2.81z" transform="translate(-800.23 -77.07)"/><path class="cls-2" d="M862 93.5a9.34 9.34 0 0 1 4.33 1.14l8.42 4.86h26.14v123.58a2.36 2.36 0 0 1-1.39 2.17l-56.64 32.29a7.22 7.22 0 0 1-3.75.8L838.54 134z" transform="translate(-800.23 -77.07)"/><path class="cls-3" d="M842.36 257.8a9.22 9.22 0 0 1-6.46-.08V132.51h6.46z" transform="translate(-800.23 -77.07)"/><path class="cls-2" d="M842.88 134l56.64-32.29c2.07-1.2 1.81-3.29-.58-4.67l-32.59-18.83c-2.39-1.38-6-1.53-8.08-.33l-56.64 32.3c-2.07 1.19-1.81 3.28.58 4.66l32.59 18.82c2.39 1.34 6.01 1.53 8.08.34z" transform="translate(-800.23 -77.07)"/><path d="M802.21 112.55l32.59 18.82c2.39 1.38 6 1.53 8.08.33l56.64-32.3a3.1 3.1 0 0 0 1-.91c.71 1.14.39 2.38-1 3.21L842.88 134c-2.07 1.2-5.69 1-8.08-.33l-32.59-18.82c-1.86-1.07-2.43-2.57-1.62-3.75a4.5 4.5 0 0 0 1.62 1.45z" transform="translate(-800.23 -77.07)" fill="#fafdff"/><path class="cls-5" d="M841.28 120.9L879 99c1-.56.84-1.53-.27-2.18l-15.25-8.8a4.21 4.21 0 0 0-3.79-.16L822 109.76c-1 .56-.84 1.54.27 2.18l15.25 8.81a4.24 4.24 0 0 0 3.76.15z" transform="translate(-800.23 -77.07)"/><path class="cls-2" d="M861.64 100l2.18-1.27c.13-.07.12-.21 0-.3l-2.11-1.22a.56.56 0 0 0-.52 0L859 98.48c-.13.08-.11.22 0 .31l2.11 1.21a.62.62 0 0 0 .53 0zm-7.31 4.22l2.19-1.26c.13-.08.12-.21 0-.3l-2.11-1.22a.56.56 0 0 0-.52 0l-2.19 1.26c-.13.08-.11.21 0 .3l2.11 1.22a.57.57 0 0 0 .52 0zm-7.33 4.2l2.19-1.26c.13-.08.12-.21 0-.3l-2.11-1.22a.56.56 0 0 0-.52 0l-2.19 1.26c-.13.08-.11.21 0 .3l2.11 1.22a.57.57 0 0 0 .52 0zm-7.27 4.2l2.19-1.26c.13-.08.12-.22 0-.31l-2.11-1.21a.6.6 0 0 0-.52 0l-2.19 1.27c-.13.07-.11.21 0 .3l2.11 1.22a.57.57 0 0 0 .52-.01z" transform="translate(-800.23 -77.07)"/><path class="cls-3" d="M879 99l-.22-.16-15.25-8.8a4.21 4.21 0 0 0-3.79-.16L822 111.79c-.9-.64-.94-1.51 0-2l37.68-21.89a4.21 4.21 0 0 1 3.79.16l15.25 8.8c1.11.65 1.28 1.62.28 2.14z" transform="translate(-800.23 -77.07)"/><path class="cls-5" d="M828.43 158.41L807 146.14a5.26 5.26 0 0 1-2.18-4.18v-7.66c0-1.61 1-2.35 2.18-1.66l21.44 12.28a5.24 5.24 0 0 1 2.19 4.17v7.67c-.01 1.61-.99 2.35-2.2 1.65z" transform="translate(-800.23 -77.07)"/><path class="cls-6" d="M805.93 132.41a2.14 2.14 0 0 0-.55 1.6v7.67a5.24 5.24 0 0 0 2.19 4.17L829 158.13a1.61 1.61 0 0 0 1.06.23 1.32 1.32 0 0 1-1.64 0L807 146.14a5.26 5.26 0 0 1-2.18-4.18v-7.66c-.01-1.1.44-1.77 1.11-1.89z" transform="translate(-800.23 -77.07)"/><path class="cls-1" d="M822 150.08l-2-1.08a1.15 1.15 0 0 1-.48-.91v-2.1c0-.35.22-.51.48-.36l2 1.13a1.16 1.16 0 0 1 .47.91v2.1c-.01.31-.22.47-.47.31z" transform="translate(-800.23 -77.07)"/><path class="cls-6" d="M815.41 146.29l-2-1.14a1.14 1.14 0 0 1-.47-.91v-2.1c0-.35.21-.51.47-.36l2 1.14a1.15 1.15 0 0 1 .48.91v2.1c0 .35-.22.51-.48.36z" transform="translate(-800.23 -77.07)"/><path class="cls-5" d="M828.43 213.82L807 201.54a5.23 5.23 0 0 1-2.18-4.17v-7.67c0-1.61 1-2.35 2.18-1.65l21.44 12.28a5.21 5.21 0 0 1 2.19 4.17v7.67c-.01 1.61-.99 2.35-2.2 1.65z" transform="translate(-800.23 -77.07)"/><path class="cls-6" d="M805.93 187.82a2.13 2.13 0 0 0-.55 1.59v7.67a5.24 5.24 0 0 0 2.19 4.18L829 213.53a1.5 1.5 0 0 0 1.06.23 1.3 1.3 0 0 1-1.64.06L807 201.54a5.23 5.23 0 0 1-2.18-4.17v-7.67c-.01-1.09.44-1.77 1.11-1.88z" transform="translate(-800.23 -77.07)"/><path class="cls-1" d="M822 205.49l-2-1.13a1.17 1.17 0 0 1-.48-.91v-2.11c0-.35.22-.51.48-.36l2 1.14a1.14 1.14 0 0 1 .47.91v2.1c-.01.35-.22.51-.47.36z" transform="translate(-800.23 -77.07)"/><path class="cls-6" d="M815.41 201.69l-2-1.13a1.14 1.14 0 0 1-.47-.91v-2.1c0-.35.21-.51.47-.36l2 1.13a1.15 1.15 0 0 1 .48.91v2.1c0 .35-.22.52-.48.36z" transform="translate(-800.23 -77.07)"/><path class="cls-5" d="M828.43 241.52L807 229.25a5.26 5.26 0 0 1-2.18-4.18v-7.66c0-1.61 1-2.35 2.18-1.66L828.43 228a5.24 5.24 0 0 1 2.19 4.17v7.67c0 1.64-.98 2.38-2.19 1.68z" transform="translate(-800.23 -77.07)"/><path class="cls-6" d="M805.93 215.52a2.14 2.14 0 0 0-.55 1.6v7.67a5.24 5.24 0 0 0 2.19 4.17L829 241.24a1.61 1.61 0 0 0 1.06.23 1.32 1.32 0 0 1-1.64.05L807 229.25a5.26 5.26 0 0 1-2.18-4.18v-7.66c-.01-1.1.44-1.77 1.11-1.89z" transform="translate(-800.23 -77.07)"/><path class="cls-1" d="M822 233.19l-2-1.13a1.15 1.15 0 0 1-.48-.91v-2.1c0-.35.22-.51.48-.36l2 1.13a1.14 1.14 0 0 1 .47.91v2.1c-.01.35-.22.52-.47.36z" transform="translate(-800.23 -77.07)"/><path class="cls-6" d="M815.41 229.4l-2-1.14a1.14 1.14 0 0 1-.47-.91v-2.1c0-.35.21-.51.47-.36l2 1.14a1.15 1.15 0 0 1 .48.91V229c0 .39-.22.55-.48.4z" transform="translate(-800.23 -77.07)"/><path class="cls-5" d="M828.43 186.12L807 173.84a5.24 5.24 0 0 1-2.18-4.17V162c0-1.61 1-2.35 2.18-1.65l21.44 12.27a5.24 5.24 0 0 1 2.19 4.18v7.67c-.01 1.6-.99 2.34-2.2 1.65z" transform="translate(-800.23 -77.07)"/><path class="cls-6" d="M805.93 160.12a2.11 2.11 0 0 0-.55 1.59v7.67a5.21 5.21 0 0 0 2.19 4.17L829 185.83a1.61 1.61 0 0 0 1.06.23 1.31 1.31 0 0 1-1.64.06L807 173.84a5.24 5.24 0 0 1-2.18-4.17V162c-.01-1.09.44-1.77 1.11-1.88z" transform="translate(-800.23 -77.07)"/><path class="cls-1" d="M822 177.79l-2-1.14a1.15 1.15 0 0 1-.48-.91v-2.1c0-.35.22-.51.48-.36l2 1.14a1.14 1.14 0 0 1 .47.91v2.1c-.01.35-.22.51-.47.36z" transform="translate(-800.23 -77.07)"/><path class="cls-6" d="M815.41 174l-2-1.14a1.12 1.12 0 0 1-.47-.9v-2.11c0-.35.21-.51.47-.36l2 1.14a1.15 1.15 0 0 1 .48.91v2.1c0 .36-.22.5-.48.36z" transform="translate(-800.23 -77.07)"/><path class="cls-3" d="M847 150.56L896.47 122a4.81 4.81 0 0 0 2-3.83v-9.44c0-1.47-.9-2.15-2-1.51L847 135.79a4.81 4.81 0 0 0-2 3.83v9.43c0 1.48.9 2.15 2 1.51z" transform="translate(-800.23 -77.07)"/><path class="cls-7" d="M848.42 147.26l46.63-26.92a2.46 2.46 0 0 0 1-2v-7.04c0-.75-.46-1.09-1-.77l-46.63 26.92a2.45 2.45 0 0 0-1 2v7.09c-.01.7.44 1.04 1 .72z" transform="translate(-800.23 -77.07)"/><path class="cls-2" d="M885.33 122.36l7-4a2.36 2.36 0 0 0 1-1.89c0-.73-.44-1.06-1-.75l-7 4a2.37 2.37 0 0 0-1 1.89c.02.73.46 1.07 1 .75z" transform="translate(-800.23 -77.07)"/><path class="cls-5" d="M879.4 124.47c0 .73.51 1 1.14.66a2.53 2.53 0 0 0 1.14-2c0-.72-.51-1-1.14-.66a2.53 2.53 0 0 0-1.14 2zm-4.02 2.32c0 .73.51 1 1.14.66a2.52 2.52 0 0 0 1.14-2c0-.73-.51-1-1.14-.66a2.52 2.52 0 0 0-1.14 2z" transform="translate(-800.23 -77.07)"/><path class="cls-2" d="M871.36 129.12c0 .72.51 1 1.14.65a2.5 2.5 0 0 0 1.14-2c0-.73-.51-1-1.14-.66a2.52 2.52 0 0 0-1.14 2.01z" transform="translate(-800.23 -77.07)"/><path class="cls-5" d="M867.33 131.44c0 .73.51 1 1.14.66a2.54 2.54 0 0 0 1.15-2c0-.73-.52-1-1.15-.66a2.53 2.53 0 0 0-1.14 2zm-16.94 11.87l2.34-1.35a1.54 1.54 0 0 0 .63-1.22v-2.48c0-.46-.28-.68-.63-.47l-2.34 1.35a1.51 1.51 0 0 0-.64 1.21v2.48c0 .47.25.68.64.48z" transform="translate(-800.23 -77.07)"/><path class="cls-3" d="M847 167.2l49.47-28.56a4.81 4.81 0 0 0 2-3.83v-9.43c0-1.48-.9-2.16-2-1.52L847 152.42a4.81 4.81 0 0 0-2 3.83v9.43c0 1.48.9 2.16 2 1.52z" transform="translate(-800.23 -77.07)"/><path class="cls-7" d="M848.42 163.89L895.05 137a2.43 2.43 0 0 0 1-1.94v-7.09c0-.75-.46-1.1-1-.77l-46.63 26.92a2.42 2.42 0 0 0-1 1.94v7.09c-.01.72.44 1.06 1 .74z" transform="translate(-800.23 -77.07)"/><path class="cls-2" d="M885.33 139l7-4a2.36 2.36 0 0 0 1-1.89c0-.73-.44-1.06-1-.75l-7 4a2.38 2.38 0 0 0-1 1.89c.02.75.46 1.06 1 .75z" transform="translate(-800.23 -77.07)"/><path class="cls-6" d="M879.4 141.1c0 .73.51 1 1.14.66a2.52 2.52 0 0 0 1.14-2c0-.73-.51-1-1.14-.66a2.52 2.52 0 0 0-1.14 2z" transform="translate(-800.23 -77.07)"/><path class="cls-5" d="M875.38 143.43c0 .72.51 1 1.14.65a2.5 2.5 0 0 0 1.14-2c0-.73-.51-1-1.14-.66a2.52 2.52 0 0 0-1.14 2.01z" transform="translate(-800.23 -77.07)"/><path class="cls-2" d="M871.36 145.75c0 .73.51 1 1.14.66a2.53 2.53 0 0 0 1.14-2c0-.73-.51-1-1.14-.66a2.53 2.53 0 0 0-1.14 2z" transform="translate(-800.23 -77.07)"/><path class="cls-5" d="M867.33 148.07c0 .73.51 1 1.14.66a2.53 2.53 0 0 0 1.15-2c0-.72-.52-1-1.15-.65a2.5 2.5 0 0 0-1.14 1.99zm-16.94 11.87l2.34-1.35a1.52 1.52 0 0 0 .63-1.21v-2.48c0-.47-.28-.68-.63-.48l-2.34 1.35a1.53 1.53 0 0 0-.64 1.21v2.48c0 .47.25.68.64.48z" transform="translate(-800.23 -77.07)"/><path class="cls-3" d="M847 183.83l49.47-28.56a4.79 4.79 0 0 0 2-3.83V142c0-1.48-.9-2.16-2-1.52L847 169.05a4.83 4.83 0 0 0-2 3.83v9.44c0 1.47.9 2.15 2 1.51z" transform="translate(-800.23 -77.07)"/><path class="cls-7" d="M848.42 180.52l46.63-26.92a2.43 2.43 0 0 0 1-1.94v-7.09c0-.75-.46-1.09-1-.77l-46.63 26.92a2.42 2.42 0 0 0-1 1.94v7.09c-.01.75.44 1.1 1 .77z" transform="translate(-800.23 -77.07)"/><path class="cls-2" d="M885.33 155.63l7-4a2.35 2.35 0 0 0 1-1.89c0-.72-.44-1.06-1-.74l-7 4a2.36 2.36 0 0 0-1 1.88c.02.73.46 1.06 1 .75z" transform="translate(-800.23 -77.07)"/><path class="cls-6" d="M879.4 157.74c0 .72.51 1 1.14.65a2.5 2.5 0 0 0 1.14-2c0-.73-.51-1-1.14-.66a2.52 2.52 0 0 0-1.14 2.01z" transform="translate(-800.23 -77.07)"/><path class="cls-5" d="M875.38 160.06c0 .73.51 1 1.14.66a2.53 2.53 0 0 0 1.14-2c0-.73-.51-1-1.14-.66a2.53 2.53 0 0 0-1.14 2z" transform="translate(-800.23 -77.07)"/><path class="cls-2" d="M871.36 162.38c0 .73.51 1 1.14.66a2.52 2.52 0 0 0 1.14-2c0-.72-.51-1-1.14-.65a2.5 2.5 0 0 0-1.14 1.99z" transform="translate(-800.23 -77.07)"/><path class="cls-5" d="M867.33 164.7c0 .73.51 1 1.14.66a2.53 2.53 0 0 0 1.15-2c0-.73-.52-1-1.15-.66a2.52 2.52 0 0 0-1.14 2zm-16.94 11.87l2.34-1.35a1.5 1.5 0 0 0 .63-1.21v-2.48c0-.47-.28-.68-.63-.48l-2.34 1.35a1.55 1.55 0 0 0-.64 1.22v2.48c0 .46.25.68.64.47z" transform="translate(-800.23 -77.07)"/><path class="cls-3" d="M847 200.46l49.47-28.56a4.78 4.78 0 0 0 2-3.83v-9.43c0-1.47-.9-2.15-2-1.51L847 185.69a4.8 4.8 0 0 0-2 3.83V199c0 1.42.9 2.1 2 1.46z" transform="translate(-800.23 -77.07)"/><path class="cls-7" d="M848.42 197.16l46.63-26.92a2.46 2.46 0 0 0 1-2v-7.04c0-.75-.46-1.09-1-.77l-46.63 26.92a2.45 2.45 0 0 0-1 2v7.09c-.01.7.44 1.04 1 .72z" transform="translate(-800.23 -77.07)"/><path class="cls-2" d="M885.33 172.26l7-4a2.34 2.34 0 0 0 1-1.88c0-.73-.44-1.06-1-.75l-7 4a2.37 2.37 0 0 0-1 1.89c.02.72.46 1.06 1 .74z" transform="translate(-800.23 -77.07)"/><path class="cls-5" d="M879.4 174.37c0 .73.51 1 1.14.66a2.53 2.53 0 0 0 1.14-2c0-.73-.51-1-1.14-.66a2.53 2.53 0 0 0-1.14 2zm-4.02 2.32c0 .73.51 1 1.14.66a2.52 2.52 0 0 0 1.14-2c0-.72-.51-1-1.14-.65a2.5 2.5 0 0 0-1.14 1.99z" transform="translate(-800.23 -77.07)"/><path class="cls-2" d="M871.36 179c0 .73.51 1 1.14.66a2.52 2.52 0 0 0 1.14-2c0-.73-.51-1-1.14-.66a2.52 2.52 0 0 0-1.14 2z" transform="translate(-800.23 -77.07)"/><path class="cls-5" d="M867.33 181.34c0 .72.51 1 1.14.66a2.54 2.54 0 0 0 1.15-2c0-.73-.52-1-1.15-.66a2.53 2.53 0 0 0-1.14 2z" transform="translate(-800.23 -77.07)"/><path class="cls-2" d="M850.39 193.21l2.34-1.36a1.5 1.5 0 0 0 .63-1.21v-2.48c0-.46-.28-.68-.63-.48l-2.34 1.32a1.51 1.51 0 0 0-.64 1.21v2.48c0 .51.25.72.64.52z" transform="translate(-800.23 -77.07)"/><path class="cls-3" d="M847 217.1l49.47-28.56a4.81 4.81 0 0 0 2-3.83v-9.44c0-1.47-.9-2.15-2-1.51L847 202.32a4.81 4.81 0 0 0-2 3.83v9.43c0 1.48.9 2.16 2 1.52z" transform="translate(-800.23 -77.07)"/><path class="cls-7" d="M848.42 213.79l46.63-26.92a2.43 2.43 0 0 0 1-1.94v-7.09c0-.75-.46-1.1-1-.77L848.42 204a2.42 2.42 0 0 0-1 1.94V213c-.01.77.44 1.11 1 .79z" transform="translate(-800.23 -77.07)"/><path class="cls-2" d="M885.33 188.9l7-4a2.36 2.36 0 0 0 1-1.89c0-.73-.44-1.06-1-.75l-7 4a2.38 2.38 0 0 0-1 1.89c.02.73.46 1.06 1 .75z" transform="translate(-800.23 -77.07)"/><path class="cls-5" d="M879.4 191c0 .73.51 1 1.14.66a2.52 2.52 0 0 0 1.14-2c0-.72-.51-1-1.14-.65a2.5 2.5 0 0 0-1.14 1.99z" transform="translate(-800.23 -77.07)"/><path class="cls-6" d="M875.38 193.32c0 .73.51 1 1.14.66a2.52 2.52 0 0 0 1.14-2c0-.73-.51-1-1.14-.66a2.52 2.52 0 0 0-1.14 2z" transform="translate(-800.23 -77.07)"/><path class="cls-2" d="M871.36 195.65c0 .72.51 1 1.14.66a2.53 2.53 0 0 0 1.14-2c0-.73-.51-1-1.14-.66a2.53 2.53 0 0 0-1.14 2z" transform="translate(-800.23 -77.07)"/><path class="cls-6" d="M867.33 198c0 .73.51 1 1.14.66a2.53 2.53 0 0 0 1.15-2c0-.72-.52-1-1.15-.66a2.53 2.53 0 0 0-1.14 2z" transform="translate(-800.23 -77.07)"/><path class="cls-2" d="M850.39 209.84l2.34-1.35a1.52 1.52 0 0 0 .63-1.21v-2.48c0-.47-.28-.68-.63-.48l-2.34 1.35a1.51 1.51 0 0 0-.64 1.21v2.48c0 .47.25.64.64.48z" transform="translate(-800.23 -77.07)"/><path class="cls-3" d="M847 233.73l49.47-28.56a4.79 4.79 0 0 0 2-3.83v-9.43c0-1.48-.9-2.16-2-1.52L847 219a4.83 4.83 0 0 0-2 3.83v9.43c0 1.43.9 2.11 2 1.47z" transform="translate(-800.23 -77.07)"/><path class="cls-7" d="M848.42 230.42l46.63-26.92a2.43 2.43 0 0 0 1-1.94v-7.09c0-.75-.46-1.09-1-.77l-46.63 26.92a2.42 2.42 0 0 0-1 1.94v7.09c-.01.75.44 1.1 1 .77z" transform="translate(-800.23 -77.07)"/><path class="cls-2" d="M885.33 205.53l7-4a2.35 2.35 0 0 0 1-1.89c0-.72-.44-1.06-1-.74l-7 4a2.38 2.38 0 0 0-1 1.89c.02.72.46 1.05 1 .74z" transform="translate(-800.23 -77.07)"/><path class="cls-5" d="M879.4 207.63c0 .73.51 1 1.14.66a2.5 2.5 0 0 0 1.14-2c0-.73-.51-1-1.14-.66a2.52 2.52 0 0 0-1.14 2zm-4.02 2.37c0 .72.51 1 1.14.66a2.53 2.53 0 0 0 1.14-2c0-.73-.51-1-1.14-.66a2.53 2.53 0 0 0-1.14 2z" transform="translate(-800.23 -77.07)"/><path class="cls-2" d="M871.36 212.28c0 .73.51 1 1.14.66a2.52 2.52 0 0 0 1.14-2c0-.72-.51-1-1.14-.65a2.5 2.5 0 0 0-1.14 1.99z" transform="translate(-800.23 -77.07)"/><path class="cls-5" d="M867.33 214.6c0 .73.51 1 1.14.66a2.53 2.53 0 0 0 1.15-2c0-.73-.52-1-1.15-.66a2.52 2.52 0 0 0-1.14 2zm-16.94 11.87l2.34-1.35a1.5 1.5 0 0 0 .63-1.21v-2.48c0-.47-.28-.68-.63-.48l-2.34 1.35a1.54 1.54 0 0 0-.64 1.21V226c0 .46.25.68.64.47z" transform="translate(-800.23 -77.07)"/><path class="cls-3" d="M847 250.36l49.47-28.56a4.79 4.79 0 0 0 2-3.83v-9.43c0-1.48-.9-2.15-2-1.51L847 235.58a4.83 4.83 0 0 0-2 3.83v9.44c0 1.47.9 2.15 2 1.51z" transform="translate(-800.23 -77.07)"/><path class="cls-7" d="M848.42 247.06l46.63-26.92a2.46 2.46 0 0 0 1-1.95v-7.09c0-.75-.46-1.09-1-.77l-46.63 26.92a2.45 2.45 0 0 0-1 1.95v7.09c-.01.71.44 1.09 1 .77z" transform="translate(-800.23 -77.07)"/><path class="cls-2" d="M885.33 222.16l7-4a2.34 2.34 0 0 0 1-1.88c0-.73-.44-1.07-1-.75l-7 4a2.36 2.36 0 0 0-1 1.88c.02.73.46 1.07 1 .75z" transform="translate(-800.23 -77.07)"/><path class="cls-6" d="M878.13 225.17c0 1.37 1 1.93 2.16 1.24a4.76 4.76 0 0 0 2.15-3.73c0-1.37-1-1.93-2.15-1.24a4.74 4.74 0 0 0-2.16 3.73z" transform="translate(-800.23 -77.07)"/><path class="cls-5" d="M869.8 230c0 .73.51 1 1.14.66a2.52 2.52 0 0 0 1.14-2c0-.73-.51-1-1.14-.66a2.52 2.52 0 0 0-1.14 2z" transform="translate(-800.23 -77.07)"/><path class="cls-2" d="M865.78 232.37c0 .72.51 1 1.14.66a2.53 2.53 0 0 0 1.14-2c0-.73-.51-1-1.14-.66a2.53 2.53 0 0 0-1.14 2z" transform="translate(-800.23 -77.07)"/><path class="cls-5" d="M861.75 234.69c0 .73.51 1 1.14.66a2.53 2.53 0 0 0 1.14-2c0-.72-.51-1-1.14-.66a2.53 2.53 0 0 0-1.14 2z" transform="translate(-800.23 -77.07)"/><path class="cls-2" d="M850.39 243.11l2.34-1.36a1.5 1.5 0 0 0 .63-1.21v-2.48c0-.46-.28-.68-.63-.48l-2.34 1.36a1.51 1.51 0 0 0-.64 1.21v2.48c0 .46.25.68.64.48z" transform="translate(-800.23 -77.07)"/></svg>