<svg id="Ñëîé_1" data-name="Ñëîé 1" xmlns="http://www.w3.org/2000/svg" viewBox="0 0 113.76 191.11"><defs><style>.cls-2{fill:#396caa}.cls-3{fill:#d4ecff}.cls-4{fill:#5793ce}.cls-5{fill:url(#Áåçûìÿííûé_ãðàäèåíò_441)}.cls-6{fill:#173d7a}.cls-7{fill:#06033e;opacity:.3}.cls-8{fill:#fff}.cls-9{fill:#e4141a}</style><linearGradient id="Áåçûìÿííûé_ãðàäèåíò_462" x1="419.37" y1="1382.61" x2="419.37" y2="1271.18" gradientTransform="matrix(.87 .5 0 1.15 302.94 -1367.57)" gradientUnits="userSpaceOnUse"><stop offset="0" stop-color="#2d0979"/><stop offset="1" stop-color="#5b04f7"/></linearGradient><linearGradient id="Áåçûìÿííûé_ãðàäèåíò_441" x1="322.76" y1="1390.3" x2="378.75" y2="1377.61" gradientTransform="matrix(.87 .5 0 1.15 302.94 -1367.57)" gradientUnits="userSpaceOnUse"><stop offset="0" stop-color="#3919bb"/><stop offset="1" stop-color="#6507fa"/></linearGradient></defs><path d="M691 453l-49.86-28.78c-1.94-1.12-3.51-4.13-3.51-6.71v-119.3c0-2.59 1.57-3.77 3.51-2.65L691 324.34c1.94 1.12 3.51 4.12 3.51 6.71v119.31c.04 2.58-1.51 3.77-3.51 2.64z" transform="translate(-580.79 -295.13)" fill="url(#Áåçûìÿííûé_ãðàäèåíò_462)"/><path class="cls-2" d="M691 324.34l-49.86-28.78a2.26 2.26 0 0 0-2.27-.2L582 328.2l2.68 9.92 51.9 147.81 56.69-32.69.1-.06a3.17 3.17 0 0 0 1.16-2.8V331.05c.02-2.59-1.53-5.59-3.53-6.71z" transform="translate(-580.79 -295.13)"/><path class="cls-3" d="M691 324.34l-49.86-28.78a2.26 2.26 0 0 0-2.27-.2L582 328.2l2.68 9.92 14.27 40.65 2.69 1.55 91.94-53.08a7.12 7.12 0 0 0-2.58-2.9z" transform="translate(-580.79 -295.13)"/><path class="cls-4" d="M634.16 485.82L584.3 457c-1.94-1.12-3.51-4.12-3.51-6.71V331c0-2.58 1.57-3.77 3.51-2.65l49.86 28.78c1.94 1.12 3.51 4.12 3.51 6.71v119.33c0 2.58-1.57 3.77-3.51 2.65z" transform="translate(-580.79 -295.13)"/><path class="cls-5" d="M631 478.64l-43.58-25.16a7.35 7.35 0 0 1-3.07-5.87v-110.8c0-2.26 1.37-3.3 3.07-2.32L631 359.65a7.35 7.35 0 0 1 3.07 5.87v110.8c.02 2.26-1.35 3.3-3.07 2.32z" transform="translate(-580.79 -295.13)"/><path class="cls-5" d="M631 478.64l-43.58-25.16a7.35 7.35 0 0 1-3.07-5.87v-110.8c0-2.26 1.37-3.3 3.07-2.32L631 359.65a7.35 7.35 0 0 1 3.07 5.87v110.8c.02 2.26-1.35 3.3-3.07 2.32z" transform="translate(-580.79 -295.13)"/><path class="cls-6" d="M631 478.64l-43.58-25.16a7.35 7.35 0 0 1-3.07-5.87v-110.8c0-2.26 1.37-3.3 3.07-2.32L631 359.65a7.35 7.35 0 0 1 3.07 5.87v110.8c.02 2.26-1.35 3.3-3.07 2.32z" transform="translate(-580.79 -295.13)"/><path class="cls-2" d="M632.45 477.8l-43.59-25.16a7.36 7.36 0 0 1-3.07-5.86V336a3.64 3.64 0 0 1 .44-1.85c-1.09 0-1.86 1-1.86 2.69v110.8a7.35 7.35 0 0 0 3.07 5.87L631 478.64a1.77 1.77 0 0 0 2.63-.47 2.4 2.4 0 0 1-1.18-.37z" transform="translate(-580.79 -295.13)"/><path class="cls-6" d="M631 427.77l-16.2-9.35-25.8 14.91 45.1 26v-25.7a7.33 7.33 0 0 0-3.1-5.86z" transform="translate(-580.79 -295.13)"/><path class="cls-6" d="M631 405.06l-16.2-9.35-25.8 14.92 45.1 26v-25.7a7.35 7.35 0 0 0-3.1-5.87z" transform="translate(-580.79 -295.13)"/><path class="cls-6" d="M631 382.36L614.82 373 589 387.92l45.1 26v-25.7a7.33 7.33 0 0 0-3.1-5.86z" transform="translate(-580.79 -295.13)"/><path class="cls-6" d="M631 359.65l-16.2-9.35-25.8 14.92 45.1 26v-25.7a7.35 7.35 0 0 0-3.1-5.87z" transform="translate(-580.79 -295.13)"/><path class="cls-6" d="M631 359.65L595.16 339l-6.16 3.51 45.1 26v-3a7.35 7.35 0 0 0-3.1-5.86z" transform="translate(-580.79 -295.13)"/><path class="cls-4" d="M53.3 73.42L8.2 47.38v14.35l45.1 26.04V73.42zm0 22.7L8.2 70.08v14.35l45.1 26.04V96.12zm0 22.71L8.2 92.79v14.35l45.1 26.04v-14.35zm0 22.7L8.2 115.49v14.35l45.1 26.04v-14.35zm0 22.71L8.2 138.2v14.35l45.1 26.04v-14.35z"/><path class="cls-6" d="M630.11 377.79l-34-19.62a4.15 4.15 0 0 1-1.74-3.31V351c0-1.28.78-1.86 1.74-1.31l34 19.61a4.17 4.17 0 0 1 1.74 3.32v3.85c0 1.28-.78 1.87-1.74 1.32z" transform="translate(-580.79 -295.13)"/><path class="cls-7" d="M597.86 357.44a4.17 4.17 0 0 1-1.74-3.32v-3.84a3.1 3.1 0 0 1 .06-.56c-1-.55-1.74 0-1.74 1.31v3.85a4.15 4.15 0 0 0 1.74 3.31l34 19.62a1 1 0 0 0 1.68-.76z" transform="translate(-580.79 -295.13)"/><path class="cls-8" d="M619.45 367.26L599 355.45a1.45 1.45 0 0 1-.61-1.17c0-.45.27-.65.61-.46l20.44 11.81a1.43 1.43 0 0 1 .61 1.16c.01.45-.26.66-.6.47z" transform="translate(-580.79 -295.13)"/><path class="cls-6" d="M630.11 400.35l-34-19.61a4.16 4.16 0 0 1-1.74-3.32v-3.84c0-1.28.78-1.87 1.74-1.32l34 19.62a4.16 4.16 0 0 1 1.74 3.32v3.8c0 1.32-.78 1.91-1.74 1.35z" transform="translate(-580.79 -295.13)"/><path class="cls-7" d="M597.86 380a4.16 4.16 0 0 1-1.74-3.32v-3.84a3.09 3.09 0 0 1 .06-.55c-1-.55-1.74 0-1.74 1.32v3.84a4.16 4.16 0 0 0 1.74 3.32l34 19.61a1 1 0 0 0 1.68-.76z" transform="translate(-580.79 -295.13)"/><path class="cls-8" d="M619.45 389.82L599 378a1.47 1.47 0 0 1-.61-1.17c0-.45.27-.66.61-.46l20.44 11.8a1.47 1.47 0 0 1 .61 1.17c.01.47-.26.66-.6.48z" transform="translate(-580.79 -295.13)"/><path class="cls-6" d="M630.11 423.13l-34-19.62a4.14 4.14 0 0 1-1.74-3.31v-3.85c0-1.28.78-1.86 1.74-1.31l34 19.62a4.14 4.14 0 0 1 1.74 3.31v3.85c0 1.28-.78 1.86-1.74 1.31z" transform="translate(-580.79 -295.13)"/><path class="cls-7" d="M597.86 402.78a4.16 4.16 0 0 1-1.74-3.32v-3.84a2.89 2.89 0 0 1 .06-.55c-1-.55-1.74 0-1.74 1.31v3.85a4.14 4.14 0 0 0 1.74 3.31l34 19.62a1 1 0 0 0 1.68-.76z" transform="translate(-580.79 -295.13)"/><path class="cls-3" d="M619.45 412.6L599 400.79a1.43 1.43 0 0 1-.61-1.16c0-.45.27-.66.61-.47L619.45 411a1.43 1.43 0 0 1 .61 1.16c0 .42-.27.63-.61.44z" transform="translate(-580.79 -295.13)"/><path class="cls-6" d="M630.11 446.12l-34-19.62a4.16 4.16 0 0 1-1.74-3.32v-3.84c0-1.28.78-1.87 1.74-1.31l34 19.61a4.16 4.16 0 0 1 1.74 3.32v3.84c0 1.28-.78 1.87-1.74 1.32z" transform="translate(-580.79 -295.13)"/><path class="cls-7" d="M597.86 425.76a4.14 4.14 0 0 1-1.74-3.31v-3.85a3.09 3.09 0 0 1 .06-.55c-1-.56-1.74 0-1.74 1.31v3.84a4.16 4.16 0 0 0 1.74 3.32l34 19.62a1 1 0 0 0 1.68-.77z" transform="translate(-580.79 -295.13)"/><path class="cls-9" d="M619.45 435.58L599 423.78a1.47 1.47 0 0 1-.61-1.17c0-.45.27-.66.61-.46L619.45 434a1.47 1.47 0 0 1 .61 1.17c0 .4-.27.61-.61.41z" transform="translate(-580.79 -295.13)"/><path class="cls-6" d="M630.11 468.65l-34-19.62a4.16 4.16 0 0 1-1.74-3.32v-3.84c0-1.28.78-1.87 1.74-1.31l34 19.61a4.16 4.16 0 0 1 1.74 3.32v3.84c0 1.28-.78 1.87-1.74 1.32z" transform="translate(-580.79 -295.13)"/><path class="cls-7" d="M597.86 448.3a4.17 4.17 0 0 1-1.74-3.32v-3.85a3.09 3.09 0 0 1 .06-.55c-1-.56-1.74 0-1.74 1.31v3.84a4.16 4.16 0 0 0 1.74 3.32l34 19.62a1 1 0 0 0 1.68-.77z" transform="translate(-580.79 -295.13)"/><path class="cls-3" d="M619.45 458.11L599 446.31a1.47 1.47 0 0 1-.61-1.17c0-.45.27-.66.61-.46l20.44 11.8a1.47 1.47 0 0 1 .61 1.17c.01.45-.26.66-.6.46z" transform="translate(-580.79 -295.13)"/><path d="M8.2 47.38l3.55 2.05v14.35L8.2 61.73V47.38zm0 22.7l3.55 2.05v14.35L8.2 84.43V70.08zm0 22.71l3.55 2.05v14.35l-3.55-2.05V92.79zm0 22.7l3.55 2.05v14.35l-3.55-2.05v-14.35zm0 22.71l3.55 2.05v14.35l-3.55-2.05V138.2z" opacity=".5" fill="#173d7a"/><path class="cls-3" d="M623.48 368.67c0 .46-.32.65-.72.42a1.59 1.59 0 0 1-.72-1.25c0-.46.32-.64.72-.41a1.57 1.57 0 0 1 .72 1.24z" transform="translate(-580.79 -295.13)"/><path class="cls-9" d="M626.53 370.43c0 .46-.32.65-.72.42a1.59 1.59 0 0 1-.72-1.25c0-.46.32-.64.72-.41a1.57 1.57 0 0 1 .72 1.24z" transform="translate(-580.79 -295.13)"/><path class="cls-3" d="M629.58 372.19c0 .46-.32.65-.72.42a1.59 1.59 0 0 1-.72-1.25c0-.46.32-.64.72-.41a1.57 1.57 0 0 1 .72 1.24z" transform="translate(-580.79 -295.13)"/><path class="cls-9" d="M623.48 391.37c0 .45-.32.64-.72.41a1.59 1.59 0 0 1-.72-1.24c0-.46.32-.65.72-.42a1.59 1.59 0 0 1 .72 1.25z" transform="translate(-580.79 -295.13)"/><path class="cls-3" d="M626.53 393.13c0 .46-.32.64-.72.41a1.59 1.59 0 0 1-.72-1.24c0-.46.32-.65.72-.42a1.59 1.59 0 0 1 .72 1.25z" transform="translate(-580.79 -295.13)"/><path class="cls-8" d="M629.58 394.89c0 .46-.32.64-.72.41a1.57 1.57 0 0 1-.72-1.24c0-.46.32-.65.72-.42a1.59 1.59 0 0 1 .72 1.25zm-6.1 19.34c0 .46-.32.65-.72.42a1.59 1.59 0 0 1-.72-1.25c0-.46.32-.64.72-.41a1.57 1.57 0 0 1 .72 1.24z" transform="translate(-580.79 -295.13)"/><path class="cls-9" d="M626.53 416c0 .46-.32.65-.72.42a1.59 1.59 0 0 1-.72-1.25c0-.46.32-.64.72-.41a1.57 1.57 0 0 1 .72 1.24z" transform="translate(-580.79 -295.13)"/><path class="cls-8" d="M629.58 417.75c0 .46-.32.65-.72.42a1.59 1.59 0 0 1-.72-1.25c0-.46.32-.64.72-.41a1.57 1.57 0 0 1 .72 1.24zm-6.1 19.01c0 .46-.32.65-.72.42a1.59 1.59 0 0 1-.72-1.25c0-.45.32-.64.72-.41a1.59 1.59 0 0 1 .72 1.24z" transform="translate(-580.79 -295.13)"/><path class="cls-3" d="M626.53 438.52c0 .46-.32.65-.72.42a1.59 1.59 0 0 1-.72-1.25c0-.45.32-.64.72-.41a1.59 1.59 0 0 1 .72 1.24zm3.05 1.76c0 .46-.32.65-.72.42a1.59 1.59 0 0 1-.72-1.25c0-.45.32-.64.72-.41a1.59 1.59 0 0 1 .72 1.24z" transform="translate(-580.79 -295.13)"/><path class="cls-8" d="M623.48 459.6c0 .46-.32.65-.72.42a1.59 1.59 0 0 1-.72-1.25c0-.46.32-.64.72-.41a1.59 1.59 0 0 1 .72 1.24z" transform="translate(-580.79 -295.13)"/><path class="cls-9" d="M626.53 461.36c0 .46-.32.65-.72.42a1.59 1.59 0 0 1-.72-1.25c0-.45.32-.64.72-.41a1.59 1.59 0 0 1 .72 1.24z" transform="translate(-580.79 -295.13)"/><path class="cls-3" d="M629.58 463.12c0 .46-.32.65-.72.42a1.59 1.59 0 0 1-.72-1.25c0-.45.32-.64.72-.41a1.59 1.59 0 0 1 .72 1.24z" transform="translate(-580.79 -295.13)"/><path class="cls-6" d="M645.18 469.7V368.1l.21-.12 42.46-24.51v101.59l-.21.12zm.82-101.11v99.65l41-23.67v-99.65z" transform="translate(-580.79 -295.13)"/><path class="cls-6" d="M676.82 389.18l-19 11c-1.28.74-2.31-.05-2.31-1.75v-10.57a5.54 5.54 0 0 1 2.31-4.42l19-11c1.28-.74 2.31 0 2.31 1.75v10.55a5.54 5.54 0 0 1-2.31 4.44z" transform="translate(-580.79 -295.13)"/><path class="cls-4" d="M677.28 372.24a3.06 3.06 0 0 1 .17 1.06v10.56a5.54 5.54 0 0 1-2.31 4.42l-19 11a2.65 2.65 0 0 1-.46.21 1.35 1.35 0 0 0 2.14.69l19-11a5.54 5.54 0 0 0 2.31-4.43V374.2c0-1.5-.79-2.28-1.85-1.96z" transform="translate(-580.79 -295.13)"/><path class="cls-8" d="M673.34 382.82c.35-.2.64 0 .64.37v2.4a1.43 1.43 0 0 1-.64 1.11c-.35.2-.64 0-.64-.37v-2.41a1.41 1.41 0 0 1 .64-1.1z" transform="translate(-580.79 -295.13)"/><path class="cls-3" d="M670.61 384.7c.35-.2.64 0 .64.37v2.1a1.4 1.4 0 0 1-.64 1.1c-.35.21-.64 0-.64-.36v-2.11a1.41 1.41 0 0 1 .64-1.1z" transform="translate(-580.79 -295.13)"/><path class="cls-9" d="M667.88 383.93c.35-.21.64 0 .64.37v4.45a1.41 1.41 0 0 1-.64 1.1c-.35.2-.64 0-.64-.37V385a1.4 1.4 0 0 1 .64-1.07z" transform="translate(-580.79 -295.13)"/><path class="cls-3" d="M665.15 382.94c.35-.2.64 0 .64.37v7a1.43 1.43 0 0 1-.64 1.11c-.35.2-.64 0-.64-.37v-7a1.41 1.41 0 0 1 .64-1.11zm-2.73 2.31c.35-.2.63 0 .63.37v6.28a1.39 1.39 0 0 1-.63 1.1c-.35.21-.64 0-.64-.36v-6.28a1.43 1.43 0 0 1 .64-1.11z" transform="translate(-580.79 -295.13)"/><path class="cls-8" d="M659.69 389.7c.35-.2.63 0 .63.37v3.41a1.4 1.4 0 0 1-.63 1.1c-.36.2-.64 0-.64-.37v-3.41a1.39 1.39 0 0 1 .64-1.1z" transform="translate(-580.79 -295.13)"/><path class="cls-9" d="M672.71 381.61c0 .4.29.56.63.36a1.39 1.39 0 0 0 .63-1.09c0-.4-.28-.56-.63-.36a1.41 1.41 0 0 0-.63 1.09z" transform="translate(-580.79 -295.13)"/><path class="cls-8" d="M672.71 379.35c0 .4.29.56.63.36a1.39 1.39 0 0 0 .63-1.09c0-.4-.28-.56-.63-.36a1.41 1.41 0 0 0-.63 1.09z" transform="translate(-580.79 -295.13)"/></svg>