<svg id="Ñëîé_1" data-name="Ñëîé 1" xmlns="http://www.w3.org/2000/svg" viewBox="0 0 211.94 177.89"><defs><style>.cls-2{fill:#5793ce}.cls-3{fill:#e4141a}.cls-4{fill:#d4ecff}.cls-5{fill:#fff}</style><clipPath id="clip-path" transform="translate(-59.84 -102.87)"><ellipse cx="111.32" cy="214.28" rx="36.88" ry="63.88" transform="rotate(-30 111.34 214.294)" fill="none"/></clipPath></defs><path class="cls-2" d="M217.9 246.34v-8.54l10.1-50.87-10-6.16-20 11-.14 65.56c0 4.42 1.64 7.4 4.18 8.37l8.89 5.58 1.11-4.22 1.53-7.69a24.43 24.43 0 0 0 4.33-13.03z" transform="translate(-59.84 -102.87)"/><path class="cls-2" d="M217.85 271.12c-5.51 3.05-10-.35-10-7.6L208 198l20-11-.14 65.57c-.01 7.17-4.49 15.51-10.01 18.55z" transform="translate(-59.84 -102.87)"/><ellipse class="cls-3" cx="245.68" cy="136.56" rx="21.31" ry="36.9" transform="rotate(-30 23.831 196.786)"/><path class="cls-3" d="M204.55 65.5l-75.93 43.55-40.83-61.33 79.12-45.68 37.64 63.46z"/><path class="cls-4" d="M234.53 173.85c0-17.11-12-37.93-26.84-46.48-6.74-3.89-12.89-4.57-17.6-2.56h-.1l-.12.05-.61.3A187.88 187.88 0 0 1 99 144.34l-8.84-.34 72 123.37 3.89-7.54a188.21 188.21 0 0 1 60.49-68.54c4.93-2.77 7.99-8.81 7.99-17.44z" transform="translate(-59.84 -102.87)"/><path class="cls-4" d="M170.54 239.49c0-32.83-23-72.76-51.48-89.17-14.18-8.19-27-9-36.34-3.65h-.07l-8.45 4.95 3-.62c-6 6.26-9.54 16.12-9.54 29 0 32.83 23.05 72.76 51.49 89.17 11.16 6.45 21.48 8.31 29.92 6.21l-1.34 2 7.78-4.55.12-.07.28-.16c9.01-5.45 14.63-16.9 14.63-33.11z" transform="translate(-59.84 -102.87)"/><path class="cls-5" d="M164.52 243c0-32.83-23.05-72.75-51.49-89.17-14-8.08-26.67-9-35.95-3.86l-1.29.76c-.45.28-.88.58-1.3.89l2.62-.55c-6 6.26-9.54 16.12-9.54 29 0 32.83 23.05 72.76 51.49 89.17 11.16 6.45 21.48 8.31 29.92 6.21l-1.22 1.8c10.3-4.96 16.76-16.87 16.76-34.25z" transform="translate(-59.84 -102.87)"/><ellipse class="cls-2" cx="111.32" cy="214.28" rx="42.04" ry="72.81" transform="matrix(.87 -.5 .5 .87 -152.07 -18.49)"/><ellipse cx="111.32" cy="214.28" rx="36.88" ry="63.88" transform="rotate(-30 -110.538 274.521)" fill="#173d7a"/><path class="cls-5" d="M113.43 265.54c-24.94-14.41-45.17-49.43-45.17-78.24 0-15.13 5.58-25.53 14.49-29.91-10.13 3.72-16.6 14.53-16.6 30.81 0 28.81 20.23 63.84 45.17 78.24 11.85 6.84 22.63 7.8 30.69 3.83-7.79 2.86-17.74 1.53-28.58-4.73z" transform="translate(-59.84 -102.87)"/><g clip-path="url(#clip-path)"><path class="cls-4" d="M44.72 100.62l65.55-50.68 23.79 41.29-76.92 31.57-12.42-22.18z"/><ellipse class="cls-2" cx="111.32" cy="214.28" rx="7.37" ry="12.76" transform="rotate(-30 -110.538 274.521)"/></g><path class="cls-5" d="M203.08 246.9l-.36-.2a5.68 5.68 0 0 1-2.38-4.53v-12.64c0-1.74 1.06-2.55 2.37-1.8l.35.21a5.65 5.65 0 0 1 2.38 4.52v12.64c0 1.75-1.05 2.55-2.36 1.8z" transform="translate(-59.84 -102.87)"/></svg>