<svg width="16" height="17" viewBox="0 0 16 17" fill="none" xmlns="http://www.w3.org/2000/svg">
<path d="M15.6654 4.6237C15.6654 4.44689 15.5951 4.27732 15.4701 4.15229C15.3451 4.02727 15.1755 3.95703 14.9987 3.95703H7.9987C7.82189 3.95703 7.65232 4.02727 7.52729 4.15229C7.40227 4.27732 7.33203 4.44689 7.33203 4.6237C7.33203 4.80051 7.40227 4.97008 7.52729 5.0951C7.65232 5.22013 7.82189 5.29036 7.9987 5.29036H14.9987C15.1755 5.29036 15.3451 5.22013 15.4701 5.0951C15.5951 4.97008 15.6654 4.80051 15.6654 4.6237Z" fill="#3C61E2"/>
<path d="M0.998698 5.29021H2.78203C2.9393 5.73501 3.24874 6.10991 3.65568 6.34863C4.06263 6.58734 4.54086 6.67452 5.00585 6.59474C5.47085 6.51496 5.89267 6.27336 6.19677 5.91265C6.50086 5.55193 6.66765 5.09533 6.66765 4.62354C6.66765 4.15175 6.50086 3.69515 6.19677 3.33443C5.89267 2.97372 5.47085 2.73212 5.00585 2.65234C4.54086 2.57256 4.06263 2.65973 3.65568 2.89845C3.24874 3.13717 2.9393 3.51206 2.78203 3.95687H0.998698C0.821887 3.95687 0.652318 4.02711 0.527293 4.15213C0.402269 4.27716 0.332031 4.44673 0.332031 4.62354C0.332031 4.80035 0.402269 4.96992 0.527293 5.09494C0.652318 5.21997 0.821887 5.29021 0.998698 5.29021ZM4.66536 3.95687C4.79722 3.95687 4.92611 3.99597 5.03574 4.06923C5.14538 4.14248 5.23083 4.2466 5.28128 4.36842C5.33174 4.49023 5.34494 4.62428 5.31922 4.7536C5.2935 4.88292 5.23 5.00171 5.13677 5.09494C5.04353 5.18818 4.92475 5.25167 4.79542 5.2774C4.6661 5.30312 4.53206 5.28992 4.41024 5.23946C4.28843 5.189 4.18431 5.10355 4.11105 4.99392C4.0378 4.88429 3.9987 4.75539 3.9987 4.62354C3.9987 4.44673 4.06894 4.27716 4.19396 4.15213C4.31898 4.02711 4.48855 3.95687 4.66536 3.95687Z" fill="#3C61E2"/>
<path d="M14.9997 7.95687H12.5497C12.3924 7.51206 12.083 7.13717 11.676 6.89845C11.2691 6.65973 10.7909 6.57256 10.3259 6.65234C9.86086 6.73212 9.43904 6.97372 9.13494 7.33443C8.83085 7.69515 8.66406 8.15175 8.66406 8.62354C8.66406 9.09533 8.83085 9.55193 9.13494 9.91265C9.43904 10.2734 9.86086 10.515 10.3259 10.5947C10.7909 10.6745 11.2691 10.5873 11.676 10.3486C12.083 10.1099 12.3924 9.73501 12.5497 9.29021H14.9997C15.1765 9.29021 15.3461 9.21997 15.4711 9.09494C15.5961 8.96992 15.6663 8.80035 15.6663 8.62354C15.6663 8.44673 15.5961 8.27716 15.4711 8.15213C15.3461 8.02711 15.1765 7.95687 14.9997 7.95687ZM10.6663 9.29021C10.5345 9.29021 10.4056 9.25111 10.296 9.17785C10.1863 9.1046 10.1009 9.00048 10.0504 8.87866C9.99997 8.75684 9.98677 8.6228 10.0125 8.49348C10.0382 8.36416 10.1017 8.24537 10.1949 8.15213C10.2882 8.0589 10.407 7.99541 10.5363 7.96968C10.6656 7.94396 10.7997 7.95716 10.9215 8.00762C11.0433 8.05808 11.1474 8.14353 11.2207 8.25316C11.2939 8.36279 11.333 8.49168 11.333 8.62354C11.333 8.80035 11.2628 8.96992 11.1378 9.09494C11.0127 9.21997 10.8432 9.29021 10.6663 9.29021Z" fill="#3C61E2"/>
<path d="M7.33203 7.95703H0.998698C0.821887 7.95703 0.652318 8.02727 0.527293 8.15229C0.402269 8.27732 0.332031 8.44689 0.332031 8.6237C0.332031 8.80051 0.402269 8.97008 0.527293 9.0951C0.652318 9.22013 0.821887 9.29036 0.998698 9.29036H7.33203C7.50884 9.29036 7.67841 9.22013 7.80344 9.0951C7.92846 8.97008 7.9987 8.80051 7.9987 8.6237C7.9987 8.44689 7.92846 8.27732 7.80344 8.15229C7.67841 8.02727 7.50884 7.95703 7.33203 7.95703Z" fill="#3C61E2"/>
<path d="M15.0013 11.957H9.33464C9.15782 11.957 8.98826 12.0273 8.86323 12.1523C8.73821 12.2773 8.66797 12.4469 8.66797 12.6237C8.66797 12.8005 8.73821 12.9701 8.86323 13.0951C8.98826 13.2201 9.15782 13.2904 9.33464 13.2904H15.0013C15.1781 13.2904 15.3477 13.2201 15.4727 13.0951C15.5977 12.9701 15.668 12.8005 15.668 12.6237C15.668 12.4469 15.5977 12.2773 15.4727 12.1523C15.3477 12.0273 15.1781 11.957 15.0013 11.957Z" fill="#3C61E2"/>
<path d="M5.9987 10.6235C5.5855 10.624 5.18259 10.7524 4.84535 10.9912C4.50811 11.23 4.2531 11.5673 4.11536 11.9569H0.998698C0.821887 11.9569 0.652318 12.0271 0.527293 12.1521C0.402269 12.2772 0.332031 12.4467 0.332031 12.6235C0.332031 12.8003 0.402269 12.9699 0.527293 13.0949C0.652318 13.22 0.821887 13.2902 0.998698 13.2902H4.11536C4.23762 13.636 4.4526 13.9415 4.7368 14.1733C5.021 14.4052 5.36348 14.5544 5.72678 14.6046C6.09008 14.6549 6.46021 14.6043 6.79669 14.4584C7.13317 14.3125 7.42306 14.0769 7.63463 13.7773C7.84621 13.4777 7.97134 13.1257 7.99633 12.7598C8.02133 12.3939 7.94522 12.0282 7.77634 11.7026C7.60746 11.377 7.35231 11.1042 7.03879 10.9139C6.72527 10.7236 6.36546 10.6231 5.9987 10.6235ZM5.9987 13.2902C5.86684 13.2902 5.73795 13.2511 5.62832 13.1779C5.51868 13.1046 5.43324 13.0005 5.38278 12.8787C5.33232 12.7568 5.31912 12.6228 5.34484 12.4935C5.37056 12.3642 5.43406 12.2454 5.52729 12.1521C5.62053 12.0589 5.73932 11.9954 5.86864 11.9697C5.99796 11.944 6.132 11.9572 6.25382 12.0076C6.37564 12.0581 6.47976 12.1435 6.55301 12.2532C6.62627 12.3628 6.66536 12.4917 6.66536 12.6235C6.66536 12.8003 6.59513 12.9699 6.4701 13.0949C6.34508 13.22 6.17551 13.2902 5.9987 13.2902Z" fill="#3C61E2"/>
</svg>
