<svg id="Ñëîé_1" data-name="Ñëîé 1" xmlns="http://www.w3.org/2000/svg" viewBox="0 0 285.91 274.57"><defs><style>.cls-1{fill:#b7161b}.cls-2{fill:#e4141a}.cls-3{fill:#fff}.cls-5{fill:#396caa}.cls-6{fill:#173d7a}.cls-7{fill:#d4ecff}.cls-8{fill:#5793ce}.cls-9{fill:#ffc2b0}.cls-10{fill:#ea9c92}</style></defs><path class="cls-1" d="M89.45 149.94L65.3 136a1.22 1.22 0 0 0-1.25-.1l-2.34 1.35 1.65.6v17.59a4.66 4.66 0 0 0 1.94 3.71l23.09 13.33v2.06l2.36-1.36a1.73 1.73 0 0 0 .66-1.55v-18a4.66 4.66 0 0 0-1.96-3.69z" transform="translate(-60.97 -85.53)"/><path class="cls-2" d="M87.07 174.46l-24.15-13.94a4.66 4.66 0 0 1-2-3.72v-18c0-1.44.87-2.09 2-1.47l24.15 13.94A4.66 4.66 0 0 1 89 155v18c0 1.42-.86 2.08-1.93 1.46z" transform="translate(-60.97 -85.53)"/><path class="cls-3" d="M87.66 150.89L63.51 137a1.13 1.13 0 0 0-1.62.23 1.36 1.36 0 0 1 1 .2l24.15 13.94A4.66 4.66 0 0 1 89 155v18a2.18 2.18 0 0 1-.32 1.24c.55-.15.91-.74.91-1.66v-18a4.68 4.68 0 0 0-1.93-3.69zM71 154.33c0 1-.73 1.46-1.63.94a3.6 3.6 0 0 1-1.63-2.82c0-1 .73-1.46 1.63-.94a3.6 3.6 0 0 1 1.63 2.82z" transform="translate(-60.97 -85.53)"/><path class="cls-3" d="M76 157.18c0 1-.73 1.46-1.63.94a3.59 3.59 0 0 1-1.62-2.82c0-1 .72-1.46 1.62-.94a3.6 3.6 0 0 1 1.63 2.82zm4.91 2.82c0 1-.73 1.46-1.63.94a3.6 3.6 0 0 1-1.63-2.82c0-1 .73-1.46 1.63-.94a3.6 3.6 0 0 1 1.63 2.82z" transform="translate(-60.97 -85.53)"/><path d="M231.1 257.88a10.07 10.07 0 0 1-3.52-1.16c-3-1.75-3-4.58 0-6.32a12.08 12.08 0 0 1 10.95 0 4.69 4.69 0 0 1 2 2l20.92-12.08L217 214.65a15 15 0 0 0-13.54 0l-44.51 25.7 20.5 11.83a9.38 9.38 0 0 0-2.2.89c-3 1.74-3 4.57 0 6.32a12.14 12.14 0 0 0 11 0 5.36 5.36 0 0 0 1.53-1.27l20.4 11.88zM330.71 285l-44.51-25.7-20.92 12.08a4.64 4.64 0 0 0-2-2 12.12 12.12 0 0 0-10.94 0c-3 1.75-3 4.58 0 6.32a10 10 0 0 0 3.51 1.16l-20.92 12.08 21.54 12.43a4 4 0 0 1 2.24-2.87 12.08 12.08 0 0 1 10.95 0c3 1.74 3 4.57 0 6.32a10.88 10.88 0 0 1-5 1.29l21.53 12.44 44.51-25.7c3.75-2.19 3.75-5.69.01-7.85zM167.5 302.87a10.12 10.12 0 0 0-3.44-1.15L185 289.66l-20.49-11.83a5.82 5.82 0 0 1-1.53 1.26 12.08 12.08 0 0 1-11 0c-3-1.74-3-4.57 0-6.32a8.88 8.88 0 0 1 2.19-.88l-20.5-11.84-44.51 25.7c-3.74 2.16-3.74 5.66 0 7.82l44.51 25.7 20.89-12.06a4.78 4.78 0 0 0 2 2 12.08 12.08 0 0 0 10.95 0c3.01-1.76 3.01-4.59-.01-6.34zm70.81 19.64a10.25 10.25 0 0 0 4.71-1.23c2.86-1.65 2.86-4.32 0-6a11.38 11.38 0 0 0-10.35 0 3.78 3.78 0 0 0-2.12 2.72l-20.37-11.76-19.76 11.4a9.59 9.59 0 0 1 3.25 1.09c2.86 1.65 2.86 4.33 0 6a11.46 11.46 0 0 1-10.36 0 4.51 4.51 0 0 1-1.88-1.88l-19.76 11.41 42.1 24.31a14.17 14.17 0 0 0 12.81 0l42.1-24.31z" transform="translate(-60.97 -85.53)" fill="#231f20" opacity=".03"/><path class="cls-1" d="M258.38 206l-40-23.1c-4.53-2.61-11.87-2.61-16.4 0l-42 24.23-11.95-4.88V214l19.45 11.22v7.83c-.09 1.45.82 2.91 2.73 4a14.68 14.68 0 0 0 13.26 0 6.74 6.74 0 0 0 1.85-1.53l24.83 14.33 25.34-14.63v-10.43a14.46 14.46 0 0 1 9 1.4 5.65 5.65 0 0 1 2.43 2.46L272.29 214v-11.76z" transform="translate(-60.97 -85.53)"/><path class="cls-3" d="M233.15 224.37l-.41.56h.26l-22.82 13.17-24.83-14.33a6.74 6.74 0 0 1-1.85 1.53 14.68 14.68 0 0 1-13.26 0 5.19 5.19 0 0 1-2.64-3c-.41 1.64.46 3.36 2.64 4.62a14.68 14.68 0 0 0 13.26 0 6.59 6.59 0 0 0 1.85-1.54l24.83 14.34 25.34-14.63v-1.58z" transform="translate(-60.97 -85.53)"/><path class="cls-2" d="M235.52 223.47a12.22 12.22 0 0 1-4.26-1.4c-3.66-2.12-3.66-5.55 0-7.66a14.68 14.68 0 0 1 13.26 0 5.65 5.65 0 0 1 2.43 2.46l25.34-14.63-53.91-31.13c-4.53-2.61-11.87-2.61-16.4 0l-53.92 31.13 24.83 14.33a11.39 11.39 0 0 0-2.65 1.07c-3.66 2.12-3.66 5.54 0 7.66a14.68 14.68 0 0 0 13.26 0 6.74 6.74 0 0 0 1.85-1.53l24.83 14.33z" transform="translate(-60.97 -85.53)"/><path class="cls-3" d="M172.89 216.57l-24.83-14.33v1.58l23.14 13.36a11.68 11.68 0 0 1 1.69-.61zm74.11.3a5.65 5.65 0 0 0-2.43-2.46 14.68 14.68 0 0 0-13.26 0c-2.18 1.26-3 3-2.64 4.62a5.2 5.2 0 0 1 2.64-3 14.68 14.68 0 0 1 13.26 0 5.59 5.59 0 0 1 2.43 2.46l25.34-14.63v-1.58z" transform="translate(-60.97 -85.53)"/><path class="cls-5" d="M334.89 253.54l-48.27-27.86-25.34 14.63a5.59 5.59 0 0 0-2.43-2.46 12.3 12.3 0 0 0-4.48-1.44 48.87 48.87 0 0 0-3.82-4.4l-7.7-2.22v11.82c0 1.41.88 2.82 2.74 3.89a12.23 12.23 0 0 0 4.26 1.41l-12.75 7.36-12.59-4.51v11.78l26.08 15.06a4.87 4.87 0 0 1 2.72-3.49 13.82 13.82 0 0 1 7.23-1.56v10.79l26.08 15.06 53.91-31.13c2.32-1.33 3.44-3.09 3.39-4.85v-11.54z" transform="translate(-60.97 -85.53)"/><path class="cls-6" d="M250.59 255.66v20.93a4.87 4.87 0 0 1 2.72-3.48 14.68 14.68 0 0 1 13.26 0 6.67 6.67 0 0 1 1.84 1.52 24.75 24.75 0 0 1 6.09-1.06v-17.91zm36.03-29.98l-.19.11v71.5l.19.11 53.91-31.13c2.32-1.33 3.44-3.09 3.39-4.85v-11.54l-9 3.66z" transform="translate(-60.97 -85.53)"/><path class="cls-5" d="M199.57 188.44v-3.41l2.95 1.7-2.95 1.71z"/><path class="cls-3" d="M343.84 250.55a6.22 6.22 0 0 1-3.31 3.94l-53.91 31.13-22.73-13.13c0-.35-.13-1.08-.13-1.08l-3.22-.85v1.58l26.08 15.06 53.91-31.13c2.62-1.51 3.71-3.55 3.31-5.52z" transform="translate(-60.97 -85.53)"/><path class="cls-7" d="M340.53 245l-53.91-31.1-25.34 14.63a5.59 5.59 0 0 0-2.43-2.46 14.62 14.62 0 0 0-13.26 0c-3.66 2.11-3.66 5.54 0 7.65a12.23 12.23 0 0 0 4.26 1.41l-25.34 14.63 26.08 15.06a4.87 4.87 0 0 1 2.72-3.49 14.68 14.68 0 0 1 13.26 0c3.66 2.12 3.66 5.55 0 7.66a13.21 13.21 0 0 1-6 1.57l26.08 15.06 53.91-31.13c4.5-2.61 4.5-6.85-.03-9.49z" transform="translate(-60.97 -85.53)"/><path class="cls-3" d="M245.59 235.3a10.42 10.42 0 0 0 2.29 1l2-1.13a12.23 12.23 0 0 1-4.26-1.41 5.19 5.19 0 0 1-2.64-3c-.44 1.56.43 3.24 2.61 4.54zm23.62 30.7c.41-1.63-.46-3.36-2.64-4.62a14.68 14.68 0 0 0-13.26 0 4.87 4.87 0 0 0-2.72 3.49l-26.08-15.06v1.58l26.08 15.06a4.87 4.87 0 0 1 2.72-3.49 14.68 14.68 0 0 1 13.26 0 5.19 5.19 0 0 1 2.64 3.04z" transform="translate(-60.97 -85.53)"/><path class="cls-6" d="M195.61 261.54v-11.78l-12.38 4.63-12.45-7.19a6.59 6.59 0 0 1-1.85 1.54 14.7 14.7 0 0 1-13.27 0c-3.57-2.07-3.65-5.39-.23-7.51l2.89 1.62v-14.62h-9l-.89 6.1-15-8.65-47.63 27.53-9.62-3.45v11.78c0 1.71 1.14 3.42 3.4 4.73l53.91 31.13 25.31-14.61a5.65 5.65 0 0 0 2.41 2.4 14.62 14.62 0 0 0 13.26 0c1.9-1.09 2.8-2.55 2.73-4v-9z" transform="translate(-60.97 -85.53)"/><path class="cls-5" d="M133.49 225.68L85.8 253.21l-9.62-3.45v11.78c0 1.71 1.14 3.42 3.4 4.73l53.91 31.13v-71.72z" transform="translate(-60.97 -85.53)"/><path class="cls-3" d="M156.18 228.29l-.3.79.07.07-.29.15c-2.18 1.26-3 3-2.63 4.62a5.17 5.17 0 0 1 2.63-3 11.21 11.21 0 0 1 2.66-1.07v-1.58z" transform="translate(-60.97 -85.53)"/><path class="cls-8" d="M174.47 265.76a12.21 12.21 0 0 0-4.17-1.39l25.31-14.61-24.83-14.34a6.59 6.59 0 0 1-1.85 1.54 14.7 14.7 0 0 1-13.27 0c-3.66-2.12-3.66-5.54 0-7.66a11.21 11.21 0 0 1 2.66-1.07l-24.83-14.33L79.58 245c-4.53 2.62-4.53 6.86 0 9.47l53.91 31.13L158.8 271a5.65 5.65 0 0 0 2.41 2.4 14.62 14.62 0 0 0 13.26 0c3.66-2.1 3.66-5.53 0-7.64z" transform="translate(-60.97 -85.53)"/><path class="cls-3" d="M174.47 273.41a14.62 14.62 0 0 1-13.26 0 5.65 5.65 0 0 1-2.41-2.4l-25.31 14.61-53.91-31.13a6.28 6.28 0 0 1-3.31-3.94c-.4 2 .7 4 3.31 5.52l53.91 31.13 25.31-14.61a5.65 5.65 0 0 0 2.41 2.4 14.62 14.62 0 0 0 13.26 0c2.18-1.26 3.05-3 2.63-4.62a5.12 5.12 0 0 1-2.63 3.04zm-4.17-9.04a13.21 13.21 0 0 1 1.95.45l23.36-13.48v-1.58z" transform="translate(-60.97 -85.53)"/><path class="cls-1" d="M260.18 302.31l-14-8.07a13.21 13.21 0 0 0 6-1.57 5.1 5.1 0 0 0 2.67-3.15l.08.05V277l-11.82 4.59 2.72 1.84A13.69 13.69 0 0 0 239 285a4.87 4.87 0 0 0-2.72 3.49l-26.08-15.06-15.33 8.85-1.61-5.28-8.38-.7v13.09l2.56-.65a10.14 10.14 0 0 1 1.6.73c3.66 2.11 3.66 5.54 0 7.65a14.62 14.62 0 0 1-13.26 0 5.65 5.65 0 0 1-2.41-2.4l-14 8.09-11.29-5.26v11.75L202 340.43c4.53 2.61 11.87 2.61 16.4 0l53.91-31.13v-11.78z" transform="translate(-60.97 -85.53)"/><path class="cls-3" d="M189 277.66a10.37 10.37 0 0 0-1.89-.82l-.23-.45-2-.12v1.58a12.23 12.23 0 0 1 4.16 1.39 5.12 5.12 0 0 1 2.63 3c.42-1.6-.45-3.32-2.67-4.58z" transform="translate(-60.97 -85.53)"/><path class="cls-2" d="M246.21 282.46a13.21 13.21 0 0 0 6-1.57c3.66-2.11 3.66-5.54 0-7.65a14.62 14.62 0 0 0-13.26 0 4.84 4.84 0 0 0-2.72 3.48l-26.08-15.06-25.3 14.61a12.23 12.23 0 0 1 4.16 1.39c3.66 2.11 3.66 5.54 0 7.65a14.62 14.62 0 0 1-13.26 0 5.65 5.65 0 0 1-2.41-2.4l-25.3 14.61L202 328.65c4.53 2.61 11.87 2.61 16.4 0l53.91-31.13z" transform="translate(-60.97 -85.53)"/><path class="cls-3" d="M254.88 277.85a5.17 5.17 0 0 1-2.64 3 13.21 13.21 0 0 1-6 1.57l2.29 1.33a11.85 11.85 0 0 0 3.74-1.32c2.15-1.22 3.02-2.94 2.61-4.58zm-36.5 50.8c-4.53 2.61-11.87 2.61-16.4 0l-53.91-31.13v1.58L202 330.22c4.53 2.62 11.87 2.62 16.4 0l53.91-31.13v-1.58z" transform="translate(-60.97 -85.53)"/><ellipse class="cls-5" cx="72.87" cy="167.18" rx="24.85" ry="14.35"/><path class="cls-2" d="M122 105.86s.54 11.16 1.39 18.65 18.9-5.76 18.9-5.76v-8.53z" transform="translate(-60.97 -85.53)"/><path class="cls-6" d="M131.56 244.62c.27.68 4.95 6.37 9.63 7.8a10.63 10.63 0 0 0 4.29.59 1.42 1.42 0 0 0 1.16-1.89 17.84 17.84 0 0 0-9-9.89c-7.91-3.93-6.08 3.39-6.08 3.39zm-1.56 2.19a38.27 38.27 0 0 1 2.31 7.59c.33 2.11-.83 4.85-1.78 6.66a2 2 0 0 1-3 .53 11.26 11.26 0 0 1-3.8-7.26c-.54-5.83 0-6.84 0-6.84z" transform="translate(-60.97 -85.53)"/><path class="cls-7" d="M118.74 176.35a111 111 0 0 0 0 15.49c.61 8.13 2.79 46.17 3.2 55.32 0 0-.21 2.77 5.16 2.16s4.93-3.68 4.93-3.68 7.53-.1 7.77-4.54 7.71-53 7.71-70.48z" transform="translate(-60.97 -85.53)"/><path class="cls-9" d="M150.3 138.33l3.69 5.72 12.68 15.32a2.82 2.82 0 0 1-2 1.79c-1.23.3-11.9-9.88-16.51-14.35a3.55 3.55 0 0 1-.49-4.5z" transform="translate(-60.97 -85.53)"/><path class="cls-8" d="M143.1 114.87s5.86-.15 7.9 8.32 3.64 19.08 1.87 20c-5.33 2.65-8.7-.45-8.7-.45z" transform="translate(-60.97 -85.53)"/><path class="cls-8" d="M144.85 115.23a4.76 4.76 0 0 0-3.16-.17c-5 1.43-23.77 6.94-26.87 9.59-3.57 3.06 5.37 20.23 5.24 25.86s-.77 12.27-1.26 18.39-1.18 9.48 3.83 12.08 13.56 2.72 20-2.15 5.23-8.21 5-11.75-2.45-18.85-2.26-23.2a16.39 16.39 0 0 0 3.93-4.51c1.67-2.85-1.28-8.08-2.51-11.49s.69-7.29.31-10.07a3.16 3.16 0 0 0-2.25-2.58z" transform="translate(-60.97 -85.53)"/><path class="cls-3" d="M130.5 126.8l2.14 2.45a1.48 1.48 0 0 1 .34 1.16l-1.87 13a1.41 1.41 0 0 0 .26 1l4.56 6.32a.43.43 0 0 0 .75-.11l2.8-8a1.44 1.44 0 0 0 0-.94l-4.21-12a1.52 1.52 0 0 1 0-.82l.75-3.13z" transform="translate(-60.97 -85.53)"/><path class="cls-3" d="M138.85 121.09c.4 3.09-2.44 6-6.34 6.5s-7.37-1.6-7.77-4.7 2.44-6 6.34-6.5 7.38 1.61 7.77 4.7z" transform="translate(-60.97 -85.53)"/><path class="cls-9" d="M136.84 121.35c.28 2.21-1.75 4.29-4.53 4.64s-5.27-1.14-5.56-3.35 1.75-4.3 4.53-4.65 5.28 1.14 5.56 3.36z" transform="translate(-60.97 -85.53)"/><path class="cls-9" d="M134.07 114.09s-3.39-2.79-4-1.38-1.22 7.47-1.22 7.47l6.73 1.81-1-6.14s1.28-1.14-.51-1.76z" transform="translate(-60.97 -85.53)"/><circle class="cls-9" cx="134.56" cy="106.85" r="10.05" transform="rotate(-17.38 -175.733 263.558)"/><path class="cls-10" d="M129.55 114.47c-.06.31-.12.65-.18 1 .68 3.5 5.91 5 5.91 5l-.77-4.65s.64-.54.46-1.08c-2.07-.62-4.68-1.2-5.42-.27z" transform="translate(-60.97 -85.53)"/><circle class="cls-9" cx="134.56" cy="106.85" r="10.05" transform="rotate(-17.38 -175.733 263.558)"/><path class="cls-9" d="M48.82 63.87l1.13 26.9 3.93.4 2.56-24.21-7.62-3.09z"/><path class="cls-5" d="M122.72 147.15c-.22-.93-1.94-1.7-2.2-2.93a110.13 110.13 0 0 1-1.68-15.5l-1.09 12.62c1.26 3.74 2.35 7.18 2.31 9.17-.08 3.31-.33 7-.62 10.65s4.56-8.26 3.28-14.01z" transform="translate(-60.97 -85.53)"/><path class="cls-8" d="M115.57 124.1s-3.14 1.2-4.92 10.86-3.11 19.33.06 20.58 5.83 2.18 6.76-.4 1.51-15 1.63-19.51.28-10.63-3.53-11.53z" transform="translate(-60.97 -85.53)"/><path class="cls-9" d="M165.73 158.25a8.48 8.48 0 0 1 2.94 2 18.79 18.79 0 0 1 2 2.69c1 1.46 1.81 4.62 1.21 5s-4-5.29-4.56-4 0 2.55-.7 2.57-3.17-5.71-5.1-7.49 4.21-.77 4.21-.77z" transform="translate(-60.97 -85.53)"/><path class="cls-5" d="M132 245.64a15 15 0 0 0 2.15-.22l1.48-59.13zm-5.66-31.94l-2.09-2.7-22-12.74a3.08 3.08 0 0 1-1.27-2.45v-18l-1.27-1.65 1.19-.69a.8.8 0 0 1 .86 0l24.94 14.44a3.05 3.05 0 0 1 1.28 2.44L128 212a1.13 1.13 0 0 1-.46 1.05z" transform="translate(-60.97 -85.53)"/><path class="cls-5" d="M111.12 203.37l-1.56-.91-8.56-14.9v-9.79l-1.27-1.65 1.19-.69a.8.8 0 0 1 .86 0l24.94 14.44a2.52 2.52 0 0 1 .94 1.1z" transform="translate(-60.97 -85.53)"/><path class="cls-5" d="M100.28 176.85l-.56-.73 1.19-.69a.8.8 0 0 1 .86 0l.44.26zm26.66 13.23a3.21 3.21 0 0 1 1 2.1l-2.44 1.41-1.17-2z" transform="translate(-60.97 -85.53)"/><path class="cls-7" d="M125.52 190.61l-24.93-14.44c-.71-.41-1.28 0-1.28 1v19.62a3.09 3.09 0 0 0 1.27 2.45l24.94 14.43c.7.41 1.28 0 1.28-1v-19.62a3 3 0 0 0-1.28-2.44z" transform="translate(-60.97 -85.53)"/><path class="cls-3" d="M125.9 190.38L101 175.94a.74.74 0 0 0-1 .1.88.88 0 0 1 .64.13l24.93 14.44a3 3 0 0 1 1.28 2.44v19.62a1.29 1.29 0 0 1-.27.87c.38-.07.64-.47.64-1.1v-19.62a3 3 0 0 0-1.32-2.44z" transform="translate(-60.97 -85.53)"/><path class="cls-3" d="M59.43 119.14l-1.19-.68v-10.2l1.19.68v10.2zm-2.78-1.6l-1.18-.68v-10.21l1.18.69v10.2zm-2.77-1.6l-1.19-.68v-10.21l1.19.69v10.2z"/><path class="cls-9" d="M111 176.07s-1 6.28-.88 8.29 1.23 5.33 2.05 5.26 0-8.09 1.46-7.29 1.58 2.17 2.23 1.69-1.13-7.34-.65-10.31-4.21 2.36-4.21 2.36z" transform="translate(-60.97 -85.53)"/><path class="cls-10" d="M138.42 107.73c5 1.79 6 .7 6.07.64a9.24 9.24 0 0 0 .1-.92 10.12 10.12 0 0 0-.33-3.22l-13.08-1.76a14.24 14.24 0 0 0 7.24 5.26z" transform="translate(-60.97 -85.53)"/><path class="cls-2" d="M145 97.43c-1.18-1-5.47-6.05-13.15-4.86-4.8.74-8.85 4-9.75 11.49a17.15 17.15 0 0 0 4.65 13.65 3.89 3.89 0 0 0 .54-.27c1.93-1.27 2.13-2 2.13-2l.43-3.82a1.06 1.06 0 0 0-1-1.05 2 2 0 0 1-1.41-.86c-1.1-1.44-.59-3.69 1.62-3.78a1.68 1.68 0 0 0 1.76-1.25.9.9 0 0 1 1.18-.61c2.51.91 8.69 2.86 12.67 1.74 5.09-1.42 1.47-7.36.33-8.38z" transform="translate(-60.97 -85.53)"/><path class="cls-3" d="M139.23 112.27l3.07-.84a7.39 7.39 0 0 1-3.61 2.89c-2.14.59-2.48-1.22-2.48-1.22z" transform="translate(-60.97 -85.53)"/><path class="cls-5" d="M55.21 98.29l-2.62-1.5.98 1.6 1.32.49.32-.59z"/><path class="cls-3" d="M128.69 110a1 1 0 1 1-1-1 1 1 0 0 1 1 1z" transform="translate(-60.97 -85.53)"/><ellipse cx="225.28" cy="163.8" rx="24.42" ry="14.1" fill="#699dd1"/><path class="cls-6" d="M287.69 241.9c-.27.68-5 6.4-9.67 7.83a11 11 0 0 1-4.31.6 1.43 1.43 0 0 1-1.16-1.9 17.85 17.85 0 0 1 9-9.93c7.98-3.95 6.14 3.4 6.14 3.4zm1.56 2.2a38.62 38.62 0 0 0-2.31 7.62c-.33 2.12.83 4.87 1.79 6.7a2 2 0 0 0 3 .52 11.25 11.25 0 0 0 3.81-7.28c.55-5.86 0-6.88 0-6.88z" transform="translate(-60.97 -85.53)"/><path class="cls-7" d="M300.57 173.34a111.94 111.94 0 0 1 0 15.56c-.62 8.17-2.81 46.37-3.22 55.56 0 0 .21 2.78-5.18 2.17s-4.95-3.7-4.95-3.7-7.57-.11-7.8-4.57-7.75-53.24-7.75-70.78z" transform="translate(-60.97 -85.53)"/><path class="cls-5" d="M287.22 242.93a16.18 16.18 0 0 1-2.16-.23l-1.48-59.38z" transform="translate(-60.97 -85.53)"/><path class="cls-8" d="M292.57 119.16c12.22 5.06 12 12.29 12 12.29s-2.39 26.48-1.57 44.16c.34 7.4-39.28 8-33.38-11.76 7-23.26 4.36-42.09 7.62-44.93s12.17-1.07 15.33.24z" transform="translate(-60.97 -85.53)"/><path class="cls-9" d="M296.5 125.56c-.64 2.48-3.89 3.79-7.26 2.92s-5.59-3.58-4.95-6.06 3.89-3.79 7.26-2.92 5.59 3.58 4.95 6.06z" transform="translate(-60.97 -85.53)"/><path class="cls-3" d="M291.32 129.52a9.42 9.42 0 0 1-2.27-.29 8.35 8.35 0 0 1-4.38-2.69 4.6 4.6 0 0 1 1.94-7.55 8.75 8.75 0 0 1 9.52 2.45 4.61 4.61 0 0 1-1.95 7.55 7.7 7.7 0 0 1-2.86.53zm-1.85-9.52a6 6 0 0 0-2.28.42 3.08 3.08 0 0 0-1.33 5.16 7.23 7.23 0 0 0 7.75 2 3.08 3.08 0 0 0 1.33-5.16 6.84 6.84 0 0 0-3.58-2.17 7.86 7.86 0 0 0-1.89-.25z" transform="translate(-60.97 -85.53)"/><path class="cls-9" d="M287.67 118.61a31.45 31.45 0 0 1-.11 4.36c-.06 1.22 4.2 2.35 5.3 1.25s.66-2.25.93-6.39-6.12.78-6.12.78z" transform="translate(-60.97 -85.53)"/><path class="cls-10" d="M293.79 117.83s-1.05 3.84-6.23 5.31l.08-3.49z" transform="translate(-60.97 -85.53)"/><path class="cls-9" d="M297.06 108.07a9.4 9.4 0 1 1-11.46-6.75 9.4 9.4 0 0 1 11.46 6.75z" transform="translate(-60.97 -85.53)"/><path class="cls-10" d="M290.12 110.77s-5.18 2.22-8.77 2.24-2.79-3-2.79-3l10.64-1.54z" transform="translate(-60.97 -85.53)"/><path class="cls-2" d="M280.28 111.35s4.52-1.91 8.47-1.11a4.11 4.11 0 0 1 2.39 1.42 1.42 1.42 0 0 0 .73.52c.7.16 1.85-2.75 3.21-2.82s2.28.9 1.16 2.69-.74 3.8-.23 4.09 6-3.9 1.16-13.44-17-4.4-18.95-2.46c0 0-2 1.74-3.63.19 0 0-1.83 13.68 5.69 10.92z" transform="translate(-60.97 -85.53)"/><path class="cls-9" d="M271.23 117l-6.57-2.83a3 3 0 0 1-1.6-1.73l-6.49-18.8-3 .52 5.24 23.4a4 4 0 0 0 1.92 2.58l10.94 6.14zm68.37 3.05l1.51-.7a11.91 11.91 0 0 0 3.46-2.39l1.05-1a2 2 0 0 0 .44-2.24 1.11 1.11 0 0 0-1.54-.56l-3.15 1.59s.5-1.4.26-1.76-2.67 2.33-3.8 4.23 1.77 2.83 1.77 2.83z" transform="translate(-60.97 -85.53)"/><path class="cls-9" d="M313.37 127.57l5.62-.63a9.88 9.88 0 0 0 3.78-1.22l15.06-8.53 1.77 2.86-15.4 11.88a7 7 0 0 1-1.54.91l-9.18 3.93zm-59.8-33.42l-.58-.66a5.27 5.27 0 0 1-1.23-2.7l-.4-2.74a2.32 2.32 0 0 1 .9-2.23l.07-.06a1.43 1.43 0 0 1 2.09.68l1.35 3.27s-.43-1.69.12-1.88 1.16 2 .71 3.13a5 5 0 0 0 0 2.67z" transform="translate(-60.97 -85.53)"/><path class="cls-3" d="M284.23 116.9l-2.43-.67a5.84 5.84 0 0 0 2.85 2.29c1.69.47 2-1 2-1z" transform="translate(-60.97 -85.53)"/><path class="cls-8" d="M280.58 117.57s-11-2.17-14.32-3.19-4.76 8.19-4.5 10.53 11.67 4.93 13 8.94 5.82-16.28 5.82-16.28zm16.79 4.04s8 3.44 21.44 5.12a1.45 1.45 0 0 1 1.2 1 16 16 0 0 1 .71 8.07 3 3 0 0 1-2.94 2.33c-4.2 0-13.24.38-14.71 4.31-1.93 5.09-5.7-20.83-5.7-20.83z" transform="translate(-60.97 -85.53)"/><path class="cls-3" d="M292.65 128.85l-2.2 2.39a1.44 1.44 0 0 0-.38 1.15l1.51 13.07a1.36 1.36 0 0 1-.28 1l-4.73 6.19a.43.43 0 0 1-.75-.13l-2.57-8.11a1.44 1.44 0 0 1 0-.94l4.54-11.87a1.53 1.53 0 0 0 .06-.82l-.66-3.15z" transform="translate(-60.97 -85.53)"/><path class="cls-5" d="M316.68 135.65c-2.41.28-8.3.79-12.83 1.16a4.18 4.18 0 0 0-3.67 5.25c2.42 9.27-.78 24.19-.2 29.23.69 6-3 8.38-3 8.39 3.61-.78 6.06-2.21 6-4.07-.51-10.86.2-25 .83-34.36 2.64-2.88 10.29-3.2 14-3.17a3 3 0 0 0 2.9-2.4 14.14 14.14 0 0 0 0-4.89c.07.09.06 4.38-4.03 4.86z" transform="translate(-60.97 -85.53)"/><ellipse class="cls-1" cx="152.44" cy="213.3" rx="28.9" ry="16.69"/><path class="cls-6" d="M195.71 290a5.53 5.53 0 0 0-3.12 5.52 9.22 9.22 0 0 0 .46 2.7c.64 1.34 2.74 3.19 6.09 1.86s10.79-8.32 11.07-12.89c.52-8.52-9.21.54-14.5 2.81zm19.69 14.06s-.81 4.9-.42 5.8 2.73 2.81 6.17 2.4 13.36-3.83 15.57-10.37c3.42-10.13-19.14.76-19.14.76z" transform="translate(-60.97 -85.53)"/><path class="cls-7" d="M225.08 225.68l.77 76.54a5.35 5.35 0 0 1-4.17 5.3q-.44.08-.93.12a4.77 4.77 0 0 1-4.55-1.88 5.65 5.65 0 0 1-1-3.09l-1-32.67-4.87-29.21-6.75 51.7a4.47 4.47 0 0 1-1.86 3.4 5.16 5.16 0 0 1-3.07.83 5.6 5.6 0 0 1-4.09-2 4.12 4.12 0 0 1-1-2.77l2.67-31.11 1-39.67z" transform="translate(-60.97 -85.53)"/><path class="cls-9" d="M215.17 157.18l-1.21 7a3.2 3.2 0 0 0 2.61 3c2.66.66 3.48-1.06 3.48-1.06l1.2-7.85z" transform="translate(-60.97 -85.53)"/><path class="cls-9" d="M229.81 153.36c-1.88 6-7.72 9.44-13 7.74s-8.09-7.91-6.21-13.89 7.72-9.44 13-7.74 8.1 7.91 6.21 13.89z" transform="translate(-60.97 -85.53)"/><path class="cls-8" d="M215.49 164.28c-.19-.08-11.27-7.22-15.37.26-6.68 12.18-1.8 26.14-4.18 56.47-.4 5.08 6.83 8.17 10.25 10.12a20.44 20.44 0 0 0 9.94 2.83c3.47 0 10.11-3.05 9.87-7.58-1.11-20.84.73-38.4 2.43-55.43 0 .05-2.12-2.29-12.94-6.67z" transform="translate(-60.97 -85.53)"/><path class="cls-5" d="M209.33 240.79l-6.75 51.7a4.29 4.29 0 0 1-2.43 3.73c1.4-1.05 5.49-44.45 6.24-49.28s2.94-6.15 2.94-6.15z" transform="translate(-60.97 -85.53)"/><path class="cls-9" d="M190.47 85.06l9.28-18.43-2.91-1.84-9.62 14.04 3.25 6.23zm-61.23-19.57l4.52-20.54 3.59.04L136 62.03l-6.76 3.46z"/><path class="cls-8" d="M228.43 171s10.39 4.09 19.31-7.16a1.71 1.71 0 0 1 2.86.19c.8 1.84 1.81 4.63.59 7.24-5.39 11.57-23.79 11.17-28.22 17.66s5.46-17.93 5.46-17.93zm-19.97-9.28s-8.58.66-9.81-6.76a54.86 54.86 0 0 1-.86-7.42 1.51 1.51 0 0 0-1.68-1.46c-2.06.26-5.23.87-5.67 2.25-.64 2-1.85 12.13 6.62 27.59 5.54 10.13 11.4-14.2 11.4-14.2z" transform="translate(-60.97 -85.53)"/><path class="cls-9" d="M194.71 130.53l.08-2.34a4.84 4.84 0 0 1 .7-2.34l2.38-3.9.62-.78a1.8 1.8 0 0 1 2.37-.41l.54.35a2.24 2.24 0 0 1 1 2l-1.23 3.33 1.55-.3a.55.55 0 0 1 .65.45.55.55 0 0 1-.33.61l-2.54 1-2.31 3.26zm66.08 21.75l1.09-2.08a4.9 4.9 0 0 0 .55-2.38l-.14-4.56-.15-1a1.82 1.82 0 0 0-1.87-1.53h-.64a2.26 2.26 0 0 0-1.92 1.26l-.58 3.5-1.2-1a.55.55 0 0 0-.78.07.56.56 0 0 0 0 .7l1.7 2.14.44 4.47z" transform="translate(-60.97 -85.53)"/><path class="cls-5" d="M221.66 186.56c-.9 4.11 4.54 35.15-1.51 46.5 3-1.22 6-3.62 5.85-6.68a283.2 283.2 0 0 1 1-40.68c5.17-2.62 13.24-4.18 19-8.36-6.15 2.26-23.53 5.54-24.34 9.22z" transform="translate(-60.97 -85.53)"/><path class="cls-3" d="M211.5 162.31l1.54-1.58s2.53 2.58 4.57 3a23.61 23.61 0 0 0 3.64.76l1 2.73s-8.07-.55-10.75-4.91z" transform="translate(-60.97 -85.53)"/><path class="cls-6" d="M222.58 153.54a1.27 1.27 0 0 0 1.06-.55c.42-.61.16-3.41 1.46-3.87 2-.72 6.83 1.81 7.35-5.5.26-3.8-1.59-4.81-1.58-6.9 0 0 .16 1.05-9.62.4s-13 8-13.19 12.17 1.77 10.94 8.45 11.88c1.11.15 5.77-3.59 5.65-4.08s-1.88-.47-1.63-1.9a1.84 1.84 0 0 1 2.05-1.65z" transform="translate(-60.97 -85.53)"/><path class="cls-8" d="M344.89 163.74l-24.7-14.26a1.28 1.28 0 0 0-1.28-.1l-2.39 1.39 1.68.61v18a4.78 4.78 0 0 0 2 3.8l23.61 13.63v2.11l2.42-1.39a1.75 1.75 0 0 0 .67-1.58v-18.41a4.78 4.78 0 0 0-2.01-3.8z" transform="translate(-60.97 -85.53)"/><path class="cls-7" d="M342.45 188.82l-24.7-14.27a4.74 4.74 0 0 1-2-3.79v-18.37c0-1.47.89-2.14 2-1.5l24.7 14.26a4.75 4.75 0 0 1 2 3.8v18.36c-.01 1.47-.9 2.14-2 1.51z" transform="translate(-60.97 -85.53)"/><path class="cls-3" d="M342.45 165.15l-24.7-14.26a1.17 1.17 0 0 0-1.54.1 1.53 1.53 0 0 1 .88.22l24.7 14.26a4.78 4.78 0 0 1 2 3.8v18.37a2 2 0 0 1-.45 1.4c.65 0 1.11-.68 1.11-1.73V169a4.75 4.75 0 0 0-2-3.85zm-16.39 3.07c0 1.07-.75 1.5-1.67 1a3.7 3.7 0 0 1-1.67-2.89c0-1.06.75-1.49 1.67-1a3.68 3.68 0 0 1 1.67 2.89z" transform="translate(-60.97 -85.53)"/><path class="cls-3" d="M331.11 171.14c0 1.06-.75 1.49-1.67 1a3.68 3.68 0 0 1-1.67-2.88c0-1.07.75-1.5 1.67-1a3.7 3.7 0 0 1 1.67 2.88zm5.04 2.92c0 1.06-.74 1.49-1.66 1a3.7 3.7 0 0 1-1.67-2.89c0-1.06.75-1.49 1.67-1a3.67 3.67 0 0 1 1.66 2.89z" transform="translate(-60.97 -85.53)"/></svg>