<svg id="Ñëîé_1" data-name="Ñëîé 1" xmlns="http://www.w3.org/2000/svg" viewBox="0 0 368.35 281.84"><defs><style>.cls-1,.cls-7{fill:#d4ecff}.cls-2{fill:#396caa}.cls-3{fill:#5793ce}.cls-5{fill:#173d7a}.cls-6{fill:#fff}.cls-7{opacity:.4}.cls-11,.cls-7{isolation:isolate}.cls-8{fill:#b7161b}.cls-9{fill:#e4141a}.cls-11{fill:#231f20;opacity:.03}</style></defs><path class="cls-1" d="M312.52 257.92l52.8-30.11c1.93-1.11 1.69-3.06-.54-4.35l-30.38-17.54c-2.23-1.29-5.6-1.43-7.53-.31l-52.8 30.11c-1.93 1.11-1.69 3.06.54 4.35L305 257.61c2.22 1.29 5.59 1.39 7.52.31z" transform="translate(-196.48 -67.06)"/><path class="cls-2" d="M269.36 225.58V102.32l49-12.83 9-5.21c2.07-1.2 5.69-1 8.08.33l8.42 4.86H370l-7.74 119a2.35 2.35 0 0 1-1.39 2.17L312 247.52c-2.07 1.2-5.69 1-8.08-.34l-32.59-18.82c-1.33-.78-2.05-1.81-1.97-2.78z" transform="translate(-196.48 -67.06)"/><path class="cls-1" d="M331.14 83.49a9.3 9.3 0 0 1 4.33 1.14l8.42 4.86H370v123.58a2.35 2.35 0 0 1-1.39 2.17L312 247.52a7.32 7.32 0 0 1-3.75.8L307.67 124z" transform="translate(-196.48 -67.06)"/><path class="cls-3" d="M311.48 247.78a9.22 9.22 0 0 1-6.46-.07V122.49h6.46z" transform="translate(-196.48 -67.06)"/><path class="cls-1" d="M312 124l56.64-32.3c2.07-1.2 1.81-3.28-.58-4.67L335.47 68.2c-2.39-1.38-6-1.53-8.08-.33l-56.64 32.3c-2.07 1.2-1.81 3.28.58 4.67l32.59 18.82c2.39 1.34 6.01 1.51 8.08.34z" transform="translate(-196.48 -67.06)"/><path d="M271.33 102.53l32.59 18.82c2.39 1.38 6 1.53 8.08.34l56.64-32.3a3.12 3.12 0 0 0 1-.92c.71 1.15.39 2.39-1 3.21L312 124c-2.07 1.2-5.69 1-8.08-.33l-32.59-18.82c-1.86-1.07-2.42-2.57-1.61-3.75a4.37 4.37 0 0 0 1.61 1.43z" transform="translate(-196.48 -67.06)" fill="#fafdff"/><path class="cls-5" d="M310.4 110.88L348.11 89c1-.56.85-1.54-.27-2.18L332.59 78a4.19 4.19 0 0 0-3.78-.16l-37.71 21.9c-1 .56-.85 1.54.27 2.18l15.25 8.8a4.19 4.19 0 0 0 3.78.16z" transform="translate(-196.48 -67.06)"/><path class="cls-1" d="M330.76 90l2.24-1.25c.13-.08.12-.21 0-.3l-2.11-1.22a.56.56 0 0 0-.52 0l-2.19 1.26c-.13.08-.12.21 0 .3l2.06 1.21a.63.63 0 0 0 .52 0zm-7.3 4.2l2.19-1.26c.13-.08.12-.21 0-.3l-2.11-1.22a.56.56 0 0 0-.52 0l-2.19 1.26c-.13.08-.12.21 0 .3l2.11 1.22a.56.56 0 0 0 .52 0zm-7.3 4.2l2.19-1.26c.13-.08.12-.21 0-.3l-2.11-1.22a.56.56 0 0 0-.52 0l-2.19 1.26c-.13.08-.12.21 0 .3l2.11 1.22a.56.56 0 0 0 .52 0zm-7.3 4.2l2.19-1.26c.13-.08.12-.21 0-.3l-2.11-1.22a.56.56 0 0 0-.52 0l-2.19 1.26c-.13.08-.12.21 0 .3l2.11 1.22a.56.56 0 0 0 .52 0z" transform="translate(-196.48 -67.06)"/><path class="cls-3" d="M348.11 89a2.29 2.29 0 0 0-.23-.16l-15.25-8.8a4.19 4.19 0 0 0-3.78-.16l-37.67 21.83c-.89-.64-.94-1.51 0-2l37.71-21.86a4.19 4.19 0 0 1 3.78.16l15.25 8.8c1.08.68 1.16 1.66.19 2.19z" transform="translate(-196.48 -67.06)"/><path class="cls-5" d="M297.56 148.4l-21.44-12.28a5.23 5.23 0 0 1-2.18-4.17v-7.67c0-1.61 1-2.35 2.18-1.65l21.44 12.28a5.23 5.23 0 0 1 2.18 4.17v7.67c0 1.6-.98 2.34-2.18 1.65z" transform="translate(-196.48 -67.06)"/><path class="cls-6" d="M275.05 122.39a2.14 2.14 0 0 0-.55 1.6v7.67a5.23 5.23 0 0 0 2.18 4.17l21.44 12.28a1.62 1.62 0 0 0 1.06.23 1.31 1.31 0 0 1-1.64.06l-21.44-12.28a5.23 5.23 0 0 1-2.18-4.17v-7.67c.01-1.09.47-1.77 1.13-1.89z" transform="translate(-196.48 -67.06)"/><path class="cls-2" d="M291.11 140.07l-2-1.14a1.15 1.15 0 0 1-.48-.91v-2.1c0-.35.21-.51.48-.36l2 1.14a1.15 1.15 0 0 1 .48.91v2.1c-.01.35-.22.51-.48.36z" transform="translate(-196.48 -67.06)"/><path class="cls-6" d="M284.53 136.27l-2-1.14a1.15 1.15 0 0 1-.48-.91v-2.1c0-.35.21-.51.48-.36l2 1.14a1.15 1.15 0 0 1 .48.91v2.1c-.01.35-.22.51-.48.36z" transform="translate(-196.48 -67.06)"/><path class="cls-5" d="M297.56 203.8l-21.44-12.28a5.23 5.23 0 0 1-2.18-4.17v-7.67c0-1.61 1-2.35 2.18-1.65l21.44 12.28a5.23 5.23 0 0 1 2.18 4.17v7.67c0 1.61-.98 2.35-2.18 1.65z" transform="translate(-196.48 -67.06)"/><path class="cls-6" d="M275.05 177.8a2.14 2.14 0 0 0-.55 1.6v7.67a5.23 5.23 0 0 0 2.18 4.17l21.44 12.28a1.62 1.62 0 0 0 1.06.23 1.31 1.31 0 0 1-1.64.06l-21.44-12.28a5.23 5.23 0 0 1-2.18-4.17v-7.67c.01-1.1.47-1.78 1.13-1.89z" transform="translate(-196.48 -67.06)"/><path class="cls-2" d="M291.11 195.47l-2-1.14a1.15 1.15 0 0 1-.48-.91v-2.1c0-.35.21-.51.48-.36l2 1.14a1.15 1.15 0 0 1 .48.91v2.1c-.01.35-.22.51-.48.36z" transform="translate(-196.48 -67.06)"/><path class="cls-6" d="M284.53 191.68l-2-1.14a1.15 1.15 0 0 1-.48-.91v-2.1c0-.35.21-.51.48-.36l2 1.14a1.15 1.15 0 0 1 .48.91v2.1c-.01.35-.22.51-.48.36z" transform="translate(-196.48 -67.06)"/><path class="cls-5" d="M297.56 231.5l-21.44-12.28a5.23 5.23 0 0 1-2.18-4.17v-7.67c0-1.61 1-2.35 2.18-1.65L297.56 218a5.23 5.23 0 0 1 2.18 4.17v7.67c0 1.62-.98 2.36-2.18 1.66z" transform="translate(-196.48 -67.06)"/><path class="cls-6" d="M275.05 205.5a2.14 2.14 0 0 0-.55 1.6v7.67a5.23 5.23 0 0 0 2.18 4.17l21.44 12.28a1.62 1.62 0 0 0 1.06.23 1.31 1.31 0 0 1-1.64.06l-21.44-12.28a5.23 5.23 0 0 1-2.18-4.17v-7.67c.01-1.1.47-1.77 1.13-1.89z" transform="translate(-196.48 -67.06)"/><path class="cls-2" d="M291.11 223.18l-2-1.14a1.15 1.15 0 0 1-.48-.91V219c0-.35.21-.51.48-.36l2 1.14a1.15 1.15 0 0 1 .48.91v2.1c-.01.38-.22.54-.48.39z" transform="translate(-196.48 -67.06)"/><path class="cls-6" d="M284.53 219.38l-2-1.14a1.15 1.15 0 0 1-.48-.91v-2.1c0-.35.21-.51.48-.36l2 1.14a1.15 1.15 0 0 1 .48.91V219c-.01.37-.22.53-.48.38z" transform="translate(-196.48 -67.06)"/><path class="cls-5" d="M297.56 176.1l-21.44-12.28a5.23 5.23 0 0 1-2.18-4.17V152c0-1.61 1-2.35 2.18-1.65l21.44 12.28a5.23 5.23 0 0 1 2.18 4.17v7.67c0 1.59-.98 2.32-2.18 1.63z" transform="translate(-196.48 -67.06)"/><path class="cls-6" d="M275.05 150.1a2.14 2.14 0 0 0-.55 1.6v7.67a5.23 5.23 0 0 0 2.18 4.17l21.44 12.28a1.62 1.62 0 0 0 1.06.23 1.31 1.31 0 0 1-1.64.06l-21.44-12.28a5.23 5.23 0 0 1-2.18-4.17V152c.01-1.11.47-1.79 1.13-1.9z" transform="translate(-196.48 -67.06)"/><path class="cls-2" d="M291.11 167.77l-2-1.14a1.15 1.15 0 0 1-.48-.91v-2.1c0-.35.21-.51.48-.36l2 1.14a1.15 1.15 0 0 1 .48.91v2.1c-.01.35-.22.51-.48.36z" transform="translate(-196.48 -67.06)"/><path class="cls-6" d="M284.53 164l-2-1.14a1.15 1.15 0 0 1-.48-.91v-2.1c0-.35.21-.51.48-.36l2 1.14a1.15 1.15 0 0 1 .48.91v2.1c-.01.36-.22.48-.48.36z" transform="translate(-196.48 -67.06)"/><path class="cls-3" d="M316.13 140.55L365.6 112a4.78 4.78 0 0 0 2-3.83v-9.44c0-1.48-.9-2.15-2-1.52l-49.47 28.56a4.78 4.78 0 0 0-2 3.83v9.4c-.01 1.51.87 2.19 2 1.55z" transform="translate(-196.48 -67.06)"/><path class="cls-7" d="M317.55 137.24l46.63-26.92a2.43 2.43 0 0 0 1-1.94v-7.09c0-.75-.46-1.09-1-.77l-46.63 26.92a2.43 2.43 0 0 0-1 1.94v7.09c-.02.75.45 1.09 1 .77z" transform="translate(-196.48 -67.06)"/><path class="cls-1" d="M354.46 112.34l7-4a2.35 2.35 0 0 0 1-1.89c0-.73-.44-1.06-1-.75l-7 4a2.35 2.35 0 0 0-1 1.89c.01.74.45 1.07 1 .75z" transform="translate(-196.48 -67.06)"/><path class="cls-5" d="M348.53 114.45c0 .73.51 1 1.14.66a2.52 2.52 0 0 0 1.14-2c0-.73-.51-1-1.14-.66a2.53 2.53 0 0 0-1.14 2zm-4.03 2.32c0 .73.51 1 1.14.66a2.52 2.52 0 0 0 1.14-2c0-.73-.51-1-1.14-.66a2.55 2.55 0 0 0-1.14 2z" transform="translate(-196.48 -67.06)"/><path class="cls-1" d="M340.48 119.1c0 .73.51 1 1.14.66a2.52 2.52 0 0 0 1.14-2c0-.73-.51-1-1.14-.66a2.53 2.53 0 0 0-1.14 2z" transform="translate(-196.48 -67.06)"/><path class="cls-5" d="M336.46 121.42c0 .73.51 1 1.14.66a2.52 2.52 0 0 0 1.14-2c0-.73-.51-1-1.14-.66a2.53 2.53 0 0 0-1.14 2zm-16.95 11.87l2.34-1.35a1.5 1.5 0 0 0 .63-1.21v-2.48c0-.47-.28-.68-.63-.48l-2.34 1.35a1.5 1.5 0 0 0-.63 1.21v2.48c-.01.47.28.68.63.48z" transform="translate(-196.48 -67.06)"/><path class="cls-3" d="M316.13 157.18l49.47-28.56a4.78 4.78 0 0 0 2-3.83v-9.43c0-1.48-.9-2.15-2-1.52l-49.47 28.56a4.78 4.78 0 0 0-2 3.83v9.43c-.01 1.48.87 2.16 2 1.52z" transform="translate(-196.48 -67.06)"/><path class="cls-7" d="M317.55 153.87L364.18 127a2.43 2.43 0 0 0 1-1.94v-7.09c0-.75-.46-1.09-1-.77l-46.63 26.92a2.43 2.43 0 0 0-1 1.94v7.09c-.02.7.45 1.05 1 .72z" transform="translate(-196.48 -67.06)"/><path class="cls-1" d="M354.46 129l7-4a2.36 2.36 0 0 0 1-1.89c0-.73-.44-1.06-1-.75l-7 4a2.35 2.35 0 0 0-1 1.89c.01.75.45 1.04 1 .75z" transform="translate(-196.48 -67.06)"/><path class="cls-6" d="M348.53 131.08c0 .73.51 1 1.14.66a2.52 2.52 0 0 0 1.14-2c0-.73-.51-1-1.14-.66a2.55 2.55 0 0 0-1.14 2z" transform="translate(-196.48 -67.06)"/><path class="cls-5" d="M344.5 133.41c0 .73.51 1 1.14.66a2.52 2.52 0 0 0 1.14-2c0-.73-.51-1-1.14-.66a2.53 2.53 0 0 0-1.14 2z" transform="translate(-196.48 -67.06)"/><path class="cls-1" d="M340.48 135.73c0 .73.51 1 1.14.66a2.52 2.52 0 0 0 1.14-2c0-.73-.51-1-1.14-.66a2.53 2.53 0 0 0-1.14 2z" transform="translate(-196.48 -67.06)"/><path class="cls-5" d="M336.46 138.05c0 .73.51 1 1.14.66a2.52 2.52 0 0 0 1.14-2c0-.73-.51-1-1.14-.66a2.55 2.55 0 0 0-1.14 2zm-16.95 11.87l2.34-1.35a1.5 1.5 0 0 0 .63-1.21v-2.48c0-.47-.28-.68-.63-.48l-2.34 1.35a1.5 1.5 0 0 0-.63 1.21v2.48c-.01.47.28.69.63.48z" transform="translate(-196.48 -67.06)"/><path class="cls-3" d="M316.13 173.81l49.47-28.56a4.78 4.78 0 0 0 2-3.83V132c0-1.48-.9-2.15-2-1.52L316.13 159a4.78 4.78 0 0 0-2 3.83v9.43c-.01 1.51.87 2.19 2 1.55z" transform="translate(-196.48 -67.06)"/><path class="cls-7" d="M317.55 170.51l46.63-26.92a2.43 2.43 0 0 0 1-1.94v-7.09c0-.75-.46-1.09-1-.77l-46.63 26.92a2.43 2.43 0 0 0-1 1.94v7.09c-.02.75.45 1.09 1 .77z" transform="translate(-196.48 -67.06)"/><path class="cls-1" d="M354.46 145.61l7-4a2.35 2.35 0 0 0 1-1.89c0-.73-.44-1.06-1-.75l-7 4a2.36 2.36 0 0 0-1 1.89c.01.73.45 1.07 1 .75z" transform="translate(-196.48 -67.06)"/><path class="cls-6" d="M348.53 147.72c0 .73.51 1 1.14.66a2.52 2.52 0 0 0 1.14-2c0-.73-.51-1-1.14-.66a2.53 2.53 0 0 0-1.14 2z" transform="translate(-196.48 -67.06)"/><path class="cls-5" d="M344.5 150c0 .73.51 1 1.14.66a2.52 2.52 0 0 0 1.14-2c0-.73-.51-1-1.14-.66a2.53 2.53 0 0 0-1.14 2z" transform="translate(-196.48 -67.06)"/><path class="cls-1" d="M340.48 152.36c0 .73.51 1 1.14.66a2.52 2.52 0 0 0 1.14-2c0-.73-.51-1-1.14-.66a2.55 2.55 0 0 0-1.14 2z" transform="translate(-196.48 -67.06)"/><path class="cls-5" d="M336.46 154.69c0 .73.51 1 1.14.66a2.52 2.52 0 0 0 1.14-2c0-.73-.51-1-1.14-.66a2.52 2.52 0 0 0-1.14 2zm-16.95 11.87l2.34-1.35a1.5 1.5 0 0 0 .63-1.21v-2.48c0-.47-.28-.68-.63-.48l-2.34 1.35a1.5 1.5 0 0 0-.63 1.21v2.48c-.01.46.28.68.63.48z" transform="translate(-196.48 -67.06)"/><path class="cls-3" d="M316.13 190.45l49.47-28.56a4.78 4.78 0 0 0 2-3.83v-9.43c0-1.48-.9-2.15-2-1.52l-49.47 28.56a4.78 4.78 0 0 0-2 3.83v9.43c-.01 1.48.87 2.15 2 1.52z" transform="translate(-196.48 -67.06)"/><path class="cls-7" d="M317.55 187.14l46.63-26.92a2.43 2.43 0 0 0 1-1.94v-7.09c0-.75-.46-1.09-1-.77l-46.63 26.92a2.43 2.43 0 0 0-1 1.94v7.09c-.02.75.45 1.09 1 .77z" transform="translate(-196.48 -67.06)"/><path class="cls-1" d="M354.46 162.24l7-4a2.35 2.35 0 0 0 1-1.89c0-.73-.44-1.06-1-.75l-7 4a2.35 2.35 0 0 0-1 1.89c.01.73.45 1.07 1 .75z" transform="translate(-196.48 -67.06)"/><path class="cls-5" d="M348.53 164.35c0 .73.51 1 1.14.66a2.52 2.52 0 0 0 1.14-2c0-.73-.51-1-1.14-.66a2.53 2.53 0 0 0-1.14 2zm-4.03 2.32c0 .73.51 1 1.14.66a2.52 2.52 0 0 0 1.14-2c0-.73-.51-1-1.14-.66a2.55 2.55 0 0 0-1.14 2z" transform="translate(-196.48 -67.06)"/><path class="cls-1" d="M340.48 169c0 .73.51 1 1.14.66a2.52 2.52 0 0 0 1.14-2c0-.73-.51-1-1.14-.66a2.52 2.52 0 0 0-1.14 2z" transform="translate(-196.48 -67.06)"/><path class="cls-5" d="M336.46 171.32c0 .73.51 1 1.14.66a2.52 2.52 0 0 0 1.14-2c0-.73-.51-1-1.14-.66a2.53 2.53 0 0 0-1.14 2z" transform="translate(-196.48 -67.06)"/><path class="cls-1" d="M319.51 183.19l2.34-1.35a1.5 1.5 0 0 0 .63-1.21v-2.48c0-.47-.28-.68-.63-.48l-2.34 1.33a1.5 1.5 0 0 0-.63 1.21v2.48c-.01.49.28.7.63.5z" transform="translate(-196.48 -67.06)"/><path class="cls-3" d="M316.13 207.08l49.47-28.56a4.78 4.78 0 0 0 2-3.83v-9.43c0-1.48-.9-2.15-2-1.52l-49.47 28.56a4.78 4.78 0 0 0-2 3.83v9.43c-.01 1.44.87 2.16 2 1.52z" transform="translate(-196.48 -67.06)"/><path class="cls-7" d="M317.55 203.77l46.63-26.92a2.43 2.43 0 0 0 1-1.94v-7.09c0-.75-.46-1.09-1-.77L317.55 194a2.43 2.43 0 0 0-1 1.94V203c-.02.75.45 1.1 1 .77z" transform="translate(-196.48 -67.06)"/><path class="cls-1" d="M354.46 178.88l7-4a2.35 2.35 0 0 0 1-1.89c0-.73-.44-1.06-1-.75l-7 4a2.35 2.35 0 0 0-1 1.89c.01.73.45 1.06 1 .75z" transform="translate(-196.48 -67.06)"/><path class="cls-5" d="M348.53 181c0 .73.51 1 1.14.66a2.52 2.52 0 0 0 1.14-2c0-.73-.51-1-1.14-.66a2.55 2.55 0 0 0-1.14 2z" transform="translate(-196.48 -67.06)"/><path class="cls-6" d="M344.5 183.31c0 .73.51 1 1.14.66a2.52 2.52 0 0 0 1.14-2c0-.73-.51-1-1.14-.66a2.52 2.52 0 0 0-1.14 2z" transform="translate(-196.48 -67.06)"/><path class="cls-1" d="M340.48 185.63c0 .73.51 1 1.14.66a2.52 2.52 0 0 0 1.14-2c0-.73-.51-1-1.14-.66a2.53 2.53 0 0 0-1.14 2z" transform="translate(-196.48 -67.06)"/><path class="cls-6" d="M336.46 188c0 .73.51 1 1.14.66a2.52 2.52 0 0 0 1.14-2c0-.73-.51-1-1.14-.66a2.53 2.53 0 0 0-1.14 2z" transform="translate(-196.48 -67.06)"/><path class="cls-1" d="M319.51 199.82l2.34-1.35a1.5 1.5 0 0 0 .63-1.21v-2.48c0-.47-.28-.68-.63-.48l-2.34 1.35a1.5 1.5 0 0 0-.63 1.21v2.48c-.01.47.28.66.63.48z" transform="translate(-196.48 -67.06)"/><path class="cls-3" d="M316.13 223.71l49.47-28.56a4.78 4.78 0 0 0 2-3.83v-9.43c0-1.48-.9-2.15-2-1.52l-49.47 28.56a4.78 4.78 0 0 0-2 3.83v9.43c-.01 1.48.87 2.16 2 1.52z" transform="translate(-196.48 -67.06)"/><path class="cls-7" d="M317.55 220.4l46.63-26.92a2.43 2.43 0 0 0 1-1.94v-7.09c0-.75-.46-1.09-1-.77l-46.63 26.92a2.43 2.43 0 0 0-1 1.94v7.09c-.02.75.45 1.1 1 .77z" transform="translate(-196.48 -67.06)"/><path class="cls-1" d="M354.46 195.51l7-4a2.35 2.35 0 0 0 1-1.89c0-.73-.44-1.06-1-.75l-7 4a2.36 2.36 0 0 0-1 1.89c.01.73.45 1.06 1 .75z" transform="translate(-196.48 -67.06)"/><path class="cls-5" d="M348.53 197.62c0 .73.51 1 1.14.66a2.52 2.52 0 0 0 1.14-2c0-.73-.51-1-1.14-.66a2.52 2.52 0 0 0-1.14 2zm-4.03 2.32c0 .73.51 1 1.14.66a2.52 2.52 0 0 0 1.14-2c0-.73-.51-1-1.14-.66a2.53 2.53 0 0 0-1.14 2z" transform="translate(-196.48 -67.06)"/><path class="cls-1" d="M340.48 202.26c0 .73.51 1 1.14.66a2.52 2.52 0 0 0 1.14-2c0-.73-.51-1-1.14-.66a2.53 2.53 0 0 0-1.14 2z" transform="translate(-196.48 -67.06)"/><path class="cls-5" d="M336.46 204.58c0 .73.51 1 1.14.66a2.52 2.52 0 0 0 1.14-2c0-.73-.51-1-1.14-.66a2.55 2.55 0 0 0-1.14 2zm-16.95 11.88l2.34-1.35a1.5 1.5 0 0 0 .63-1.21v-2.48c0-.47-.28-.68-.63-.48l-2.34 1.35a1.5 1.5 0 0 0-.63 1.21v2.5c-.01.44.28.66.63.46z" transform="translate(-196.48 -67.06)"/><path class="cls-3" d="M316.13 240.34l49.47-28.56a4.78 4.78 0 0 0 2-3.83v-9.43c0-1.48-.9-2.15-2-1.52l-49.47 28.56a4.78 4.78 0 0 0-2 3.83v9.43c-.01 1.48.87 2.18 2 1.52z" transform="translate(-196.48 -67.06)"/><path class="cls-7" d="M317.55 237l46.63-26.92a2.43 2.43 0 0 0 1-1.94v-7.09c0-.75-.46-1.09-1-.77l-46.63 26.92a2.43 2.43 0 0 0-1 1.94v7.09c-.02.77.45 1.13 1 .77z" transform="translate(-196.48 -67.06)"/><path class="cls-1" d="M354.46 212.14l7-4a2.35 2.35 0 0 0 1-1.89c0-.73-.44-1.06-1-.75l-7 4a2.35 2.35 0 0 0-1 1.89c.01.73.45 1.07 1 .75z" transform="translate(-196.48 -67.06)"/><path class="cls-6" d="M347.25 215.15c0 1.37 1 1.93 2.15 1.24a4.76 4.76 0 0 0 2.15-3.73c0-1.37-1-1.93-2.15-1.24a4.79 4.79 0 0 0-2.15 3.73z" transform="translate(-196.48 -67.06)"/><path class="cls-5" d="M338.92 220c0 .73.51 1 1.14.66a2.52 2.52 0 0 0 1.14-2c0-.73-.51-1-1.14-.66a2.52 2.52 0 0 0-1.14 2z" transform="translate(-196.48 -67.06)"/><path class="cls-1" d="M334.9 222.35c0 .73.51 1 1.14.66a2.52 2.52 0 0 0 1.14-2c0-.73-.51-1-1.14-.66a2.53 2.53 0 0 0-1.14 2z" transform="translate(-196.48 -67.06)"/><path class="cls-5" d="M330.87 224.67c0 .73.51 1 1.14.66a2.52 2.52 0 0 0 1.14-2c0-.73-.51-1-1.14-.66a2.53 2.53 0 0 0-1.14 2z" transform="translate(-196.48 -67.06)"/><path class="cls-1" d="M319.51 233.09l2.34-1.35a1.5 1.5 0 0 0 .63-1.21v-2.48c0-.47-.28-.68-.63-.48l-2.34 1.35a1.5 1.5 0 0 0-.63 1.21v2.48c-.01.47.28.68.63.48z" transform="translate(-196.48 -67.06)"/><path class="cls-5" d="M320.66 199.15l-97.16-56.13 109.53 5.16 6.8 6.51 1.48 9.76-1.08 6.63-3.26 8.06-3.25 6.31-3.65 4.73-9.41 8.97z"/><path class="cls-1" d="M435.48 158.91c-.17-.1-.33-.2-.51-.29-3.88-2.08-9.15-1.7-15 1.65l-132.71 76.61a9.71 9.71 0 0 1 1.53 1.48l5-2.9 26.86 58.37 13.9 19 9.07 3.16 9.1-3.55 44.15-25.09 87.51-50L516.51 218l8.38-2.66 7.54-.45z" transform="translate(-196.48 -67.06)"/><path class="cls-1" d="M330.59 301.54c0-13.74 9.68-30.5 21.58-37.37v2.37c-10.77 6.22-19.53 21.39-19.53 33.82s8.76 17.49 19.53 11.27l165-95.25c6-3.43 11.34-3.75 15.25-1.5l-96.91-56c-.17-.1-.33-.2-.51-.29-3.88-2.08-9.15-1.7-15 1.65l-132.73 76.64a9.35 9.35 0 0 1 1.53 1.49l5-2.9 26.86 58.37L331.8 309a21.43 21.43 0 0 1-1.21-7.46z" transform="translate(-196.48 -67.06)"/><path class="cls-6" d="M330.59 300.22v.7c.14-6.86 2.63-14.41 6.57-21.08l-.55-.35c-3.71 6.63-6.02 14.04-6.02 20.73zm186.55-85.15l-165 95.25c-10.51 6.07-19.11 1.39-19.51-10.41v.45c0 12.43 8.76 17.49 19.53 11.27l165-95.25c6-3.43 11.34-3.75 15.25-1.5l-4.69-2.71c-3.14-.23-6.72.68-10.58 2.9zm-196.47 77.44l-26.86-58.37-5 2.9q-.3-.36-.63-.69l-.89.52a9.35 9.35 0 0 1 1.53 1.49l5-2.9 26.86 58.37L331.79 309a18.68 18.68 0 0 1-.61-2.15z" transform="translate(-196.48 -67.06)"/><path class="cls-1" d="M532.41 213.58s0-.01 0 0z" transform="translate(-196.48 -67.06)"/><path class="cls-3" d="M255 208c-11.9 6.87-21.58 23.63-21.58 37.37 0 6.63 2.26 11.36 5.93 13.71h.06c.22.14.44.27.67.39l96.81 55.94-5.89-10.63.69-10.7 1.87-6 2.86-6.41s2.37-4.39 2.51-4.49 3.5-4.44 3.5-4.44l3.26-3.4 3.54-2.27 2.95-2.89z" transform="translate(-196.48 -67.06)"/><path class="cls-5" d="M517.14 266.21v-2.37c10.77-6.22 19.53-21.39 19.53-33.82s-8.76-17.49-19.53-11.27L352.16 314c-11.9 6.87-21.58 1.28-21.58-12.46s9.68-30.5 21.58-37.37v2.37c-10.77 6.22-19.53 21.39-19.53 33.82s8.76 17.49 19.53 11.27l165-95.25c11.9-6.87 21.58-1.28 21.58 12.46s-9.74 30.5-21.6 37.37z" transform="translate(-196.48 -67.06)"/><path class="cls-3" d="M439.88 232.69l-46.2-26.08a8 8 0 0 0-7.15.37l-26.4 15.61c-2.1 1.24-2.31 3.09-.47 4.13l46.2 26.08a8 8 0 0 0 7.15-.37l26.4-15.61c2.1-1.24 2.31-3.09.47-4.13z" transform="translate(-196.48 -67.06)"/><path class="cls-8" d="M404.72 247.15l-47.5-26.76a2.41 2.41 0 0 1-1.41-2l-.05-5.29 2.65 2.17 29.6-17.5c2.41-1.42 6.07-1.61 8.18-.43l45.4 25.58 3.47-2.05.06 5.34a3.37 3.37 0 0 1-1.95 2.65l-30.22 17.87c-2.46 1.42-6.12 1.61-8.23.42z" transform="translate(-196.48 -67.06)"/><path class="cls-9" d="M443.59 218.74L396.09 192c-2.11-1.19-5.77-1-8.18.42l-30.22 17.87c-2.41 1.42-2.65 3.54-.54 4.73l47.5 26.76c2.11 1.19 5.77 1 8.18-.42l30.22-17.87c2.41-1.44 2.65-3.56.54-4.75z" transform="translate(-196.48 -67.06)"/><path class="cls-6" d="M404.66 241.77L357.16 215a2.25 2.25 0 0 1-1.33-2.63 2.87 2.87 0 0 0 1.22 1.23l47.5 26.76c2.11 1.19 5.77 1 8.18-.42L443 222.08a3.85 3.85 0 0 0 1.87-2.1c.55 1.13-.05 2.49-1.76 3.51l-30.22 17.87c-2.46 1.41-6.12 1.64-8.23.41zm-10.89-29.97c1.75-1 1.73-2.68 0-3.68a7 7 0 0 0-6.37.07c-1.75 1-1.73 2.68 0 3.68a7 7 0 0 0 6.37-.07z" transform="translate(-196.48 -67.06)"/><ellipse class="cls-6" cx="400.24" cy="215.48" rx="4.51" ry="2.6" transform="rotate(-.6 -6103.893 18942.839)"/><ellipse class="cls-6" cx="409.95" cy="220.95" rx="4.51" ry="2.6" transform="rotate(-.6 -6094.374 18948.618)"/><path class="cls-3" d="M180.97 198.83l-38.72-22.57-2.43 1.39 38.72 22.57 2.43-1.39zm-1.08-12.88l-27.03-15.76-2.43 1.39 27.03 15.76 2.43-1.39zm-8.95.91l-23.39-13.64-2.42 1.39 23.38 13.64 2.43-1.39zm15.33 8.94l-11.69-6.82-2.43 1.39 11.7 6.82 2.42-1.39zm85.07-50.14l-38.72-22.58-2.43 1.39 38.72 22.58 2.43-1.39zm-1.08-12.89l-27.02-15.76-2.43 1.39 27.03 15.76 2.42-1.39zm-8.95.91l-23.38-13.63-2.43 1.38 23.38 13.64 2.43-1.39zm15.34 8.94l-11.69-6.81-2.43 1.38 11.69 6.82 2.43-1.39z"/><path d="M435.48 158.91c-.17-.1-.33-.2-.51-.29-3.88-2.08-9.15-1.7-15 1.65l-11.14 6.43 15.66 9a1.76 1.76 0 0 0 1.95.08l19.09-11.08z" transform="translate(-196.48 -67.06)" fill="#abd6f4"/><path class="cls-9" d="M459.73 142.14l-5-2.9 18.53-10.7a1 1 0 0 0 0-1.83l-18.96-10.93a3.48 3.48 0 0 0-3.17 0l-18.53 10.7-5-2.9 18.53-10.7a14.62 14.62 0 0 1 13.23 0l18.93 10.93c3.65 2.11 3.65 5.53 0 7.64z" transform="translate(-196.48 -67.06)"/><path class="cls-1" d="M467.84 143.42c0-2.69-1.63-5.81-3.65-7l-33.57-19.38a2.33 2.33 0 0 0-2.36-.2l-40.09 23.29 38.76 29.21 39.49-22.92a2.43 2.43 0 0 0 .35-.2 3.47 3.47 0 0 0 1.07-2.8z" transform="translate(-196.48 -67.06)"/><path class="cls-5" d="M426.93 169.36l39.49-22.92a2.43 2.43 0 0 0 .35-.2 3.43 3.43 0 0 0 1.07-2.82 9.06 9.06 0 0 0-1-3.88l-45 26z" transform="translate(-196.48 -67.06)"/><path class="cls-3" d="M424.41 169.26l-33.57-19.38c-2-1.16-3.65-4.28-3.65-7 0-2.69 1.63-3.92 3.65-2.76l33.57 19.38c2 1.16 3.65 4.28 3.65 7 0 2.69-1.64 3.92-3.65 2.76z" transform="translate(-196.48 -67.06)"/><path class="cls-6" d="M424.81 159.34L391.24 140a2.31 2.31 0 0 0-2.41-.17 2.55 2.55 0 0 1 2 .35l33.57 19.38c2 1.16 3.65 4.28 3.65 7a3.25 3.25 0 0 1-1.24 2.93c1-.3 1.64-1.42 1.64-3.11.01-2.75-1.62-5.87-3.64-7.04z" transform="translate(-196.48 -67.06)"/><path class="cls-6" d="M419.38 162.72l-4-2.33a1.74 1.74 0 0 1-.73-1.39c0-.54.33-.78.73-.55l4 2.33a1.74 1.74 0 0 1 .73 1.39c0 .54-.33.83-.73.55z" transform="translate(-196.48 -67.06)"/><path class="cls-3" d="M423.93 135.16a1.35 1.35 0 0 0 0-2.56 4.93 4.93 0 0 0-4.44.05 1.35 1.35 0 0 0 0 2.56 4.92 4.92 0 0 0 4.44-.05z" transform="translate(-196.48 -67.06)"/><path class="cls-6" d="M430.69 139a1.35 1.35 0 0 0 0-2.56 4.93 4.93 0 0 0-4.44.05 1.35 1.35 0 0 0 0 2.56 4.92 4.92 0 0 0 4.44-.05zm6.76 3.78a1.35 1.35 0 0 0 0-2.56 4.93 4.93 0 0 0-4.44.05 1.35 1.35 0 0 0 0 2.56 4.92 4.92 0 0 0 4.44-.05z" transform="translate(-196.48 -67.06)"/><path class="cls-11" d="M380.71 343.51L486 282.68c2.55-1.47 2.23-4.05-.71-5.75-3-1.7-7.41-1.89-10-.41L370 337.35c-2.55 1.47-2.23 4 .71 5.75 2.99 1.7 7.45 1.9 10 .41z" transform="translate(-196.48 -67.06)"/><path class="cls-1" d="M494.61 261.88a.4.4 0 0 0-.43-.19l-5.61 1.16 2.17 3.77 3.82-4.26a.41.41 0 0 0 .05-.48z" transform="translate(-196.48 -67.06)"/><path class="cls-3" d="M492.38 264.63a2.78 2.78 0 0 0-1.26-2.19.91.91 0 0 0-.84-.11 35.68 35.68 0 0 0-18.44 4.74l-.41.23 6.83 11.89 2.07-1.34a35.67 35.67 0 0 0 10.83-11l.89-1.43a.91.91 0 0 0 .33-.79z" transform="translate(-196.48 -67.06)"/><path class="cls-1" d="M479.68 276.05a10.72 10.72 0 0 0-4.83-8.41c-2.67-1.55-4.85-.3-4.85 2.79a10.72 10.72 0 0 0 4.83 8.41c2.68 1.55 4.85.3 4.85-2.79z" transform="translate(-196.48 -67.06)"/><path class="cls-1" d="M240.29 237.41l41.49-25.28-6.83-11.89-42.73 23.12 8.07 14.05z"/><path class="cls-1" d="M438.45 300.76a12.65 12.65 0 0 0-5.71-9.93c-3.16-1.83-5.73-.36-5.74 3.3a12.65 12.65 0 0 0 5.71 9.93c3.17 1.83 5.74.36 5.74-3.3z" transform="translate(-196.48 -67.06)"/><path class="cls-1" d="M436.09 302.12a12.65 12.65 0 0 0-5.71-9.93c-3.16-1.83-5.73-.36-5.74 3.3a12.65 12.65 0 0 0 5.71 9.93c3.16 1.83 5.73.36 5.74-3.3z" transform="translate(-196.48 -67.06)"/><path class="cls-1" transform="rotate(-29.88 179.05 649.218)" d="M371.31 306.48h63.28v16.2h-63.28z"/><path class="cls-1" d="M381.22 333.65a12.65 12.65 0 0 0-5.71-9.93c-3.16-1.83-5.73-.36-5.74 3.3a12.65 12.65 0 0 0 5.71 9.93c3.16 1.83 5.73.35 5.74-3.3z" transform="translate(-196.48 -67.06)"/><path class="cls-2" d="M379.17 332.46a8.35 8.35 0 0 0-3.86-6c-2-1.18-3.59-.38-3.48 1.77a8.35 8.35 0 0 0 3.86 6c2.02 1.18 3.58.39 3.48-1.77z" transform="translate(-196.48 -67.06)"/><path class="cls-6" d="M438.87 300.52a12.65 12.65 0 0 0-5.71-9.93 4.48 4.48 0 0 0-3.4-.67c1-1.07 2.74-1.18 4.65-.07a12.65 12.65 0 0 1 5.71 9.93c0 2.18-.93 3.58-2.34 4a4.5 4.5 0 0 0 1.09-3.26z" transform="translate(-196.48 -67.06)"/><path class="cls-3" d="M438.87 300.52a12.65 12.65 0 0 0-5.71-9.93c-1.58-.92-3-1-4.05-.41L426 292l1.45 2.52a13 13 0 0 0 5.18 9l1.45 2.52 3.11-1.79a4 4 0 0 0 1.68-3.73z" transform="translate(-196.48 -67.06)"/><path class="cls-1" d="M435.76 302.31a12.65 12.65 0 0 0-5.71-9.93c-3.16-1.83-5.73-.36-5.74 3.3a12.65 12.65 0 0 0 5.71 9.93c3.17 1.83 5.73.39 5.74-3.3z" transform="translate(-196.48 -67.06)"/><path class="cls-9" d="M376.59 334.06L373.1 328l-11.63 6.68a3.5 3.5 0 0 0-1.29 4.77 3.5 3.5 0 0 0 4.77 1.29z" transform="translate(-196.48 -67.06)"/><path class="cls-9" d="M377.31 332.46a5.49 5.49 0 0 0-2.46-4.29c-1.36-.79-2.47-.15-2.47 1.42a5.49 5.49 0 0 0 2.46 4.29c1.36.79 2.47.12 2.47-1.42z" transform="translate(-196.48 -67.06)"/><path class="cls-3" d="M390.37 311.32l-1.72-1a3.69 3.69 0 0 0-3.71.36l-6 3.43a4.51 4.51 0 0 0-2 3.54v3a2.44 2.44 0 0 1-.61 1.49l.21 1.38-1.47-.86a.77.77 0 0 1-.35-.73v-3a9.43 9.43 0 0 1 4.28-7.37l6-3.43c2-1.15 3.87-1.33 5.28-.51l1.72 1a3.69 3.69 0 0 0 3.71-.36l24.09-13.84a.77.77 0 0 1 .79-.07l1.47.86-1.27.47a2.49 2.49 0 0 1-1 1.3l-24.09 13.84c-2.04 1.18-3.92 1.31-5.33.5z" transform="translate(-196.48 -67.06)"/><path class="cls-3" d="M390.14 311.19a3.69 3.69 0 0 0-3.71.36l-6 3.43a4.51 4.51 0 0 0-2.05 3.54v3a2.45 2.45 0 0 1-1.11 1.92c-.61.35-1.11.06-1.11-.64v-3a9.43 9.43 0 0 1 4.28-7.37l6-3.43c2-1.15 3.87-1.33 5.28-.51l1.72 1a3.69 3.69 0 0 0 3.71-.36l24.09-13.84c.61-.35 1.11-.06 1.11.64a2.46 2.46 0 0 1-1.11 1.92l-24.09 13.84c-2 1.15-3.87 1.33-5.28.51z" transform="translate(-196.48 -67.06)"/><path class="cls-6" d="M378.32 319v3.06a1.81 1.81 0 0 0 .09-.55v-3a2.46 2.46 0 0 1 0-.26 4 4 0 0 0-.09.75z" transform="translate(-196.48 -67.06)"/><path class="cls-11" d="M367 348.38l11-6.36c1.33-.77 1.16-2.11-.37-3a5.73 5.73 0 0 0-5.18-.21l-11 6.36c-1.33.77-1.16 2.11.37 3a5.76 5.76 0 0 0 5.18.21z" transform="translate(-196.48 -67.06)"/><path class="cls-11" d="M54.01 264.97l-13.77-7.95 13.77-7.94 13.76 7.94-13.76 7.95z"/><path class="cls-8" d="M67.77 248.01l-13.76 7.94v-15.89l13.76-7.94v15.89z"/><path class="cls-9" d="M54.01 240.06l-13.77-7.94 13.77-7.95 13.76 7.95-13.76 7.94zm0 15.89l-13.77-7.94v-15.89l13.77 7.94v15.89z"/><path class="cls-11" d="M15.33 168.71L0 159.86l15.32-8.85 15.33 8.85-15.32 8.85z"/><path class="cls-5" d="M30.66 149.82l-15.33 8.85v-17.7l15.33-8.85v17.7z"/><path class="cls-1" d="M15.33 140.97L0 132.12l15.32-8.86 15.33 8.86-15.32 8.85z"/><path class="cls-3" d="M15.33 158.67L0 149.82v-17.7l15.33 8.85v17.7z"/><path class="cls-11" d="M526 205.81l-30.7-17.73c-1.88-1.09-1.65-3 .53-4.24l29.64-17.12a8.15 8.15 0 0 1 7.35-.3l30.7 17.73c1.88 1.09 1.65 3-.53 4.24l-29.64 17.12c-2.15 1.25-5.44 1.39-7.35.3z" transform="translate(-196.48 -67.06)"/><path class="cls-2" d="M564.82 175.58V165h-23.75l-8.21-4.74a8.18 8.18 0 0 0-7.35.3l-7.66 4.44h-23.77v10.89a2.14 2.14 0 0 0 1.26 2L526 195.54a8.18 8.18 0 0 0 7.35-.3L563 178.12c1.28-.73 1.89-1.67 1.82-2.54z" transform="translate(-196.48 -67.06)"/><path class="cls-2" d="M529.44 159.5a8.46 8.46 0 0 0-3.94 1l-7.66 4.5h-23.77v10.89a2.14 2.14 0 0 0 1.26 2L526 195.53a6.71 6.71 0 0 0 3.41.73z" transform="translate(-196.48 -67.06)"/><path class="cls-3" d="M496.76 165h-2.69v10.89a2.14 2.14 0 0 0 1.26 2l1.43.82zm29.74 30.77a8.34 8.34 0 0 0 5.88-.07v-12.37h-5.88z" transform="translate(-196.48 -67.06)"/><path class="cls-1" d="M526 184.68L495.33 167c-1.88-1.09-1.65-3 .53-4.24l29.64-17.12a8.15 8.15 0 0 1 7.35-.3l30.7 17.66c1.88 1.09 1.65 3-.53 4.24l-29.64 17.12c-2.18 1.27-5.47 1.41-7.38.32z" transform="translate(-196.48 -67.06)"/><path class="cls-6" d="M563 165.17l-29.64 17.12a8.15 8.15 0 0 1-7.35.3l-30.7-17.73a2.87 2.87 0 0 1-.94-.83c-.65 1-.35 2.17.94 2.92L526 184.68a8.18 8.18 0 0 0 7.35-.3L563 167.26c1.69-1 2.2-2.34 1.47-3.41a4 4 0 0 1-1.47 1.32z" transform="translate(-196.48 -67.06)"/><path class="cls-1" d="M553.52 178.37a2.77 2.77 0 0 1-1.24 2.15c-.68.4-1.24.07-1.24-.72a2.77 2.77 0 0 1 1.24-2.15c.72-.39 1.24-.07 1.24.72zm3.99-2.3a2.77 2.77 0 0 1-1.24 2.15c-.68.4-1.24.07-1.24-.72a2.77 2.77 0 0 1 1.24-2.15c.73-.35 1.24-.07 1.24.72zm3.99-2.3a2.77 2.77 0 0 1-1.24 2.15c-.68.4-1.24.07-1.24-.72a2.77 2.77 0 0 1 1.24-2.15c.74-.39 1.24-.05 1.24.72z" transform="translate(-196.48 -67.06)"/><path class="cls-3" d="M527.84 173.69l-14.37-8.29c-.88-.51-.77-1.4.25-2l13.87-8a3.81 3.81 0 0 1 3.44-.14l14.37 8.29c.88.51.77 1.4-.25 2l-13.87 8a3.81 3.81 0 0 1-3.44.14z" transform="translate(-196.48 -67.06)"/><path class="cls-1" d="M529.22 166.75l-2-1.15c-.12-.07-.11-.19 0-.27l1.92-1.11a.54.54 0 0 1 .48 0l2 1.15c.12.07.11.19 0 .27l-1.92 1.11a.54.54 0 0 1-.48 0z" transform="translate(-196.48 -67.06)"/><path class="cls-2" d="M513.48 165.4a1.53 1.53 0 0 1 .21-.14l13.87-8a3.81 3.81 0 0 1 3.44-.14l14.33 8.27c.81-.58.86-1.37 0-1.84L531 155.27a3.81 3.81 0 0 0-3.44.14l-13.87 8c-.98.59-1.09 1.48-.21 1.99z" transform="translate(-196.48 -67.06)"/></svg>