<svg id="Ñëîé_1" data-name="Ñëîé 1" xmlns="http://www.w3.org/2000/svg" viewBox="0 0 344.17 265.17"><defs><style>.cls-1{fill:#231f20;opacity:.03}.cls-2{fill:#173d7a}.cls-3{fill:#396caa}.cls-4{fill:#274f89}.cls-5{fill:#d4ecff}.cls-6{fill:#fff}.cls-7{fill:#5793ce}.cls-8{fill:#b9dff9}.cls-9{fill:#e4141a}.cls-11{fill:#b7161b}</style></defs><path class="cls-1" d="M418.68 364.66l-116-67c-3.28-1.89-2.87-5.2.92-7.39l79-45.57c3.78-2.19 9.51-2.43 12.79-.53l116 67c3.28 1.89 2.87 5.2-.92 7.39l-79 45.57c-3.78 2.19-9.47 2.43-12.79.53z" transform="translate(-235.87 -118.57)"/><path class="cls-2" d="M538.52 192.56l-116-66.95a4.66 4.66 0 0 0-3.93-.48l-.21.08h-.05l-4.19 1.6 3.76 1.84a1.29 1.29 0 0 0-.05.21l-18.89 86c-.95 4.3.95 9.32 4.23 11.22l113.21 65.33-.4 4.8 4.58-1.78a6.44 6.44 0 0 0 3.28-4.66l18.89-86c.95-4.29-.95-9.31-4.23-11.21z" transform="translate(-235.87 -118.57)"/><path class="cls-3" d="M538.52 192.56l-116-66.95a4.66 4.66 0 0 0-3.93-.48l-.21.08h-.05l-4.19 1.6 3.76 1.84a1.29 1.29 0 0 0-.05.21l-12.45 56.66 56.74 44.21 80-32.56a9 9 0 0 0-3.62-4.61z" transform="translate(-235.87 -118.57)"/><path class="cls-4" d="M534.15 205.78L543 202a11.08 11.08 0 0 0-3.58-8.84l-14 5.88z" transform="translate(-235.87 -118.57)"/><path class="cls-5" d="M512 295.75L396 228.8c-3.29-1.9-5.18-6.92-4.23-11.22l18.89-86c.94-4.31 4.37-6.26 7.65-4.37l116 67c3.28 1.89 5.18 6.91 4.23 11.22l-18.89 86c-.97 4.26-4.4 6.22-7.65 4.32z" transform="translate(-235.87 -118.57)"/><path class="cls-6" d="M509.46 289.36l-109.07-62.94c-3-1.74-4.73-6.33-3.87-10.27l17.29-78.68c.86-3.94 4-5.73 7-4l109.07 62.94c3 1.73 4.73 6.33 3.86 10.26l-17.28 78.68c-.87 3.95-4 5.74-7 4.01z" transform="translate(-235.87 -118.57)"/><path class="cls-2" d="M509.46 289.36l-109.07-62.94c-3-1.74-4.73-6.33-3.87-10.27l17.29-78.68c.86-3.94 4-5.73 7-4l109.07 62.94c3 1.73 4.73 6.33 3.86 10.26l-17.28 78.68c-.87 3.95-4 5.74-7 4.01zm4.11 9.31l-15.85-2.1-102.33-59.07c-3.28-1.9-9-1.66-12.79.53l-72.51 41.84-9.59-1.26v5.44a3.75 3.75 0 0 0 2.2 3.36l116 66.95c3.28 1.89 9 1.66 12.8-.53l79-45.58c2.13-1.23 3.2-2.81 3.13-4.3z" transform="translate(-235.87 -118.57)"/><path class="cls-3" d="M436.69 261.34l-7.27-4.2h-79.93l-39.4 22.73-9.59-1.26v5.44a3.75 3.75 0 0 0 2.2 3.36l116 66.95a12 12 0 0 0 6.6 1.24z" transform="translate(-235.87 -118.57)"/><path class="cls-7" d="M304.76 279.17l-4.26-.56v5.44a3.75 3.75 0 0 0 2.2 3.36l2.05 1.18z" transform="translate(-235.87 -118.57)"/><path class="cls-4" d="M419.85 354.9a14.82 14.82 0 0 0 10.87-.67V342.1h-10.87z" transform="translate(-235.87 -118.57)"/><path class="cls-5" d="M418.68 348.93l-116-67c-3.28-1.89-2.87-5.2.92-7.38l79-45.58c3.78-2.19 9.51-2.42 12.79-.53l116 67c3.28 1.9 2.87 5.21-.92 7.39l-79 45.58c-3.78 2.17-9.47 2.41-12.79.52z" transform="translate(-235.87 -118.57)"/><path class="cls-6" d="M510.44 300.84l-79 45.57c-3.79 2.19-9.52 2.43-12.8.53L302.71 280a4.39 4.39 0 0 1-2-2.23c-.51 1.55.14 3.12 2 4.21l116 67c3.28 1.89 9 1.65 12.8-.53l79-45.58c2.55-1.47 3.56-3.44 3-5.16a6.18 6.18 0 0 1-3.07 3.13z" transform="translate(-235.87 -118.57)"/><path class="cls-8" d="M352 259.81l-5.24-3c-.42-.24-.37-.67.12-.95l6.19-3.57a1.77 1.77 0 0 1 1.64-.07l5.25 3c.42.24.37.66-.12 1l-6.19 3.57a1.85 1.85 0 0 1-1.65.02zm8.14 4.68l-5.25-3c-.42-.25-.37-.67.12-.95l6.19-3.58a1.82 1.82 0 0 1 1.65-.06l5.24 3c.42.25.37.67-.12.95l-6.19 3.58a1.83 1.83 0 0 1-1.64.06zm8.1 4.68l-5.25-3c-.42-.25-.37-.67.12-.95l6.19-3.58a1.85 1.85 0 0 1 1.65-.07l5.25 3c.42.25.36.67-.12.95l-6.2 3.58a1.83 1.83 0 0 1-1.64.07zm11.21-3.87l-5.25-3c-.42-.24-.37-.67.12-.95l5.2-3a1.83 1.83 0 0 1 1.64-.07l5.25 3c.42.25.37.67-.12 1l-5.2 3a1.8 1.8 0 0 1-1.64.02zm8.1 4.7l-5.25-3c-.42-.24-.37-.67.12-.95l5.2-3a1.83 1.83 0 0 1 1.64-.07l5.25 3c.42.25.37.67-.12 1l-5.2 3a1.83 1.83 0 0 1-1.64.02zm8.1 4.66l-5.24-3c-.43-.24-.37-.67.11-.95l5.2-3a1.85 1.85 0 0 1 1.65-.07l5.24 3c.42.24.37.67-.11.95l-5.2 3a1.85 1.85 0 0 1-1.65.07zm8.11 4.68l-5.25-3c-.42-.25-.37-.67.12-.95l5.2-3a1.83 1.83 0 0 1 1.64-.07l5.25 3c.42.24.37.67-.12.95l-5.2 3a1.83 1.83 0 0 1-1.64.07zm8.1 4.66l-5.25-3c-.42-.25-.37-.67.12-.95l5.2-3a1.77 1.77 0 0 1 1.64-.07l5.25 3c.42.24.37.66-.12.95l-5.2 3a1.83 1.83 0 0 1-1.64.07zm8.14 4.69l-5.25-3c-.42-.24-.36-.66.12-.94l5.2-3a1.82 1.82 0 0 1 1.65-.06l5.24 3c.42.25.37.67-.12.95l-5.19 3a1.82 1.82 0 0 1-1.65.05zm8.06 4.68l-5.24-3c-.42-.24-.37-.67.12-.95l5.19-3a1.85 1.85 0 0 1 1.65-.07l5.25 3c.42.25.36.67-.12.95l-5.2 3a1.82 1.82 0 0 1-1.65.07zm8.11 4.68l-5.25-3c-.42-.24-.37-.67.12-.95l5.2-3a1.83 1.83 0 0 1 1.64-.07l5.25 3c.42.24.37.67-.12 1l-5.2 3a1.83 1.83 0 0 1-1.64.02zm8.1 4.68l-5.25-3c-.42-.24-.36-.67.12-.95l5.2-3a1.83 1.83 0 0 1 1.64-.07l5.25 3c.42.24.37.67-.12 1l-5.2 3a1.83 1.83 0 0 1-1.64.02zm8.1 4.68l-5.24-3c-.42-.25-.37-.67.11-.95l5.2-3a1.85 1.85 0 0 1 1.65-.07l5.24 3c.43.24.37.67-.11.95l-5.2 3a1.85 1.85 0 0 1-1.65.07zm-60.98-44.32l-5.25-3c-.42-.25-.37-.67.12-.95l5.2-3a1.83 1.83 0 0 1 1.64-.07l5.25 3c.42.24.37.67-.12.95l-5.2 3a1.83 1.83 0 0 1-1.64.07zm-8.23-4.75l-5.24-3c-.43-.24-.37-.67.11-.95l5.2-3a1.85 1.85 0 0 1 1.65-.07l5.24 3c.42.24.37.67-.12 1l-5.19 3a1.85 1.85 0 0 1-1.65.02zm-8.23-4.76l-11.31-6.52c-.42-.24-.36-.67.12-.95l5.2-3a1.83 1.83 0 0 1 1.64-.07l11.31 6.52c.42.25.36.67-.12.95l-5.2 3a1.8 1.8 0 0 1-1.64.07zm5.75-5.78l-9.17-5.29c-.42-.25-.37-.67.12-.95l5.2-3a1.8 1.8 0 0 1 1.64-.06l9.17 5.29c.42.24.37.67-.11.95l-5.2 3a1.85 1.85 0 0 1-1.65.06zm18.81 19.97l-5.25-3c-.42-.25-.37-.67.12-.95l5.2-3a1.77 1.77 0 0 1 1.64-.07l5.25 3c.42.24.37.67-.12.95l-5.2 3a1.83 1.83 0 0 1-1.64.07zm8.1 4.67l-5.24-3c-.43-.24-.37-.66.11-.94l5.2-3a1.82 1.82 0 0 1 1.65-.06l5.24 3c.42.24.37.66-.12.94l-5.19 3a1.82 1.82 0 0 1-1.65.06zm8.11 4.68l-5.25-3c-.42-.24-.37-.67.12-.95l5.2-3a1.83 1.83 0 0 1 1.64-.07l5.25 3c.42.25.36.67-.12.95l-5.2 3a1.8 1.8 0 0 1-1.64.07zm8.1 4.68l-5.25-3c-.42-.24-.37-.67.12-.95l5.2-3a1.83 1.83 0 0 1 1.64-.07l5.25 3c.42.24.37.67-.12 1l-5.2 3a1.83 1.83 0 0 1-1.64.02zm8.1 4.68l-5.25-3c-.42-.24-.36-.67.12-.95l5.2-3a1.83 1.83 0 0 1 1.64-.07l5.25 3c.42.24.37.67-.12 1l-5.2 3a1.83 1.83 0 0 1-1.64.02zm8.1 4.68l-5.24-3c-.42-.25-.37-.67.12-.95l5.19-3a1.85 1.85 0 0 1 1.65-.07l5.24 3c.43.24.37.67-.11.95l-5.2 3a1.85 1.85 0 0 1-1.65.07zm8.11 4.68l-5.25-3c-.42-.25-.37-.67.12-.95l5.2-3a1.77 1.77 0 0 1 1.64-.07l5.25 3c.42.24.37.66-.12.95l-5.2 3a1.83 1.83 0 0 1-1.64.07zm8.1 4.67l-5.25-3c-.42-.24-.37-.66.12-.94l5.2-3a1.8 1.8 0 0 1 1.64-.06l5.25 3c.42.25.37.67-.12.95l-5.2 3a1.8 1.8 0 0 1-1.64.05zm8.1 4.68l-5.24-3c-.43-.24-.37-.67.11-1l5.2-3a1.85 1.85 0 0 1 1.65-.07l5.24 3c.42.25.37.67-.11.95l-5.2 3a1.85 1.85 0 0 1-1.65.12zm14.41 8.32l-11.45-6.61c-.42-.24-.37-.67.12-.95l5.2-3a1.83 1.83 0 0 1 1.64-.07l11.45 6.61c.42.24.37.67-.12.95l-5.2 3a1.83 1.83 0 0 1-1.64.07zm15.77-9.11l-9.66-5.58c-.42-.24-.37-.67.12-.95l5.2-3a1.83 1.83 0 0 1 1.64-.07l9.66 5.58c.43.25.37.67-.11.95l-5.2 3a1.85 1.85 0 0 1-1.65.07zm-80.81-37.55l-5.25-3c-.42-.24-.37-.67.12-.95l5.2-3a1.83 1.83 0 0 1 1.64-.07l5.25 3c.42.24.37.67-.12.95l-5.2 3a1.83 1.83 0 0 1-1.64.07zm-8.31-4.79l-5.24-3c-.42-.25-.37-.67.12-.95l5.19-3a1.79 1.79 0 0 1 1.65-.07l5.25 3c.42.24.36.67-.12.95l-5.2 3a1.85 1.85 0 0 1-1.65.07zm-8.3-4.8l-5.25-3c-.42-.24-.37-.67.12-.95l5.2-3a1.83 1.83 0 0 1 1.64-.07l5.25 3c.42.25.37.67-.12.95l-5.2 3a1.83 1.83 0 0 1-1.64.07zm-8.3-4.79l-5.25-3c-.42-.25-.37-.67.12-.95l5.2-3a1.83 1.83 0 0 1 1.64-.07l5.25 3c.42.24.36.67-.12 1l-5.2 3a1.83 1.83 0 0 1-1.64.02zm33.01 19.06l-5.24-3c-.43-.24-.37-.67.11-.95l5.2-3a1.85 1.85 0 0 1 1.65-.07l5.24 3c.42.24.37.67-.12.95l-5.19 3a1.85 1.85 0 0 1-1.65.07zm8.11 4.68l-5.25-3c-.42-.25-.37-.67.12-.95l5.2-3a1.83 1.83 0 0 1 1.64-.07l5.25 3c.42.24.36.67-.12.95l-5.2 3a1.83 1.83 0 0 1-1.64.07zm8.11 4.68l-5.25-3c-.42-.25-.37-.67.12-.95l5.2-3a1.77 1.77 0 0 1 1.64-.07l5.25 3c.42.24.37.66-.12.95l-5.2 3a1.83 1.83 0 0 1-1.64.07zm8.09 4.67l-5.25-3c-.42-.24-.36-.66.12-.94l5.2-3a1.8 1.8 0 0 1 1.64-.06l5.25 3c.42.25.37.67-.12.95l-5.2 3a1.8 1.8 0 0 1-1.64.05zm8.1 4.68l-5.24-3c-.42-.24-.37-.67.12-.95l5.19-3a1.85 1.85 0 0 1 1.65-.07l5.24 3c.43.25.37.67-.11.95l-5.2 3a1.85 1.85 0 0 1-1.65.07zm8.11 4.68l-5.25-3c-.42-.24-.37-.67.12-.95l5.2-3a1.83 1.83 0 0 1 1.64-.07l5.25 3c.42.24.37.67-.12 1l-5.2 3a1.83 1.83 0 0 1-1.64.02zm8.1 4.68l-5.25-3c-.42-.24-.37-.67.12-.95l5.2-3a1.83 1.83 0 0 1 1.64-.07l5.25 3c.42.24.37.67-.12.95l-5.2 3a1.83 1.83 0 0 1-1.64.07zm8.1 4.68l-5.24-3c-.43-.25-.37-.67.11-.95l5.2-3a1.85 1.85 0 0 1 1.65-.07l5.24 3c.42.24.37.67-.11.95l-5.2 3a1.85 1.85 0 0 1-1.65.07zm8.11 4.72l-5.25-3c-.42-.25-.37-.67.12-.95l5.2-3a1.8 1.8 0 0 1 1.64-.06l5.25 3c.42.24.37.66-.12.94l-5.2 3a1.8 1.8 0 0 1-1.64.07zm-77.2-53.72l-5.24-3c-.43-.24-.37-.67.11-.95l5.2-3a1.85 1.85 0 0 1 1.65-.07l5.24 3c.42.24.37.67-.11 1l-5.2 3a1.85 1.85 0 0 1-1.65.02zm-8.06-4.66l-5.25-3c-.42-.24-.37-.66.12-.94l5.2-3a1.8 1.8 0 0 1 1.64-.06l5.25 3c.42.24.37.66-.12.94l-5.2 3a1.8 1.8 0 0 1-1.64.06zm-8.06-4.62l-5.25-3c-.42-.24-.37-.67.12-.95l5.2-3a1.83 1.83 0 0 1 1.64-.07l5.25 3c.42.24.37.67-.12 1l-5.2 3a1.83 1.83 0 0 1-1.64.02zm-8.07-4.69l-5.24-3c-.42-.24-.37-.66.12-.94l5.19-3a1.82 1.82 0 0 1 1.65-.06l5.25 3c.42.24.36.66-.12.94l-5.2 3a1.82 1.82 0 0 1-1.65.06zm8.3-4.78l-5.25-3c-.42-.25-.37-.67.12-.95l1.72-1a1.83 1.83 0 0 1 1.64-.07l5.25 3c.42.24.36.67-.12.95l-1.72 1a1.83 1.83 0 0 1-1.64.07zM404 242.6l-5.25-3c-.42-.24-.37-.67.12-.95l1.72-1a1.83 1.83 0 0 1 1.64-.07l5.25 3c.42.25.37.67-.12.95l-1.72 1a1.8 1.8 0 0 1-1.64.07zm8.07 4.64l-5.25-3c-.42-.24-.37-.67.12-1l1.72-1a1.83 1.83 0 0 1 1.64-.07l5.25 3c.42.24.37.67-.12 1l-1.72 1a1.83 1.83 0 0 1-1.64.07zm8.03 4.63l-5.25-3c-.42-.24-.37-.66.12-1l1.72-1a1.83 1.83 0 0 1 1.64-.07l5.25 3c.42.25.36.67-.12.95l-1.72 1a1.8 1.8 0 0 1-1.64.12zm8.02 4.64l-5.24-3c-.42-.24-.37-.67.12-.95l1.71-1a1.85 1.85 0 0 1 1.65-.07l5.24 3c.43.24.37.67-.11.95l-1.72 1a1.85 1.85 0 0 1-1.65.07zM473 282.39l-5.25-3c-.42-.24-.37-.67.12-.95l1.72-1a1.83 1.83 0 0 1 1.64-.07l5.25 3c.42.24.37.67-.12.95l-1.72 1a1.83 1.83 0 0 1-1.64.07zm8 4.61l-5.25-3c-.42-.24-.37-.66.12-.94l1.72-1a1.8 1.8 0 0 1 1.64-.06l5.25 3c.42.25.37.67-.12.95l-1.72 1a1.8 1.8 0 0 1-1.64.05zm8 4.66l-5.25-3c-.42-.24-.37-.67.12-.95l1.72-1a1.83 1.83 0 0 1 1.64-.07l5.25 3c.42.24.37.67-.12 1l-1.72 1a1.83 1.83 0 0 1-1.64.02zm8 4.64l-5.25-3c-.42-.25-.37-.67.12-.95l1.72-1a1.8 1.8 0 0 1 1.64-.06l5.25 3c.42.24.37.66-.12.94l-1.72 1a1.83 1.83 0 0 1-1.64.07zM417.52 260l-5.25-3c-.42-.25-.37-.67.12-1l5.2-3a1.83 1.83 0 0 1 1.64-.07l5.25 3c.42.24.36.67-.12.95l-5.2 3a1.83 1.83 0 0 1-1.64.12zm8.1 4.64l-5.25-3c-.42-.25-.37-.67.12-.95l5.2-3a1.77 1.77 0 0 1 1.64-.07l5.25 3c.42.24.37.66-.12.95l-5.2 3a1.83 1.83 0 0 1-1.64.07zm8.1 4.67l-5.25-3c-.42-.24-.36-.66.12-.94l5.2-3a1.82 1.82 0 0 1 1.65-.06l5.24 3c.42.24.37.66-.12.94l-5.19 3a1.82 1.82 0 0 1-1.65.06zm8.1 4.69l-5.24-3c-.42-.24-.37-.67.12-.95l5.19-3a1.85 1.85 0 0 1 1.65-.07l5.25 3c.42.25.36.67-.12.95l-5.2 3a1.82 1.82 0 0 1-1.65.07zm8.11 4.67l-5.25-3c-.42-.24-.37-.67.12-.95l5.2-3a1.83 1.83 0 0 1 1.64-.07l5.25 3c.42.24.37.67-.12 1l-5.2 3a1.83 1.83 0 0 1-1.64.02zm8.07 4.68l-5.25-3c-.42-.24-.37-.67.12-.95l5.2-3a1.83 1.83 0 0 1 1.64-.07l5.25 3c.42.24.37.67-.12.95l-5.2 3a1.83 1.83 0 0 1-1.64.07zm8.13 4.65l-5.24-3c-.42-.25-.37-.67.11-.95l5.2-3a1.85 1.85 0 0 1 1.65-.07l5.24 3c.43.24.37.67-.11.95l-5.2 3a1.85 1.85 0 0 1-1.65.07zm8.11 4.7l-5.25-3c-.42-.25-.37-.67.12-.95l5.2-3a1.77 1.77 0 0 1 1.64-.07l5.25 3c.42.24.37.66-.12.95l-5.2 3a1.8 1.8 0 0 1-1.64.07zm8.1 4.68l-5.25-3c-.42-.24-.37-.66.12-1l5.2-3a1.8 1.8 0 0 1 1.64-.06l5.25 3c.42.25.37.67-.12.95l-5.2 3a1.8 1.8 0 0 1-1.64.11zm-111.15-36.85l-15.45-8.92c-.42-.24-.37-.67.11-1l5.2-3a1.85 1.85 0 0 1 1.65-.07l15.45 8.93c.42.24.37.66-.12 1l-5.2 3a1.8 1.8 0 0 1-1.64.06zM470.74 318l-15.46-8.92c-.42-.25-.36-.67.12-.95l5.2-3a1.8 1.8 0 0 1 1.64-.07L477.7 314c.42.24.37.67-.12.95l-5.2 3a1.83 1.83 0 0 1-1.64.05zm-32.41-8.37l-5.25-3c-.42-.24-.36-.66.12-1l6.2-3.57a1.83 1.83 0 0 1 1.6-.06l5.25 3c.42.24.37.67-.12.95l-6.13 3.61a1.79 1.79 0 0 1-1.67.07zm-58.84-33.97l-8.39-4.85c-.43-.24-.37-.66.11-.94l6.2-3.58a1.83 1.83 0 0 1 1.64-.07l8.39 4.85c.42.24.37.66-.12.95l-6.19 3.57a1.83 1.83 0 0 1-1.64.07zm51.03 29.47l-8.39-4.85c-.42-.24-.37-.67.12-.95l6.19-3.57a1.82 1.82 0 0 1 1.65-.07l8.39 4.84c.42.25.37.67-.12 1l-6.19 3.58a1.85 1.85 0 0 1-1.65.02zm-39.34-22.72l-8.39-4.85c-.42-.24-.37-.66.12-.94l6.19-3.62a1.83 1.83 0 0 1 1.64-.07l8.39 4.85c.42.24.37.66-.11.95l-6.2 3.57a1.83 1.83 0 0 1-1.64.11z" transform="translate(-235.87 -118.57)"/><path class="cls-8" d="M390.8 273l36.48 21.07c.46.26.46.68 0 .94l-6.28 3.65a1.82 1.82 0 0 1-1.64 0l-36.52-21.06zm70.2 45.12l5.84 3.37c.35.2.3.55-.09.78l-2.54 1.46a1.48 1.48 0 0 1-1.34.06l-5.87-3.38c-.34-.2-.3-.55.1-.78l2.53-1.46a1.5 1.5 0 0 1 1.37-.05zm-8.19-4.72l5.84 3.37c.35.2.3.55-.09.78L456 319a1.48 1.48 0 0 1-1.34.06l-5.85-3.38c-.34-.19-.3-.54.1-.77l2.53-1.47a1.5 1.5 0 0 1 1.37-.04zm-8.1-4.68l5.84 3.37c.34.2.3.55-.1.78l-2.53 1.46a1.47 1.47 0 0 1-1.35.06l-5.84-3.39c-.35-.2-.3-.55.09-.78l2.54-1.46a1.5 1.5 0 0 1 1.35-.04zm12.57 2.09l5.85 3.38c.34.2.3.55-.1.78l-2.53 1.46a1.53 1.53 0 0 1-1.35.06l-5.84-3.38c-.35-.2-.31-.55.09-.78l2.54-1.46a1.51 1.51 0 0 1 1.34-.06z" transform="translate(-235.87 -118.57)"/><path class="cls-7" d="M266.96 83.5l-52.7-30.43.68-3.42 52.7 30.43-.68 3.42zm-18.87 5.78L211.3 68.04l.68-3.42 36.78 21.24-.67 3.42z"/><path class="cls-6" d="M244.61 78.93l-31.83-18.37.68-3.43 31.82 18.38-.67 3.42z"/><path class="cls-9" d="M265.48 90.98l-15.91-9.18.68-3.43 15.91 9.19-.68 3.42z"/><path fill="#0a2d60" d="M266.47 117.18l-9.31 44.14-33.43-19.29 7.3-14.35 35.44-10.5z"/><path class="cls-7" d="M398.77 303.6a14 14 0 0 1 0-24.16l46.74-27L493 279.89l-41 23.71a53.22 53.22 0 0 1-53.23 0z" transform="translate(-235.87 -118.57)"/><path class="cls-5" d="M205.77 48.53l-16.44-9.49.7-3.54 16.44 9.49-.7 3.54z"/><path class="cls-6" d="M204.31 56.04l-16.44-9.5.7-3.54 16.44 9.5-.7 3.54z"/><path class="cls-7" d="M298.19 255c-7.53-4.18-12.23-13.33-12.27-26.44-.08-25.94 18.1-57.66 40.53-70.7l16.18-9.41.78.44 74.24 41.75-18.79 12.26-7.06 5.17-9.72 10.15-1.56 1.43-10.35 15.67-3.79 9.81-2.82 7.8-2.31 16.37-.16 1.41.84 6.91 2.38 8.54 3.37 5.79 4.9 5.81z" transform="translate(-235.87 -118.57)"/><path class="cls-5" d="M428.1 190.36v2.75l-49.27 28.6a17.65 17.65 0 0 1 4-5.09z" transform="translate(-235.87 -118.57)"/><path class="cls-5" d="M266.46 114.43l-74.23-42.64-44.95 26.98-5.62 6.55-8.45 14.85-5.31 14.84-1.73 11.6-.22 11.58 7.25 16.56 9.43 5.51 9.69.51 11.63-4.83 91.92-54.07 10.59-7.44z"/><path class="cls-3" d="M298.21 255c-6.3-3.49-10.6-10.49-11.87-20.35l75.72 43.4 2.25 8.07 3.37 5.79 4.9 5.81L298.19 255z" transform="translate(-235.87 -118.57)"/><path class="cls-2" d="M286.63 236.59a46.44 46.44 0 0 1-.69-8q0-2.86.29-5.81l75.48 43.26-.46 3.25-.16 1.41.84 6.91.7 2.53z" transform="translate(-235.87 -118.57)"/><path class="cls-2" d="M502.35 235.75V233L401 291.89c-21.11 12.28-38.36 2.4-38.43-22s17-54.29 38.15-66.57l17-9.87v-2.74l-17 9.86c-22.42 13-40.6 44.76-40.52 70.7s18.39 36.44 40.82 23.4z" transform="translate(-235.87 -118.57)"/><path class="cls-7" d="M226.02 122.45l-45.63-26.61-2.86 1.64 45.63 26.6 2.86-1.63zm-1.27-15.18L192.9 88.69l-2.86 1.64 31.85 18.57 2.86-1.63zm-10.55 1.06l-27.55-16.06-2.87 1.63 27.56 16.07 2.86-1.64zm18.08 10.54l-13.78-8.03-2.86 1.64 13.77 8.03 2.87-1.64z"/><path class="cls-1" d="M13.76 156.91L0 148.97l13.76-7.95 13.77 7.95-13.77 7.94z"/><path class="cls-11" d="M27.53 139.95l-13.77 7.95V132l13.77-7.94v15.89z"/><path class="cls-9" d="M13.76 132L0 124.06l13.76-7.95 13.77 7.95L13.76 132z"/><path class="cls-9" d="M13.76 147.9L0 139.95v-15.89L13.76 132v15.9z"/><path class="cls-1" d="M328.84 159.83l-15.33-8.85 15.33-8.85 15.33 8.85-15.33 8.85z"/><path class="cls-2" d="M344.17 140.94l-15.33 8.85v-17.7l15.33-8.85v17.7z"/><path class="cls-5" d="M328.84 132.09l-15.33-8.85 15.33-8.85 15.33 8.85-15.33 8.85z"/><path class="cls-7" d="M328.84 149.79l-15.33-8.85v-17.7l15.33 8.85v17.7z"/><path class="cls-1" d="M109.04 265.17l-15.33-8.85 15.33-8.85 15.33 8.85-15.33 8.85z"/><path class="cls-2" d="M124.37 246.28l-15.33 8.85v-17.7l15.33-8.85v17.7z"/><path class="cls-5" d="M109.04 237.43l-15.33-8.85 15.33-8.86 15.33 8.86-15.33 8.85z"/><path class="cls-7" d="M109.04 255.13l-15.33-8.85v-17.7l15.33 8.85v17.7z"/><ellipse class="cls-7" cx="163.36" cy="128.91" rx="23.29" ry="13.45"/><path class="cls-11" d="M422.53 240.56v-4.28h-1.24a14.84 14.84 0 0 0-5.59-5.23c-9.09-5.25-23.84-5.25-32.94 0a14.91 14.91 0 0 0-5.59 5.23h-1.23v4.25c0 3.45 2.26 6.91 6.82 9.54 9.1 5.25 23.85 5.25 32.95 0 4.54-2.62 6.82-6.07 6.82-9.51z" transform="translate(-235.87 -118.57)"/><ellipse class="cls-9" cx="163.36" cy="117.71" rx="23.29" ry="13.45"/><path class="cls-6" d="M415.71 245.79c-9.1 5.25-23.85 5.25-32.95 0-4.36-2.52-6.61-5.79-6.79-9.08-.19 3.58 2 7.2 6.79 9.93 9.1 5.26 23.85 5.26 32.95 0 4.73-2.73 7-6.35 6.78-9.93-.18 3.29-2.43 6.56-6.78 9.08z" transform="translate(-235.87 -118.57)"/><path class="cls-6" d="M388 240.73a1 1 0 0 1-.62-.86v-8.76c0-.67.95-1.21 2.1-1.21s2.1.55 2.1 1.21v7.27l21.09-2.58c1.13-.14 2.24.28 2.48.93s-.48 1.3-1.61 1.44l-23.63 2.89a3.26 3.26 0 0 1-1.75-.24z" transform="translate(-235.87 -118.57)"/><path class="cls-9" d="M501.2 215.41a1.63 1.63 0 0 1-2.35.73 2 2 0 0 1-.84-2.57 1.63 1.63 0 0 1 2.35-.72 2 2 0 0 1 .84 2.56z" transform="translate(-235.87 -118.57)"/><path class="cls-6" d="M506.83 218.66a1.63 1.63 0 0 1-2.35.73 2 2 0 0 1-.84-2.57 1.63 1.63 0 0 1 2.35-.72 2 2 0 0 1 .84 2.56z" transform="translate(-235.87 -118.57)"/><path class="cls-5" d="M512.46 221.91a1.63 1.63 0 0 1-2.35.73 2 2 0 0 1-.84-2.57 1.63 1.63 0 0 1 2.35-.72 2 2 0 0 1 .84 2.56z" transform="translate(-235.87 -118.57)"/><path class="cls-9" d="M518.09 225.16a1.63 1.63 0 0 1-2.35.73 2 2 0 0 1-.84-2.57 1.62 1.62 0 0 1 2.35-.72 2 2 0 0 1 .84 2.56z" transform="translate(-235.87 -118.57)"/><path class="cls-2" d="M343.43 148.93l-.78-.44-16.18 9.41a69.05 69.05 0 0 0-15 12.1l27.71 16 34.64-20z" transform="translate(-235.87 -118.57)"/><path class="cls-9" d="M373 149.41l-5-2.9 18.53-10.7a1 1 0 0 0 0-1.83l-18.93-10.93a3.5 3.5 0 0 0-3.18 0l-18.53 10.7-5-2.91 18.53-10.69a14.6 14.6 0 0 1 13.22 0l18.93 10.93c3.65 2.1 3.65 5.53 0 7.63z" transform="translate(-235.87 -118.57)"/><path class="cls-5" d="M381.15 150.69c0-2.69-1.63-5.81-3.65-7l-33.57-19.39a2.33 2.33 0 0 0-2.36-.2l-40.09 23.29 38.76 29.21 39.5-22.92a1.45 1.45 0 0 0 .34-.2 3.46 3.46 0 0 0 1.07-2.79z" transform="translate(-235.87 -118.57)"/><path class="cls-7" d="M340.24 176.63l39.5-22.92a1.45 1.45 0 0 0 .34-.2 3.46 3.46 0 0 0 1.06-2.82 9 9 0 0 0-1-3.89l-45 26z" transform="translate(-235.87 -118.57)"/><path class="cls-7" d="M337.72 176.53l-33.57-19.38c-2-1.17-3.65-4.29-3.65-7 0-2.68 1.63-3.92 3.65-2.75l33.57 19.38c2 1.16 3.65 4.28 3.65 7 0 2.68-1.64 3.91-3.65 2.75z" transform="translate(-235.87 -118.57)"/><path class="cls-6" d="M338.12 166.62l-33.57-19.39a2.34 2.34 0 0 0-2.41-.17 2.57 2.57 0 0 1 2 .36l33.57 19.38c2 1.16 3.65 4.28 3.65 7a3.24 3.24 0 0 1-1.24 2.93c1-.3 1.64-1.42 1.64-3.11.01-2.72-1.62-5.84-3.64-7z" transform="translate(-235.87 -118.57)"/><path class="cls-6" d="M332.69 170l-4-2.33a1.73 1.73 0 0 1-.72-1.39c0-.53.32-.78.72-.55l4 2.33a1.77 1.77 0 0 1 .73 1.39c0 .55-.33.77-.73.55z" transform="translate(-235.87 -118.57)"/><path class="cls-7" d="M337.24 142.43a1.35 1.35 0 0 0 0-2.56 4.92 4.92 0 0 0-4.44 0c-1.22.72-1.21 1.86 0 2.56a4.9 4.9 0 0 0 4.44 0z" transform="translate(-235.87 -118.57)"/><path class="cls-6" d="M344 146.24a1.35 1.35 0 0 0 0-2.56 4.92 4.92 0 0 0-4.44 0c-1.22.72-1.21 1.86 0 2.56a4.9 4.9 0 0 0 4.44 0zm6.76 3.81a1.35 1.35 0 0 0 0-2.56 4.92 4.92 0 0 0-4.44 0c-1.22.72-1.21 1.86 0 2.56a4.9 4.9 0 0 0 4.44 0z" transform="translate(-235.87 -118.57)"/><path class="cls-1" d="M270.68 353.55L240 335.82c-1.89-1.09-1.65-3 .52-4.24l29.65-17.12a8.15 8.15 0 0 1 7.35-.3l30.7 17.72c1.89 1.09 1.65 3-.53 4.25L278 353.24a8.18 8.18 0 0 1-7.32.31z" transform="translate(-235.87 -118.57)"/><path class="cls-3" d="M309.46 323.31v-10.59h-23.75L277.5 308a8.18 8.18 0 0 0-7.35.31l-7.66 4.42h-23.78v10.89a2.13 2.13 0 0 0 1.27 2l30.7 17.73A8.15 8.15 0 0 0 278 343l29.64-17.11c1.29-.77 1.9-1.71 1.82-2.58z" transform="translate(-235.87 -118.57)"/><path class="cls-3" d="M274.09 307.24a8.46 8.46 0 0 0-3.94 1l-7.66 4.42h-23.78v10.89a2.13 2.13 0 0 0 1.27 2l30.7 17.73a6.66 6.66 0 0 0 3.41.73z" transform="translate(-235.87 -118.57)"/><path class="cls-7" d="M241.41 312.68h-2.7v10.89a2.13 2.13 0 0 0 1.27 2l1.43.83zm29.74 30.82a8.34 8.34 0 0 0 5.88-.07v-12.37h-5.88z" transform="translate(-235.87 -118.57)"/><path class="cls-5" d="M270.68 332.41L240 314.69c-1.89-1.09-1.65-3 .52-4.25l29.65-17.11a8.15 8.15 0 0 1 7.35-.31l30.7 17.73c1.89 1.09 1.65 3-.53 4.24L278 332.11c-2.15 1.25-5.44 1.39-7.32.3z" transform="translate(-235.87 -118.57)"/><path class="cls-6" d="M307.67 312.91L278 330a8.15 8.15 0 0 1-7.35.31L240 312.6a2.76 2.76 0 0 1-.94-.83c-.65 1-.36 2.17.94 2.92l30.7 17.72c1.88 1.09 5.17.95 7.35-.3L307.67 315c1.7-1 2.21-2.34 1.47-3.41a4 4 0 0 1-1.47 1.32z" transform="translate(-235.87 -118.57)"/><path class="cls-5" d="M298.17 326.11a2.71 2.71 0 0 1-1.24 2.14c-.68.4-1.24.08-1.24-.71a2.77 2.77 0 0 1 1.24-2.15c.69-.39 1.24-.07 1.24.72zm3.99-2.31a2.72 2.72 0 0 1-1.24 2.15c-.68.4-1.24.08-1.24-.72a2.73 2.73 0 0 1 1.24-2.14c.69-.4 1.24-.09 1.24.71zm3.99-2.3a2.74 2.74 0 0 1-1.24 2.15c-.68.39-1.24.07-1.24-.72a2.77 2.77 0 0 1 1.24-2.15c.69-.39 1.24-.07 1.24.72z" transform="translate(-235.87 -118.57)"/><path class="cls-7" d="M272.49 321.42l-14.36-8.29c-.88-.51-.77-1.4.24-2l13.88-8a3.84 3.84 0 0 1 3.44-.14l14.36 8.3c.88.5.77 1.39-.24 2l-13.88 8a3.81 3.81 0 0 1-3.44.13z" transform="translate(-235.87 -118.57)"/><path class="cls-5" d="M273.87 314.48l-2-1.15c-.12-.07-.11-.19 0-.27l1.91-1.11a.54.54 0 0 1 .48 0l2 1.15c.12.07.11.19 0 .27l-1.91 1.11a.54.54 0 0 1-.48 0z" transform="translate(-235.87 -118.57)"/><path class="cls-3" d="M258.13 313.13l.2-.14 13.88-8a3.81 3.81 0 0 1 3.44-.14l14.35 8.28c.82-.58.86-1.37 0-1.84L275.69 303a3.84 3.84 0 0 0-3.44.14l-13.88 8c-1.01.59-1.12 1.48-.24 1.99z" transform="translate(-235.87 -118.57)"/></svg>