<svg id="Ñëîé_1" data-name="Ñëîé 1" xmlns="http://www.w3.org/2000/svg" viewBox="0 0 282.36 217.6"><defs><style>.cls-2{fill:#173d7a;opacity:.5}.cls-4{fill:#e4141a}.cls-5{fill:#fff}.cls-6{fill:#5793ce}.cls-7{fill:#d4ecff}</style><clipPath id="clip-path" transform="translate(-242.73 -143.32)"><ellipse cx="294.21" cy="254.74" rx="36.88" ry="63.88" transform="matrix(.87 -.5 .5 .87 -87.95 181.24)" fill="none"/></clipPath></defs><path class="cls-2" d="M516.16 299.87L473 275c-1.84-1.07-1.61-2.92.52-4.15a8 8 0 0 1 7.17-.29l43.16 24.91c1.84 1.07 1.61 2.92-.52 4.15a8 8 0 0 1-7.17.25z" transform="translate(-242.73 -143.32)"/><path d="M520.82 242.36L476 216.48a2.29 2.29 0 0 0-2.32-.18l-4.35 2.51 3.05 1.12v32.64c0 2.65 1.62 5.74 3.61 6.89l42.84 24.73V288l4.39-2.53a3.19 3.19 0 0 0 1.22-2.87v-33.35c-.01-2.65-1.63-5.74-3.62-6.89z" transform="translate(-242.73 -143.32)" fill="#b7161b"/><path class="cls-4" d="M516.39 287.86L471.57 262c-2-1.15-3.6-4.24-3.6-6.89v-33.35c0-2.65 1.61-3.87 3.6-2.73l44.82 25.88c2 1.15 3.61 4.24 3.61 6.89v33.33c0 2.66-1.61 3.87-3.61 2.73z" transform="translate(-242.73 -143.32)"/><path class="cls-5" d="M517.49 244.12l-44.82-25.88a2.09 2.09 0 0 0-3 .44 2.51 2.51 0 0 1 1.91.35l44.82 25.88c2 1.15 3.61 4.24 3.61 6.89v33.33a4.05 4.05 0 0 1-.59 2.29c1-.26 1.69-1.37 1.69-3.08V251c-.01-2.65-1.62-5.73-3.62-6.88zm-30.84 6.37c0 1.93-1.36 2.71-3 1.75a6.68 6.68 0 0 1-3-5.24c0-1.93 1.35-2.71 3-1.74a6.68 6.68 0 0 1 3 5.23z" transform="translate(-242.73 -143.32)"/><path class="cls-5" d="M495.81 255.78c0 1.93-1.36 2.71-3 1.75a6.68 6.68 0 0 1-3-5.24c0-1.93 1.35-2.71 3-1.74a6.68 6.68 0 0 1 3 5.23zm9.19 5.29c0 1.93-1.35 2.71-3 1.75a6.7 6.7 0 0 1-3-5.24c0-1.93 1.36-2.71 3-1.74a6.66 6.66 0 0 1 3 5.23z" transform="translate(-242.73 -143.32)"/><path class="cls-2" d="M362.49 358.1l66.93-38.64c7.25-4.19 6.34-11.49-2-16.32-8.36-4.83-21-5.36-28.26-1.18l-66.96 38.65c-7.25 4.18-6.34 11.49 2 16.32 8.39 4.83 21.05 5.35 28.29 1.17z" transform="translate(-242.73 -143.32)"/><path class="cls-6" d="M400.79 286.79v-8.53l10.09-50.87-10-6.16-20 11-.14 65.56c0 4.41 1.64 7.4 4.18 8.37l8.89 5.59 1.11-4.23 1.53-7.69a24.41 24.41 0 0 0 4.34-13.04z" transform="translate(-242.73 -143.32)"/><path class="cls-6" d="M400.74 311.58c-5.51 3-10-.36-10-7.6l.14-65.56 20-11-.12 65.58c-.02 7.19-4.5 15.53-10.02 18.58z" transform="translate(-242.73 -143.32)"/><ellipse class="cls-4" cx="428.57" cy="177.02" rx="21.31" ry="36.9" transform="rotate(-30 39.784 558.3)"/><path class="cls-4" d="M204.55 65.5l-75.93 43.55-40.83-61.33 79.12-45.68 37.64 63.46z"/><path class="cls-7" d="M417.41 214.31c0-17.12-12-37.93-26.83-46.49-6.74-3.89-12.89-4.57-17.6-2.56l-.1.05-.12.06c-.21.09-.41.19-.61.3a188 188 0 0 1-90.25 19.14l-8.85-.34 72 123.36 3.9-7.53a188 188 0 0 1 60.49-68.54c4.91-2.76 7.97-8.82 7.97-17.45z" transform="translate(-242.73 -143.32)"/><path class="cls-7" d="M353.43 279.94c0-32.83-23.05-72.75-51.48-89.17-14.18-8.19-27-9-36.34-3.65h-.12l-8.44 4.95 2.95-.62c-6 6.26-9.54 16.12-9.54 29 0 32.84 23 72.76 51.49 89.18 11.15 6.44 21.48 8.3 29.92 6.21l-1.34 2 7.78-4.55.12-.07.28-.16c9.1-5.46 14.72-16.9 14.72-33.12z" transform="translate(-242.73 -143.32)"/><path class="cls-5" d="M347.41 283.46c0-32.83-23.06-72.76-51.49-89.17-14-8.08-26.67-9-35.95-3.86l-1.29.76c-.45.28-.88.57-1.3.88l2.62-.55c-6 6.26-9.54 16.12-9.54 29 0 32.84 23 72.76 51.49 89.18 11.15 6.44 21.48 8.3 29.92 6.21l-1.22 1.79c10.29-4.95 16.76-16.86 16.76-34.24z" transform="translate(-242.73 -143.32)"/><ellipse class="cls-6" cx="294.21" cy="254.74" rx="42.04" ry="72.81" transform="matrix(.87 -.5 .5 .87 -330.68 37.92)"/><ellipse cx="294.21" cy="254.74" rx="36.88" ry="63.88" transform="matrix(.87 -.5 .5 .87 -330.68 37.92)" fill="#173d7a"/><path class="cls-5" d="M296.32 306c-24.95-14.4-45.17-49.43-45.17-78.23 0-15.13 5.58-25.53 14.49-29.91-10.13 3.71-16.6 14.52-16.6 30.81 0 28.8 20.23 63.83 45.17 78.24 11.85 6.84 22.63 7.79 30.69 3.83-7.79 2.84-17.74 1.51-28.58-4.74z" transform="translate(-242.73 -143.32)"/><g clip-path="url(#clip-path)"><path class="cls-7" d="M44.72 100.62l65.55-50.68 23.79 41.29-76.92 31.57-12.42-22.18z"/><ellipse class="cls-6" cx="294.21" cy="254.74" rx="7.37" ry="12.76" transform="rotate(-30 -94.58 636.017)"/></g><path class="cls-5" d="M386 287.35l-.35-.2a5.65 5.65 0 0 1-2.38-4.52v-12.64c0-1.75 1.05-2.55 2.37-1.8l.35.2a5.66 5.66 0 0 1 2.38 4.52v12.65c-.04 1.74-1.1 2.55-2.37 1.79z" transform="translate(-242.73 -143.32)"/></svg>