<svg fill="none" height="10" width="7" xmlns="http://www.w3.org/2000/svg"><path d="M6.703 4.516a3.904 3.904 0 00-.825-1.287L5.59 2.93a.078.078 0 00-.034-.02.072.072 0 00-.04 0c-.012.004-.024.01-.034.02s-.017.023-.021.037l-.13.417a2.44 2.44 0 01-.438.791.06.06 0 01-.04.023.051.051 0 01-.043-.017.07.07 0 01-.02-.054c.036-.672-.143-1.431-.534-2.257C3.93 1.183 3.48.648 2.917.275l-.41-.272c-.007-.012-.123.011-.12.082L2.41.62c.015.367-.023.69-.112.96a3.34 3.34 0 01-.467.911c-.14.191-.299.364-.473.515-.42.363-.76.827-.997 1.358A4.287 4.287 0 000 6.09c0 .528.092 1.038.275 1.52.177.464.432.885.751 1.24.322.357.696.639 1.113.835a3.184 3.184 0 002.722.001 3.47 3.47 0 001.113-.835c.322-.358.575-.776.75-1.24A4.25 4.25 0 007 6.091c0-.545-.1-1.075-.297-1.575z" fill="#b62b2f"/></svg>