<svg fill="none" height="20" width="15" xmlns="http://www.w3.org/2000/svg"><path d="M8.75 5.313V0H.937A.935.935 0 000 .938v18.125c0 .519.418.937.938.937h13.124c.52 0 .938-.418.938-.938V6.25H9.687a.94.94 0 01-.937-.938zm2.986 8.256L7.97 17.307a.666.666 0 01-.94 0l-3.766-3.738a.625.625 0 01.44-1.069H6.25V9.375c0-.345.28-.625.625-.625h1.25c.345 0 .625.28.625.625V12.5h2.546c.558 0 .836.675.44 1.069zm2.99-9.467L10.903.273A.937.937 0 0010.238 0H10v5h5v-.238a.935.935 0 00-.273-.66z" fill="#fff"/></svg>