<svg fill="none" height="30" width="18" xmlns="http://www.w3.org/2000/svg"><path d="M15.02 19.526v-3.81c0-8.501-3.73-13.636-5.29-15.41A.904.904 0 009.054 0a.907.907 0 00-.68.3C6.787 2.07 2.98 7.206 2.98 15.715v3.811L2.25 20C.844 20.916 0 22.446 0 24.083v4.548c0 .27.154.518.4.647a.78.78 0 00.78-.038l2.371-1.522a4.169 4.169 0 012.248-.656h1.743v2.204c0 .406.34.734.76.734H9.7c.42 0 .76-.328.76-.734v-2.204h1.74c.8 0 1.583.227 2.25.657l2.37 1.521a.78.78 0 00.778.038.733.733 0 00.401-.647v-4.548c0-1.635-.845-3.165-2.251-4.082zm-6.018-5.97c-1.449 0-2.624-1.132-2.624-2.528 0-1.397 1.175-2.528 2.624-2.528 1.447 0 2.622 1.131 2.622 2.528 0 1.396-1.175 2.528-2.623 2.528z" fill="#fff"/></svg>