<svg fill="none" height="31" width="18" xmlns="http://www.w3.org/2000/svg"><path d="M15.749 20.668a1.65 1.65 0 01-.729-1.37V16.24c0-8.785-3.73-14.09-5.29-15.925A.892.892 0 008.374.31C6.787 2.14 2.98 7.448 2.98 16.24v3.06c0 .55-.273 1.063-.73 1.369A5.084 5.084 0 000 24.886v4.7a.76.76 0 001.18.63l2.371-1.574a4.071 4.071 0 012.248-.678c.963 0 1.743.781 1.743 1.744v.534c0 .419.34.758.76.758H9.7c.42 0 .76-.34.76-.758v-.535c0-.962.78-1.743 1.742-1.743.8 0 1.583.235 2.25.679l2.37 1.572a.76.76 0 001.179-.63v-4.699a5.09 5.09 0 00-2.251-4.218zM9 14.008a2.62 2.62 0 01-2.623-2.612 2.619 2.619 0 012.624-2.613 2.618 2.618 0 012.622 2.613A2.619 2.619 0 019 14.008z" fill="#3c61e2"/></svg>