<svg width="35" height="34" viewBox="0 0 35 34" fill="none" xmlns="http://www.w3.org/2000/svg">
<path opacity="0.5" fill-rule="evenodd" clip-rule="evenodd" d="M3.6875 8.5C3.6875 7.9132 4.1632 7.4375 4.75 7.4375H28.8333C29.4201 7.4375 29.8958 7.9132 29.8958 8.5C29.8958 9.0868 29.4201 9.5625 28.8333 9.5625H4.75C4.1632 9.5625 3.6875 9.0868 3.6875 8.5ZM3.6875 15.5833C3.6875 14.9966 4.1632 14.5208 4.75 14.5208H17.5C18.0868 14.5208 18.5625 14.9966 18.5625 15.5833C18.5625 16.1701 18.0868 16.6458 17.5 16.6458H4.75C4.1632 16.6458 3.6875 16.1701 3.6875 15.5833ZM3.6875 22.6667C3.6875 22.0799 4.1632 21.6042 4.75 21.6042H16.0833C16.6701 21.6042 17.1458 22.0799 17.1458 22.6667C17.1458 23.2535 16.6701 23.7292 16.0833 23.7292H4.75C4.1632 23.7292 3.6875 23.2535 3.6875 22.6667Z" fill="#1C274C"/>
<path fill-rule="evenodd" clip-rule="evenodd" d="M24.5404 24.8346C24.9553 25.2495 25.6279 25.2495 26.0429 24.8346L29.5846 21.2929C29.9995 20.878 29.9995 20.2053 29.5846 19.7904C29.1696 19.3755 28.497 19.3755 28.082 19.7904L26.3541 21.5182V12.75C26.3541 12.1632 25.8784 11.6875 25.2916 11.6875C24.7048 11.6875 24.2291 12.1632 24.2291 12.75V21.5182L22.5012 19.7904C22.0863 19.3755 21.4136 19.3755 20.9987 19.7904C20.5838 20.2053 20.5838 20.878 20.9987 21.2929L24.5404 24.8346Z" fill="#1C274C"/>
</svg>
