<svg width="296" height="221" fill="none" xmlns="http://www.w3.org/2000/svg"><path d="M53.044 168.595l-2.346-7.885a87.89 87.89 0 00-1.684-6.028c-.656-2.069-2.346-4.244-3.883-5.809-2.393-2.434-3.532-2.454-5.143-3.747-.146-.092-.311-.225-.45-.305a2.516 2.516 0 01-.782-.676c-1.386-1.499-.053-3.82 2.763-3.601 2.12.166 5.573.776 11.2 6.578.073.087.146.16.212.252 2.949 3.84 5.719-7.115 6.223-11.193.324-2.646 3.18-4.271 5.772-3.316l13.692 6.406c1.133-.398 2.471-.332 3.996.132 2.014.743 3.134 2.819 2.61 4.835l-5.553 22.182 16.31 54.304H60.824l-7.78-52.129z" fill="#FFBE9D"/><path d="M26.031 118.72L36.9 140.027l5.434-1.512 27.317 22.235a5.533 5.533 0 007.687-.683l10.398-12.089s-20.968-9.039-24.845-16.519c-3.877-7.48.603-9.178.603-9.178l-9.867-11.22-27.596 7.659zm14.096-43.528s15.905-3.521 38.291-25.06C100.804 28.593 111.322-.015 114.059.124c2.736.14 14.705-5.417 37.456 44.112 22.757 49.53 13.791 61.036 9.265 60.943-4.527-.093-35.276-8.667-54.475-6.486-19.206 2.182-43.891 12.202-43.891 12.202L40.127 75.192z" fill="#557BFF"/><path d="M6.336 102.188l5.428 10.325 2.432 4.622c3.333 6.346 11.047 8.966 17.555 5.968l34.097-11.89-19.855-45.358L11.93 84.018c-6.548 3.488-9.04 11.605-5.594 18.17z" fill="#3C61E2"/><path d="M149.686 45.138c12.108 26.831 17.151 50.744 11.26 53.403-5.892 2.666-20.485-16.93-32.592-43.76-12.108-26.831-17.151-50.737-11.26-53.403 5.892-2.666 20.485 16.93 32.592 43.76z" fill="#E8505B"/><path d="M149.686 45.138c12.108 26.831 17.151 50.744 11.26 53.403-5.892 2.666-20.485-16.93-32.592-43.76-12.108-26.831-17.151-50.737-11.26-53.403 5.892-2.666 20.485 16.93 32.592 43.76z" fill="#2D4CB6"/><path d="M3.406 117.109l9.244-2.905-5.719-10.882L0 107.632l3.407 9.477z" fill="#557BFF"/><path opacity=".6" d="M6.931 103.322l5.72 10.882-1.903.597-4.645-10.962.828-.517z" fill="#000"/><path d="M13.3 105.829c.132.298 4.745-1.492 10.298-4.006 5.56-2.513 9.948-4.787 9.815-5.092-.132-.299-4.745 1.492-10.298 4.005-5.56 2.52-9.948 4.794-9.815 5.093zm-2.841-6.479c.146.298 4.32-1.466 9.324-3.932 5.004-2.467 8.947-4.702 8.801-5-.146-.292-4.314 1.465-9.324 3.932-5.004 2.473-8.947 4.708-8.801 5zm6.427 13.276c.047.159 1.147-.093 2.896-.637.875-.272 1.909-.61 3.062-1.008 1.14-.411 2.32-1.014 3.592-1.585 5.056-2.347 8.913-4.648 8.788-4.92-.153-.325-4.275 1.519-9.285 3.84-1.26.57-2.419 1.2-3.519 1.657-1.1.445-2.094.862-2.916 1.227-1.657.736-2.664 1.273-2.618 1.426z" fill="#2D4CB6"/><path d="M125.001 39.17s13.824-8.58 21.392 10.113c7.562 18.694-6.985 21.764-6.985 21.764-5.957-9.237-10.789-19.821-14.407-31.877z" fill="#3C61E2"/><path opacity=".5" d="M110.295 16.895c-.08.014.112 1.28.543 3.568.438 2.281 1.054 5.597 1.942 9.668.583 2.003 1.226 4.191 1.909 6.539.344 1.174.702 2.394 1.073 3.64.186.624.371 1.26.563 1.904.206.636.478 1.267.716 1.91.994 2.573 2.041 5.272 3.122 8.063.271.697.543 1.406.821 2.116.272.716.65 1.386.975 2.089.675 1.392 1.358 2.811 2.054 4.237.696 1.433 1.385 2.845 2.061 4.238.351.69.649 1.405 1.04 2.055.391.657.769 1.307 1.154 1.957 1.524 2.58 3.002 5.073 4.407 7.447.357.59.682 1.187 1.06 1.744.391.55.769 1.094 1.146 1.625l2.201 3.103c1.424 1.99 2.75 3.853 3.963 5.55 2.644 3.203 4.857 5.737 6.381 7.487 1.531 1.75 2.413 2.686 2.472 2.64.067-.053-.695-1.095-2.114-2.932-1.478-1.87-3.545-4.502-6.09-7.725-1.166-1.718-2.445-3.588-3.817-5.597-.689-1.001-1.399-2.043-2.134-3.11-.365-.53-.742-1.074-1.12-1.625-.365-.557-.683-1.16-1.027-1.744a4408.216 4408.216 0 01-4.315-7.427c-.377-.643-.755-1.293-1.133-1.95-.391-.65-.676-1.36-1.027-2.049-.669-1.386-1.352-2.791-2.041-4.21a1163.88 1163.88 0 00-2.048-4.205c-.325-.696-.702-1.366-.974-2.069-.278-.703-.55-1.406-.828-2.096-1.101-2.765-2.154-5.437-3.168-7.984-.245-.636-.524-1.26-.736-1.89-.199-.636-.391-1.266-.583-1.883-.384-1.24-.762-2.44-1.127-3.6-.729-2.322-1.411-4.484-2.034-6.466l-2.3-9.55c-.556-2.24-.908-3.481-.987-3.468z" fill="#000"/><path opacity=".4" d="M84.422 146.486c-1.26 2.288-2.552 4.615-4.414 6.445-1.869 1.831-4.427 3.13-7.031 2.865-2.598-.265-5.063-2.42-5.09-5.04-1.246.942-3.16.431-4.195-.742-1.034-1.174-1.371-2.799-1.49-4.357-1.697 1.001-4.057.205-5.183-1.406-1.133-1.611-1.2-3.78-.656-5.676.55-1.89 1.643-3.568 2.724-5.219-1.306.106-2.691.199-3.858-.398-1.166-.59-1.954-2.136-1.272-3.256.398-.657 1.166-.982 1.902-1.214 2.048-.643 3.48-1.154 5.613-.908.497.006-.855 5.623 12.512 13.302 7.88 4.556 10.438 5.604 10.438 5.604z" fill="#000"/><path d="M54.323 154.603c.006.059.9-.106 2.339-.073a13.49 13.49 0 015.42 1.299 13.548 13.548 0 014.408 3.416c.934 1.1 1.359 1.903 1.412 1.87.02-.014-.067-.219-.259-.584-.192-.358-.51-.862-.96-1.446-.889-1.16-2.407-2.592-4.448-3.574-2.034-.975-4.102-1.26-5.566-1.233-.736.013-1.326.079-1.73.152-.404.086-.623.153-.616.173z" fill="#EB996E"/><path d="M83.547 142.925c-2.154 2.069-3.625 4.357-5.885 6.439-1.027.948-2.618 2.739-3.996 2.977-1.379.239-2.26.053-2.803-1.233-.444-1.041.35-2.467.894-3.322 1.438-2.262 2.817-4.026 3.89-5.783.504-.822-.145-.995-.384-.61-1.034 1.074-2.585 2.009-3.512 3.176-1.273 1.605-1.505 3.727-4.825 3.051-.437-.086-.881-.239-1.233-.511-1.252-.961-1.305-2.626-.775-3.959.411-1.048 1.14-1.936 1.85-2.805-1.42 1.598-2.963 3.283-5.21 3.468-1.312.106-2.624-.504-3.154-1.704-.663-1.512.291-2.977 1.246-4.158a43.123 43.123 0 015.652-5.776 4.311 4.311 0 012.75-1.021c1.167-.007 2.625.212 3.34 1.227 1.306 1.837.902 3.468.902 3.468s2.923-1.479 5.269.066c2.346 1.552 2.929 4.211 2.929 4.211l3.055 2.799z" fill="#FFBE9D"/><path d="M68.014 130.511c.902-.909 1.114-2.573.411-3.953-.497-.974-1.12-1.923-1.756-2.135-2.777-.935-14.91 1.161-14.805 3.86.113 2.765.994 3.985 7.582 3.03 1.16-.166 2.975-.398 2.975-.398l1.59 2.388 4.003-2.792z" fill="#FFBE9D"/><path d="M38.84 141.797c.1.06 1.02-1.823 2.902-3.514 1.87-1.711 3.83-2.447 3.785-2.547-.014-.039-.524.093-1.286.451s-1.77.975-2.73 1.844c-.955.868-1.67 1.81-2.095 2.54-.437.716-.616 1.207-.576 1.226zm-2.042-8.282c.06.059.861-.597 1.955-1.267.543-.331 1.047-.617 1.425-.782.378-.179.623-.226.623-.279 0-.046-.285-.079-.71.047-.423.119-.96.378-1.523.722-1.12.683-1.856 1.486-1.77 1.559zm-2.04-2.507c.006.073 1.067.106 2.34-.265.629-.192 1.166-.498 1.497-.783.331-.285.47-.524.437-.55-.066-.06-.815.656-2.034 1.001-1.206.358-2.253.484-2.24.597zm11.795 14.125c.04.026.47-.517 1.106-1.439.65-.895 1.478-2.235 2.83-3.223s2.943-1.22 4.01-1.061c1.086.153 1.656.604 1.69.537.013-.013-.113-.139-.385-.305-.272-.172-.702-.358-1.266-.471-1.113-.232-2.816-.02-4.254 1.022-1.432 1.047-2.234 2.44-2.837 3.368-.576.955-.934 1.545-.894 1.572zm-9.284 26.857c-.014.093 2.213.411 4.957.716 2.75.299 4.99.464 4.997.372.013-.093-2.207-.412-4.957-.717-2.75-.298-4.984-.464-4.997-.371z" fill="#EB996E"/><path d="M161.833 19.582l1.979 36.197 53.702-2.937-1.98-36.197-53.701 2.937z" fill="#C8D3F6"/><path d="M215.736 17.073c.012.007-.154.19-.477.513-.356.353-.836.814-1.42 1.39-1.29 1.226-3.093 2.945-5.302 5.062-4.542 4.27-10.762 10.119-17.655 16.59l-.148.136-.16-.12c-.12-.091-.262-.185-.394-.282a27853.767 27853.767 0 00-19.961-14.307 10877.92 10877.92 0 00-6.015-4.381c-.676-.502-1.21-.91-1.619-1.208-.362-.28-.552-.434-.545-.446.006-.012.22.113.605.366.426.283.983.663 1.673 1.14 1.487 1.038 3.559 2.479 6.102 4.252 5.17 3.658 12.229 8.663 20.042 14.19.132.097.274.191.394.281l-.308.017c6.927-6.428 13.186-12.247 17.759-16.484 2.257-2.059 4.091-3.744 5.408-4.948.621-.554 1.11-.987 1.49-1.326.329-.304.515-.451.531-.435z" fill="#557BFF"/><path d="M164.009 56.198c-.107-.084 3.661-5.265 8.415-11.575s8.695-11.363 8.802-11.28c.108.084-3.661 5.265-8.415 11.574-4.751 6.32-8.695 11.364-8.802 11.28zm35.042-24.284c.098-.091 4.365 4.618 9.515 10.51 5.153 5.9 9.249 10.742 9.151 10.834-.099.09-4.366-4.62-9.515-10.51-5.16-5.889-9.25-10.743-9.151-10.834z" fill="#557BFF"/><path d="M226.11 10.03l-18.075 46.738 69.337 26.814 18.075-46.737L226.11 10.03z" fill="#3C61E2"/><path d="M277.38 83.62l-.02-.01L208 56.79l.01-.02L226.08 10l.02.01 69.36 26.82-.01.02-18.07 46.77zm-69.32-26.86l69.29 26.79 18.05-46.69-69.29-26.8-18.05 46.7z" fill="#263238"/><path d="M295.439 37.49c.01.02-.3.15-.89.37-.65.24-1.51.55-2.58.94-2.32.82-5.57 1.96-9.55 3.36-8.15 2.8-19.32 6.63-31.68 10.87l-.26.09-.14-.24c-.11-.18-.22-.38-.34-.58-6.63-11.44-12.63-21.8-17.02-29.37-2.12-3.73-3.85-6.77-5.09-8.94-.56-1.02-1.01-1.83-1.35-2.45-.3-.56-.45-.86-.43-.88.02-.01.21.27.55.81.37.6.86 1.39 1.46 2.38 1.28 2.15 3.08 5.15 5.28 8.83 4.43 7.55 10.49 17.87 17.19 29.27.12.2.23.4.34.58l-.4-.15c12.39-4.17 23.57-7.93 31.75-10.68 4.01-1.32 7.28-2.39 9.62-3.16 1.09-.34 1.96-.62 2.63-.83.59-.15.91-.24.91-.22z" fill="#A6BAFF"/><path d="M208.03 57.42c-.09-.16 7.6-4.55 17.18-9.8 9.58-5.25 17.41-9.38 17.5-9.21.09.16-7.6 4.55-17.18 9.81-9.57 5.24-17.41 9.36-17.5 9.2zm57.96-10.69c.18-.05 2.87 8.3 6.01 18.65 3.14 10.36 5.55 18.8 5.37 18.85-.18.05-2.87-8.3-6.01-18.65-3.15-10.36-5.55-18.8-5.37-18.85z" fill="#A6BAFF"/></svg>