<svg xmlns="http://www.w3.org/2000/svg" viewBox="0 0 425.33 425.33"><linearGradient id="a" gradientUnits="userSpaceOnUse" x1="-122.806" y1="87.636" x2="335.205" y2="545.647"><stop offset="0" stop-color="#aab6dc" stop-opacity=".15"/><stop offset="1" stop-color="#aab6dc" stop-opacity=".05"/></linearGradient><path fill="url(#a)" d="M201.67 425.33L0 223.66v-26.43l228.11 228.1z"/><linearGradient id="b" gradientUnits="userSpaceOnUse" x1="-87.732" y1="52.563" x2="370.279" y2="510.574"><stop offset="0" stop-color="#aab6dc" stop-opacity=".15"/><stop offset="1" stop-color="#aab6dc" stop-opacity=".05"/></linearGradient><path fill="url(#b)" d="M271.82 425.33L0 153.51v-26.43l298.25 298.25z"/><linearGradient id="c" gradientUnits="userSpaceOnUse" x1="-52.659" y1="17.489" x2="405.352" y2="475.5"><stop offset="0" stop-color="#aab6dc" stop-opacity=".15"/><stop offset="1" stop-color="#aab6dc" stop-opacity=".05"/></linearGradient><path fill="url(#c)" d="M341.97 425.33L0 83.36V56.93l368.4 368.4z"/><linearGradient id="d" gradientUnits="userSpaceOnUse" x1="-157.879" y1="122.71" x2="300.132" y2="580.721"><stop offset="0" stop-color="#aab6dc" stop-opacity=".15"/><stop offset="1" stop-color="#aab6dc" stop-opacity=".05"/></linearGradient><path fill="url(#d)" d="M131.53 425.33L0 293.81v-26.44l157.96 157.96z"/><linearGradient id="e" gradientUnits="userSpaceOnUse" x1="-192.953" y1="157.783" x2="265.058" y2="615.794"><stop offset="0" stop-color="#aab6dc" stop-opacity=".15"/><stop offset="1" stop-color="#aab6dc" stop-opacity=".05"/></linearGradient><path fill="url(#e)" d="M61.38 425.33L0 363.95v-26.43l87.81 87.81z"/><linearGradient id="f" gradientUnits="userSpaceOnUse" x1="-225.834" y1="190.665" x2="232.177" y2="648.676"><stop offset="0" stop-color="#aab6dc" stop-opacity=".15"/><stop offset="1" stop-color="#aab6dc" stop-opacity=".05"/></linearGradient><path fill="url(#f)" d="M0 425.33v-17.66l17.66 17.66z"/><linearGradient id="g" gradientUnits="userSpaceOnUse" x1="-17.585" y1="-17.585" x2="440.426" y2="440.426"><stop offset="0" stop-color="#aab6dc" stop-opacity=".15"/><stop offset="1" stop-color="#aab6dc" stop-opacity=".05"/></linearGradient><path fill="url(#g)" d="M425.33 425.33h-13.22L0 13.22V0h13.22l412.11 412.11z"/><linearGradient id="h" gradientUnits="userSpaceOnUse" x1="157.782" y1="-192.952" x2="615.793" y2="265.059"><stop offset="0" stop-color="#aab6dc" stop-opacity=".15"/><stop offset="1" stop-color="#aab6dc" stop-opacity=".05"/></linearGradient><path fill="url(#h)" d="M425.33 87.81L337.52 0h26.43l61.38 61.38z"/><linearGradient id="i" gradientUnits="userSpaceOnUse" x1="17.488" y1="-52.658" x2="475.499" y2="405.353"><stop offset="0" stop-color="#aab6dc" stop-opacity=".15"/><stop offset="1" stop-color="#aab6dc" stop-opacity=".05"/></linearGradient><path fill="url(#i)" d="M425.33 368.4L56.93 0h26.43l341.97 341.97z"/><linearGradient id="j" gradientUnits="userSpaceOnUse" x1="122.709" y1="-157.879" x2="580.72" y2="300.132"><stop offset="0" stop-color="#aab6dc" stop-opacity=".15"/><stop offset="1" stop-color="#aab6dc" stop-opacity=".05"/></linearGradient><path fill="url(#j)" d="M425.33 157.96L267.37 0h26.43l131.53 131.53z"/><linearGradient id="k" gradientUnits="userSpaceOnUse" x1="190.664" y1="-225.834" x2="648.675" y2="232.177"><stop offset="0" stop-color="#aab6dc" stop-opacity=".15"/><stop offset="1" stop-color="#aab6dc" stop-opacity=".05"/></linearGradient><path fill="url(#k)" d="M425.33 17.67L407.67 0h17.66z"/><linearGradient id="l" gradientUnits="userSpaceOnUse" x1="52.562" y1="-87.732" x2="510.573" y2="370.279"><stop offset="0" stop-color="#aab6dc" stop-opacity=".15"/><stop offset="1" stop-color="#aab6dc" stop-opacity=".05"/></linearGradient><path fill="url(#l)" d="M425.33 298.25L127.08 0h26.43l271.82 271.82z"/><linearGradient id="m" gradientUnits="userSpaceOnUse" x1="87.635" y1="-122.805" x2="545.646" y2="335.206"><stop offset="0" stop-color="#aab6dc" stop-opacity=".15"/><stop offset="1" stop-color="#aab6dc" stop-opacity=".05"/></linearGradient><path fill="url(#m)" d="M425.33 228.11L197.22 0h26.44l201.67 201.67z"/></svg>