<svg width="24" height="24" viewBox="0 0 24 24" fill="none" xmlns="http://www.w3.org/2000/svg">
<rect x="0.5" y="0.5" width="23" height="23" rx="5.5" stroke="#3C61E2"/>
<path d="M14.2125 16.5094L12.1066 18.6072C10.2541 20.4643 7.24197 20.4643 5.38937 18.6072C3.53688 16.7499 3.53688 13.7302 5.38937 11.8731L6.54889 10.7107C6.8555 10.4033 7.38854 10.6037 7.40191 11.0446C7.42852 11.6058 7.52186 12.1537 7.70841 12.7015C7.77512 12.8885 7.72177 13.0889 7.58846 13.2226L7.17537 13.6368C6.29574 14.5186 6.269 15.9482 7.13539 16.8301C8.01502 17.7253 9.45443 17.7253 10.3341 16.8435L12.4398 14.7457C13.3195 13.8639 13.3195 12.4343 12.4398 11.5524C12.3199 11.4322 12.2133 11.352 12.12 11.2851C12 11.1917 11.9067 11.058 11.9067 10.8843C11.9067 10.5503 12.0134 10.2163 12.2665 9.94909L12.9196 9.29436C13.0929 9.12062 13.3594 9.09394 13.5594 9.24087C13.7859 9.40121 13.9992 9.57494 14.1991 9.77536C16.0649 11.6459 16.0383 14.6522 14.1991 16.496L14.2125 16.5094ZM18.5973 12.1136L17.4377 13.276C17.1312 13.5833 16.5981 13.3829 16.5847 12.942C16.5581 12.3808 16.4648 11.833 16.2782 11.2851C16.2116 11.0981 16.2649 10.8977 16.3982 10.7641L16.8114 10.3499C17.691 9.46809 17.7176 8.03836 16.8514 7.15653C15.9717 6.2614 14.5323 6.2614 13.6527 7.14324L11.5468 9.24087C10.6672 10.1227 10.6672 11.5524 11.5468 12.4343C11.6668 12.5545 11.7735 12.6347 11.8667 12.7015C11.9866 12.795 12.08 12.9286 12.08 13.1023C12.08 13.4364 11.9734 13.7703 11.7201 14.0376L11.067 14.6922C10.8938 14.866 10.6272 14.8927 10.4273 14.7457C10.2007 14.5854 9.98746 14.4117 9.78754 14.2112C7.92169 12.3407 7.94831 9.33444 9.78754 7.49059L11.8934 5.39285C13.7459 3.53572 16.758 3.53572 18.6106 5.39285C20.4631 7.25009 20.4631 10.2698 18.6106 12.1269L18.5973 12.1136Z" fill="#3C61E2"/>
</svg>
