<svg width="16" height="16" viewBox="0 0 16 16" fill="none" xmlns="http://www.w3.org/2000/svg">
<path d="M10.2125 12.5094L8.10658 14.6072C6.2541 16.4643 3.24197 16.4643 1.38937 14.6072C-0.463122 12.7499 -0.463122 9.73024 1.38937 7.87311L2.54889 6.71068C2.8555 6.4033 3.38854 6.60372 3.40191 7.04464C3.42852 7.60581 3.52186 8.15369 3.70841 8.70146C3.77512 8.88848 3.72177 9.0889 3.58846 9.22255L3.17537 9.63679C2.29574 10.5186 2.269 11.9482 3.13539 12.8301C4.01502 13.7253 5.45443 13.7253 6.33406 12.8435L8.43982 10.7457C9.31945 9.86389 9.31945 8.43428 8.43982 7.55244C8.31987 7.43219 8.21328 7.35202 8.11995 7.28514C8 7.19169 7.90667 7.05804 7.90667 6.8843C7.90667 6.55035 8.01337 6.21628 8.26652 5.94909L8.91962 5.29436C9.09292 5.12062 9.35944 5.09394 9.55935 5.24087C9.78589 5.40121 9.99917 5.57494 10.1991 5.77536C12.0649 7.64589 12.0383 10.6522 10.1991 12.496L10.2125 12.5094ZM14.5973 8.11361L13.4377 9.27603C13.1312 9.5833 12.5981 9.38288 12.5847 8.94197C12.5581 8.38079 12.4648 7.83302 12.2782 7.28514C12.2116 7.09812 12.2649 6.8977 12.3982 6.76405L12.8114 6.34993C13.691 5.46809 13.7176 4.03836 12.8514 3.15653C11.9717 2.2614 10.5323 2.2614 9.65269 3.14324L7.54682 5.24087C6.66718 6.12271 6.66718 7.55244 7.54682 8.43428C7.66677 8.55453 7.77347 8.6347 7.86669 8.70146C7.98664 8.79503 8.07997 8.92857 8.07997 9.1023C8.07997 9.43637 7.97338 9.77032 7.72012 10.0376L7.06702 10.6922C6.89383 10.866 6.6272 10.8927 6.42728 10.7457C6.20075 10.5854 5.98746 10.4117 5.78754 10.2112C3.92169 8.34071 3.94831 5.33444 5.78754 3.49059L7.89342 1.39285C9.74591 -0.464283 12.758 -0.464283 14.6106 1.39285C16.4631 3.25009 16.4631 6.26976 14.6106 8.12689L14.5973 8.11361Z" fill="#3C61E2"/>
</svg>
