<svg width="25" height="25" viewBox="0 0 25 25" fill="none" xmlns="http://www.w3.org/2000/svg">
<path d="M21.3268 3.64342C18.9666 1.29337 15.833 0 12.5003 0H12.4825C10.783 0.00228882 9.13394 0.342369 7.58058 1.01051C6.08273 1.65501 4.74032 2.57435 3.59056 3.74336C1.22524 6.14815 -0.0494577 9.3195 0.00146902 12.673C0.0321776 14.7091 0.568148 16.7248 1.55082 18.5017C1.56932 18.535 1.57371 18.5724 1.56303 18.6045L0.125257 22.9101C-0.059376 23.4632 0.0735675 24.0713 0.472398 24.497C0.777004 24.8224 1.19796 25 1.6315 25C1.76636 25 1.90235 24.9828 2.03625 24.9477L6.89603 23.671C6.92464 23.6635 6.95554 23.6668 6.983 23.6803C8.7107 24.5304 10.5669 24.9615 12.4999 24.9615C15.8362 24.9615 18.9773 23.6559 21.3447 21.2852C23.7068 18.9198 25.0049 15.7864 25 12.4624C24.9954 9.12933 23.6908 5.99728 21.3268 3.64342ZM18.292 9.40132L11.8975 15.7959C11.5235 16.1701 11.032 16.3572 10.5404 16.3572C10.0489 16.3572 9.55738 16.1701 9.18315 15.7959L6.70815 13.3207C6.42205 13.0348 6.42205 12.571 6.70815 12.285C6.99407 11.9989 7.45794 11.9987 7.74385 12.285L10.2189 14.76C10.396 14.9372 10.6844 14.9372 10.8618 14.76L17.2561 8.36544C17.5422 8.07953 18.0059 8.07953 18.292 8.36544C18.5781 8.65154 18.5781 9.11541 18.292 9.40132Z" fill="#3C61E2"/>
</svg>
