<svg xmlns="http://www.w3.org/2000/svg" viewBox="224.96 733.8 674.01 159.19"><path d="M224.96 733.8V893h159.19V733.8H224.96zm125.22 136.62h-22.81v-22.58h22.81v22.58zm0-91.23h-68.42V802h68.42v22.81h-68.42v45.62h-22.81V756.38h91.23v22.81z" fill="#e60000"/><path d="M436.65 855.14v-85.09h60.22V786h-42.1v17.99h41.21v15.95h-41.21v35.21h-18.12zm72.84 0v-85.09h18.12v85.09h-18.12zm93.64 0l-40.57-55.5v55.5h-18.12v-85.09h18.63l39.42 53.46v-53.46h18.12v85.09h-17.48zm93 0l-5.23-14.42h-36.49l-5.36 14.42h-20.67l32.92-85.09h22.71l32.79 85.09h-20.67zm-23.47-66.98l-13.27 36.62h26.54l-13.27-36.62zm100.14 66.98l-16.71-30.24h-13.27v30.24H724.7v-85.09h39.8c17.73 0 28.58 11.61 28.58 27.43 0 15.05-9.44 23.09-18.63 25.26l19.14 32.41H772.8zm1.79-57.67c0-7.14-5.49-11.48-12.76-11.48h-19.01v22.96h19.01c7.27.01 12.76-4.33 12.76-11.48zm106.14 57.67v-59.58l-23.99 59.58h-7.91l-23.99-59.58v59.58h-18.12v-85.09h25.39l20.67 51.41 20.67-51.41h25.52v85.09h-18.24z" fill="#231f20"/></svg>