<svg width="96" height="44" viewBox="0 0 96 44" fill="none" xmlns="http://www.w3.org/2000/svg">
<rect x="0.499908" y="0.5" width="95" height="43" rx="3.5" fill="#FAFBFD"/>
<path d="M23.4879 31.754C23.7819 31.911 24.1509 31.91 24.4449 31.753C32.4569 27.449 33.0259 19.04 33.0189 16.649C33.0181 16.4568 32.9614 16.269 32.8555 16.1087C32.7496 15.9483 32.5993 15.8222 32.4229 15.746L24.3729 12.18C24.2448 12.1235 24.1063 12.0944 23.9663 12.0946C23.8263 12.0948 23.6879 12.1242 23.5599 12.181L15.5659 15.747C15.3921 15.8233 15.2439 15.9479 15.1389 16.1061C15.034 16.2642 14.9767 16.4492 14.9739 16.639C14.9399 19.018 15.4189 27.445 23.4879 31.754ZM20.6739 20.293L22.9669 22.586L27.2599 18.293L28.6739 19.707L22.9669 25.414L19.2599 21.707L20.6739 20.293Z" fill="#3C61E2"/>
<path d="M56.4319 16.3H58.7199V27.5H56.0799L51.2159 19.66L51.4239 22.812V27.5H49.1359V16.3H51.7599L56.6399 24.14L56.4319 20.988V16.3ZM65.1233 16.3C66.7553 16.3 68.1153 16.8333 69.2033 17.9C70.302 18.9667 70.8513 20.3 70.8513 21.9C70.8513 23.5 70.302 24.8333 69.2033 25.9C68.1153 26.9667 66.7553 27.5 65.1233 27.5H61.0753V16.3H65.1233ZM65.1233 25.324C66.1366 25.324 66.9633 25.004 67.6033 24.364C68.2433 23.724 68.5633 22.9027 68.5633 21.9C68.5633 20.8973 68.2433 20.076 67.6033 19.436C66.9633 18.796 66.1366 18.476 65.1233 18.476H63.3633V25.324H65.1233ZM80.2334 27.5L79.2894 24.86H74.7614L73.8014 27.5H71.3854L75.5774 16.3H78.4734L82.6654 27.5H80.2334ZM75.5454 22.684H78.4894L77.0174 18.62L75.5454 22.684Z" fill="#3C61E2"/>
<rect x="0.499908" y="0.5" width="95" height="43" rx="3.5" stroke="#E7EDFF"/>
</svg>
