<svg width="11" height="12" viewBox="0 0 11 12" fill="none" xmlns="http://www.w3.org/2000/svg">
<path d="M9.58 4.89009C9.99 4.89009 10.32 5.22009 10.32 5.63009V6.37009C10.32 6.78009 9.99 7.11009 9.58 7.11009H6.26V10.4301C6.26 10.8401 5.93 11.1701 5.52 11.1701H4.78C4.37 11.1701 4.04 10.8401 4.04 10.4301V7.11009H0.74C0.33 7.11009 0 6.78009 0 6.37009V5.63009C0 5.22009 0.33 4.89009 0.74 4.89009H4.06V1.58009C4.06 1.17009 4.39 0.840088 4.8 0.840088H5.54C5.95 0.840088 6.28 1.17009 6.28 1.58009V4.90009H9.6L9.58 4.89009Z" fill="#AABDE7"/>
</svg>
