<svg width="25" height="25" viewBox="0 0 25 25" fill="none" xmlns="http://www.w3.org/2000/svg">
<rect width="24.997" height="25" rx="12.4985" fill="black"/>
<path d="M15.7394 10.8139C16.6737 11.477 17.8182 11.8672 19.0543 11.8672V9.5053C18.8204 9.50535 18.587 9.48113 18.3582 9.43298V11.2921C17.1221 11.2921 15.9778 10.902 15.0433 10.2389V15.0588C15.0433 17.47 13.0748 19.4246 10.6466 19.4246C9.74059 19.4246 8.8985 19.1526 8.19897 18.6861C8.99737 19.4967 10.1108 19.9996 11.3426 19.9996C13.7709 19.9996 15.7395 18.0451 15.7395 15.6338V10.8139H15.7394ZM16.5982 8.43103C16.1207 7.91308 15.8073 7.24374 15.7394 6.50374V6.19995H15.0797C15.2458 7.14048 15.8122 7.94402 16.5982 8.43103ZM9.73478 16.8359C9.46802 16.4886 9.32387 16.0637 9.32451 15.6269C9.32451 14.5241 10.2249 13.6299 11.3357 13.6299C11.5428 13.6299 11.7485 13.6613 11.9458 13.7235V11.3088C11.7153 11.2774 11.4826 11.2641 11.25 11.269V13.1485C11.0525 13.0863 10.8467 13.0548 10.6396 13.0549C9.52875 13.0549 8.62841 13.949 8.62841 15.0519C8.62841 15.8318 9.07846 16.507 9.73478 16.8359Z" fill="#FF004F"/>
<path d="M15.0435 10.2391C15.978 10.9022 17.1223 11.2923 18.3583 11.2923V9.43318C17.6684 9.28725 17.0576 8.92924 16.5984 8.43127C15.8123 7.94421 15.246 7.14068 15.0799 6.2002H13.3471V15.6339C13.3431 16.7337 12.4443 17.6242 11.3358 17.6242C10.6826 17.6242 10.1023 17.315 9.73481 16.8361C9.07854 16.5072 8.62849 15.832 8.62849 15.0522C8.62849 13.9494 9.52883 13.0552 10.6397 13.0552C10.8525 13.0552 11.0576 13.0881 11.2501 13.1488V11.2693C8.86456 11.3182 6.94604 13.2537 6.94604 15.634C6.94604 16.8222 7.4238 17.8994 8.1992 18.6864C8.89873 19.1528 9.74082 19.4249 10.6468 19.4249C13.075 19.4249 15.0435 17.4702 15.0435 15.0591V10.2391H15.0435Z" fill="white"/>
<path d="M18.3582 9.43271V8.93001C17.736 8.93094 17.1261 8.75793 16.5982 8.43076C17.0655 8.93874 17.6808 9.289 18.3582 9.43271ZM15.0797 6.19973C15.0639 6.10985 15.0517 6.01937 15.0433 5.92855V5.62476H12.6507V15.0586C12.6468 16.1582 11.748 17.0487 10.6395 17.0487C10.314 17.0487 10.0067 16.972 9.73462 16.8357C10.1021 17.3146 10.6824 17.6237 11.3356 17.6237C12.444 17.6237 13.343 16.7333 13.3469 15.6335V6.19973H15.0797ZM11.25 11.2688V10.7337C11.0501 10.7065 10.8485 10.6929 10.6467 10.693C8.21828 10.693 6.24976 12.6476 6.24976 15.0586C6.24976 16.5701 7.02342 17.9023 8.19906 18.6859C7.42366 17.8989 6.94591 16.8216 6.94591 15.6335C6.94591 13.2532 8.86438 11.3178 11.25 11.2688Z" fill="#00F2EA"/>
</svg>
