<svg width="29" height="26" viewBox="0 0 29 26" fill="none" xmlns="http://www.w3.org/2000/svg">
<circle cx="14.5" cy="12.5" r="10.5" fill="white"/>
<path d="M14.5 -0.1875C7.49355 -0.1875 1.8125 5.49355 1.8125 12.5C1.8125 19.5064 7.49355 25.1875 14.5 25.1875C21.5064 25.1875 27.1875 19.5064 27.1875 12.5C27.1875 5.49355 21.5064 -0.1875 14.5 -0.1875ZM20.5974 9.37627C20.6059 9.50938 20.6059 9.64814 20.6059 9.78408C20.6059 13.9415 17.4396 18.7305 11.6538 18.7305C9.86963 18.7305 8.21572 18.2122 6.82236 17.3201C7.07725 17.3484 7.3208 17.3598 7.58135 17.3598C9.054 17.3598 10.4077 16.8613 11.4867 16.0174C10.1047 15.9891 8.94355 15.0828 8.54707 13.8367C9.03135 13.9075 9.46748 13.9075 9.96592 13.7801C9.2543 13.6355 8.61469 13.249 8.15573 12.6863C7.69677 12.1236 7.44679 11.4193 7.44824 10.6932V10.6535C7.86455 10.8886 8.35449 11.033 8.86709 11.0528C8.43618 10.7656 8.08278 10.3766 7.83824 9.9201C7.59371 9.46364 7.46558 8.95388 7.46523 8.43604C7.46523 7.8498 7.61816 7.31455 7.89287 6.8501C8.68273 7.82244 9.66836 8.61769 10.7857 9.18416C11.903 9.75063 13.1271 10.0757 14.3782 10.1381C13.9336 7.9999 15.5309 6.26953 17.451 6.26953C18.3572 6.26953 19.1729 6.64902 19.7478 7.26074C20.4586 7.12764 21.1383 6.86143 21.7443 6.50459C21.5093 7.23242 21.0165 7.84697 20.3623 8.23496C20.9967 8.16699 21.6084 7.99141 22.1748 7.74502C21.7472 8.37373 21.2119 8.93164 20.5974 9.37627V9.37627Z" fill="#1DA1F2"/>
</svg>
