<svg fill="none" height="622" width="622" xmlns="http://www.w3.org/2000/svg"><linearGradient id="a" gradientUnits="userSpaceOnUse" x1="296.729" x2="191.552" y1="298.234" y2="124.185"><stop offset="0" stop-color="#dae2f7"/><stop offset="1" stop-color="#d8e3ff"/></linearGradient><path d="M479.745 255.367c-25.836 37.872-17.541 76.539-20.409 111.023-3.378 40.598-40.42 57.014-66.548 76.572-46.964 35.164-17.606 92.437-68.534 131.88-48.735 37.749-119.851.388-124.024-57.554-4.174-57.942-14.434-66.438-42.585-82.227-28.151-15.79-80.162-46.032-40.589-93.033 34.011-40.395 46.207-71.205 46.408-103.76.198-32.552 15.97-137.41 111.768-97.882 45.782 18.895 65.262 22.164 103.763.252s82.443-20.191 109.241 4.716c25.376 23.587 26.014 59.432-8.491 110.013z" fill="url(#a)"/></svg>