<svg fill="none" height="558" width="604" xmlns="http://www.w3.org/2000/svg"><path d="M502 300c-37.707 26.075-43.946 68.343-59 99.5-17.725 36.68-80.715 23.213-112.123 32.091-56.456 15.963-49.611 79.957-111.301 98.493-59.038 17.742-112.005-42.654-95.104-98.234 16.902-55.579 10.374-67.191-10.233-92.033-20.608-24.841-58.3-71.736-4.494-101.401 46.244-25.496 68.686-49.877 80.558-80.19 11.869-30.312 64.226-122.522 139.452-51.244 35.95 34.069 52.959 44.111 96.759 37.478 43.8-6.632 84.197 10.746 100.27 43.611C542.003 219.194 552.361 265.173 502 300z" fill="#dee5f8"/></svg>