<svg width="648" height="536" fill="none" xmlns="http://www.w3.org/2000/svg"><path d="M321.176 498.152c49.527-36.146 104.626-40.884 162.753-29.353 58.126 11.531 106.743 13.63 144.79-40.888 38.047-54.513 23.844-157.117-79.262-182.414-98.285-24.113-114.685-103.19-132.103-159.347-21.136-68.142-84.547-96.448-150.071-82.819-65.523 13.63-83.491 61.852-108.855 136.286-25.365 74.434-55.273 83.626-99.341 105.885-53.973 27.259-99.792 109.642-1.056 156.206 128.93 60.8 119.153 201.541 263.145 96.444z" fill="url(#paint0_linear)"/><defs><linearGradient id="paint0_linear" x1="322.578" y1="293.572" x2="389.894" y2="561.611" gradientUnits="userSpaceOnUse"><stop stop-color="#F2F5FD"/><stop offset="1" stop-color="#F2F5FD"/></linearGradient></defs></svg>