<svg fill="none" height="536" width="648" xmlns="http://www.w3.org/2000/svg"><linearGradient id="a" gradientUnits="userSpaceOnUse" x1="322.578" x2="389.894" y1="293.572" y2="561.611"><stop offset="0" stop-color="#f2f5fd"/><stop offset="1" stop-color="#f2f5fd"/></linearGradient><path d="M321.176 498.152c49.527-36.146 104.626-40.884 162.753-29.353 58.126 11.531 106.743 13.63 144.79-40.888 38.047-54.513 23.844-157.117-79.262-182.414-98.285-24.113-114.685-103.19-132.103-159.346-21.136-68.143-84.547-96.45-150.071-82.82-65.523 13.63-83.491 61.852-108.855 136.286-25.365 74.434-55.273 83.626-99.342 105.885-53.972 27.259-99.791 109.642-1.056 156.206 128.931 60.8 119.154 201.541 263.146 96.444z" fill="url(#a)"/></svg>