<svg width="37" height="26" viewBox="0 0 37 26" fill="none" xmlns="http://www.w3.org/2000/svg">
<g clip-path="url(#clip0_1669:690)">
<path d="M36.1828 4.05528C35.9706 3.27146 35.5566 2.55687 34.9821 1.98269C34.4076 1.4085 33.6926 0.994733 32.9083 0.7826C30.0371 0 18.4812 0 18.4812 0C18.4812 0 6.92481 0.0236888 4.05355 0.806289C3.26925 1.01843 2.55425 1.43222 1.97974 2.00644C1.40522 2.58065 0.991255 3.29526 0.779051 4.07911C-0.0894371 9.17771 -0.426339 16.9468 0.802899 21.8414C1.01512 22.6253 1.4291 23.3398 2.00361 23.914C2.57812 24.4882 3.29312 24.902 4.0774 25.1141C6.94866 25.8967 18.5048 25.8967 18.5048 25.8967C18.5048 25.8967 30.0608 25.8967 32.9319 25.1141C33.7162 24.902 34.4312 24.4883 35.0058 23.9141C35.5803 23.3399 35.9943 22.6253 36.2066 21.8414C37.1226 16.7356 37.4049 8.97145 36.1828 4.05542V4.05528Z" fill="#FF0000"/>
<path d="M14.8027 18.4975L24.3893 12.9482L14.8029 7.39893L14.8027 18.4975Z" fill="white"/>
</g>
<defs>
<clipPath id="clip0_1669:690">
<rect width="37" height="26" fill="white"/>
</clipPath>
</defs>
</svg>
