<?xml version="1.0" encoding="utf-8"?>
<!-- Generator: Adobe Illustrator 23.0.3, SVG Export Plug-In . SVG Version: 6.00 Build 0)  -->
<svg version="1.1" id="Layer_1" xmlns="http://www.w3.org/2000/svg" xmlns:xlink="http://www.w3.org/1999/xlink" x="0px" y="0px"
	 viewBox="0 0 228.46 228.46" style="enable-background:new 0 0 228.46 228.46;" xml:space="preserve">
<style type="text/css">
	.st0{fill:#134294;}
	.st1{fill:#FFFFFF;}
</style>
<g>
	<path class="st0" d="M225.92,22.19v184.07c0,5.35-1.93,9.97-5.8,13.84c-3.87,3.87-8.49,5.81-13.85,5.81H22.2
		c-5.36,0-9.98-1.94-13.85-5.81c-3.89-3.87-5.82-8.49-5.82-13.84V22.19c0-5.36,1.93-9.98,5.82-13.85c3.87-3.87,8.49-5.81,13.85-5.81
		h184.07c5.36,0,9.98,1.94,13.85,5.81C224,12.21,225.92,16.83,225.92,22.19"/>
	<g>
		<path class="st1" d="M140.64,70.88l3.45-20.35c-4.94-1.72-13.18-2.58-24.66-2.58c-9.08,0-15.87,2.96-20.35,8.88
			c-4.49,5.92-6.74,13.59-6.74,23.02v11.56H80.96v22.94h11.38v63.29h23.12v-63.29h22.93V91.41h-22.93V77.78
			c0-2.53,1.64-4.6,4.91-6.2c3.28-1.61,6.36-2.41,9.24-2.41C133.16,69.16,136.85,69.74,140.64,70.88"/>
	</g>
</g>
</svg>
