<?xml version="1.0" encoding="utf-8"?>
<!-- Generator: Adobe Illustrator 23.0.3, SVG Export Plug-In . SVG Version: 6.00 Build 0)  -->
<svg version="1.1" id="Layer_1" xmlns="http://www.w3.org/2000/svg" xmlns:xlink="http://www.w3.org/1999/xlink" x="0px" y="0px"
	 viewBox="0 0 228.46 228.46" style="enable-background:new 0 0 228.46 228.46;" xml:space="preserve">
<style type="text/css">
	.st0{fill:#0375B4;}
	.st1{fill:#FFFFFF;}
</style>
<path class="st0" d="M225.92,22.19v184.07c0,5.35-1.93,9.97-5.8,13.84c-3.87,3.87-8.49,5.81-13.85,5.81H22.2
	c-5.36,0-9.98-1.94-13.85-5.81c-3.89-3.87-5.82-8.49-5.82-13.84V22.19c0-5.36,1.93-9.98,5.82-13.85c3.87-3.87,8.49-5.81,13.85-5.81
	h184.07c5.36,0,9.98,1.94,13.85,5.81C224,12.21,225.92,16.83,225.92,22.19"/>
<path class="st1" d="M72.45,51.24c-2.82-2.68-6.4-4.02-10.71-4.02c-4.34,0-7.95,1.34-10.84,4.02c-2.91,2.68-4.36,6.18-4.36,10.5
	c0,4.17,1.38,7.64,4.13,10.39c2.76,2.75,6.29,4.13,10.62,4.13c4.47,0,8.14-1.34,11.05-4.02c2.91-2.68,4.36-6.17,4.36-10.5
	C76.71,57.42,75.29,53.92,72.45,51.24"/>
<rect x="47.22" y="87.65" class="st1" width="28.6" height="93.6"/>
<path class="st1" d="M151.77,181.25h28.81v-55.18c0-11.76-2.73-21.44-8.16-29.04c-5.44-7.6-13.73-11.39-24.91-11.39
	c-5.8,0-11.27,1.34-16.42,4.02c-5.14,2.68-9.2,6.41-12.18,11.17h-0.44l-1.35-13.18h-24.8c0.45,15.63,0.67,46.84,0.67,93.6h28.6
	v-53.84c0-3.27,0.29-5.73,0.89-7.37c1.18-3.13,3.13-5.73,5.8-7.82c2.69-2.08,5.67-3.13,8.94-3.13c9.67,0,14.52,6.78,14.52,20.33
	V181.25z"/>
</svg>
