<?xml version="1.0" encoding="utf-8"?>
<!-- Generator: Adobe Illustrator 23.0.3, SVG Export Plug-In . SVG Version: 6.00 Build 0)  -->
<svg version="1.1" id="Layer_1" xmlns="http://www.w3.org/2000/svg" xmlns:xlink="http://www.w3.org/1999/xlink" x="0px" y="0px"
	 viewBox="0 0 228.46 228.46" style="enable-background:new 0 0 228.46 228.46;" xml:space="preserve">
<style type="text/css">
	.st0{fill:#12100E;}
	.st1{fill:#FFFFFF;}
</style>
<g>
	<path class="st0" d="M225.92,22.19v184.07c0,5.35-1.93,9.97-5.8,13.84c-3.87,3.87-8.49,5.81-13.85,5.81H22.2
		c-5.36,0-9.98-1.94-13.85-5.81c-3.89-3.87-5.82-8.49-5.82-13.84V22.19c0-5.36,1.93-9.98,5.82-13.85c3.87-3.87,8.49-5.81,13.85-5.81
		h184.07c5.36,0,9.98,1.94,13.85,5.81C224,12.21,225.92,16.83,225.92,22.19"/>
	<g id="Monogram_1_">
		<path id="Shape_1_" class="st1" d="M56.11,76.9c0.19-1.83-0.51-3.65-1.88-4.88l-13.95-16.8v-2.51h43.31l33.48,73.42l29.43-73.42
			h41.29v2.51l-11.93,11.43c-1.03,0.78-1.54,2.07-1.33,3.35v84.02c-0.21,1.27,0.3,2.56,1.33,3.35l11.65,11.43v2.51h-58.58v-2.51
			l12.07-11.71c1.19-1.19,1.19-1.53,1.19-3.35V85.83l-33.55,85.2h-4.53l-39.06-85.2v57.1c-0.33,2.4,0.47,4.82,2.16,6.55l15.69,19.03
			v2.51h-44.5v-2.51l15.69-19.03c1.68-1.74,2.43-4.17,2.02-6.55V76.9z"/>
	</g>
</g>
</svg>
