<?xml version="1.0" encoding="utf-8"?>
<!-- Generator: Adobe Illustrator 23.0.3, SVG Export Plug-In . SVG Version: 6.00 Build 0)  -->
<svg version="1.1" id="Layer_1" xmlns="http://www.w3.org/2000/svg" xmlns:xlink="http://www.w3.org/1999/xlink" x="0px" y="0px"
	 viewBox="0 0 228.46 228.46" style="enable-background:new 0 0 228.46 228.46;" xml:space="preserve">
<style type="text/css">
	.st0{fill:#FF3F18;}
	.st1{fill:#FFFFFF;}
</style>
<g>
	<circle class="st0" cx="114.23" cy="114.23" r="114.23"/>
	<g>
		<path class="st1" d="M194.64,102.75c0-10.25-8.31-18.55-18.55-18.55c-5,0-9.53,1.99-12.87,5.21
			c-11.31-8.06-26.1-13.51-42.57-15.02l8.74-26.54l24.86,5.4c1.04,6.54,6.7,11.55,13.54,11.55c7.58,0,13.72-6.14,13.72-13.72
			s-6.14-13.72-13.72-13.72c-4.77,0-8.97,2.43-11.43,6.13l-29.25-6.35c-2.5-0.55-5.01,0.89-5.81,3.32l-11.04,33.52
			c-19.76,0.2-37.65,6.05-50.82,15.44c-3.34-3.22-7.87-5.2-12.87-5.2c-10.25,0-18.55,8.31-18.55,18.55c0,7.15,4.05,13.35,9.98,16.44
			c-0.71,3.02-1.1,6.12-1.1,9.28c0,30.12,33.32,54.53,74.42,54.53s74.42-24.41,74.42-54.53c0-3.17-0.39-6.26-1.1-9.28
			C190.59,116.1,194.64,109.9,194.64,102.75z"/>
		<g>
			<g>
				<path class="st0" d="M111.34,163.56c-11.14,0-21.45-4.08-28.29-11.19c-1.91-1.99-1.85-5.16,0.14-7.07s5.15-1.85,7.07,0.14
					c4.89,5.08,12.77,8.12,21.08,8.12s16.19-3.04,21.08-8.12c1.91-1.99,5.08-2.05,7.07-0.14c1.99,1.91,2.05,5.08,0.14,7.07
					C132.79,159.48,122.48,163.56,111.34,163.56z"/>
			</g>
		</g>
		<g>
			<g>
				<circle class="st0" cx="85.56" cy="118.67" r="11.84"/>
				<circle class="st0" cx="137.12" cy="118.67" r="11.84"/>
			</g>
		</g>
	</g>
</g>
</svg>
