<?xml version="1.0" encoding="utf-8"?>
<!-- Generator: Adobe Illustrator 23.0.3, SVG Export Plug-In . SVG Version: 6.00 Build 0)  -->
<svg version="1.1" id="Layer_1" xmlns="http://www.w3.org/2000/svg" xmlns:xlink="http://www.w3.org/1999/xlink" x="0px" y="0px"
	 viewBox="0 0 228.46 228.46" style="enable-background:new 0 0 228.46 228.46;" xml:space="preserve">
<style type="text/css">
	.st0{fill:url(#SVGID_1_);}
	.st1{fill:#FFFFFF;}
	.st2{fill:#D2E5F0;}
	.st3{fill:#B6CFE3;}
</style>
<g>
	<linearGradient id="SVGID_1_" gradientUnits="userSpaceOnUse" x1="193.0424" y1="-10.2932" x2="33.9268" y2="241.1094">
		<stop  offset="0" style="stop-color:#45BCE8"/>
		<stop  offset="1" style="stop-color:#24A7DC"/>
	</linearGradient>
	<path class="st0" d="M225.92,22.19v184.07c0,5.35-1.93,9.97-5.8,13.84c-3.87,3.87-8.49,5.81-13.85,5.81H22.2
		c-5.36,0-9.98-1.94-13.85-5.81c-3.89-3.87-5.82-8.49-5.82-13.84V22.19c0-5.36,1.93-9.98,5.82-13.85c3.87-3.87,8.49-5.81,13.85-5.81
		h184.07c5.36,0,9.98,1.94,13.85,5.81C224,12.21,225.92,16.83,225.92,22.19"/>
	<g>
		<g>
			<path class="st1" d="M169.79,64.77l-20.4,102.84c0,0-2.85,7.13-10.7,3.71l-47.07-36.09l-17.12-8.27l-28.81-9.7
				c0,0-4.42-1.57-4.85-4.99c-0.43-3.42,4.99-5.28,4.99-5.28l114.53-44.93C160.38,62.06,169.79,57.93,169.79,64.77z"/>
			<path class="st2" d="M88.01,166.46c0,0-1.37-0.13-3.09-5.55c-1.71-5.42-10.41-33.95-10.41-33.95l69.18-43.93
				c0,0,3.99-2.42,3.85,0c0,0,0.71,0.43-1.43,2.42c-2.14,2-54.34,48.92-54.34,48.92"/>
			<path class="st3" d="M109.68,149.07l-18.62,16.97c0,0-1.46,1.1-3.05,0.41l3.56-31.53"/>
		</g>
	</g>
</g>
</svg>
