<?xml version="1.0" encoding="utf-8"?>
<!-- Generator: Adobe Illustrator 23.0.3, SVG Export Plug-In . SVG Version: 6.00 Build 0)  -->
<svg version="1.1" id="Layer_1" xmlns="http://www.w3.org/2000/svg" xmlns:xlink="http://www.w3.org/1999/xlink" x="0px" y="0px"
	 viewBox="0 0 228.46 228.46" style="enable-background:new 0 0 228.46 228.46;" xml:space="preserve">
<style type="text/css">
	.st0{fill:#009EE2;}
	.st1{fill:#FFFFFF;}
</style>
<g>
	<path class="st0" d="M225.92,22.19v184.07c0,5.35-1.93,9.97-5.8,13.84c-3.87,3.87-8.49,5.81-13.85,5.81H22.2
		c-5.36,0-9.98-1.94-13.85-5.81c-3.89-3.87-5.82-8.49-5.82-13.84V22.19c0-5.36,1.93-9.98,5.82-13.85c3.87-3.87,8.49-5.81,13.85-5.81
		h184.07c5.36,0,9.98,1.94,13.85,5.81C224,12.21,225.92,16.83,225.92,22.19"/>
	<g>
		<path class="st1" d="M163.61,89.32c4.94-3.46,9.09-7.77,12.45-12.92c-4.84,2.21-9.61,3.52-14.34,3.94
			c5.36-3.05,9.03-7.62,11.03-13.72c-5.04,2.94-10.35,4.94-15.92,5.99c-4.94-5.25-10.98-7.88-18.12-7.88
			c-6.94,0-12.85,2.44-17.73,7.32c-4.89,4.89-7.34,10.8-7.34,17.73c0,2.1,0.22,4,0.63,5.68c-9.98-0.53-19.46-3.07-28.45-7.64
			c-8.98-4.57-16.67-10.74-23.09-18.52c-2.21,3.78-3.31,7.98-3.31,12.61c0,8.93,3.73,15.87,11.2,20.8c-4-0.1-7.79-1.15-11.35-3.15
			v0.31c-0.1,5.88,1.73,11.14,5.52,15.76c3.78,4.62,8.62,7.51,14.49,8.66c-2.21,0.64-4.41,0.95-6.62,0.95
			c-1.58,0-3.14-0.16-4.72-0.47c1.67,5.04,4.67,9.17,8.98,12.37c4.31,3.21,9.09,4.86,14.34,4.96c-9.13,7.14-19.48,10.72-31.04,10.72
			c-1.37,0-3.32-0.11-5.84-0.32c11.66,7.47,24.42,11.19,38.3,11.19c14.49,0,27.47-3.7,38.93-11.11
			c11.45-7.41,20.07-17.73,25.84-30.98c4.21-9.77,6.31-19.44,6.31-29C163.78,91.16,163.73,90.06,163.61,89.32"/>
	</g>
</g>
</svg>
