<?xml version="1.0" encoding="utf-8"?>
<!-- Generator: Adobe Illustrator 23.0.3, SVG Export Plug-In . SVG Version: 6.00 Build 0)  -->
<svg version="1.1" id="Layer_1" xmlns="http://www.w3.org/2000/svg" xmlns:xlink="http://www.w3.org/1999/xlink" x="0px" y="0px"
	 viewBox="0 0 228.46 228.46" style="enable-background:new 0 0 228.46 228.46;" xml:space="preserve">
<style type="text/css">
	.st0{fill:#FF0000;}
	.st1{fill:#FFFFFF;}
</style>
<g>
	<circle class="st0" cx="114.23" cy="114.23" r="114.23"/>
	<g>
		<g id="Lozenge_4_">
			<g>
				<path class="st1" d="M185.55,89.57c0,0-1.42-10.03-5.79-14.45c-5.53-5.8-11.74-5.83-14.58-6.17
					c-20.37-1.47-50.92-1.47-50.92-1.47h-0.06c0,0-30.55,0-50.92,1.47c-2.85,0.34-9.05,0.37-14.58,6.17
					c-4.36,4.42-5.78,14.45-5.78,14.45s-1.46,11.78-1.46,23.56v11.04c0,11.78,1.46,23.56,1.46,23.56s1.42,10.03,5.78,14.45
					c5.54,5.8,12.81,5.61,16.05,6.22c11.64,1.12,49.49,1.46,49.49,1.46s30.59-0.05,50.95-1.52c2.85-0.34,9.05-0.37,14.58-6.17
					c4.36-4.42,5.79-14.45,5.79-14.45s1.45-11.78,1.45-23.56v-11.04C187.01,101.35,185.55,89.57,185.55,89.57z"/>
			</g>
		</g>
		<path id="Triangle_2_" class="st0" d="M99.19,137.55l39.33-20.38L99.19,96.65V137.55z"/>
	</g>
</g>
</svg>
