<svg width="190" height="33" viewBox="0 0 190 33" fill="none" xmlns="http://www.w3.org/2000/svg">
<path fill-rule="evenodd" clip-rule="evenodd" d="M27.9897 19.6223C27.4199 19.9752 26.749 20.0189 26.239 19.7371C25.5911 19.3788 25.2349 18.5397 25.2349 17.3727V13.8811C25.2349 12.1951 24.5544 10.9953 23.4164 10.6714C21.4879 10.1211 20.0376 12.4324 19.4926 13.3004L16.0915 18.702V12.0999C16.0532 10.5808 15.5496 9.67224 14.5933 9.39826C13.9606 9.21716 13.0139 9.28975 12.0943 10.6683L4.4745 22.6533C3.45439 20.7564 2.92261 18.6441 2.92536 16.5C2.92536 9.28039 8.83185 3.40728 16.0915 3.40728C23.3511 3.40728 29.2568 9.28039 29.2568 16.5C29.2568 16.5125 29.2599 16.5234 29.2607 16.5351C29.2607 16.5476 29.2584 16.5585 29.2591 16.571C29.3277 17.9691 28.8655 19.0814 27.9897 19.6231V19.6223ZM32.1821 16.5008V16.5V16.4641L32.1813 16.4282C32.1407 7.6357 24.9392 0.498047 16.0907 0.498047C7.21896 0.498047 0 7.67629 0 16.5C0 25.3229 7.21896 32.502 16.0915 32.502C20.1627 32.502 24.0483 30.9861 27.0311 28.2345C27.6239 27.6881 27.659 26.7678 27.1092 26.1792C26.9797 26.0394 26.8232 25.9263 26.6486 25.8466C26.474 25.7668 26.2849 25.722 26.0923 25.7147C25.8998 25.7075 25.7078 25.7379 25.5274 25.8043C25.3471 25.8706 25.1821 25.9716 25.042 26.1012C22.6244 28.3438 19.4211 29.5933 16.0915 29.5927C12.2043 29.5927 8.70674 27.9074 6.29458 25.2347L13.1661 14.4268V19.4092C13.1661 21.8025 14.1136 22.5761 14.9081 22.8024C15.7034 23.0288 16.9186 22.8742 18.1944 20.8447L21.974 14.8428C22.0952 14.6492 22.2067 14.4822 22.3087 14.3378V17.3727C22.3087 19.6098 23.2236 21.3989 24.8181 22.2802C26.2557 23.0749 28.063 23.003 29.5357 22.0929C31.3207 20.9884 32.2825 18.9534 32.1821 16.5008ZM54.5849 11.0336C54.9714 11.2638 55.3061 11.7759 55.3061 12.2372C55.3061 12.9796 54.6622 13.5939 53.941 13.5939C53.7609 13.5939 53.5808 13.5432 53.4262 13.4916C52.5759 12.8773 51.4946 12.4675 50.3614 12.4675C47.6839 12.4675 45.8295 14.618 45.8295 17.2806C45.8295 19.9439 47.6839 22.0687 50.3614 22.0687C51.7002 22.0687 52.8851 21.5309 53.7864 20.712C54.0193 20.5481 54.2981 20.4587 54.5849 20.456C55.3061 20.456 55.8727 21.0188 55.8727 21.7362C55.8727 22.1967 55.589 22.6065 55.2288 22.8368C53.941 23.9124 52.1903 24.629 50.3877 24.629C46.2678 24.629 42.9193 21.3006 42.9193 17.2041C42.9193 13.1076 46.267 9.77918 50.3877 9.77918C51.9329 9.77918 53.3999 10.2397 54.5849 11.0336ZM62.1186 14.1317C64.9252 14.1317 67.2944 16.4618 67.2944 19.3288C67.2944 22.1967 64.9252 24.629 62.1186 24.629C59.1829 24.629 56.7365 22.1967 56.7365 19.3288C56.7365 16.4618 59.1829 14.1317 62.1186 14.1317ZM62.0923 22.0687C63.3291 22.0687 64.3842 20.9165 64.3842 19.3546C64.3842 17.7934 63.3291 16.82 62.0923 16.82C60.7536 16.82 59.6459 17.7677 59.6459 19.3546C59.6459 20.9165 60.7536 22.0687 62.0923 22.0687ZM69.0595 23.0413V15.7194C69.0595 14.9256 69.7033 14.2597 70.5018 14.2597C71.3003 14.2597 71.9697 14.9256 71.9697 15.7194V23.0413C71.9697 23.8351 71.3003 24.501 70.5018 24.501C69.7033 24.501 69.0595 23.8351 69.0595 23.0413ZM68.8284 11.4949C68.8284 10.5473 69.5743 9.77918 70.5018 9.77918C71.4541 9.77918 72.2271 10.5473 72.2271 11.4949C72.2271 12.416 71.4541 13.1591 70.5018 13.1591C69.5743 13.1591 68.8284 12.416 68.8284 11.4949ZM77.5463 19.0728V23.0413C77.5463 23.8351 76.8769 24.501 76.0776 24.501C75.2799 24.501 74.6353 23.8351 74.6353 23.0413V15.3861C74.6353 14.7718 75.1508 14.2597 75.7692 14.2597C76.3868 14.2597 76.8769 14.7718 76.8769 15.3861C78.0611 14.3112 79.0906 14.1317 80.0692 14.1317C82.9794 14.1317 84.2672 16.2822 84.2672 18.7145V23.0413C84.2672 23.8351 83.5978 24.501 82.7993 24.501C82.0008 24.501 81.357 23.8351 81.357 23.0413V19.0728C81.357 17.8184 81.2024 16.7685 79.3743 16.7685C78.0866 16.7685 77.5455 17.8184 77.5455 19.0728H77.5463ZM93.7318 20.584C93.3971 20.584 93.166 20.4302 92.9851 20.2249L89.5856 16.6155V23.0413C89.5856 23.8351 88.9162 24.501 88.1177 24.501C87.3192 24.501 86.6754 23.8351 86.6754 23.0413V10.3178C86.717 10.2106 86.7914 10.1186 86.8884 10.0543C86.9853 9.99007 87.1002 9.95668 87.2172 9.95871C87.4738 9.95871 87.6794 10.164 87.8348 10.3178L93.2425 16.283C93.3971 16.4625 93.6027 16.5648 93.7063 16.5648C93.8091 16.5648 94.0146 16.4625 94.1693 16.2838L99.5777 10.3178C99.7323 10.164 99.9379 9.95871 100.195 9.95871C100.453 9.95871 100.659 10.1125 100.736 10.3178V23.0413C100.736 23.8351 100.092 24.501 99.294 24.501C98.4955 24.501 97.8261 23.8351 97.8261 23.0413V16.6155L94.4274 20.2249C94.2466 20.4302 94.0147 20.584 93.7318 20.584ZM107.729 22.0687C109.042 22.0687 110.149 20.9165 110.149 19.3546C110.149 17.7934 109.017 16.7685 107.729 16.7685C106.441 16.7685 105.411 17.8184 105.411 19.3546C105.411 20.865 106.441 22.0687 107.729 22.0687ZM110.819 23.3746L110.767 23.0413C110.201 24.1419 108.398 24.629 107.239 24.629C104.509 24.629 102.501 22.1967 102.501 19.3288C102.501 16.4618 104.561 14.1317 107.394 14.1317C107.883 14.1317 109.505 14.2597 110.767 15.7194L110.819 15.3861C110.819 14.7718 111.308 14.2597 111.926 14.2597C112.544 14.2597 113.059 14.7718 113.059 15.3861V23.3746C113.059 23.9889 112.544 24.501 111.925 24.501C111.308 24.501 110.818 23.9889 110.818 23.3746H110.819ZM121.133 16.7685H120.825C118.996 16.8716 118.636 17.8957 118.636 19.0728V23.0413C118.636 23.8351 117.967 24.501 117.168 24.501C116.37 24.501 115.726 23.8351 115.726 23.0413V15.3861C115.726 14.7718 116.241 14.2597 116.859 14.2597C117.477 14.2597 117.967 14.7718 117.967 15.3861C119.048 14.3877 119.924 14.1832 120.825 14.1317H121.108C121.804 14.1317 122.447 14.7203 122.447 15.4634C122.447 16.1542 121.829 16.7685 121.133 16.7685ZM132.35 22.3762C132.479 22.5807 132.556 22.811 132.556 23.067C132.556 23.8094 131.86 24.501 131.114 24.501C130.599 24.501 130.16 24.1169 129.826 23.7071L126.479 19.8924V23.0413C126.479 23.8351 125.809 24.501 125.01 24.501C124.212 24.501 123.568 23.8351 123.568 23.0413V11.4184C123.568 10.6238 124.212 9.95871 125.01 9.95871C125.809 9.95871 126.478 10.6238 126.478 11.4184V18.6638L129.826 15.0278C130.16 14.6438 130.572 14.2597 131.088 14.2597C131.809 14.2597 132.479 14.9256 132.479 15.6679C132.479 15.8982 132.427 16.1284 132.298 16.3337L129.646 19.1751L132.35 22.3755V22.3762ZM138.055 16.82C137.257 16.82 135.969 17.2298 135.969 18.4327H140.166C140.166 17.2041 138.827 16.82 138.054 16.82H138.055ZM141.866 20.2507H135.969C135.969 21.9664 137.642 22.2225 138.389 22.2225C138.931 22.2225 139.703 22.1202 140.295 21.8634C140.475 21.7362 140.785 21.6331 141.042 21.6331C141.686 21.6331 142.226 22.1717 142.226 22.8118C142.226 23.2466 141.943 23.6306 141.583 23.8351C140.682 24.4752 139.522 24.629 138.415 24.629C135.48 24.629 133.033 23.0678 133.033 19.4568C133.033 16.6155 134.527 14.1317 138.003 14.1317C140.81 14.1317 142.947 15.9239 142.999 19.1243C142.999 19.7386 142.484 20.2507 141.866 20.2507ZM149.966 24.629H149.168C146.952 24.629 145.665 23.6814 145.665 20.2765V16.7685H144.919C144.223 16.7685 143.605 16.1542 143.605 15.4634C143.605 14.7203 144.223 14.1317 144.919 14.1317H145.665V11.4176C145.665 10.6238 146.309 9.95793 147.108 9.95793C147.905 9.95793 148.576 10.6238 148.576 11.4176V14.1317H149.785C150.481 14.1317 151.099 14.7203 151.099 15.4634C151.099 16.1542 150.481 16.7685 149.785 16.7685H148.576V19.7129C148.576 21.6589 148.678 22.0687 149.554 22.0687H149.966C150.661 22.0687 151.253 22.6323 151.253 23.3488C151.253 24.0404 150.661 24.629 149.966 24.629ZM164.066 11.0336C164.452 11.2638 164.787 11.7759 164.787 12.2372C164.787 12.9796 164.144 13.5939 163.422 13.5939C163.242 13.5939 163.061 13.5432 162.908 13.4916C162.057 12.8773 160.976 12.4675 159.843 12.4675C157.165 12.4675 155.31 14.618 155.31 17.2806C155.31 19.9439 157.164 22.0687 159.843 22.0687C161.182 22.0687 162.366 21.5309 163.268 20.712C163.501 20.5481 163.779 20.4587 164.066 20.456C164.787 20.456 165.353 21.0188 165.353 21.7362C165.353 22.1967 165.07 22.6065 164.71 22.8368C163.422 23.9124 161.671 24.629 159.868 24.629C155.748 24.629 152.401 21.3006 152.401 17.2041C152.401 13.1076 155.748 9.77918 159.868 9.77918C161.414 9.77918 162.881 10.2397 164.066 11.0336ZM171.445 22.0687C172.759 22.0687 173.866 20.9165 173.866 19.3546C173.866 17.7934 172.732 16.7685 171.445 16.7685C170.158 16.7685 169.127 17.8184 169.127 19.3546C169.127 20.865 170.158 22.0687 171.445 22.0687H171.445ZM174.535 23.3746L174.484 23.0413C173.917 24.1419 172.115 24.629 170.955 24.629C168.226 24.629 166.217 22.1967 166.217 19.3288C166.217 16.4618 168.278 14.1317 171.11 14.1317C171.599 14.1317 173.222 14.2597 174.484 15.7194L174.535 15.3861C174.535 14.7718 175.024 14.2597 175.643 14.2597C176.26 14.2597 176.776 14.7718 176.776 15.3861V23.3746C176.776 23.9889 176.26 24.501 175.643 24.501C175.024 24.501 174.535 23.9889 174.535 23.3746ZM184.772 22.0687C186.06 22.0687 187.09 20.865 187.09 19.3546C187.09 17.8184 186.06 16.7685 184.772 16.7685C183.485 16.7685 182.352 17.7926 182.352 19.3546C182.352 20.9165 183.459 22.0687 184.772 22.0687ZM182.352 23.7844V27.4196C182.352 28.2134 181.682 28.8793 180.884 28.8793C180.086 28.8793 179.441 28.2134 179.441 27.4196V15.3861C179.441 14.7718 179.957 14.2597 180.575 14.2597C181.193 14.2597 181.683 14.7718 181.683 15.4884C182.764 14.3877 184.103 14.1317 185.107 14.1317C187.94 14.1317 190 16.4618 190 19.3288C190 22.1967 187.992 24.629 185.262 24.629C184.412 24.629 183.15 24.373 182.352 23.7844Z" fill="#17181B"/>
</svg>
