<svg width="186" height="45" viewBox="0 0 186 45" fill="none" xmlns="http://www.w3.org/2000/svg">
<path d="M27.001 32.4056L19.251 35.7849V35.4439C17.763 35.8159 16.089 36.033 14.539 36.126C7.22299 36.064 1.457 32.2196 1.364 27.6931V26.0189C3.751 29.4913 8.64899 31.8475 14.539 31.7545C16.523 31.8475 18.569 31.5375 20.274 31.0724L20.956 29.3983C18.941 30.0183 16.709 30.4214 14.539 30.4214C7.22299 30.4214 1.457 26.6079 1.364 21.9884V20.6243C3.751 23.8486 8.64899 26.1739 14.539 26.0189C17.205 26.1739 19.778 25.6158 21.979 24.6547L22.32 22.9806C20.181 24.0967 17.422 24.7477 14.57 24.6547C7.25399 24.7477 1.488 20.9343 1.395 16.2218V14.8577C3.782 18.144 8.67999 20.5003 14.57 20.5933C17.918 20.5003 21.08 19.6012 23.684 18.237L24.025 16.2218C21.669 17.958 18.228 19.1051 14.57 19.2602C7.25399 19.1051 1.488 15.2607 1.395 10.4862C1.457 5.92869 7.25399 2.11529 14.57 2.05328C18.91 2.11529 22.971 3.63445 25.358 6.11472L25.606 6.51776H27.311L27.063 6.11472C24.676 2.85937 19.871 0.720132 14.57 0.720132C6.44799 0.689129 0 5.12261 0 10.4552V10.7962V28.0031C0.279 33.2117 6.57199 37.4591 14.508 37.4591C19.747 37.4901 24.49 35.4129 27.001 32.4056Z" fill="#263238"/>
<path d="M23.839 44.28L26.567 32.6847L18.724 36.0951L23.498 16.0047H14.322L16.709 6.1145H46.004L43.617 16.0047H34.069L32.023 21.4613L42.594 17.0278L23.839 44.28ZM28.613 30.3284L27.249 37.1492L38.502 20.1282L29.295 24.2207L33.387 14.6715H42.594L44.299 7.50967H17.701L15.996 14.6715H25.203L20.77 33.7388L28.613 30.3284Z" fill="#FABF2C"/>
<path d="M65.441 12.7493V12.7803C65.472 13.8654 65.131 14.7025 64.449 15.3226C63.767 15.9426 62.837 16.2527 61.628 16.2527C60.419 16.2527 59.427 15.8496 58.683 15.0745C57.939 14.2995 57.567 13.2763 57.567 12.0362V10.0209C57.567 8.78079 57.939 7.75767 58.652 6.98258C59.396 6.20749 60.357 5.80444 61.535 5.80444C62.775 5.80444 63.736 6.11448 64.449 6.70355C65.162 7.32362 65.503 8.16072 65.472 9.24585V9.27685H63.488C63.488 8.62577 63.333 8.12972 63.023 7.81968C62.713 7.50965 62.217 7.35463 61.566 7.35463C60.946 7.35463 60.481 7.60266 60.14 8.09872C59.799 8.59477 59.613 9.21485 59.613 9.98994V12.0362C59.613 12.8113 59.799 13.4624 60.14 13.9584C60.512 14.4545 61.008 14.7025 61.659 14.7025C62.279 14.7025 62.713 14.5475 63.023 14.2374C63.333 13.9274 63.488 13.4314 63.488 12.7803H65.441V12.7493ZM76.663 11.9432C76.663 13.1833 76.26 14.2374 75.485 15.0435C74.71 15.8496 73.687 16.2527 72.416 16.2527C71.145 16.2527 70.153 15.8496 69.347 15.0435C68.572 14.2374 68.169 13.1833 68.169 11.9432V10.114C68.169 8.87381 68.572 7.85069 69.347 7.01359C70.122 6.20749 71.145 5.77344 72.385 5.77344C73.656 5.77344 74.679 6.17649 75.454 7.01359C76.26 7.81968 76.632 8.87381 76.632 10.114V11.9432H76.663ZM74.617 10.083C74.617 9.27685 74.431 8.65678 74.028 8.12972C73.625 7.63366 73.098 7.35463 72.385 7.35463C71.703 7.35463 71.145 7.60266 70.773 8.12972C70.401 8.62578 70.184 9.27685 70.184 10.083V11.9122C70.184 12.7183 70.37 13.3693 70.773 13.8964C71.145 14.3925 71.703 14.6715 72.385 14.6715C73.098 14.6715 73.625 14.4235 74.028 13.8964C74.431 13.4003 74.617 12.7183 74.617 11.9122V10.083ZM81.933 16.0977H79.887V5.92846H81.933V16.0977ZM93.682 16.0977H91.636L87.544 9.24585H87.513V16.0977H85.467V5.92846H87.513L91.605 12.7803H91.636V5.92846H93.682V16.0977ZM103.943 7.50965H101.029V16.0977H98.983V7.50965H96.131V5.92846H103.943V7.50965ZM112.375 11.6331H108.593V14.5475H113.088V16.0977H106.578V5.92846H113.088V7.50965H108.624V10.0519H112.406V11.6331H112.375ZM118.048 14.5475H122.605V16.0977H116.002V5.92846H118.048V14.5475ZM131.285 11.6331H127.503V14.5475H131.998V16.0977H125.488V5.92846H131.998V7.50965H127.534V10.0519H131.316V11.6331H131.285ZM142.724 14.7335C142.414 15.1366 141.949 15.5086 141.298 15.8186C140.678 16.1287 139.872 16.2837 138.88 16.2837C137.64 16.2837 136.648 15.9116 135.873 15.1366C135.098 14.3615 134.695 13.3693 134.695 12.1292V9.98994C134.695 8.74979 135.067 7.75767 135.842 6.98258C136.586 6.20749 137.578 5.80444 138.756 5.80444C139.996 5.80444 140.957 6.11448 141.608 6.70355C142.259 7.29262 142.6 8.06771 142.569 9.05983V9.09083H140.647C140.647 8.56377 140.492 8.12972 140.182 7.81968C139.872 7.50965 139.407 7.35463 138.818 7.35463C138.198 7.35463 137.702 7.60265 137.299 8.06771C136.927 8.56377 136.741 9.18384 136.741 9.92793V12.0672C136.741 12.8423 136.927 13.4624 137.33 13.9584C137.733 14.4545 138.26 14.6715 138.911 14.6715C139.407 14.6715 139.779 14.6095 140.058 14.5165C140.337 14.4235 140.554 14.2995 140.709 14.1444V12.1602H138.756V10.734H142.755V14.7335H142.724ZM147.994 12.0362V16.0977H145.948V5.92846H149.482C150.629 5.92846 151.559 6.20749 152.21 6.73455C152.861 7.26162 153.202 8.0057 153.202 8.93581C153.202 9.46287 153.078 9.89693 152.799 10.3C152.52 10.672 152.117 10.9821 151.59 11.2301C152.179 11.4161 152.613 11.6951 152.892 12.1292C153.14 12.5322 153.295 13.0593 153.295 13.6794V14.4235C153.295 14.7025 153.326 15.0125 153.419 15.3226C153.481 15.6326 153.636 15.8496 153.822 16.0047V16.1597H151.714C151.528 16.0047 151.404 15.7566 151.342 15.4156C151.28 15.0746 151.249 14.7335 151.249 14.4235V13.7104C151.249 13.2143 151.125 12.8113 150.846 12.5322C150.567 12.2532 150.164 12.0982 149.668 12.0982H147.994V12.0362ZM147.994 10.486H149.451C150.009 10.486 150.443 10.362 150.722 10.114C151.001 9.86593 151.156 9.52489 151.156 9.02883C151.156 8.56377 151.001 8.19172 150.722 7.91269C150.443 7.63366 150.04 7.50965 149.482 7.50965H147.994V10.486ZM161.851 13.9274H158.565L157.883 16.1287H155.744L159.185 5.95946H161.262L164.672 16.1287H162.533L161.851 13.9274ZM159.061 12.3152H161.355L160.239 8.71879H160.208L159.061 12.3152ZM169.198 12.4082V16.0977H167.152V5.92846H171.058C172.236 5.92846 173.135 6.23849 173.817 6.82756C174.499 7.41663 174.809 8.22273 174.809 9.18385C174.809 10.145 174.468 10.9511 173.817 11.5401C173.135 12.1292 172.236 12.4392 171.058 12.4392H169.198V12.4082ZM169.198 10.858H171.058C171.616 10.858 172.05 10.703 172.36 10.393C172.639 10.083 172.794 9.67991 172.794 9.21485C172.794 8.71879 172.639 8.31574 172.36 8.0057C172.081 7.69566 171.647 7.54064 171.058 7.54064H169.198V10.858ZM186 16.0977H183.954V11.8812H179.8V16.0977H177.754V5.92846H179.8V10.3H183.954V5.92846H186V16.0977Z" fill="#263238"/>
<path d="M61.287 32.715H60.016V26.019H57.722V24.934H63.581V26.019H61.287V32.715ZM69.812 32.715H68.541V29.088C68.541 28.623 68.448 28.282 68.262 28.065C68.076 27.848 67.797 27.724 67.394 27.724C66.867 27.724 66.495 27.879 66.247 28.189C65.999 28.499 65.875 29.026 65.875 29.77V32.684H64.635V24.407H65.875V26.515C65.875 26.856 65.844 27.197 65.813 27.6H65.906C66.061 27.321 66.309 27.104 66.619 26.949C66.929 26.794 67.27 26.701 67.673 26.701C69.099 26.701 69.812 27.414 69.812 28.871V32.715ZM74.121 32.808C73.191 32.808 72.478 32.529 71.982 32.002C71.455 31.475 71.207 30.731 71.207 29.801C71.207 28.84 71.455 28.096 71.92 27.538C72.385 26.98 73.067 26.701 73.904 26.701C74.679 26.701 75.299 26.949 75.733 27.414C76.198 27.879 76.415 28.53 76.415 29.367V30.049H72.478C72.509 30.607 72.664 31.072 72.943 31.351C73.222 31.661 73.656 31.816 74.183 31.816C74.524 31.816 74.865 31.785 75.144 31.723C75.454 31.661 75.764 31.537 76.105 31.382V32.405C75.795 32.56 75.485 32.653 75.175 32.715C74.896 32.777 74.524 32.808 74.121 32.808ZM73.904 27.662C73.501 27.662 73.191 27.786 72.943 28.034C72.695 28.282 72.571 28.654 72.509 29.15H75.175C75.175 28.654 75.051 28.282 74.834 28.034C74.617 27.786 74.307 27.662 73.904 27.662ZM83.607 27.755H82.181V32.715H80.91V27.755H79.949V27.166L80.91 26.794V26.422C80.91 25.74 81.065 25.213 81.406 24.872C81.747 24.531 82.243 24.376 82.894 24.376C83.328 24.376 83.762 24.438 84.196 24.593L83.855 25.554C83.545 25.461 83.266 25.399 82.956 25.399C82.677 25.399 82.46 25.492 82.336 25.647C82.212 25.833 82.15 26.081 82.15 26.422V26.794H83.576V27.755H83.607ZM88.784 32.715L88.598 31.94H88.536C88.35 32.219 88.102 32.436 87.792 32.591C87.482 32.746 87.11 32.839 86.707 32.839C85.994 32.839 85.467 32.653 85.095 32.312C84.723 31.971 84.568 31.413 84.568 30.7V26.825H85.839V30.452C85.839 30.917 85.932 31.227 86.118 31.475C86.304 31.692 86.583 31.816 86.986 31.816C87.513 31.816 87.885 31.661 88.133 31.351C88.381 31.041 88.505 30.514 88.505 29.77V26.825H89.776V32.715H88.784ZM93.744 31.785C94.054 31.785 94.364 31.723 94.674 31.63V32.56C94.55 32.622 94.364 32.684 94.147 32.715C93.93 32.746 93.713 32.777 93.465 32.777C92.287 32.777 91.698 32.157 91.698 30.917V27.755H90.892V27.197L91.76 26.732L92.194 25.492H92.969V26.794H94.643V27.755H92.969V30.917C92.969 31.227 93.031 31.444 93.186 31.599C93.279 31.723 93.496 31.785 93.744 31.785ZM99.975 32.715L99.789 31.94H99.727C99.541 32.219 99.293 32.436 98.983 32.591C98.673 32.746 98.301 32.839 97.898 32.839C97.185 32.839 96.658 32.653 96.286 32.312C95.945 31.971 95.759 31.413 95.759 30.7V26.825H97.03V30.452C97.03 30.917 97.123 31.227 97.309 31.475C97.495 31.692 97.774 31.816 98.177 31.816C98.704 31.816 99.076 31.661 99.324 31.351C99.572 31.041 99.696 30.514 99.696 29.77V26.825H100.967V32.715H99.975ZM105.741 26.701C105.989 26.701 106.206 26.732 106.361 26.763L106.237 27.941C106.051 27.91 105.865 27.879 105.679 27.879C105.183 27.879 104.78 28.034 104.47 28.375C104.16 28.716 104.005 29.119 104.005 29.646V32.715H102.765V26.825H103.757L103.912 27.848H103.974C104.16 27.507 104.439 27.228 104.749 27.011C105.028 26.825 105.369 26.701 105.741 26.701ZM109.802 32.808C108.872 32.808 108.159 32.529 107.663 32.002C107.136 31.475 106.888 30.731 106.888 29.801C106.888 28.84 107.136 28.096 107.601 27.538C108.066 26.98 108.748 26.701 109.585 26.701C110.36 26.701 110.98 26.949 111.414 27.414C111.879 27.879 112.096 28.53 112.096 29.367V30.049H108.159C108.19 30.607 108.345 31.072 108.624 31.351C108.903 31.661 109.337 31.816 109.864 31.816C110.205 31.816 110.546 31.785 110.825 31.723C111.135 31.661 111.445 31.537 111.786 31.382V32.405C111.476 32.56 111.166 32.653 110.856 32.715C110.546 32.777 110.205 32.808 109.802 32.808ZM109.585 27.662C109.182 27.662 108.872 27.786 108.624 28.034C108.376 28.282 108.252 28.654 108.19 29.15H110.856C110.856 28.654 110.732 28.282 110.515 28.034C110.267 27.786 109.957 27.662 109.585 27.662ZM121.551 29.739C121.551 30.7 121.303 31.444 120.807 32.002C120.311 32.529 119.629 32.808 118.761 32.808C118.203 32.808 117.738 32.684 117.304 32.436C116.87 32.188 116.56 31.816 116.343 31.351C116.126 30.886 116.002 30.359 116.002 29.739C116.002 28.778 116.25 28.034 116.746 27.507C117.242 26.98 117.924 26.701 118.823 26.701C119.66 26.701 120.342 26.98 120.838 27.538C121.334 28.096 121.551 28.809 121.551 29.739ZM117.273 29.739C117.273 31.103 117.769 31.785 118.792 31.785C119.784 31.785 120.28 31.103 120.28 29.739C120.28 28.406 119.784 27.724 118.792 27.724C118.265 27.724 117.893 27.91 117.645 28.251C117.397 28.592 117.273 29.088 117.273 29.739ZM125.953 27.755H124.527V32.715H123.256V27.755H122.295V27.166L123.256 26.794V26.422C123.256 25.74 123.411 25.213 123.752 24.872C124.093 24.531 124.589 24.376 125.24 24.376C125.674 24.376 126.108 24.438 126.542 24.593L126.201 25.554C125.891 25.461 125.612 25.399 125.302 25.399C125.023 25.399 124.806 25.492 124.682 25.647C124.558 25.802 124.496 26.081 124.496 26.422V26.794H125.922V27.755H125.953ZM134.757 32.715H133.486V29.088C133.486 28.623 133.393 28.313 133.238 28.065C133.083 27.848 132.804 27.724 132.432 27.724C131.936 27.724 131.595 27.879 131.378 28.189C131.161 28.499 131.037 29.026 131.037 29.77V32.715H129.797V26.825H130.789L130.975 27.6H131.037C131.192 27.321 131.44 27.104 131.75 26.949C132.06 26.794 132.401 26.732 132.773 26.732C133.672 26.732 134.292 27.042 134.571 27.662H134.664C134.85 27.383 135.098 27.135 135.408 26.98C135.718 26.825 136.09 26.732 136.493 26.732C137.206 26.732 137.702 26.918 138.043 27.259C138.353 27.6 138.539 28.158 138.539 28.871V32.715H137.299V29.088C137.299 28.623 137.206 28.313 137.051 28.065C136.865 27.848 136.617 27.724 136.245 27.724C135.749 27.724 135.408 27.879 135.191 28.189C134.974 28.499 134.85 28.964 134.85 29.584V32.715H134.757ZM145.421 29.739C145.421 30.7 145.173 31.444 144.677 32.002C144.181 32.529 143.499 32.808 142.631 32.808C142.073 32.808 141.608 32.684 141.174 32.436C140.74 32.188 140.43 31.816 140.213 31.351C139.996 30.886 139.872 30.359 139.872 29.739C139.872 28.778 140.12 28.034 140.616 27.507C141.112 26.98 141.794 26.701 142.693 26.701C143.53 26.701 144.212 26.98 144.708 27.538C145.173 28.096 145.421 28.809 145.421 29.739ZM141.143 29.739C141.143 31.103 141.639 31.785 142.662 31.785C143.654 31.785 144.15 31.103 144.15 29.739C144.15 28.406 143.654 27.724 142.662 27.724C142.135 27.724 141.763 27.91 141.515 28.251C141.267 28.592 141.143 29.088 141.143 29.739ZM152.055 32.715H150.784V29.088C150.784 28.623 150.691 28.282 150.505 28.065C150.319 27.848 150.04 27.724 149.637 27.724C149.11 27.724 148.707 27.879 148.49 28.189C148.273 28.499 148.118 29.026 148.118 29.77V32.715H146.878V26.825H147.87L148.056 27.6H148.118C148.304 27.321 148.552 27.104 148.862 26.949C149.172 26.794 149.544 26.732 149.947 26.732C151.373 26.732 152.055 27.445 152.055 28.902V32.715ZM156.364 32.808C155.434 32.808 154.721 32.529 154.225 32.002C153.698 31.475 153.45 30.731 153.45 29.801C153.45 28.84 153.698 28.096 154.163 27.538C154.628 26.98 155.31 26.701 156.147 26.701C156.922 26.701 157.542 26.949 157.976 27.414C158.441 27.879 158.658 28.53 158.658 29.367V30.049H154.721C154.752 30.607 154.907 31.072 155.186 31.351C155.465 31.661 155.899 31.816 156.426 31.816C156.767 31.816 157.108 31.785 157.387 31.723C157.666 31.661 158.007 31.537 158.348 31.382V32.405C158.038 32.56 157.728 32.653 157.418 32.715C157.108 32.777 156.767 32.808 156.364 32.808ZM156.116 27.662C155.713 27.662 155.403 27.786 155.155 28.034C154.907 28.282 154.783 28.654 154.721 29.15H157.387C157.387 28.654 157.263 28.282 157.046 28.034C156.829 27.786 156.519 27.662 156.116 27.662ZM158.968 26.825H160.332L161.541 30.173C161.727 30.638 161.851 31.103 161.913 31.506H161.944C161.975 31.32 162.037 31.072 162.13 30.793C162.223 30.514 162.657 29.181 163.494 26.825H164.858L162.347 33.49C161.882 34.699 161.138 35.319 160.053 35.319C159.774 35.319 159.495 35.288 159.247 35.226V34.234C159.433 34.265 159.65 34.296 159.898 34.296C160.487 34.296 160.921 33.955 161.169 33.242L161.386 32.684L158.968 26.825Z" fill="#263238"/>
</svg>

